<svg xmlns="http://www.w3.org/2000/svg" width="136" height="136" fill="none" viewBox="0 0 136 136">
  <path fill="#4A4A4A" d="M67.31 134.897c36.979 0 66.957-29.978 66.957-66.958H.352c0 36.98 29.978 66.958 66.958 66.958Z"/>
  <path fill="#292929" d="M67.31.981C30.33.981.352 30.96.352 67.94h133.915c0-36.98-29.978-66.958-66.957-66.958Z"/>
  <path fill="#242424" d="M45.92 4.444v40.245H88.7V4.375C72.002-.373 62.616-.724 45.92 4.444Z"/>
  <path fill="#353535" d="M3.854 89.328H45.92V44.689H4.5c-6.008 17.67-5.078 30.69-.646 44.639Z"/>
  <path fill="#434343" d="M88.699 44.69H45.92v44.638H88.7V44.689Z"/>
  <path fill="#5C5C5C" d="M88.699 131.388v-42.06H45.92v42.092c17.67 5.336 26.97 4.406 42.779-.032Z"/>
  <path fill="#353535" d="M88.699 44.69h41.444c6.164 16.464 6.59 26.264.637 44.638H88.699V44.689Z"/>
</svg>
