<svg xmlns="http://www.w3.org/2000/svg" width="1024" height="1024" fill="none" viewBox="0 0 1024 1024">
  <g clip-path="url(#a)">
    <path fill="#D9D9D9" d="M361.521 486.72c-10.64 0-18.52-3.44-23.64-10.32-5.04-6.96-7.56-17.76-7.56-32.4 0-14.48 2.56-25.2 7.68-32.16 5.2-7.04 13.08-10.56 23.64-10.56 2.24 0 4.44.2 6.6.6 2.16.4 4 .96 5.52 1.68.8.32 1.32.72 1.56 1.2.32.48.48 1.16.48 2.04 0 1.36-.32 2.92-.96 4.68-.64 1.76-1.56 2.32-2.76 1.68-3.36-1.68-6.84-2.52-10.44-2.52-6.88 0-11.96 2.68-15.24 8.04-3.28 5.36-4.92 13.76-4.92 25.2s1.6 19.88 4.8 25.32c3.28 5.44 8.36 8.16 15.24 8.16 4.16 0 7.92-1 11.28-3 .48-.16.84-.24 1.08-.24 1.04 0 1.84.72 2.4 2.16.64 1.36.96 2.68.96 3.96 0 .8-.2 1.52-.6 2.16-.4.64-1.16 1.24-2.28 1.8-1.36.64-3.2 1.24-5.52 1.8-2.32.48-4.76.72-7.32.72Zm50.949 0c-9.76 0-17.2-3.56-22.32-10.68-5.12-7.12-7.68-17.88-7.68-32.28 0-28.32 10-42.48 30-42.48 20.08 0 30.12 14.16 30.12 42.48 0 14.4-2.56 25.16-7.68 32.28-5.12 7.12-12.6 10.68-22.44 10.68Zm.12-9.12c12.64 0 18.96-11.28 18.96-33.84 0-22.24-6.32-33.36-18.96-33.36-6.32 0-11.08 2.72-14.28 8.16-3.12 5.36-4.68 13.76-4.68 25.2 0 22.56 6.32 33.84 18.96 33.84Zm75.316-20.28c-1.28 0-2.16-.52-2.64-1.56l-14.04-27.6c-1.12-2.24-2.32-5-3.6-8.28l-.48.24c.4 3.2.6 6.04.6 8.52v54.96c0 1.76-1.52 2.64-4.56 2.64h-1.44c-3.04 0-4.56-.88-4.56-2.64v-79.2c0-1.76 1.52-2.64 4.56-2.64h2.52c2.32 0 3.84.72 4.56 2.16l19.2 37.56c.88 1.76 1.52 3.68 1.92 5.76.4-2.08 1.04-4 1.92-5.76l19.2-37.56c.72-1.44 2.24-2.16 4.56-2.16h2.52c3.04 0 4.56.88 4.56 2.64v79.2c0 1.76-1.52 2.64-4.56 2.64h-1.44c-3.04 0-4.56-.88-4.56-2.64v-54.96c0-2.48.2-5.32.6-8.52l-.48-.24c-1.28 3.28-2.48 6.04-3.6 8.28l-14.04 27.6c-.48 1.04-1.36 1.56-2.64 1.56h-4.08Zm58.134 28.92c-3.04 0-4.56-.88-4.56-2.64v-79.2c0-1.76 1.52-2.64 4.56-2.64h1.8c2.96 0 4.44.88 4.44 2.64v79.2c0 1.76-1.48 2.64-4.44 2.64h-1.8Zm29.846 0c-3.04 0-4.56-.88-4.56-2.64v-79.2c0-1.76 1.52-2.64 4.56-2.64h2.88c1.2 0 2.16.2 2.88.6.72.32 1.32.92 1.8 1.8l27.84 53.64c1.12 2.08 2.16 4.6 3.12 7.56l.6-.24c-.64-2.8-.96-5.44-.96-7.92v-52.8c0-1.76 1.52-2.64 4.56-2.64h1.44c3.04 0 4.56.88 4.56 2.64v79.2c0 1.76-1.52 2.64-4.56 2.64h-2.52c-2.24 0-3.68-.6-4.32-1.8L584.646 429c-1.12-2.08-2.16-4.6-3.12-7.56l-.6.24c.64 2.8.96 5.44.96 7.92v54c0 1.76-1.52 2.64-4.56 2.64h-1.44Zm112.302-46.08c2.16 0 3.24 1.2 3.24 3.6v34.32c0 3.04-2.2 5.24-6.6 6.6-4.4 1.36-9.48 2.04-15.24 2.04-20.24 0-30.36-14-30.36-42 0-14.72 2.64-25.64 7.92-32.76 5.28-7.12 13.12-10.68 23.52-10.68 2.96 0 5.92.4 8.88 1.2 2.96.8 5.4 1.8 7.32 3 2 1.12 3 2.2 3 3.24 0 1.12-.52 2.56-1.56 4.32-1.04 1.76-1.96 2.64-2.76 2.64-.24 0-1.08-.44-2.52-1.32-1.44-.96-3.2-1.8-5.28-2.52-2-.72-4.32-1.08-6.96-1.08-7.2 0-12.4 2.8-15.6 8.4-3.2 5.52-4.8 13.68-4.8 24.48 0 10.16 1.52 18.36 4.56 24.6 3.04 6.24 8.04 9.36 15 9.36 4.24 0 7.8-.52 10.68-1.56v-26.76h-10.2c-.8 0-1.4-.28-1.8-.84-.4-.56-.6-1.48-.6-2.76v-1.92c0-1.28.2-2.2.6-2.76.4-.56 1-.84 1.8-.84h17.76ZM237.611 624c-1.12 0-1.96-.28-2.52-.84-.48-.56-.72-1.48-.72-2.76v-76.8c0-1.28.24-2.2.72-2.76.56-.56 1.4-.84 2.52-.84h34.56c1.52 0 2.28 1.2 2.28 3.6v1.92c0 2.4-.76 3.6-2.28 3.6h-27v27.36h24.24c1.52 0 2.28 1.2 2.28 3.6V582c0 2.4-.76 3.6-2.28 3.6h-24.24v29.28h27c.8 0 1.36.28 1.68.84.4.56.6 1.48.6 2.76v1.92c0 1.28-.2 2.2-.6 2.76-.32.56-.88.84-1.68.84h-34.56Zm70.083.24c-2.56 0-4-.64-4.32-1.92l-20.88-78.96-.24-.72a2.66 2.66 0 0 1-.12-.84c0-1.36 1.6-2.04 4.8-2.04h1.68c2.64 0 4.12.64 4.44 1.92l14.88 59.4c.72 2.64 1.48 6.2 2.28 10.68h.36c.24-1.68 1.04-5.24 2.4-10.68l14.76-59.4c.32-1.28 1.8-1.92 4.44-1.92h1.44c3.2 0 4.8.68 4.8 2.04 0 .4-.12.96-.36 1.68l-20.88 78.84c-.32 1.28-1.8 1.92-4.44 1.92h-5.04Zm45.698-.24c-1.12 0-1.96-.28-2.52-.84-.48-.56-.72-1.48-.72-2.76v-76.8c0-1.28.24-2.2.72-2.76.56-.56 1.4-.84 2.52-.84h34.56c1.52 0 2.28 1.2 2.28 3.6v1.92c0 2.4-.76 3.6-2.28 3.6h-27v27.36h24.24c1.52 0 2.28 1.2 2.28 3.6V582c0 2.4-.76 3.6-2.28 3.6h-24.24v29.28h27c.8 0 1.36.28 1.68.84.4.56.6 1.48.6 2.76v1.92c0 1.28-.2 2.2-.6 2.76-.32.56-.88.84-1.68.84h-34.56Zm55.444.24c-3.04 0-4.56-.88-4.56-2.64v-79.2c0-1.76 1.52-2.64 4.56-2.64h2.88c1.2 0 2.16.2 2.88.6.72.32 1.32.92 1.8 1.8l27.84 53.64c1.12 2.08 2.16 4.6 3.12 7.56l.6-.24c-.64-2.8-.96-5.44-.96-7.92v-52.8c0-1.76 1.52-2.64 4.56-2.64h1.44c3.04 0 4.56.88 4.56 2.64v79.2c0 1.76-1.52 2.64-4.56 2.64h-2.52c-2.24 0-3.68-.6-4.32-1.8L417.596 567c-1.12-2.08-2.16-4.6-3.12-7.56l-.6.24c.64 2.8.96 5.44.96 7.92v54c0 1.76-1.52 2.64-4.56 2.64h-1.44Zm83.981 0c-3.04 0-4.56-.88-4.56-2.64v-72.48h-17.28c-1.52 0-2.28-1.2-2.28-3.6v-1.92c0-2.4.76-3.6 2.28-3.6h45.12c.88 0 1.48.28 1.8.84.4.56.6 1.48.6 2.76v1.92c0 1.28-.2 2.2-.6 2.76-.32.56-.92.84-1.8.84h-17.04v72.48c0 1.76-1.52 2.64-4.56 2.64h-1.68Zm63.012.48c-8.56 0-15.2-2.12-19.92-6.36-4.64-4.24-6.96-10.16-6.96-17.76v-58.2c0-1.76 1.52-2.64 4.56-2.64h1.68c3.04 0 4.56.88 4.56 2.64v58.56c0 4.32 1.48 7.84 4.44 10.56 3.04 2.72 6.92 4.08 11.64 4.08 4.64 0 8.44-1.36 11.4-4.08 3.04-2.8 4.56-6.32 4.56-10.56V542.4c0-1.76 1.52-2.64 4.56-2.64h1.68c3.04 0 4.56.88 4.56 2.64v58.2c0 7.6-2.32 13.52-6.96 17.76-4.64 4.24-11.24 6.36-19.8 6.36Zm40.921-.48c-2.96 0-4.44-.68-4.44-2.04 0-.24.08-.76.24-1.56l21.72-78.6c.48-1.52 2.08-2.28 4.8-2.28h3.84c2.88 0 4.48.76 4.8 2.28l21.72 78.6c.24.56.36 1.08.36 1.56 0 .64-.4 1.16-1.2 1.56-.72.32-1.8.48-3.24.48h-2.04c-2.56 0-4-.64-4.32-1.92l-5.16-19.68h-25.8l-5.04 19.68c-.32 1.28-1.76 1.92-4.32 1.92h-1.92Zm34.44-30.72-8.52-32.88c-.24-1.04-.68-3.48-1.32-7.32h-.6c-.16.56-.32 1.48-.48 2.76l-.96 4.56-8.52 32.88h20.4ZM663.936 624c-1.12 0-1.96-.28-2.52-.84-.48-.56-.72-1.48-.72-2.76v-78c0-1.76 1.52-2.64 4.56-2.64h1.68c3.04 0 4.56.88 4.56 2.64v72.48h24.96c.88 0 1.48.28 1.8.84.4.56.6 1.48.6 2.76v1.92c0 1.28-.2 2.2-.6 2.76-.32.56-.92.84-1.8.84h-32.52Zm47.812 0c-1.12 0-1.96-.28-2.52-.84-.48-.56-.72-1.48-.72-2.76v-78c0-1.76 1.52-2.64 4.56-2.64h1.68c3.04 0 4.56.88 4.56 2.64v72.48h24.96c.88 0 1.48.28 1.8.84.4.56.6 1.48.6 2.76v1.92c0 1.28-.2 2.2-.6 2.76-.32.56-.92.84-1.8.84h-32.52Zm57.436.24c-3.04 0-4.56-.88-4.56-2.64v-35.64l-20.4-42c-.56-.96-.84-1.68-.84-2.16 0-1.36 1.68-2.04 5.04-2.04h2.16c1.36 0 2.4.12 3.12.36.72.24 1.24.72 1.56 1.44l15.12 33.84 15.24-33.96c.24-.64.76-1.08 1.56-1.32.88-.24 1.96-.36 3.24-.36h1.68c1.6.08 2.76.28 3.48.6.72.32 1.08.8 1.08 1.44 0 .56-.24 1.28-.72 2.16l-20.52 42.36v35.28c0 1.76-1.52 2.64-4.56 2.64h-1.68Z"/>
  </g>
  <defs>
    <clipPath id="a">
      <path fill="#fff" d="M0 0h1024v1024H0z"/>
    </clipPath>
  </defs>
</svg>
