<svg xmlns="http://www.w3.org/2000/svg" width="1024" height="1024" fill="none" viewBox="0 0 1024 1024">
  <path fill="#3D3E40" d="m78 519.799 9.136 4.3s23.914-62.338 15.584-62.338c-8.33 0-24.72 16.122-24.72 29.019v29.019Zm868.31 0-9.135 4.3s-23.914-62.338-15.585-62.338c8.33 0 24.72 16.122 24.72 29.019v29.019Z"/>
  <path fill="#767678" d="M82.568 521.143c0-31.015 25.143-56.158 56.158-56.158H897.02c23.133 0 41.886 18.753 41.886 41.886v10.523c0 2.602.877 5.129 2.489 7.171a11.56 11.56 0 0 1 2.144 4.365l1.106 4.42c.65 2.6.978 5.27.978 7.95v312.714c0 55.229-44.771 100-100 100H178.269c-55.229 0-100-44.771-100-100V540.101c0-1.886.157-3.775.591-5.61.274-1.156.583-2.215 1.043-3.319 1.344-3.229 2.665-6.532 2.665-10.029Z"/>
  <rect width="843.709" height="477.744" x="89.554" y="464.985" fill="#8C8D91" rx="80"/>
  <path fill="#8C8D91" stroke="#767678" stroke-width="4" d="M164.839 72h696.363c34.242 0 62 27.758 62 62v324.564c0 33.176-26.198 60.491-59.345 61.865-291.582 12.09-385.115 9.167-691.68-.41l-9.113-.285c-33.486-1.046-60.225-28.497-60.225-61.987V134c0-34.242 27.759-62 62-62Z"/>
  <rect width="412.182" height="347.694" x="305.587" y="530.547" fill="#84858B" rx="12"/>
  <rect width="418.63" height="324.049" x="303.437" y="125.352" fill="#2D2E30" rx="12"/>
  <rect width="367.04" height="275.146" x="328.157" y="541.294" fill="#454444" rx="12"/>
  <path fill="#767678" d="M130.081 519.729c376.828 11.683 411.766 15.99 761.417.69 8.901-.39 17.549-4.176 23.763-10.562l1.88-2.149c-6.717-3.225-6.717-3.493-17.465-8.867-282.054 9.128-486.373 9.252-771.43.537-7.792 4.299-7.254 4.031-17.196 9.405l1.238 1.68a22.796 22.796 0 0 0 6.112 5.709c3.455 2.198 7.588 3.43 11.681 3.557Z"/>
  <rect width="377.788" height="284.282" x="323.858" y="147.385" fill="#454444" rx="4"/>
  <circle cx="151.354" cy="336.01" r="2.687" fill="#000"/>
  <circle cx="171.238" cy="336.01" r="2.687" fill="#000"/>
  <circle cx="191.122" cy="336.01" r="2.687" fill="#000"/>
  <circle cx="211.005" cy="336.01" r="2.687" fill="#000"/>
  <circle cx="230.889" cy="336.01" r="2.687" fill="#000"/>
  <circle cx="250.772" cy="336.01" r="2.687" fill="#646363"/>
  <circle cx="270.656" cy="336.01" r="2.687" fill="#646363"/>
  <circle cx="151.354" cy="363.417" r="2.687" fill="#000"/>
  <circle cx="171.238" cy="363.417" r="2.687" fill="#000"/>
  <circle cx="191.122" cy="363.417" r="2.687" fill="#000"/>
  <circle cx="211.005" cy="363.417" r="2.687" fill="#000"/>
  <circle cx="230.889" cy="363.417" r="2.687" fill="#000"/>
  <circle cx="250.772" cy="363.417" r="2.687" fill="#000"/>
  <circle cx="270.656" cy="363.417" r="2.687" fill="#646363"/>
  <circle cx="151.354" cy="390.824" r="2.687" fill="#000"/>
  <circle cx="171.238" cy="390.824" r="2.687" fill="#000"/>
  <circle cx="191.122" cy="390.824" r="2.687" fill="#000"/>
  <circle cx="211.005" cy="390.824" r="2.687" fill="#000"/>
  <circle cx="230.889" cy="390.824" r="2.687" fill="#000"/>
  <circle cx="250.772" cy="390.824" r="2.687" fill="#000"/>
  <circle cx="270.656" cy="390.824" r="2.687" fill="#646363"/>
  <circle cx="151.354" cy="418.232" r="2.687" fill="#000"/>
  <circle cx="171.238" cy="418.232" r="2.687" fill="#000"/>
  <circle cx="191.122" cy="418.232" r="2.687" fill="#000"/>
  <circle cx="211.005" cy="418.232" r="2.687" fill="#000"/>
  <circle cx="230.889" cy="418.232" r="2.687" fill="#000"/>
  <circle cx="250.772" cy="418.232" r="2.687" fill="#000"/>
  <circle cx="270.656" cy="418.232" r="2.687" fill="#646363"/>
  <circle cx="754.848" cy="336.01" r="2.687" fill="#646363"/>
  <circle cx="774.732" cy="336.01" r="2.687" fill="#646363"/>
  <circle cx="794.615" cy="336.01" r="2.687" fill="#000"/>
  <circle cx="814.499" cy="336.01" r="2.687" fill="#000"/>
  <circle cx="834.383" cy="336.01" r="2.687" fill="#000"/>
  <circle cx="854.266" cy="336.01" r="2.687" fill="#000"/>
  <circle cx="874.15" cy="336.01" r="2.687" fill="#000"/>
  <circle cx="754.848" cy="363.417" r="2.687" fill="#646363"/>
  <circle cx="774.732" cy="363.417" r="2.687" fill="#000"/>
  <circle cx="794.615" cy="363.417" r="2.687" fill="#000"/>
  <circle cx="814.499" cy="363.417" r="2.687" fill="#000"/>
  <circle cx="834.383" cy="363.417" r="2.687" fill="#000"/>
  <circle cx="854.266" cy="363.417" r="2.687" fill="#000"/>
  <circle cx="874.15" cy="363.417" r="2.687" fill="#000"/>
  <circle cx="754.848" cy="390.824" r="2.687" fill="#646363"/>
  <circle cx="774.732" cy="390.824" r="2.687" fill="#000"/>
  <circle cx="794.615" cy="390.824" r="2.687" fill="#000"/>
  <circle cx="814.499" cy="390.824" r="2.687" fill="#000"/>
  <circle cx="834.383" cy="390.824" r="2.687" fill="#000"/>
  <circle cx="854.266" cy="390.824" r="2.687" fill="#000"/>
  <circle cx="874.15" cy="390.824" r="2.687" fill="#000"/>
  <circle cx="754.848" cy="418.232" r="2.687" fill="#646363"/>
  <circle cx="774.732" cy="418.232" r="2.687" fill="#000"/>
  <circle cx="794.615" cy="418.232" r="2.687" fill="#000"/>
  <circle cx="814.499" cy="418.232" r="2.687" fill="#000"/>
  <circle cx="834.383" cy="418.232" r="2.687" fill="#000"/>
  <circle cx="854.266" cy="418.232" r="2.687" fill="#000"/>
  <circle cx="874.15" cy="418.232" r="2.687" fill="#000"/>
  <path fill="#84858B" d="M137.92 552.043h86.52v34.931h-86.52z"/>
  <rect width="58.039" height="24.72" x="152.429" y="557.417" fill="#3D3E40" rx="4"/>
  <path fill="#7E7F86" d="M156.436 625.935v44.604h-41.087c-3.004 14.741-2.76 32.276 0 47.022h41.087v42.185c14.764 3.589 35.066 3.184 49.219 0v-42.185h41.087c2.887-14.461 3.14-31.968 0-47.022h-41.917v-44.604c-13.533-3.147-33.116-3.1-48.389 0Z"/>
  <path fill="#3D3E40" d="M160.527 628.379V674.3h-41.685c-2.784 13.689-2.557 26.075 0 39.768h42.454v42.511c13.681 3.333 27.422 2.957 40.536 0v-42.511h42.879c2.676-13.429 2.91-25.789 0-39.768h-43.648v-45.921c-12.54-2.922-26.383-2.879-40.536 0Z"/>
  <path fill="#84858A" d="M816.649 667.851h-21.496c-14.691 0-26.601 11.91-26.601 26.601 0 14.692 11.91 26.601 26.601 26.601h21.496v21.496c0 14.691 11.91 26.601 26.601 26.601 14.691 0 26.601-11.91 26.601-26.601v-21.496h21.496c14.691 0 26.601-11.909 26.601-26.601 0-14.691-11.91-26.601-26.601-26.601h-21.496v-21.496c0-14.691-11.91-26.601-26.601-26.601-14.691 0-26.601 11.91-26.601 26.601v21.496Z"/>
  <rect width="42" height="42" x="766" y="693.698" fill="#3D3E40" rx="21" transform="rotate(-45 766 693.698)"/>
  <rect width="42" height="42" x="814" y="646.698" fill="#3D3E40" rx="21" transform="rotate(-45 814 646.698)"/>
  <rect width="42" height="42" x="814" y="742.698" fill="#535557" rx="21" transform="rotate(-45 814 742.698)"/>
  <rect width="42" height="42" x="862" y="693.698" fill="#535557" rx="21" transform="rotate(-45 862 693.698)"/>
  <path fill="#303133" d="M838.468 656.04c-.131 0-.215-.038-.252-.112-.038-.075-.038-.168 0-.28l3.836-9.324a.268.268 0 0 0 0-.168l-3.836-9.324a.389.389 0 0 1-.028-.168c0-.15.093-.224.28-.224h2.66c.186 0 .308.093.364.28l2.24 6.076c.018.056.046.084.084.084.037 0 .065-.028.084-.084l2.212-6.076c.056-.187.177-.28.364-.28h2.632c.13 0 .214.037.252.112.037.074.037.168 0 .28l-3.836 9.324a.255.255 0 0 0 0 .168l3.836 9.324a.398.398 0 0 1 .028.168c0 .149-.094.224-.28.224h-2.604c-.206 0-.336-.094-.392-.28l-2.212-6.048c-.019-.056-.047-.084-.084-.084-.038 0-.066.028-.084.084l-2.24 6.048c-.056.186-.187.28-.392.28h-2.632Zm-44.261 48.263a.41.41 0 0 1-.252-.084.41.41 0 0 1-.084-.252v-7.644l-.028-.168-3.892-11.032a.323.323 0 0 1-.028-.14c0-.168.103-.252.308-.252h2.688c.206 0 .336.093.392.28l2.1 7.196c.019.056.047.084.084.084.038 0 .066-.028.084-.084l2.1-7.196c.056-.187.187-.28.392-.28h2.688c.112 0 .196.037.252.112.056.056.066.149.028.28l-3.892 11.032-.028.168v7.644a.348.348 0 0 1-.112.252.302.302 0 0 1-.224.084h-2.576Z"/>
  <path fill="#444647" d="M848.157 745.633c0 1.718-.504 3.043-1.512 3.976-.99.934-2.287 1.4-3.892 1.4h-4.928a.407.407 0 0 1-.252-.084.407.407 0 0 1-.084-.252v-18.928c0-.093.028-.168.084-.224a.349.349 0 0 1 .252-.112h4.424c1.773 0 3.164.448 4.172 1.344 1.008.896 1.512 2.203 1.512 3.92 0 1.923-.682 3.295-2.044 4.116-.094.056-.112.112-.056.168a4.875 4.875 0 0 1 1.708 1.876c.41.784.616 1.718.616 2.8Zm-7.28-11.424c-.094 0-.14.047-.14.14v5.208c0 .094.046.14.14.14h1.428c.765 0 1.362-.233 1.792-.7.429-.466.644-1.129.644-1.988 0-.896-.215-1.586-.644-2.072-.43-.485-1.027-.728-1.792-.728h-1.428Zm1.624 13.972c.746 0 1.334-.261 1.764-.784.429-.522.644-1.26.644-2.212 0-.97-.215-1.726-.644-2.268-.43-.56-1.018-.84-1.764-.84h-1.624c-.094 0-.14.047-.14.14v5.824c0 .094.046.14.14.14h1.624Zm49.506-46.538c-.224 0-.345-.103-.364-.308l-.532-2.94c0-.093-.056-.14-.168-.14h-4.088c-.112 0-.168.047-.168.14l-.532 2.94c-.018.205-.14.308-.364.308h-2.548c-.261 0-.364-.121-.308-.364l4.144-18.928c.038-.205.159-.308.364-.308h2.968c.206 0 .327.103.364.308l4.144 18.928v.112c0 .168-.102.252-.308.252h-2.604Zm-4.816-6.076c-.018.093.028.14.14.14h3.108c.112 0 .159-.047.14-.14l-1.624-8.848c-.018-.056-.046-.084-.084-.084-.037 0-.065.028-.084.084l-1.596 8.848Z"/>
  <rect width="129.512" height="30.094" x="779.031" y="554.73" fill="#84858B" rx="15.047"/>
  <path fill="#3D3E40" d="M783.868 569.777c0-6.233 5.052-11.285 11.285-11.285h41.917v22.57h-41.917c-6.233 0-11.285-5.052-11.285-11.285Zm120.376 0c0 6.232-5.053 11.285-11.285 11.285h-41.917v-22.571h41.917c6.232 0 11.285 5.053 11.285 11.286Z"/>
  <path fill="#767678" d="M344.12 914.296h1.935l2.591 6.324h.102l2.591-6.324h1.935v8.727h-1.517v-5.995h-.081l-2.412 5.97h-1.134l-2.412-5.983h-.081v6.008h-1.517v-8.727Zm13.416 0v8.727h-1.581v-8.727h1.581Zm10.142 2.945h-1.593a1.998 1.998 0 0 0-.252-.695 1.87 1.87 0 0 0-1.078-.839 2.424 2.424 0 0 0-.746-.111c-.474 0-.895.119-1.261.358-.366.236-.653.582-.861 1.04-.207.454-.311 1.01-.311 1.666 0 .667.104 1.23.311 1.687.21.455.497.799.861 1.032.366.23.786.345 1.257.345.261 0 .506-.034.733-.103.23-.071.436-.174.618-.311.185-.136.339-.304.464-.502.128-.199.216-.427.265-.682l1.593.008a3.438 3.438 0 0 1-.387 1.168 3.433 3.433 0 0 1-1.888 1.611c-.426.153-.899.23-1.419.23-.767 0-1.452-.178-2.054-.533-.602-.355-1.077-.868-1.423-1.538-.347-.671-.52-1.475-.52-2.412 0-.941.174-1.745.524-2.412.349-.671.825-1.183 1.427-1.538.603-.356 1.284-.533 2.046-.533.486 0 .937.068 1.355.204.418.137.79.337 1.116.601.327.262.596.583.806.963.213.378.352.81.417 1.296Zm3.29 5.876a.911.911 0 0 1-.664-.273.88.88 0 0 1-.273-.664.873.873 0 0 1 .273-.657.914.914 0 0 1 .664-.272.9.9 0 0 1 .652.272.897.897 0 0 1 .149 1.13.982.982 0 0 1-.34.341.894.894 0 0 1-.461.123Z"/>
  <rect width="23.645" height="23.645" x="762.909" y="99.019" fill="#98999C" rx="4"/>
  <path fill="#111314" d="M327.62 909.41h7.524v16.122h-7.524z"/>
  <rect width="23.645" height="23.645" x="238.412" y="446.713" fill="#87888A" rx="4"/>
  <rect width="23.645" height="23.645" x="238.412" y="99.019" fill="#98999C" rx="4"/>
  <rect width="23.645" height="23.645" x="762.909" y="446.713" fill="#87888A" rx="4"/>
  <path fill="#111314" d="M667.253 909.41h7.524v16.122h-7.524z"/>
  <path fill="#23D206" d="M687.674 909.41h7.524v16.122h-7.524z"/>
  <path fill="#9E9EA3" d="M324.933 482.719h376.714v13.972H324.933z"/>
  <path stroke="#84858B" stroke-width="8" d="M94.928 530.547h162.714c11.046 0 20 8.955 20 20v307.695c0 11.045-8.954 20-20 20H94.928m833.499-347.695H765.713c-11.046 0-20 8.955-20 20v307.695c0 11.045 8.954 20 20 20h162.714"/>
  <path fill="#818184" d="M513.558 476.27H349.116v-16.122h164.442v16.122Zm163.368 0h-32.781v-16.122h32.781v16.122Z"/>
  <path stroke="#616163" stroke-width="4" d="M346.847 460.536v62.258l-20.989-1.128v-61.13h20.989Zm164.442 64.757-160.442-2.359v-62.398h160.442v64.757Zm4 .017v-64.774h127.148l.759 63.993-127.907.781Zm131.906-.894-.758-63.88h29.295v62.465l-28.537 1.415Zm32.537-44.653v-19.227h19.914v61.134l-19.914 1.119v-43.026Z"/>
  <path fill="#616163" d="M644.145 458.536H513.021v17.734h131.124v-17.734Zm57.501 1.612h-24.72v16.122h24.72v-16.122Z"/>
  <circle cx="181.986" cy="692.303" r="16.122" fill="#353638"/>
  <path fill="#616163" d="M349.116 460.148h-24.72v16.122h24.72v-16.122Z"/>
  <path fill="#303133" d="M865.053 574.678c-.775 0-1.4-.233-1.876-.7-.476-.466-.714-1.078-.714-1.834v-.364c0-.046.014-.084.042-.112a.174.174 0 0 1 .126-.056h1.274c.046 0 .084.019.112.056a.135.135 0 0 1 .056.112v.28c0 .364.088.658.266.882a.887.887 0 0 0 .714.336.921.921 0 0 0 .714-.308c.186-.214.28-.494.28-.84 0-.242-.052-.452-.154-.63a1.986 1.986 0 0 0-.434-.504 17.435 17.435 0 0 0-.896-.686 13.202 13.202 0 0 1-1.134-.896 3.607 3.607 0 0 1-.714-.938c-.187-.373-.28-.802-.28-1.288 0-.774.233-1.39.7-1.848.466-.457 1.082-.686 1.848-.686.774 0 1.4.243 1.876.728.476.476.714 1.111.714 1.904v.336a.174.174 0 0 1-.056.126.152.152 0 0 1-.112.042h-1.26a.203.203 0 0 1-.126-.042.203.203 0 0 1-.042-.126v-.364c0-.364-.094-.653-.28-.868a.865.865 0 0 0-.714-.336.865.865 0 0 0-.686.308c-.178.196-.266.472-.266.826 0 .336.093.621.28.854.196.234.574.556 1.134.966.569.42.998.766 1.288 1.036.289.262.513.551.672.868.158.318.238.696.238 1.134 0 .794-.238 1.433-.714 1.918-.476.476-1.102.714-1.876.714Zm8.663-9.912c.047 0 .084.019.112.056a.135.135 0 0 1 .056.112v1.064a.174.174 0 0 1-.056.126.15.15 0 0 1-.112.042h-1.778c-.047 0-.07.024-.07.07v8.162a.174.174 0 0 1-.056.126.15.15 0 0 1-.112.042h-1.288a.203.203 0 0 1-.126-.042.203.203 0 0 1-.042-.126v-8.162c0-.046-.023-.07-.07-.07h-1.68a.203.203 0 0 1-.126-.042.203.203 0 0 1-.042-.126v-1.064c0-.046.014-.084.042-.112a.174.174 0 0 1 .126-.056h5.222Zm4.61 9.8c-.112 0-.172-.051-.182-.154l-.266-1.47c0-.046-.028-.07-.084-.07h-2.044c-.056 0-.084.024-.084.07l-.266 1.47c-.009.103-.07.154-.182.154h-1.274c-.13 0-.182-.06-.154-.182l2.072-9.464c.019-.102.08-.154.182-.154h1.484c.103 0 .164.052.182.154l2.072 9.464v.056c0 .084-.051.126-.154.126h-1.302Zm-2.408-3.038c-.009.047.014.07.07.07h1.554c.056 0 .08-.023.07-.07l-.812-4.424c-.009-.028-.023-.042-.042-.042-.018 0-.032.014-.042.042l-.798 4.424Zm8.695 3.038c-.093 0-.154-.046-.182-.14l-1.19-4.018c-.019-.037-.042-.056-.07-.056h-.742c-.047 0-.07.024-.07.07v3.976a.174.174 0 0 1-.056.126.15.15 0 0 1-.112.042h-1.288a.203.203 0 0 1-.126-.042.203.203 0 0 1-.042-.126v-9.464c0-.046.014-.084.042-.112a.174.174 0 0 1 .126-.056h2.632c.495 0 .929.122 1.302.364.383.234.677.57.882 1.008.215.43.322.924.322 1.484 0 .579-.112 1.078-.336 1.498a2.25 2.25 0 0 1-.938.952c-.037.01-.051.038-.042.084l1.372 4.214a.162.162 0 0 1 .014.07c0 .084-.051.126-.154.126h-1.344Zm-2.184-8.4c-.047 0-.07.024-.07.07v2.786c0 .047.023.07.07.07h.854a.98.98 0 0 0 .812-.392c.215-.261.322-.616.322-1.064 0-.448-.107-.802-.322-1.064a.972.972 0 0 0-.812-.406h-.854Zm9.785-1.4c.047 0 .084.019.112.056a.135.135 0 0 1 .056.112v1.064a.174.174 0 0 1-.056.126.15.15 0 0 1-.112.042h-1.778c-.047 0-.07.024-.07.07v8.162a.174.174 0 0 1-.056.126.15.15 0 0 1-.112.042h-1.288a.203.203 0 0 1-.126-.042.203.203 0 0 1-.042-.126v-8.162c0-.046-.023-.07-.07-.07h-1.68a.203.203 0 0 1-.126-.042.203.203 0 0 1-.042-.126v-1.064c0-.046.014-.084.042-.112a.174.174 0 0 1 .126-.056h5.222Zm-95.697 9.912c-.775 0-1.4-.233-1.876-.7-.476-.466-.714-1.078-.714-1.834v-.364c0-.046.014-.084.042-.112a.174.174 0 0 1 .126-.056h1.274c.046 0 .084.019.112.056a.135.135 0 0 1 .056.112v.28c0 .364.088.658.266.882a.887.887 0 0 0 .714.336.921.921 0 0 0 .714-.308c.186-.214.28-.494.28-.84 0-.242-.052-.452-.154-.63a1.986 1.986 0 0 0-.434-.504 17.435 17.435 0 0 0-.896-.686 13.202 13.202 0 0 1-1.134-.896 3.607 3.607 0 0 1-.714-.938c-.187-.373-.28-.802-.28-1.288 0-.774.233-1.39.7-1.848.466-.457 1.082-.686 1.848-.686.774 0 1.4.243 1.876.728.476.476.714 1.111.714 1.904v.336a.174.174 0 0 1-.056.126.152.152 0 0 1-.112.042h-1.26a.203.203 0 0 1-.126-.042.203.203 0 0 1-.042-.126v-.364c0-.364-.094-.653-.28-.868a.865.865 0 0 0-.714-.336.865.865 0 0 0-.686.308c-.178.196-.266.472-.266.826 0 .336.093.621.28.854.196.234.574.556 1.134.966.569.42.998.766 1.288 1.036.289.262.513.551.672.868.158.318.238.696.238 1.134 0 .794-.238 1.433-.714 1.918-.476.476-1.102.714-1.876.714Zm8.591-8.68a.17.17 0 0 1-.056.126.15.15 0 0 1-.112.042h-3.024c-.046 0-.07.024-.07.07v2.646c0 .047.024.07.07.07h1.792c.047 0 .084.019.112.056a.132.132 0 0 1 .056.112v1.078a.17.17 0 0 1-.056.126.15.15 0 0 1-.112.042h-1.792c-.046 0-.07.024-.07.07v2.66c0 .047.024.07.07.07h3.024c.047 0 .084.019.112.056a.132.132 0 0 1 .056.112v1.064a.17.17 0 0 1-.056.126.15.15 0 0 1-.112.042h-4.55a.208.208 0 0 1-.126-.042.203.203 0 0 1-.042-.126v-9.464c0-.046.014-.084.042-.112a.178.178 0 0 1 .126-.056h4.55c.047 0 .084.019.112.056a.132.132 0 0 1 .056.112v1.064Zm1.366 8.568a.208.208 0 0 1-.126-.042.203.203 0 0 1-.042-.126v-9.464c0-.046.014-.084.042-.112a.178.178 0 0 1 .126-.056h1.288c.047 0 .084.019.112.056a.132.132 0 0 1 .056.112v8.162c0 .047.024.07.07.07h3.024c.047 0 .084.019.112.056a.132.132 0 0 1 .056.112v1.064a.17.17 0 0 1-.056.126.15.15 0 0 1-.112.042h-4.55Zm10.529-8.568a.174.174 0 0 1-.056.126.152.152 0 0 1-.112.042h-3.024c-.047 0-.07.024-.07.07v2.646c0 .047.023.07.07.07h1.792c.046 0 .084.019.112.056a.135.135 0 0 1 .056.112v1.078a.174.174 0 0 1-.056.126.152.152 0 0 1-.112.042h-1.792c-.047 0-.07.024-.07.07v2.66c0 .047.023.07.07.07h3.024c.046 0 .084.019.112.056a.135.135 0 0 1 .056.112v1.064a.174.174 0 0 1-.056.126.152.152 0 0 1-.112.042h-4.55a.203.203 0 0 1-.126-.042.203.203 0 0 1-.042-.126v-9.464c0-.046.014-.084.042-.112a.174.174 0 0 1 .126-.056h4.55c.046 0 .084.019.112.056a.135.135 0 0 1 .056.112v1.064Zm3.662 8.68c-.794 0-1.433-.238-1.918-.714-.476-.485-.714-1.124-.714-1.918v-4.774c0-.802.238-1.437.714-1.904.485-.476 1.124-.714 1.918-.714.802 0 1.446.238 1.932.714.485.467.728 1.102.728 1.904v.168a.174.174 0 0 1-.056.126.132.132 0 0 1-.112.056l-1.302.056c-.112 0-.168-.056-.168-.168v-.35c0-.326-.094-.592-.28-.798-.187-.205-.434-.308-.742-.308a.938.938 0 0 0-.728.308c-.187.206-.28.472-.28.798v5.012c0 .327.093.593.28.798a.934.934 0 0 0 .728.308c.308 0 .555-.102.742-.308.186-.205.28-.471.28-.798v-.35c0-.046.014-.084.042-.112a.174.174 0 0 1 .126-.056l1.302.056c.046 0 .084.019.112.056a.135.135 0 0 1 .056.112v.168c0 .794-.243 1.433-.728 1.918-.486.476-1.13.714-1.932.714Zm8.96-9.912c.047 0 .084.019.112.056a.132.132 0 0 1 .056.112v1.064a.17.17 0 0 1-.056.126.15.15 0 0 1-.112.042h-1.778c-.046 0-.07.024-.07.07v8.162a.17.17 0 0 1-.056.126.15.15 0 0 1-.112.042h-1.288a.208.208 0 0 1-.126-.042.203.203 0 0 1-.042-.126v-8.162c0-.046-.023-.07-.07-.07h-1.68a.208.208 0 0 1-.126-.042.203.203 0 0 1-.042-.126v-1.064c0-.046.014-.084.042-.112a.178.178 0 0 1 .126-.056h5.222Zm-661.474-.014c.494 0 .928.122 1.302.364.382.243.676.584.882 1.022.214.439.322.938.322 1.498 0 .84-.224 1.517-.672 2.03-.439.514-1.022.77-1.75.77h-1.19c-.047 0-.07.024-.07.07v3.892a.174.174 0 0 1-.056.126.152.152 0 0 1-.112.042h-1.288a.203.203 0 0 1-.126-.042.203.203 0 0 1-.042-.126v-9.478c0-.046.014-.084.042-.112a.174.174 0 0 1 .126-.056h2.632Zm-.266 4.41c.345 0 .62-.13.826-.392.214-.27.322-.634.322-1.092 0-.466-.108-.835-.322-1.106a.974.974 0 0 0-.826-.42h-.84c-.047 0-.07.024-.07.07v2.87c0 .047.023.07.07.07h.84Zm6.384 5.516c-.803 0-1.451-.242-1.946-.728-.485-.485-.728-1.129-.728-1.932v-4.704c0-.802.243-1.446.728-1.932.495-.485 1.143-.728 1.946-.728.803 0 1.451.243 1.946.728.495.486.742 1.13.742 1.932v4.704c0 .803-.247 1.447-.742 1.932-.495.486-1.143.728-1.946.728Zm0-1.4c.317 0 .574-.107.77-.322.196-.224.294-.513.294-.868v-4.844c0-.354-.098-.639-.294-.854a.975.975 0 0 0-.77-.336.975.975 0 0 0-.77.336c-.187.215-.28.5-.28.854v4.844c0 .355.093.644.28.868.196.215.453.322.77.322Zm5.626 1.288c-.112 0-.173-.051-.182-.154l-1.862-9.464-.014-.056c0-.084.051-.126.154-.126h1.344c.112 0 .173.052.182.154l.98 5.838c.009.028.023.042.042.042.019 0 .033-.014.042-.042l.882-5.838c.009-.102.07-.154.182-.154h1.12c.112 0 .173.052.182.154l.952 5.838c.009.028.023.042.042.042.019 0 .033-.014.042-.042l.882-5.838c.009-.102.07-.154.182-.154h1.302c.121 0 .173.061.154.182l-1.778 9.464c-.009.103-.07.154-.182.154h-1.19c-.112 0-.173-.051-.182-.154l-.938-5.95c-.009-.037-.023-.056-.042-.056-.019 0-.033.019-.042.056l-.868 5.95c-.009.103-.07.154-.182.154h-1.204Zm12.572-8.568a.17.17 0 0 1-.056.126.15.15 0 0 1-.112.042h-3.024c-.046 0-.07.024-.07.07v2.646c0 .047.024.07.07.07h1.792c.047 0 .084.019.112.056a.132.132 0 0 1 .056.112v1.078a.17.17 0 0 1-.056.126.15.15 0 0 1-.112.042h-1.792c-.046 0-.07.024-.07.07v2.66c0 .047.024.07.07.07h3.024c.047 0 .084.019.112.056a.132.132 0 0 1 .056.112v1.064a.17.17 0 0 1-.056.126.15.15 0 0 1-.112.042h-4.55a.208.208 0 0 1-.126-.042.203.203 0 0 1-.042-.126v-9.464c0-.046.014-.084.042-.112a.178.178 0 0 1 .126-.056h4.55c.047 0 .084.019.112.056a.132.132 0 0 1 .056.112v1.064Zm5.076 8.568c-.093 0-.154-.046-.182-.14l-1.19-4.018c-.018-.037-.042-.056-.07-.056h-.742c-.046 0-.07.024-.07.07v3.976a.17.17 0 0 1-.056.126.15.15 0 0 1-.112.042h-1.288a.208.208 0 0 1-.126-.042.203.203 0 0 1-.042-.126v-9.464c0-.046.014-.084.042-.112a.178.178 0 0 1 .126-.056h2.632c.495 0 .929.122 1.302.364.383.234.677.57.882 1.008.215.43.322.924.322 1.484 0 .579-.112 1.078-.336 1.498-.224.42-.536.738-.938.952-.037.01-.051.038-.042.084l1.372 4.214c.01.019.014.042.014.07 0 .084-.051.126-.154.126h-1.344Zm-2.184-8.4c-.046 0-.07.024-.07.07v2.786c0 .047.024.07.07.07h.854a.98.98 0 0 0 .812-.392c.215-.261.322-.616.322-1.064 0-.448-.107-.802-.322-1.064a.972.972 0 0 0-.812-.406h-.854Z"/>
  <path fill="#98999C" d="m111.05 508.782 17.196-9.404V98.75c1.319-5.648 3.185-7.555 8.867-8.33h755.04c4.845.924 6.728 2.238 7.792 6.718V498.84l17.196 8.867 2.419-3.224 3.493-8.061 1.343-9.136V107.348l-1.612-12.897-4.836-9.673-5.643-5.643-7.255-4.568-6.449-2.418-6.448-1.343h-755.04l-8.867 1.075-9.941 4.03-9.136 7.523-4.031 7.524-3.224 12.091V482.45l1.075 11.016 3.493 9.136 4.568 6.18Z"/>
  <path fill="#737378" d="M582.505 846.014v-8.4h1.296v8.4h-1.296Zm.576-3.576v-1.248h4.332v1.248h-4.332Zm0-3.576v-1.248h4.872v1.248h-4.872Zm6.33 7.152v-1.2h1.356v-6h-1.356v-1.2h4.008v1.2h-1.356v6h1.356v1.2h-4.008Zm6.043 0v-8.4h3.576c.48 0 .92.12 1.32.36.408.232.732.552.972.96.24.4.36.852.36 1.356 0 .456-.12.88-.36 1.272s-.56.708-.96.948c-.4.232-.844.348-1.332.348h-2.28v3.156h-1.296Zm4.992 0-2.136-3.792 1.332-.3 2.376 4.104-1.572-.012Zm-3.696-4.404h2.4c.232 0 .44-.056.624-.168.184-.12.328-.28.432-.48.104-.208.156-.436.156-.684 0-.28-.068-.524-.204-.732a1.3 1.3 0 0 0-.552-.504 1.699 1.699 0 0 0-.792-.18h-2.064v2.748Zm7.048 4.404v-8.4h5.292v1.248h-3.996v5.904h3.996v1.248h-5.292Zm.588-3.684v-1.248h4.044v1.248h-4.044Zm6.783 3.684v-8.4h1.296v7.152h3.936v1.248h-5.232Zm6.871 0v-1.2h1.356v-6h-1.356v-1.2h4.008v1.2h-1.356v6h1.356v1.2h-4.008Zm9.623.12a4.457 4.457 0 0 1-1.704-.324 4.454 4.454 0 0 1-1.392-.924 4.25 4.25 0 0 1-.936-1.368 4.457 4.457 0 0 1-.324-1.704c0-.6.108-1.16.324-1.68.224-.52.532-.972.924-1.356.4-.392.864-.696 1.392-.912a4.457 4.457 0 0 1 1.704-.324c.424 0 .836.06 1.236.18.408.12.776.288 1.104.504.328.216.596.464.804.744l-.84.876a4.05 4.05 0 0 0-.744-.576 3.296 3.296 0 0 0-.768-.348 2.719 2.719 0 0 0-.792-.12c-.432 0-.832.076-1.2.228-.36.152-.68.364-.96.636a2.916 2.916 0 0 0-.636.96c-.152.36-.228.756-.228 1.188 0 .416.08.812.24 1.188.16.368.38.692.66.972.288.28.616.5.984.66.376.16.772.24 1.188.24.312 0 .608-.044.888-.132.28-.096.528-.228.744-.396.216-.168.384-.36.504-.576.12-.224.18-.46.18-.708v-.24l.18.168h-2.568v-1.284h3.72a2.987 2.987 0 0 1 .048.504c.008.072.012.144.012.216 0 .552-.096 1.056-.288 1.512-.192.448-.46.836-.804 1.164a3.62 3.62 0 0 1-1.188.768 3.97 3.97 0 0 1-1.464.264Zm10.915-.12v-8.4h1.296v8.4h-1.296Zm-5.484 0v-8.4h1.296v8.4h-1.296Zm.564-3.564v-1.248h5.496v1.248h-5.496Zm10.161 3.564v-7.152h-2.352v-1.248h6.072v1.248h-2.424v7.152h-1.296Zm10.813 10.577a3.591 3.591 0 0 1-1.836-.486 3.588 3.588 0 0 1-1.323-1.323 3.591 3.591 0 0 1-.486-1.836v-12.15c0-.666.162-1.278.486-1.836a3.588 3.588 0 0 1 1.323-1.323 3.591 3.591 0 0 1 1.836-.486h12.15c.666 0 1.269.162 1.809.486.558.324.999.765 1.323 1.323.342.558.513 1.17.513 1.836v1.323h-3.267v-1.215a.435.435 0 0 0-.162-.351.442.442 0 0 0-.324-.135h-11.961a.538.538 0 0 0-.351.135.475.475 0 0 0-.135.351v11.934c0 .144.045.261.135.351.108.09.225.135.351.135h11.961a.442.442 0 0 0 .324-.135.435.435 0 0 0 .162-.351v-3.807h-4.482v-3.267h7.749v7.182c0 .666-.171 1.278-.513 1.836a3.588 3.588 0 0 1-1.323 1.323 3.448 3.448 0 0 1-1.809.486h-12.15Zm22.304 0a3.591 3.591 0 0 1-1.836-.486 3.654 3.654 0 0 1-1.296-1.323 3.591 3.591 0 0 1-.486-1.836v-1.296h3.24v1.188c0 .144.045.261.135.351.09.09.207.135.351.135h11.934a.475.475 0 0 0 .351-.135.435.435 0 0 0 .162-.351v-3.861a.409.409 0 0 0-.162-.324.435.435 0 0 0-.351-.162h-12.042a3.591 3.591 0 0 1-1.836-.486 3.723 3.723 0 0 1-1.296-1.296 3.591 3.591 0 0 1-.486-1.836v-4.077c0-.666.162-1.278.486-1.836a3.654 3.654 0 0 1 1.296-1.323 3.591 3.591 0 0 1 1.836-.486h12.177c.666 0 1.269.162 1.809.486.558.324.999.765 1.323 1.323.342.558.513 1.17.513 1.836v1.296h-3.267v-1.188a.435.435 0 0 0-.162-.351.475.475 0 0 0-.351-.135h-11.934a.475.475 0 0 0-.351.135.475.475 0 0 0-.135.351v3.861c0 .126.045.243.135.351.09.09.207.135.351.135h12.069c.666 0 1.269.162 1.809.486.558.324.999.765 1.323 1.323a3.31 3.31 0 0 1 .513 1.809v4.077c0 .666-.171 1.278-.513 1.836a3.588 3.588 0 0 1-1.323 1.323 3.448 3.448 0 0 1-1.809.486h-12.177Zm-32.923.423v-7.152h-2.352v-1.248h6.072v1.248h-2.424v7.152h-1.296Z"/>
</svg>
