<svg xmlns="http://www.w3.org/2000/svg" width="1024" height="1024" fill="none" viewBox="0 0 1024 1024">
  <path fill="#292929" d="M176.248 225.624c42.526-12.768 66.169-12.897 108 0V252h-108v-26.376Zm563 0c42.526-12.768 66.169-12.897 108 0V252h-108v-26.376Z"/>
  <path fill="#2D2E33" d="M277.511 591c3.077-22.83 13.845-38.965 33.499-37v-12L49.763 579.5C41.5 655 46.856 692.609 58.685 723c13.001 27.748 27.815 41.5 50.078 47.203C122.5 773.722 155 778 177 767.5c17.75-8.472 31.645-23.665 46.5-44.5 28-47 42.17-111.061 54.011-132Zm469.989 0c-3.077-22.83-13.846-38.965-33.5-37v-12l261.247 37.5c8.264 75.5 2.908 113.109-8.921 143.5-13.002 27.748-27.816 41.5-50.079 47.203-13.737 3.519-46.237 7.797-68.237-2.703-17.75-8.472-31.644-23.665-46.5-44.5-28-47-42.169-111.061-54.01-132Z"/>
  <path fill="#656564" d="M312.748 581h400c9.492 0 11.5-13.5 31.5 0 3.748 10.5 7.242 25.094 10.748 34.5 20.5 55 24.5 67 41 87s62.802 16.649 102.5 7.5c65.499-20 85.5-27.5 80-103.5-5.501-76-27.41-182.632-73.248-296-11.716-17.574-25-30-30-45s-10-20-10-20c-3-5-11.5-12-21-12h-100c-10 0-14.491 4.351-20 12-4 5.5-18 10.5-30.5 10.5h-362c-12.5 0-26.5-5-30.5-10.5-5.509-7.649-10-12-20-12h-100c-9.5 0-18 7-21 12 0 0-5 5-10 20s-18.285 27.426-30 45C74.409 423.868 52.5 530.5 47 606.5S61.5 690 127 710c39.698 9.149 86 12.5 102.5-7.5s20.5-32 41-87c3.506-9.406 7-24 10.748-34.5 20-13.5 22.008 0 31.5 0Z"/>
  <circle cx="219.248" cy="385" r="107" fill="#838383"/>
  <circle cx="806.248" cy="385" r="107" fill="#838383"/>
  <circle cx="736.248" cy="385" r="30" fill="#3F3E43"/>
  <circle cx="877.248" cy="385" r="30" fill="#3F3E43"/>
  <circle cx="806.248" cy="456" r="30" fill="#3F3E43"/>
  <circle cx="806.248" cy="313" r="30" fill="#3F3E43"/>
  <circle cx="664.248" cy="515" r="83" fill="#838383"/>
  <circle cx="360.248" cy="515" r="83" fill="#838383"/>
  <circle cx="360.248" cy="515" r="58" fill="#58595E"/>
  <circle cx="664.248" cy="516" r="58" fill="#58595E"/>
  <circle cx="664.248" cy="515" r="36" fill="#3F3E43"/>
  <circle cx="360.248" cy="515" r="36" fill="#3F3E43"/>
  <circle cx="513.248" cy="518" r="24" fill="#292929"/>
  <circle cx="474.248" cy="451" r="5" fill="#161616"/>
  <circle cx="493.248" cy="451" r="5" fill="#161616"/>
  <circle cx="531.248" cy="451" r="5" fill="#161616"/>
  <circle cx="550.248" cy="451" r="5" fill="#161616"/>
  <circle cx="512.248" cy="475" r="5" fill="#161616"/>
  <circle cx="531.248" cy="475" r="5" fill="#161616"/>
  <circle cx="493.248" cy="475" r="5" fill="#161616"/>
  <circle cx="484.248" cy="463" r="5" fill="#161616"/>
  <circle cx="503.248" cy="463" r="5" fill="#161616"/>
  <circle cx="522.248" cy="463" r="5" fill="#161616"/>
  <circle cx="541.248" cy="463" r="5" fill="#161616"/>
  <circle cx="512.248" cy="451" r="5" fill="#161616"/>
  <path fill="#292929" d="M352.248 264c0-5.523 4.477-10 10-10h302c5.522 0 10 4.477 10 10v128c0 11.046-8.955 20-20 20h-282c-11.046 0-20-8.954-20-20V264Z"/>
  <rect width="108" height="10" x="460.248" y="573" fill="#292929" rx="5"/>
  <rect width="36" height="57" x="302.248" y="269" fill="#292929" rx="18"/>
  <rect width="36" height="57" x="688.248" y="269" fill="#292929" rx="18"/>
  <path fill="#3F3E43" d="M235.921 312.742c-12.091-2.15-20.946-2.072-33.255.043-3.746.644-6.418 3.938-6.418 7.74V348.5c0 2.5 0 2.5 1.777 4.5s15.776 15.998 18.198 18c3.025 2.5 3.025 2.5 6.05 0 2.422-2.002 16.421-16 18.198-18 1.777-2 1.777-2 1.777-4.5v-28.056c0-3.764-2.62-7.043-6.327-7.702Z"/>
  <path fill="#58595E" d="M222.273 370.999c-3.025 2.5-3.025 2.5-6.05 0-2.422-2.001-11.698-11.5-13.475-13.5 12.936-5.924 20.269-5.926 33.5 0-1.777 2-11.553 11.499-13.975 13.5Z"/>
  <path fill="#3F3E43" d="M146.996 368.339c-2.14 12.099-2.09 20.977.03 33.257.646 3.74 3.938 6.404 7.733 6.404h27.989c2.5 0 2.5 0 4.5-1.777s15.998-15.777 18-18.198c2.5-3.025 2.5-3.025 0-6.05-2.002-2.422-16-16.422-18-18.199-2-1.776-2-1.776-4.5-1.776h-28.044c-3.77 0-7.051 2.627-7.708 6.339Z"/>
  <path fill="#58595E" d="M205.192 381.975c2.5 3.025 2.5 3.025 0 6.05-2.002 2.421-11.5 11.698-13.5 13.475-5.924-12.936-5.927-20.27 0-33.5 2 1.776 11.498 11.553 13.5 13.975Z"/>
  <path fill="#3F3E43" d="M202.516 457.179c12.489 2.354 21.382 2.348 33.507.021 3.658-.702 6.225-3.96 6.225-7.685v-28.14c0-2.5 0-2.5-1.777-4.5s-15.776-15.999-18.198-18c-3.025-2.5-3.025-2.5-6.05 0-2.422 2.001-16.421 16-18.198 18-1.777 2-1.777 2-1.777 4.5v28.105c0 3.741 2.591 7.006 6.268 7.699Z"/>
  <path fill="#58595E" d="M216.223 398.875c3.025-2.5 3.025-2.5 6.05 0 2.422 2.002 11.698 11.5 13.475 13.5-12.936 5.925-20.27 5.927-33.5 0 1.777-2 11.553-11.498 13.975-13.5Z"/>
  <path fill="#3F3E43" d="M291.442 401.749c2.403-12.512 2.462-21.416.042-33.591-.721-3.627-3.966-6.158-7.664-6.158h-28.197c-2.5 0-2.5 0-4.5 1.777s-15.999 15.776-18 18.198c-2.5 3.025-2.5 3.025 0 6.05 2.001 2.422 16 16.421 18 18.198 2 1.777 2 1.777 4.5 1.777h28.118c3.736 0 6.996-2.583 7.701-6.251Z"/>
  <path fill="#58595E" d="M233.123 388.025c-2.5-3.025-2.5-3.025 0-6.05 2.002-2.422 11.5-11.698 13.5-13.475 5.924 12.936 5.927 20.27 0 33.5-2-1.777-11.498-11.553-13.5-13.975Z"/>
  <path stroke="#2AC4CE" stroke-width="4" d="m788.927 323 17.321-30 17.32 30h-34.641Z"/>
  <path stroke="#CFA5CF" stroke-width="4" d="M720.248 369h32v32h-32z"/>
  <circle cx="877.248" cy="385" r="19" stroke="#F68085" stroke-width="4"/>
  <path stroke="#8DAFD5" stroke-width="4" d="m788.833 472.527 33.941-33.941m-33.112 0 33.941 33.941"/>
  <path fill="#58595E" d="m219.248 287 12.99 16.5h-25.981l12.991-16.5Zm0 197-12.991-16.5h25.981l-12.99 16.5Zm-99-99 16.5-12.99v25.98l-16.5-12.99Zm198 0-16.5 12.99v-25.98l16.5 12.99Z"/>
</svg>
