<svg xmlns="http://www.w3.org/2000/svg" width="1024" height="1024" fill="none" viewBox="0 0 1024 1024">
  <path fill="#4C4C4C" d="m210.229 254 85.738-4.252.21 5.996-85.948 3.001V254Z"/>
  <path fill="#4F4F4F" d="M104.19 757.831c47.07 10.599 370 17 402.5 17s344.93-6.401 392-17c47.07-10.599 74.092-30.26 86-95.5 12.744-121.392 16.46-191.507 6.5-326.5-3.39-47.968-13-59.5-32.5-65-6.468-1.824-39.239-5.141-86.5-8.647-95.222-7.065-249.265-14.9-365.5-12.853-116.235-2.047-274.968 5.788-373.301 12.853-48.805 3.506-82.73 6.823-89.199 8.647-19.5 5.5-29.11 17.032-32.5 65-9.963 134.993-6.244 205.108 6.5 326.5 11.908 65.24 38.93 84.902 86 95.5Z"/>
  <path fill="#E9E9E9" d="m856.212 481.134-7.509-8.949.03 1.985-2.916 2.447-.005-7.434 2.443-2.05 10.182 12.134-2.225 1.867Zm74.365-64.433-3.903-4.651a2.887 2.887 0 0 1-.67-1.448 3.09 3.09 0 0 1 .15-1.533c.169-.506.467-.938.894-1.296l7.281-6.109a.237.237 0 0 0 .092-.164.274.274 0 0 0-.06-.208l-2.135-2.545a.21.21 0 0 0-.181-.078.208.208 0 0 0-.191.045l-7.196 6.039a.269.269 0 0 0-.095.194.237.237 0 0 0 .062.178l.693.826-2.208 1.852-.763-.91a2.887 2.887 0 0 1-.67-1.448 3.09 3.09 0 0 1 .15-1.533c.169-.506.467-.938.894-1.296l7.365-6.18a2.852 2.852 0 0 1 1.431-.656 2.89 2.89 0 0 1 1.536.119c.505.169.942.473 1.31.911l2.291 2.73c.349.416.567.893.655 1.432.09.518.045 1.035-.135 1.55-.17.505-.468.937-.895 1.296l-7.28 6.109a.273.273 0 0 0-.095.194.238.238 0 0 0 .062.178l1.796 2.14a.323.323 0 0 0 .178.109.317.317 0 0 0 .194-.077l9.607-8.06 1.852 2.208-12.016 10.082Z"/>
  <path fill="#598EB3" d="m838 399.5 23.5-57.5c18.094 6.666 31.5 24 24 44-8.89 19.653-34 19-47.5 13.5Z"/>
  <path fill="#3D3D3D" d="M315 649c-32.5-12-55.397-32.12-76-76.5 0 0-105-260-110-274s-4.081-25.162 5.699-36.147c98.333-7.065 257.066-14.9 373.301-12.853 116.235-2.047 270.278 5.788 365.5 12.853 9.966 12.102 10.5 21.647 6 36.147S768 572.5 768 572.5c-15.363 39.78-42.66 65.199-76.5 76.5-33.84 11.301-344 12-376.5 0Z"/>
  <path fill="#0A0A0A" d="M826.47 372.583c6.999-25.001-1.001-50.001-22.5-62.5-30.737-16.258-163.786-23.498-300.501-23.064-136.714-.434-269.763 6.806-300.5 23.063-21.5 12.5-29.5 37.5-22.5 62.5l83 205c21.524 39.13 47 57 77 60.5s163 4.5 163 4.5 133.001-.999 163-4.499c30-3.501 55.477-21.371 77.001-60.5l83-205Z"/>
  <path fill="#585858" d="M309 319c0-6.627 5.373-12 12-12h369c6.627 0 12 5.373 12 12v272.722c0 6.339-4.961 11.587-11.288 11.969-142.765 8.599-227.651 8.459-370.411-.011-6.333-.375-11.301-5.626-11.301-11.97V319Z"/>
  <rect width="327" height="243" x="341" y="336" fill="#333" rx="6"/>
  <path fill="#5B5B5B" d="M175.5 516.5c-1 40-39.608 112.5-86 112.5s-67-50.92-67-112.5S55.608 405 102 405c48 0 77.5 36 73.5 111.5Z"/>
  <circle cx="102.5" cy="478.5" r="57.5" fill="#222"/>
  <path fill="#111" fill-rule="evenodd" d="M160 478.5c0-4.761-.579-9.388-1.67-13.812-.236-.925-1.868-1.669-2.753-1.669h-30.962a5.027 5.027 0 0 1-3.431-1.327l-16.823 16.314 17.158 16.673c.724-.449 1.614-.698 2.654-.698h31.404c.885 0 2.531-.798 2.753-1.669A57.628 57.628 0 0 0 160 478.5Zm-42.875 55.624c1.311-.348 2.183-1.23 2.183-2.547v-32.289c0-.989.18-1.888.527-2.653l-17.339-16.821-17.346 16.821c.362.765.542 1.664.542 2.653v31.847c0 .882.88 2.643 2.2 2.993l.012.003A57.575 57.575 0 0 0 102.5 536c5.043 0 9.935-.649 14.596-1.869l.029-.007Zm-70.48-41.912A57.649 57.649 0 0 1 45 478.5c0-4.725.57-9.317 1.645-13.712.245-.966 1.893-1.769 2.778-1.769h30.962a5.029 5.029 0 0 0 3.431-1.327l16.786 16.284-17.25 16.703c-.79-.449-1.779-.698-2.967-.698H49.423c-1.327 0-2.611-1.105-2.778-1.769ZM102.5 421a57.59 57.59 0 0 0-14.794 1.921c-.928.255-2.014 2.06-2.014 2.944v31.404c0 .777-.139 1.526-.396 2.212l17.173 16.687 17.235-16.687a6.306 6.306 0 0 1-.396-2.212v-31.404c0-.884-.8-2.607-2.014-2.944A57.59 57.59 0 0 0 102.5 421Z" clip-rule="evenodd"/>
  <path fill="#111" d="m68.992 511.401 3.066-6.316 3.25 3.25-6.316 3.066Zm0-65.525 6.316 3.067-3.25 3.25-3.066-6.317Zm67.293.001-3.066 6.317-3.25-3.251 6.316-3.066Zm.001 65.524-6.317-3.066 3.25-3.25 3.067 6.316Z"/>
  <circle cx="126.837" cy="646.849" r="5" fill="#1C1C1C" transform="rotate(3 126.837 646.849)"/>
  <circle cx="142.815" cy="647.686" r="5" fill="#1C1C1C" transform="rotate(3 142.815 647.686)"/>
  <circle cx="158.793" cy="648.524" r="5" fill="#1C1C1C" transform="rotate(3 158.793 648.524)"/>
  <circle cx="174.771" cy="649.361" r="5" fill="#1C1C1C" transform="rotate(3 174.771 649.361)"/>
  <circle cx="190.749" cy="650.199" r="5" fill="#1C1C1C" transform="rotate(3 190.749 650.199)"/>
  <circle cx="206.727" cy="651.036" r="5" fill="#1C1C1C" transform="rotate(3 206.727 651.036)"/>
  <circle cx="126.946" cy="663.878" r="5" fill="#1C1C1C" transform="rotate(3 126.946 663.878)"/>
  <circle cx="142.924" cy="664.715" r="5" fill="#1C1C1C" transform="rotate(3 142.924 664.715)"/>
  <circle cx="158.902" cy="665.553" r="5" fill="#1C1C1C" transform="rotate(3 158.902 665.553)"/>
  <circle cx="174.88" cy="666.39" r="5" fill="#1C1C1C" transform="rotate(3 174.88 666.39)"/>
  <circle cx="190.858" cy="667.227" r="5" fill="#1C1C1C" transform="rotate(3 190.858 667.227)"/>
  <circle cx="206.836" cy="668.065" r="5" fill="#1C1C1C" transform="rotate(3 206.836 668.065)"/>
  <circle cx="127.055" cy="680.907" r="5" fill="#1C1C1C" transform="rotate(3 127.055 680.907)"/>
  <circle cx="143.033" cy="681.745" r="5" fill="#1C1C1C" transform="rotate(3 143.033 681.745)"/>
  <circle cx="159.011" cy="682.582" r="5" fill="#1C1C1C" transform="rotate(3 159.011 682.582)"/>
  <circle cx="174.989" cy="683.419" r="5" fill="#1C1C1C" transform="rotate(3 174.989 683.419)"/>
  <circle cx="190.967" cy="684.256" r="5" fill="#1C1C1C" transform="rotate(3 190.967 684.256)"/>
  <circle cx="206.945" cy="685.094" r="5" fill="#1C1C1C" transform="rotate(3 206.945 685.094)"/>
  <circle cx="127.164" cy="697.936" r="5" fill="#1C1C1C" transform="rotate(3 127.164 697.936)"/>
  <circle cx="110.968" cy="663.04" r="5" fill="#303030" transform="rotate(3 110.968 663.04)"/>
  <circle cx="111.077" cy="680.07" r="5" fill="#303030" transform="rotate(3 111.077 680.07)"/>
  <circle cx="111.186" cy="697.099" r="5" fill="#303030" transform="rotate(3 111.186 697.099)"/>
  <circle cx="222.814" cy="668.902" r="5" fill="#303030" transform="rotate(3 222.814 668.902)"/>
  <circle cx="222.923" cy="685.931" r="5" fill="#303030" transform="rotate(3 222.923 685.931)"/>
  <circle cx="223.032" cy="702.96" r="5" fill="#303030" transform="rotate(3 223.032 702.96)"/>
  <circle cx="143.142" cy="698.773" r="5" fill="#1C1C1C" transform="rotate(3 143.142 698.773)"/>
  <circle cx="159.12" cy="699.611" r="5" fill="#1C1C1C" transform="rotate(3 159.12 699.611)"/>
  <circle cx="175.098" cy="700.448" r="5" fill="#1C1C1C" transform="rotate(3 175.098 700.448)"/>
  <circle cx="191.076" cy="701.286" r="5" fill="#1C1C1C" transform="rotate(3 191.076 701.286)"/>
  <circle cx="207.054" cy="702.123" r="5" fill="#1C1C1C" transform="rotate(3 207.054 702.123)"/>
  <circle cx="127.273" cy="714.965" r="5" fill="#1C1C1C" transform="rotate(3 127.273 714.965)"/>
  <circle cx="143.251" cy="715.803" r="5" fill="#1C1C1C" transform="rotate(3 143.251 715.803)"/>
  <circle cx="159.229" cy="716.64" r="5" fill="#1C1C1C" transform="rotate(3 159.229 716.64)"/>
  <circle cx="175.207" cy="717.477" r="5" fill="#1C1C1C" transform="rotate(3 175.207 717.477)"/>
  <circle cx="191.185" cy="718.314" r="5" fill="#1C1C1C" transform="rotate(3 191.185 718.314)"/>
  <circle cx="207.163" cy="719.152" r="5" fill="#1C1C1C" transform="rotate(3 207.163 719.152)"/>
  <ellipse cx="226.78" cy="336.137" fill="#F55444" rx="6.66" ry="16.258" transform="rotate(35 226.78 336.137)"/>
  <ellipse cx="252.78" cy="336.137" fill="#2BD6AC" rx="6.66" ry="16.258" transform="rotate(35 252.78 336.137)"/>
  <ellipse cx="277.78" cy="336.137" fill="#3088F8" rx="6.66" ry="16.258" transform="rotate(35 277.78 336.137)"/>
  <circle cx="265" cy="423" r="7" fill="#C42A2A"/>
  <circle cx="867" cy="377" r="5" fill="#5F99C1"/>
  <ellipse cx="891.366" cy="523.622" fill="#5B5B5B" rx="44.455" ry="135.877" transform="rotate(44 891.366 523.622)"/>
  <circle cx="853" cy="518" r="30" fill="#222"/>
  <circle cx="930" cy="455" r="30" fill="#222"/>
  <path stroke="#E9E9E9" stroke-width="2" d="m842.81 466-.825-.983a6 6 0 0 1 .739-8.453l72.348-60.707a6 6 0 0 1 8.453.739l.339.404"/>
  <path fill="#DCDCDC" d="M252.643 443v-5.818h2.074c.453 0 .828.082 1.125.247.297.165.52.39.668.676.147.284.221.604.221.96 0 .358-.075.68-.224.966-.148.284-.371.51-.671.676-.297.165-.671.248-1.122.248h-1.426v-.745h1.347c.286 0 .518-.049.696-.148a.926.926 0 0 0 .392-.409c.083-.172.125-.368.125-.588 0-.219-.042-.414-.125-.585a.898.898 0 0 0-.395-.4c-.178-.097-.413-.145-.705-.145h-1.102V443h-.878Zm10.171-2.909c0 .621-.113 1.155-.341 1.602a2.503 2.503 0 0 1-.934 1.029 2.549 2.549 0 0 1-1.344.358c-.504 0-.954-.12-1.349-.358a2.508 2.508 0 0 1-.932-1.032c-.228-.447-.341-.98-.341-1.599 0-.621.113-1.154.341-1.6a2.49 2.49 0 0 1 .932-1.028c.395-.24.845-.361 1.349-.361.502 0 .95.121 1.344.361.396.239.707.582.934 1.028.228.446.341.979.341 1.6Zm-.869 0c0-.474-.077-.872-.23-1.196a1.686 1.686 0 0 0-.625-.739 1.63 1.63 0 0 0-.895-.253c-.335 0-.635.085-.898.253a1.712 1.712 0 0 0-.625.739c-.151.324-.227.722-.227 1.196 0 .473.076.873.227 1.199.154.324.362.57.625.738.263.167.563.25.898.25.333 0 .632-.083.895-.25a1.7 1.7 0 0 0 .625-.738c.153-.326.23-.726.23-1.199Zm3.033 2.909-1.614-5.818h.923l1.134 4.506h.054l1.179-4.506h.915l1.179 4.508h.053l1.131-4.508h.926L269.242 443h-.884l-1.224-4.358h-.046L265.864 443h-.886Zm6.681 0v-5.818h3.647v.756h-2.769v1.772h2.579v.753h-2.579v1.781h2.804V443h-3.682Zm4.82 0v-5.818h2.074c.451 0 .825.077 1.122.233.299.155.523.37.671.645.147.272.221.588.221.946 0 .356-.075.669-.224.94a1.516 1.516 0 0 1-.671.628c-.297.149-.671.224-1.122.224h-1.571v-.755h1.492c.284 0 .515-.041.693-.123a.806.806 0 0 0 .395-.355c.083-.155.125-.342.125-.559 0-.22-.043-.41-.128-.571a.833.833 0 0 0-.395-.37c-.178-.087-.412-.13-.702-.13h-1.102V443h-.878Zm2.872-2.625 1.438 2.625h-1l-1.409-2.625h.971Z"/>
  <path fill="#fff" d="M898.351 367.018a1.455 1.455 0 0 0-.694-1.07c-.394-.248-.882-.362-1.465-.342-.417.015-.776.094-1.076.237-.3.14-.531.327-.692.561a1.273 1.273 0 0 0-.221.779c.008.242.072.449.191.62.122.172.277.314.467.427.193.109.398.2.616.272.218.068.428.124.628.167l1.003.223c.327.069.664.165 1.01.288.346.124.668.292.968.504.299.212.544.478.734.8.194.322.298.711.314 1.168a2.712 2.712 0 0 1-.393 1.551c-.279.457-.696.825-1.25 1.103-.551.278-1.224.431-2.019.459-.762.026-1.425-.072-1.99-.294-.565-.222-1.012-.55-1.343-.983-.33-.436-.522-.96-.577-1.571l1.54-.054c.043.366.173.669.39.906.221.235.497.406.829.514.335.104.7.149 1.094.136a3.097 3.097 0 0 0 1.151-.245c.336-.151.598-.352.785-.604.186-.255.274-.548.262-.88-.01-.301-.105-.545-.284-.731a1.91 1.91 0 0 0-.707-.453 6.825 6.825 0 0 0-.991-.299l-1.213-.286c-.823-.193-1.48-.497-1.972-.911-.489-.414-.746-.975-.77-1.684-.021-.586.12-1.104.423-1.552a3.14 3.14 0 0 1 1.256-1.064c.535-.264 1.143-.408 1.826-.432.689-.024 1.301.076 1.836.299.538.224.967.542 1.287.955.319.41.495.889.527 1.435l-1.48.051Zm2.905-1.454-.046-1.322 7.875-.275.046 1.322-3.175.111.31 8.854-1.531.053-.309-8.854-3.17.111Zm9.582 8.53-1.63.057 3.307-10.304 1.773-.062 4.018 10.048-1.63.057-3.168-8.227-.079.003-2.591 8.428Zm.134-3.994 5.287-.185.045 1.292-5.287.184-.045-1.291Zm8.803 3.682-.355-10.176 3.627-.126c.788-.028 1.447.085 1.977.338.532.254.936.616 1.212 1.087.275.468.423 1.015.445 1.641.022.623-.09 1.176-.335 1.659-.242.479-.62.859-1.134 1.139-.511.28-1.161.433-1.949.461l-2.748.096-.046-1.322 2.608-.091c.497-.017.899-.103 1.205-.256.31-.153.533-.369.669-.645.137-.277.198-.606.185-.987-.014-.384-.1-.714-.259-.991a1.442 1.442 0 0 0-.713-.621c-.317-.142-.728-.204-1.235-.186l-1.928.067.309 8.859-1.535.054Zm4.863-4.767 2.674 4.504-1.749.061-2.624-4.505 1.699-.06Zm3.344-4.385-.046-1.321 7.875-.275.046 1.321-3.175.111.309 8.854-1.53.054-.309-8.854-3.17.11Z"/>
  <path fill="#46A487" d="M720.621 382v-8.727h3.111c.679 0 1.241.123 1.687.37.446.248.78.586 1.002 1.015.221.426.332.906.332 1.44 0 .537-.112 1.02-.337 1.449a2.43 2.43 0 0 1-1.005 1.014c-.446.247-1.007.371-1.684.371h-2.139v-1.117h2.02c.429 0 .777-.074 1.044-.221.267-.151.463-.355.588-.614.125-.258.188-.552.188-.882 0-.33-.063-.622-.188-.878a1.343 1.343 0 0 0-.592-.601c-.267-.145-.619-.217-1.057-.217h-1.653V382h-1.317Zm15.257-4.364c0 .932-.171 1.733-.512 2.404-.341.667-.808 1.182-1.402 1.542-.591.358-1.262.537-2.015.537-.756 0-1.431-.179-2.024-.537-.591-.36-1.057-.876-1.398-1.546-.341-.671-.512-1.471-.512-2.4 0-.931.171-1.731.512-2.399.341-.67.807-1.184 1.398-1.542.593-.361 1.268-.542 2.024-.542.753 0 1.424.181 2.015.542.594.358 1.061.872 1.402 1.542.341.668.512 1.468.512 2.399Zm-1.304 0c0-.71-.115-1.308-.345-1.794-.228-.488-.54-.858-.938-1.108a2.442 2.442 0 0 0-1.342-.379c-.503 0-.952.127-1.347.379-.395.25-.707.62-.937 1.108-.228.486-.341 1.084-.341 1.794 0 .711.113 1.31.341 1.799.23.485.542.855.937 1.108.395.25.844.375 1.347.375.5 0 .947-.125 1.342-.375.398-.253.71-.623.938-1.108.23-.489.345-1.088.345-1.799Zm2.945 4.364v-8.727h3.111c.676 0 1.237.116 1.683.349.449.233.784.556 1.006.967.222.41.332.883.332 1.42 0 .534-.112 1.004-.336 1.41a2.273 2.273 0 0 1-1.006.942c-.446.224-1.007.336-1.683.336h-2.357v-1.133h2.238c.426 0 .772-.061 1.039-.183.27-.122.468-.3.593-.533.125-.233.187-.513.187-.839 0-.33-.064-.616-.192-.857a1.24 1.24 0 0 0-.592-.554c-.267-.131-.618-.196-1.052-.196h-1.654V382h-1.317Zm4.309-3.938 2.156 3.938h-1.5l-2.114-3.938h1.458Zm2.995-3.656v-1.133h6.755v1.133h-2.723V382h-1.313v-7.594h-2.719Zm7.953 7.594h-1.398l3.141-8.727h1.521l3.141 8.727h-1.398l-2.467-7.142h-.068L752.776 382Zm.234-3.418h4.535v1.108h-4.535v-1.108Zm7.431 3.418v-8.727h3.196c.62 0 1.132.102 1.539.307.406.201.71.475.912.822.201.344.302.732.302 1.163 0 .364-.067.671-.2.921a1.652 1.652 0 0 1-.537.596 2.36 2.36 0 0 1-.733.324v.085c.29.015.572.108.848.282.278.17.508.413.69.728.182.316.273.699.273 1.151 0 .446-.105.847-.315 1.202-.208.352-.529.632-.963.839-.435.205-.99.307-1.667.307h-3.345Zm1.317-1.129h1.901c.63 0 1.082-.122 1.355-.367a1.18 1.18 0 0 0 .409-.916c0-.276-.07-.528-.209-.758a1.48 1.48 0 0 0-.597-.55c-.255-.137-.559-.205-.912-.205h-1.947v2.796Zm0-3.823h1.764c.296 0 .561-.057.797-.17.239-.114.428-.273.567-.477.142-.208.213-.452.213-.733 0-.361-.127-.664-.379-.908-.253-.244-.641-.367-1.164-.367h-1.798v2.655Zm6.535 4.952v-8.727h1.317v7.593h3.954V382h-5.271Zm6.773 0v-8.727h5.472v1.133h-4.155v2.659h3.869v1.13h-3.869v2.671h4.206V382h-5.523Zm-52.868 5.273 2.429 7.108h.098l2.429-7.108h1.423l-3.14 8.727h-1.522l-3.14-8.727h1.423Zm8.956 0V396h-1.316v-8.727h1.316Zm4.743 8.727h-2.825v-8.727h2.915c.855 0 1.589.174 2.203.524a3.442 3.442 0 0 1 1.41 1.496c.33.647.495 1.424.495 2.331 0 .909-.166 1.69-.499 2.343a3.493 3.493 0 0 1-1.432 1.509c-.625.349-1.38.524-2.267.524Zm-1.508-1.151h1.436c.665 0 1.217-.125 1.658-.375.44-.252.769-.617.988-1.095.219-.48.328-1.065.328-1.755 0-.685-.109-1.266-.328-1.743a2.315 2.315 0 0 0-.967-1.087c-.429-.247-.962-.371-1.598-.371h-1.517v6.426Zm7.343 1.151v-8.727h5.472v1.133h-4.155v2.659h3.869v1.13h-3.869v2.671h4.206V396h-5.523Zm14.812-4.364c0 .932-.171 1.733-.512 2.404-.341.667-.808 1.182-1.402 1.542-.591.358-1.262.537-2.015.537-.756 0-1.431-.179-2.024-.537-.591-.36-1.057-.876-1.398-1.546-.341-.671-.512-1.471-.512-2.4 0-.931.171-1.731.512-2.399.341-.67.807-1.184 1.398-1.542.593-.361 1.268-.542 2.024-.542.753 0 1.424.181 2.015.542.594.358 1.061.872 1.402 1.542.341.668.512 1.468.512 2.399Zm-1.304 0c0-.71-.115-1.308-.345-1.794-.228-.488-.54-.858-.938-1.108a2.442 2.442 0 0 0-1.342-.379c-.503 0-.952.127-1.347.379-.395.25-.707.62-.937 1.108-.228.486-.341 1.084-.341 1.794 0 .711.113 1.31.341 1.799.23.485.542.855.937 1.108.395.25.844.375 1.347.375.5 0 .947-.125 1.342-.375.398-.253.71-.623.938-1.108.23-.489.345-1.088.345-1.799Zm12.027-1.606a2.66 2.66 0 0 0-.332-.695 2.13 2.13 0 0 0-1.142-.865 2.615 2.615 0 0 0-.797-.115c-.491 0-.935.127-1.329.379-.395.253-.708.624-.938 1.113-.227.485-.341 1.081-.341 1.785 0 .707.115 1.305.345 1.794.23.489.546.86.946 1.112.401.253.857.38 1.368.38.475 0 .888-.097 1.24-.29a2.02 2.02 0 0 0 .823-.818c.196-.355.294-.773.294-1.253l.341.064h-2.497v-1.087h3.43v.993c0 .733-.156 1.369-.469 1.909a3.178 3.178 0 0 1-1.287 1.244c-.545.293-1.17.439-1.875.439-.79 0-1.483-.181-2.079-.545-.594-.364-1.057-.879-1.39-1.547-.332-.67-.498-1.466-.498-2.386 0-.696.096-1.321.29-1.875a4.059 4.059 0 0 1 .814-1.411 3.555 3.555 0 0 1 1.24-.891 3.886 3.886 0 0 1 1.564-.311c.471 0 .91.07 1.316.209.409.139.773.337 1.091.593a3.34 3.34 0 0 1 1.223 2.075h-1.351Zm3.55 5.97h-1.398l3.141-8.727h1.521l3.141 8.727h-1.398l-2.467-7.142h-.068L770.817 396Zm.234-3.418h4.535v1.108h-4.535v-1.108Zm7.431-5.309h1.598l2.779 6.784h.102l2.778-6.784h1.598V396h-1.252v-6.315h-.081l-2.574 6.302h-1.04l-2.574-6.307h-.081V396h-1.253v-8.727Zm10.77 8.727v-8.727h5.471v1.133h-4.154v2.659h3.869v1.13h-3.869v2.671h4.206V396h-5.523Zm-63.272 7.565a1.24 1.24 0 0 0-.562-.937c-.33-.225-.744-.337-1.244-.337a2.31 2.31 0 0 0-.929.171c-.262.11-.465.264-.61.46a1.085 1.085 0 0 0-.213.66c0 .208.049.387.145.537.1.151.229.277.388.38.162.099.335.183.52.251.184.065.362.119.532.162l.853.222c.278.068.564.16.856.277.293.116.564.269.814.46.25.19.452.426.605.707.157.281.235.618.235 1.01 0 .494-.128.933-.384 1.317-.253.383-.621.686-1.104.907-.48.222-1.061.333-1.742.333-.654 0-1.219-.104-1.696-.311-.478-.208-.851-.502-1.121-.882-.27-.384-.419-.838-.448-1.364h1.321c.026.315.128.578.307.788.182.208.414.363.695.465.284.099.595.149.933.149.372 0 .703-.058.993-.175.293-.119.523-.284.69-.494a1.17 1.17 0 0 0 .252-.746.916.916 0 0 0-.222-.635 1.647 1.647 0 0 0-.592-.409 5.72 5.72 0 0 0-.84-.285l-1.031-.282c-.699-.19-1.253-.47-1.662-.839-.406-.369-.609-.858-.609-1.466 0-.503.136-.942.409-1.317a2.684 2.684 0 0 1 1.108-.873c.466-.21.991-.316 1.576-.316.591 0 1.113.104 1.564.311.455.208.813.493 1.074.857.262.361.398.776.409 1.244h-1.27Zm2.29-2.292h1.496l2.279 3.967h.094l2.28-3.967h1.496l-3.166 5.301V410h-1.313v-3.426l-3.166-5.301Zm13.648 2.292a1.242 1.242 0 0 0-.563-.937c-.329-.225-.744-.337-1.244-.337-.358 0-.667.057-.929.171-.261.11-.464.264-.609.46a1.085 1.085 0 0 0-.213.66c0 .208.048.387.145.537a1.3 1.3 0 0 0 .387.38c.162.099.336.183.52.251.185.065.363.119.533.162l.852.222c.279.068.564.16.857.277.292.116.564.269.814.46.25.19.451.426.605.707.156.281.234.618.234 1.01 0 .494-.128.933-.383 1.317-.253.383-.621.686-1.104.907-.48.222-1.061.333-1.743.333-.653 0-1.219-.104-1.696-.311-.477-.208-.851-.502-1.121-.882-.27-.384-.419-.838-.447-1.364h1.321c.025.315.128.578.307.788.182.208.413.363.694.465.284.099.595.149.934.149.372 0 .703-.058.992-.175.293-.119.523-.284.691-.494.167-.213.251-.462.251-.746a.92.92 0 0 0-.221-.635 1.65 1.65 0 0 0-.593-.409 5.746 5.746 0 0 0-.839-.285l-1.031-.282c-.699-.19-1.253-.47-1.662-.839-.407-.369-.61-.858-.61-1.466 0-.503.137-.942.409-1.317a2.684 2.684 0 0 1 1.108-.873 3.8 3.8 0 0 1 1.577-.316c.591 0 1.112.104 1.564.311.454.208.812.493 1.074.857.261.361.397.776.409 1.244h-1.27Zm2.532-1.159v-1.133h6.755v1.133h-2.723V410h-1.313v-7.594h-2.719Zm8.247 7.594v-8.727h5.472v1.133h-4.155v2.659h3.869v1.13h-3.869v2.671h4.206V410h-5.523Zm7.231-8.727h1.598l2.778 6.784h.102l2.779-6.784h1.598V410h-1.253v-6.315h-.081l-2.574 6.302h-1.04l-2.574-6.307h-.081V410h-1.252v-8.727Z"/>
  <path fill="#DCDCDC" d="m733.538 358.342-3.146-8.426c-.058-.147-.183-.279-.374-.396a1.194 1.194 0 0 0-.638-.176c-.205 0-.418.059-.638.176-.22.117-.352.249-.396.396L722.01 368h-2.926l6.798-19.184c.118-.308.272-.601.462-.88.191-.293.426-.55.704-.77a3.373 3.373 0 0 1 1.012-.55 4.036 4.036 0 0 1 1.32-.198c.499 0 .932.066 1.298.198.367.132.69.315.968.55.279.22.514.477.704.77.206.279.382.572.528.88l.66 1.32.66-1.32c.162-.308.338-.601.528-.88.206-.293.44-.55.704-.77.279-.235.602-.418.968-.55.367-.132.8-.198 1.298-.198.484 0 .917.066 1.298.198.396.132.734.315 1.012.55.294.22.536.477.726.77.206.279.36.572.462.88L747.992 368h-2.926l-6.336-18.084c-.044-.147-.176-.279-.396-.396a1.356 1.356 0 0 0-.638-.176c-.234 0-.447.059-.638.176-.19.117-.315.249-.374.396l-3.146 8.426Zm0 9.658-4.158-11.088L725.728 368h-2.926l6.028-17.534c.03-.088.103-.161.22-.22a.636.636 0 0 1 .33-.11c.103 0 .206.037.308.11.118.059.191.132.22.22l3.63 10.01 3.63-10.01a.412.412 0 0 1 .198-.22.636.636 0 0 1 .33-.11.63.63 0 0 1 .33.11c.118.059.191.132.22.22L744.274 368h-2.816l-3.762-11.088L733.538 368Zm13.286-14.938c0-.924.169-1.789.506-2.596a6.78 6.78 0 0 1 1.342-2.112 6.345 6.345 0 0 1 1.958-1.408 5.368 5.368 0 0 1 2.31-.528h8.338v2.926h-7.986a3.3 3.3 0 0 0-1.496.33c-.44.22-.814.506-1.122.858-.293.352-.52.755-.682 1.21a3.82 3.82 0 0 0-.242 1.32v8.294a4.006 4.006 0 0 0 .924 2.53c.308.352.682.638 1.122.858.44.22.939.33 1.496.33h7.986V368h-8.338a5.568 5.568 0 0 1-2.31-.506 6.861 6.861 0 0 1-1.958-1.408 7.12 7.12 0 0 1-1.342-2.112 6.828 6.828 0 0 1-.506-2.618v-8.294Zm3.718 3.784v-3.344c0-.381.059-.77.176-1.166.132-.411.323-.777.572-1.1.25-.323.565-.587.946-.792.382-.205.829-.308 1.342-.308h7.7v2.926h-7.634c-.088 0-.183.051-.286.154a.622.622 0 0 0-.132.418v.308h6.38v2.904h-9.064Zm0 .726h9.064v2.926h-6.38v.286c0 .176.044.315.132.418.103.103.198.154.286.154h7.634v2.926h-7.7c-.513 0-.96-.103-1.342-.308a2.939 2.939 0 0 1-.946-.792 3.634 3.634 0 0 1-.572-1.078 4.335 4.335 0 0 1-.176-1.188v-3.344ZM778.245 368h-9.9a5.568 5.568 0 0 1-2.31-.506 6.847 6.847 0 0 1-1.958-1.408 7.081 7.081 0 0 1-1.342-2.112 6.81 6.81 0 0 1-.506-2.618v-8.294c0-.924.168-1.789.506-2.596a6.744 6.744 0 0 1 1.342-2.112 6.334 6.334 0 0 1 1.958-1.408 5.368 5.368 0 0 1 2.31-.528h9.9v2.926h-9.548c-.558 0-1.056.11-1.496.33-.44.22-.814.506-1.122.858a3.894 3.894 0 0 0-.682 1.21c-.162.44-.242.88-.242 1.32v8.294c0 .44.08.887.242 1.342.161.44.388.836.682 1.188.308.352.682.638 1.122.858.44.22.938.33 1.496.33h7.084v-8.228h-6.556v-2.904h9.02V368Zm-9.196-6.644h2.42a.228.228 0 0 0 .22-.132.548.548 0 0 0 0-.594.228.228 0 0 0-.22-.132h-2.244v-2.926h5.786v6.71h-6.028c-.514 0-.961-.103-1.342-.308a2.918 2.918 0 0 1-.946-.792 3.611 3.611 0 0 1-.572-1.078 4.297 4.297 0 0 1-.176-1.188v-7.414c0-.381.058-.77.176-1.166.132-.411.322-.777.572-1.1.249-.323.564-.587.946-.792.381-.205.828-.308 1.342-.308h9.262v2.926h-9.196c-.088 0-.184.051-.286.154a.622.622 0 0 0-.132.418v7.15c0 .176.044.315.132.418.102.103.198.154.286.154Zm16.862 4.07h9.13l-5.588-15.51c-.044-.147-.176-.279-.396-.396a1.359 1.359 0 0 0-.638-.176 1.31 1.31 0 0 0-.66.176c-.191.117-.308.249-.352.396L781.049 368h-2.926l6.798-19.184c.102-.308.249-.601.44-.88.19-.293.425-.55.704-.77.293-.235.63-.418 1.012-.55a4.23 4.23 0 0 1 1.342-.198c.498 0 .938.066 1.32.198.381.132.711.315.99.55.293.22.535.477.726.77.19.279.344.572.462.88L798.715 368h-12.804v-2.574Zm0-.792v-.836L784.503 368h-2.662l6.05-17.534a.405.405 0 0 1 .198-.22.63.63 0 0 1 .33-.11c.102 0 .212.037.33.11.117.059.19.132.22.22l5.016 14.168h-8.074Zm2.508-8.162-1.76 5.544h3.586l-1.826-5.544ZM209.237 374.18c.035-.139.104-.442.208-.91l.364-1.69c.139-.659.277-1.326.416-2.002.156-.676.295-1.3.416-1.872a65.94 65.94 0 0 1 .286-1.3c.087-.503.208-1.17.364-2.002.173-.832.347-1.707.52-2.626.191-.936.347-1.785.468-2.548.087-.503.338-.936.754-1.3s.875-.563 1.378-.598h.13c2.409-.035 5.633-.035 9.672 0 .485 0 .875.182 1.17.546.277.399.347.841.208 1.326-.121.485-.39.901-.806 1.248-.399.347-.867.52-1.404.52a414.795 414.795 0 0 0-7.774-.026 288.41 288.41 0 0 1-.676 3.484c2.444 0 4.706-.026 6.786-.078.468 0 .815.121 1.04.364.243.243.381.546.416.91.035.347-.026.702-.182 1.066-.156.347-.399.65-.728.91-.329.243-.737.373-1.222.39-2.08.035-4.368.061-6.864.078l-.728 3.406-.572 2.704c-.104.485-.312.875-.624 1.17a2.063 2.063 0 0 1-1.014.572 2.11 2.11 0 0 1-1.092-.026 1.452 1.452 0 0 1-.78-.572c-.191-.295-.234-.676-.13-1.144Zm15.744 1.846c-.52 0-.936-.208-1.248-.624-.312-.416-.416-.867-.312-1.352l1.508-7.514 1.482-7.306c.121-.572.381-1.014.78-1.326.416-.329.866-.494 1.352-.494.433 0 .797.121 1.092.364.294.243.442.589.442 1.04 0 .156-.009.277-.026.364l-1.378 6.812-1.3 6.604 7.202-.052c.468 0 .84.139 1.118.416.277.277.424.598.442.962 0 .572-.217 1.066-.65 1.482-.434.416-.962.624-1.586.624h-3.328c-2.618.035-4.481.035-5.59 0Zm9.832-1.092a2.152 2.152 0 0 1-.052-.39c0-.329.104-.659.312-.988l9.022-14.742c.589-.953 1.3-1.43 2.132-1.43.971 0 1.551.477 1.742 1.43l.728 4.42.858 5.59.754 4.68c.069.433.017.841-.156 1.222a2.446 2.446 0 0 1-.728.936 1.7 1.7 0 0 1-1.014.338c-.867 0-1.378-.373-1.534-1.118l-.624-3.952-5.772.13-2.262 3.874c-.225.347-.52.624-.884.832a2.184 2.184 0 0 1-1.066.286c-.347 0-.65-.095-.91-.286-.277-.191-.459-.468-.546-.832Zm7.878-7.41 2.99-.052-.52-3.77-2.47 3.822Zm26.661 6.734c-.121.503-.347.893-.676 1.17a2.333 2.333 0 0 1-1.04.546 2.316 2.316 0 0 1-1.092-.052 1.411 1.411 0 0 1-.754-.624c-.156-.295-.173-.676-.052-1.144.26-1.127.945-4.455 2.054-9.984a109.291 109.291 0 0 0-4.888 5.174 2.454 2.454 0 0 1-1.352.78c-.503.087-.927-.009-1.274-.286a.292.292 0 0 1-.104-.104 1.446 1.446 0 0 1-.416-.442l-2.912-5.044c0 .017-.052.269-.156.754-.104.468-.234 1.083-.39 1.846-.156.745-.329 1.543-.52 2.392-.173.832-.347 1.629-.52 2.392-.156.745-.286 1.361-.39 1.846l-.156.702c-.104.485-.312.875-.624 1.17a2.063 2.063 0 0 1-1.014.572 2.11 2.11 0 0 1-1.092-.026 1.452 1.452 0 0 1-.78-.572c-.191-.295-.234-.676-.13-1.144.156-.728.425-1.95.806-3.666.173-.867.329-1.612.468-2.236.139-.624.26-1.205.364-1.742.121-.537.234-1.075.338-1.612a45.9 45.9 0 0 0 .364-1.872c.225-1.231.442-2.505.65-3.822.069-.503.303-.945.702-1.326.416-.381.884-.589 1.404-.624.26-.017.494.017.702.104.468.069.806.303 1.014.702l4.238 7.254c2.427-2.6 4.827-4.94 7.202-7.02.503-.624 1.101-.927 1.794-.91.503.017.884.208 1.144.572.277.364.355.797.234 1.3-.399 1.647-.927 4.16-1.586 7.54-.676 3.397-1.196 5.876-1.56 7.436Zm14.412 1.768c-2.565 0-6.058-.026-10.478-.078-.347 0-.641-.095-.884-.286a1.553 1.553 0 0 1-.494-.754 1.545 1.545 0 0 1-.078-1.014c.139-.607.65-3.051 1.534-7.332.641-3.12 1.239-5.573 1.794-7.358.069-.225.165-.433.286-.624a2.47 2.47 0 0 1 .806-.832 2.194 2.194 0 0 1 1.118-.364c1.265-.017 2.973-.026 5.122-.026 2.149.017 3.857.017 5.122 0 .451 0 .789.121 1.014.364.243.243.381.546.416.91.035.347-.026.702-.182 1.066a2.029 2.029 0 0 1-.702.884c-.329.243-.745.364-1.248.364-.971 0-2.418-.009-4.342-.026-1.924 0-3.371.009-4.342.026a123.988 123.988 0 0 0-.91 3.744c.832-.017 3.397-.026 7.696-.026.468 0 .815.121 1.04.364.243.243.381.546.416.91.035.347-.035.702-.208 1.066a2.153 2.153 0 0 1-.754.884c-.329.243-.745.364-1.248.364-4.316 0-6.873.009-7.67.026-.381 1.941-.667 3.311-.858 4.108 3.519.035 6.457.052 8.814.052.468 0 .815.121 1.04.364.225.243.347.546.364.91.035.347-.035.702-.208 1.066a2.153 2.153 0 0 1-.754.884c-.329.243-.737.364-1.222.364Zm-38.813 19.984c-1.04 1.005-2.167 1.768-3.38 2.288-1.196.503-2.349.745-3.458.728a8.665 8.665 0 0 1-3.146-.572 6.852 6.852 0 0 1-2.574-1.742 6.987 6.987 0 0 1-1.534-2.704c-.382-1.265-.434-2.583-.156-3.952a10.723 10.723 0 0 1 1.534-3.796 12.837 12.837 0 0 1 2.73-3.094c1.109-.936 2.279-1.647 3.51-2.132a9.594 9.594 0 0 1 3.952-.676 7.025 7.025 0 0 1 3.744 1.222c.312.173.572.373.78.598.225.208.433.442.624.702.242.329.45.667.624 1.014.173.347.346.659.52.936.19.381.234.763.13 1.144a2.071 2.071 0 0 1-.572.988 2.683 2.683 0 0 1-.988.624 1.9 1.9 0 0 1-1.066.104c-.347-.087-.624-.321-.832-.702l-.39-.676-.286-.572a1.963 1.963 0 0 0-.442-.572 5.215 5.215 0 0 0-.546-.52c-1.092-.624-2.219-.832-3.38-.624-1.162.191-2.271.737-3.328 1.638-1.11.901-1.907 1.95-2.392 3.146-.468 1.179-.546 2.357-.234 3.536.329 1.127.97 1.959 1.924 2.496.953.537 2.01.711 3.172.52 1.178-.208 2.236-.763 3.172-1.664.433-.399.702-.719.806-.962a4.47 4.47 0 0 0 .13-.338c-.486-.017-1.439.009-2.86.078-.451.017-.806-.087-1.066-.312a1.539 1.539 0 0 1-.442-.884 2.248 2.248 0 0 1 .156-1.066c.156-.364.39-.667.702-.91.329-.26.745-.399 1.248-.416 1.421-.052 3.016-.078 4.784-.078.502 0 .892.182 1.17.546.312.364.398.815.26 1.352l-.13.598c-.07.416-.165.832-.286 1.248a7.01 7.01 0 0 1-.364 1.066c-.364.78-.971 1.577-1.82 2.392Zm14.907 3.016c-2.565 0-6.058-.026-10.478-.078-.346 0-.641-.095-.884-.286a1.56 1.56 0 0 1-.494-.754 1.558 1.558 0 0 1-.078-1.014c.139-.607.65-3.051 1.534-7.332.642-3.12 1.24-5.573 1.794-7.358.07-.225.165-.433.286-.624a2.47 2.47 0 0 1 .806-.832c.347-.225.72-.347 1.118-.364 1.266-.017 2.973-.026 5.122-.026 2.15.017 3.857.017 5.122 0 .451 0 .789.121 1.014.364.243.243.382.546.416.91.035.347-.026.702-.182 1.066a2.014 2.014 0 0 1-.702.884c-.329.243-.745.364-1.248.364-.97 0-2.418-.009-4.342-.026-1.924 0-3.371.009-4.342.026-.277 1.057-.58 2.305-.91 3.744.832-.017 3.398-.026 7.696-.026.468 0 .815.121 1.04.364.243.243.382.546.416.91.035.347-.034.702-.208 1.066a2.153 2.153 0 0 1-.754.884c-.329.243-.745.364-1.248.364-4.316 0-6.872.009-7.67.026-.381 1.941-.667 3.311-.858 4.108 3.519.035 6.457.052 8.814.052.468 0 .815.121 1.04.364.226.243.347.546.364.91.035.347-.034.702-.208 1.066a2.153 2.153 0 0 1-.754.884c-.329.243-.736.364-1.222.364Zm1.543-1.092a2.247 2.247 0 0 1-.052-.39c0-.329.104-.659.312-.988l9.022-14.742c.59-.953 1.3-1.43 2.132-1.43.971 0 1.552.477 1.742 1.43l.728 4.42.858 5.59.754 4.68c.07.433.018.841-.156 1.222a2.446 2.446 0 0 1-.728.936 1.7 1.7 0 0 1-1.014.338c-.866 0-1.378-.373-1.534-1.118l-.624-3.952-5.772.13-2.262 3.874c-.225.347-.52.624-.884.832a2.181 2.181 0 0 1-1.066.286c-.346 0-.65-.095-.91-.286-.277-.191-.459-.468-.546-.832Zm7.878-7.41 2.99-.052-.52-3.77-2.47 3.822Zm19.459 7.098a64.026 64.026 0 0 0-.156-3.458l-.026-.572c-.104-1.647-.997-2.47-2.678-2.47-.173 0-.52.017-1.04.052-.624.035-1.153.052-1.586.052h-.78l-1.248 5.98c-.121.572-.39 1.014-.806 1.326a2.102 2.102 0 0 1-1.326.468c-.537 0-.953-.165-1.248-.494-.277-.329-.364-.763-.26-1.3l1.612-7.8 1.482-6.968c.121-.503.39-.919.806-1.248a2.396 2.396 0 0 1 1.404-.572l.91-.078c1.352-.104 2.271-.156 2.756-.156 5.564 0 8.346 1.465 8.346 4.394 0 1.127-.39 2.132-1.17 3.016-.78.884-1.829 1.525-3.146 1.924.693.537 1.179 1.361 1.456 2.47.295 1.092.433 2.609.416 4.55.017.659-.208 1.196-.676 1.612-.468.416-.997.624-1.586.624-.399 0-.737-.113-1.014-.338-.277-.225-.425-.563-.442-1.014Zm-5.46-9.724a21.878 21.878 0 0 1 2.496-.156h1.586c.52 0 1.075-.087 1.664-.26.589-.191 1.092-.442 1.508-.754.416-.312.624-.659.624-1.04 0-.641-.329-1.101-.988-1.378-.659-.277-1.777-.416-3.354-.416-1.213 0-2.158.026-2.834.078a172.95 172.95 0 0 0-.78 3.926h.078Z"/>
</svg>
