<svg xmlns="http://www.w3.org/2000/svg" width="1024" height="1024" fill="none" viewBox="0 0 1024 1024">
  <path fill="#C6C8BF" d="M246 934V89c0-7.732 6.268-14 14-14h503.629c7.732 0 14 5.898 14 13.63v739.504c0 69.003-66.66 119.866-190.171 119.866H259.936c-7.732 0-13.936-6.268-13.936-14Z"/>
  <path fill="#757C8C" d="M727.355 131.938H300.179c-5.522 0-10 4.478-10 10v324.236c0 5.523 4.355 10 9.878 10h382.356c36.455 0 54.942-31.681 54.942-65.966v-268.33c0-5.523-4.477-9.94-10-9.94Z"/>
  <circle cx="355" cy="667" r="85" fill="#B6B8AE"/>
  <path fill="#040B0E" d="M327.063 644.488h-31.408a4 4 0 0 0-4 4v35.56a4 4 0 0 0 4 4h31.408a4 4 0 0 1 4 4v34.786a4 4 0 0 0 4 4h38.104a4 4 0 0 0 4-4v-34.786a4 4 0 0 1 4-4h33.211a4 4 0 0 0 4-4v-35.56a4 4 0 0 0-4-4h-33.211a4 4 0 0 1-4-4v-32.724a4 4 0 0 0-4-4h-38.104a4 4 0 0 0-4 4v32.724a4 4 0 0 1-4 4Z"/>
  <rect width="190" height="90" x="565" y="656.674" fill="#B6B8AE" rx="45" transform="rotate(-26 565 656.674)"/>
  <circle cx="625.388" cy="676.934" r="32.549" fill="#63213C"/>
  <circle cx="714.615" cy="634.751" r="32.549" fill="#63213C"/>
  <rect width="291.463" height="265.077" x="368.036" y="171.518" fill="#B6AB04" rx="6"/>
  <circle cx="318.736" cy="261.959" r="8.68" fill="#CA172A"/>
  <rect width="121.342" height="3.993" x="306.41" y="144.263" fill="#623151" rx="1.996"/>
  <rect width="121.342" height="3.993" x="306.41" y="156.589" fill="#200F54" rx="1.996"/>
  <rect width="53.467" height="3.993" x="669.22" y="144.263" fill="#623151" rx="1.996"/>
  <rect width="53.467" height="3.993" x="669.22" y="156.589" fill="#200F54" rx="1.996"/>
  <rect width="12.846" height="88.173" x="578.257" y="860.141" fill="#9C988F" rx="6.423" transform="rotate(-29 578.257 860.141)"/>
  <rect width="12.846" height="88.173" x="713.313" y="783.065" fill="#9C988F" rx="6.423" transform="rotate(-29 713.313 783.065)"/>
  <rect width="12.846" height="88.173" x="686.406" y="799.556" fill="#9C988F" rx="6.423" transform="rotate(-29 686.406 799.556)"/>
  <rect width="12.846" height="88.173" x="659.325" y="814.833" fill="#9C988F" rx="6.423" transform="rotate(-29 659.325 814.833)"/>
  <rect width="12.846" height="88.173" x="632.245" y="829.934" fill="#9C988F" rx="6.423" transform="rotate(-29 632.245 829.934)"/>
  <rect width="12.846" height="88.173" x="605.338" y="845.211" fill="#9C988F" rx="6.423" transform="rotate(-29 605.338 845.211)"/>
  <path fill="#212678" d="M401.911 502.605h8.189l-1.33 10.754c-.697.494-1.412.925-2.147 1.292-.735.367-1.507.678-2.318.931-.811.241-1.672.418-2.584.532-.899.127-1.868.19-2.907.19-1.659 0-3.173-.298-4.541-.893a10.337 10.337 0 0 1-3.477-2.508c-.963-1.077-1.71-2.356-2.242-3.838-.519-1.482-.779-3.097-.779-4.845 0-2.331.367-4.465 1.102-6.403.747-1.951 1.767-3.629 3.059-5.035a13.647 13.647 0 0 1 4.636-3.268c1.786-.785 3.724-1.178 5.814-1.178 1.089 0 2.077.095 2.964.285.887.19 1.685.45 2.394.779a9.693 9.693 0 0 1 1.938 1.159c.57.443 1.089.918 1.558 1.425l-1.368 1.786c-.228.329-.5.532-.817.608-.317.063-.64-.013-.969-.228a28.063 28.063 0 0 1-1.026-.665 6.82 6.82 0 0 0-1.216-.703 7.851 7.851 0 0 0-1.596-.532c-.608-.139-1.33-.209-2.166-.209-1.469 0-2.812.285-4.028.855a9.01 9.01 0 0 0-3.135 2.432c-.874 1.051-1.552 2.318-2.033 3.8-.481 1.482-.722 3.129-.722 4.94 0 1.368.171 2.597.513 3.686.355 1.077.855 1.995 1.501 2.755a6.632 6.632 0 0 0 2.318 1.729c.912.405 1.925.608 3.04.608 1.178 0 2.204-.12 3.078-.361.874-.241 1.716-.57 2.527-.988l.684-5.643h-3.401c-.266 0-.475-.076-.627-.228a.693.693 0 0 1-.171-.57l.285-2.451Zm26.748 3.173-2.166-10.241a35.015 35.015 0 0 0-.247-1.349 64.083 64.083 0 0 1-.266-1.672c-.215.608-.43 1.172-.646 1.691-.215.507-.411.963-.589 1.368l-4.674 10.203h8.588ZM435.233 516h-3.306c-.38 0-.677-.089-.893-.266a1.616 1.616 0 0 1-.437-.741l-1.292-6.137h-10.659l-2.812 6.137c-.126.266-.329.5-.608.703a1.49 1.49 0 0 1-.931.304h-3.344l13.319-27.36h4.351l6.612 27.36Zm34.186-27.36L466.056 516h-3.743l2.318-18.886c.038-.291.089-.621.152-.988.076-.367.158-.735.247-1.102l-10.013 16.359c-.38.633-.925.95-1.634.95h-.589c-.329 0-.621-.076-.874-.228a1.393 1.393 0 0 1-.551-.722l-6.08-16.359c-.013.367-.032.722-.057 1.064-.013.342-.032.659-.057.95L442.857 516h-3.762l3.363-27.36h3.192c.19 0 .348.013.475.038a.971.971 0 0 1 .627.304c.089.089.184.209.285.361l6.118 16.34c.19.595.355 1.203.494 1.824.139-.317.285-.627.437-.931.152-.304.317-.602.494-.893l10.089-16.34c.266-.291.494-.481.684-.57.203-.089.488-.133.855-.133h3.211Zm10.777 3.477-1.026 8.417h9.139l-.437 3.344h-9.12l-1.064 8.645h11.495l-.437 3.477h-15.789l3.363-27.36h15.77l-.437 3.477h-11.457Zm37.437 10.488h8.189l-1.33 10.754c-.697.494-1.412.925-2.147 1.292-.735.367-1.507.678-2.318.931-.811.241-1.672.418-2.584.532-.899.127-1.868.19-2.907.19-1.659 0-3.173-.298-4.541-.893a10.337 10.337 0 0 1-3.477-2.508c-.963-1.077-1.71-2.356-2.242-3.838-.519-1.482-.779-3.097-.779-4.845 0-2.331.367-4.465 1.102-6.403.747-1.951 1.767-3.629 3.059-5.035a13.647 13.647 0 0 1 4.636-3.268c1.786-.785 3.724-1.178 5.814-1.178 1.089 0 2.077.095 2.964.285.887.19 1.685.45 2.394.779a9.693 9.693 0 0 1 1.938 1.159c.57.443 1.089.918 1.558 1.425l-1.368 1.786c-.228.329-.5.532-.817.608-.317.063-.64-.013-.969-.228a28.063 28.063 0 0 1-1.026-.665 6.82 6.82 0 0 0-1.216-.703 7.851 7.851 0 0 0-1.596-.532c-.608-.139-1.33-.209-2.166-.209-1.469 0-2.812.285-4.028.855a9.01 9.01 0 0 0-3.135 2.432c-.874 1.051-1.552 2.318-2.033 3.8-.481 1.482-.722 3.129-.722 4.94 0 1.368.171 2.597.513 3.686.355 1.077.855 1.995 1.501 2.755a6.632 6.632 0 0 0 2.318 1.729c.912.405 1.925.608 3.04.608 1.178 0 2.204-.12 3.078-.361.874-.241 1.716-.57 2.527-.988l.684-5.643h-3.401c-.266 0-.475-.076-.627-.228a.693.693 0 0 1-.171-.57l.285-2.451Zm22.789 9.956c.95 0 1.818-.177 2.603-.532a6.517 6.517 0 0 0 2.09-1.52 8.007 8.007 0 0 0 1.482-2.337c.38-.912.64-1.913.779-3.002l2.033-16.53h4.275l-2.014 16.53a14.678 14.678 0 0 1-1.273 4.446 12.452 12.452 0 0 1-2.489 3.534 11.374 11.374 0 0 1-3.534 2.337c-1.343.557-2.812.836-4.408.836-1.596 0-2.996-.279-4.199-.836-1.203-.57-2.191-1.349-2.964-2.337-.76-1.001-1.298-2.179-1.615-3.534-.304-1.368-.355-2.85-.152-4.446l1.995-16.53h4.275l-2.014 16.53c-.139 1.089-.127 2.09.038 3.002.165.899.462 1.678.893 2.337a4.696 4.696 0 0 0 1.71 1.52c.709.355 1.539.532 2.489.532Zm28.214-7.334L567.287 516h-4.275l1.349-10.773-7.163-16.587h3.8c.367 0 .652.095.855.285.215.177.374.412.475.703l4.009 10.127c.279.811.494 1.602.646 2.375.177-.38.367-.76.57-1.14.215-.393.45-.804.703-1.235l6.536-10.127c.152-.253.348-.481.589-.684.253-.203.564-.304.931-.304h3.553l-11.229 16.587ZM288.886 514v-15.4h3.3V514h-3.3Zm1.518-6.116v-2.838h7.964v2.838h-7.964Zm0-6.314v-2.97h8.888v2.97h-8.888ZM302.202 514v-11.638h3.124V514h-3.124Zm1.54-14.036c-.601 0-1.071-.147-1.408-.44-.337-.293-.506-.711-.506-1.254 0-.499.169-.902.506-1.21.352-.323.821-.484 1.408-.484.601 0 1.071.154 1.408.462.337.293.506.704.506 1.232 0 .513-.176.924-.528 1.232-.337.308-.799.462-1.386.462ZM308.663 514v-11.638h3.014l.11 3.74-.528-.77a4.577 4.577 0 0 1 .858-1.628 4.363 4.363 0 0 1 1.386-1.166 3.655 3.655 0 0 1 1.694-.418c.249 0 .491.022.726.066.234.044.432.095.594.154l-.836 3.432a2.961 2.961 0 0 0-.638-.22 2.73 2.73 0 0 0-.77-.11c-.352 0-.682.066-.99.198-.294.117-.55.293-.77.528-.22.22-.396.484-.528.792a2.805 2.805 0 0 0-.176 1.012V514h-3.146Zm14.674.22c-1.261 0-2.361-.257-3.3-.77a5.639 5.639 0 0 1-2.2-2.112c-.528-.895-.792-1.921-.792-3.08 0-.895.147-1.716.44-2.464a5.75 5.75 0 0 1 1.232-1.936 5.306 5.306 0 0 1 1.87-1.276 6.07 6.07 0 0 1 2.376-.462c.792 0 1.525.147 2.2.44a4.827 4.827 0 0 1 1.738 1.21c.499.513.88 1.122 1.144 1.826.264.704.381 1.474.352 2.31l-.022.968h-9.35l-.506-1.914h7.282l-.352.396v-.484a2.053 2.053 0 0 0-.396-1.078 2.223 2.223 0 0 0-.858-.748 2.62 2.62 0 0 0-1.188-.264c-.645 0-1.195.125-1.65.374a2.46 2.46 0 0 0-1.012 1.1c-.235.484-.352 1.071-.352 1.76 0 .704.147 1.313.44 1.826.308.513.733.917 1.276 1.21.557.279 1.21.418 1.958.418.513 0 .983-.081 1.408-.242.425-.161.88-.44 1.364-.836l1.496 2.09a6.68 6.68 0 0 1-1.408.968 7.885 7.885 0 0 1-1.584.572 6.78 6.78 0 0 1-1.606.198Zm7.391-.22v-16.28h3.124V514h-3.124Zm6.558 0v-11.638h3.124V514h-3.124Zm1.54-14.036c-.601 0-1.071-.147-1.408-.44-.337-.293-.506-.711-.506-1.254 0-.499.169-.902.506-1.21.352-.323.821-.484 1.408-.484.601 0 1.071.154 1.408.462.337.293.506.704.506 1.232 0 .513-.176.924-.528 1.232-.337.308-.799.462-1.386.462Zm10.223 19.096a9.11 9.11 0 0 1-2.728-.418c-.895-.264-1.621-.609-2.178-1.034l1.1-2.244c.293.205.63.389 1.012.55a6.59 6.59 0 0 0 1.188.374c.425.088.858.132 1.298.132.762 0 1.386-.117 1.87-.352a2.389 2.389 0 0 0 1.122-1.056c.249-.455.374-1.041.374-1.76v-2.024l.528.11c-.088.484-.33.931-.726 1.342-.396.396-.895.719-1.496.968a5.04 5.04 0 0 1-1.848.352c-1.086 0-2.046-.249-2.882-.748a5.374 5.374 0 0 1-1.98-2.068c-.484-.88-.726-1.892-.726-3.036 0-1.173.234-2.207.704-3.102.484-.909 1.136-1.621 1.958-2.134.836-.528 1.782-.792 2.838-.792.44 0 .858.051 1.254.154.41.103.784.249 1.122.44.352.176.66.381.924.616.278.22.506.462.682.726.176.264.286.528.33.792l-.638.176.088-2.662h2.992v10.758c0 .953-.14 1.797-.418 2.53a4.78 4.78 0 0 1-1.232 1.848c-.528.513-1.181.902-1.958 1.166-.763.264-1.621.396-2.574.396Zm.088-7.568c.616 0 1.151-.139 1.606-.418a2.768 2.768 0 0 0 1.078-1.166c.249-.499.374-1.085.374-1.76 0-.66-.125-1.239-.374-1.738a2.745 2.745 0 0 0-1.078-1.188c-.455-.279-.99-.418-1.606-.418-.602 0-1.137.147-1.606.44a2.802 2.802 0 0 0-1.056 1.166c-.25.499-.374 1.078-.374 1.738 0 .66.124 1.247.374 1.76.249.499.601.887 1.056 1.166.469.279 1.004.418 1.606.418Zm9.197 2.508v-16.28h3.08v7.018l-.616.264a3.538 3.538 0 0 1 .858-1.43c.426-.44.932-.792 1.518-1.056a4.456 4.456 0 0 1 1.848-.396c.88 0 1.614.176 2.2.528.602.352 1.049.887 1.342 1.606.308.704.462 1.577.462 2.618V514h-3.124v-6.886c0-.528-.073-.968-.22-1.32a1.468 1.468 0 0 0-.682-.77c-.293-.176-.66-.249-1.1-.22-.352 0-.682.059-.99.176-.293.103-.55.257-.77.462-.205.205-.374.44-.506.704-.117.264-.176.55-.176.858V514h-3.124Zm14.808 0v-14.586h3.124V514h-3.124Zm-2.178-8.844v-2.794h7.678v2.794h-7.678ZM517.24 842.609a1.887 1.887 0 0 1-.998.191 2.088 2.088 0 0 1-.936-.323 1.885 1.885 0 0 1-.669-.764l-.337-.692 1.661-.81.301.616a.2.2 0 0 0 .093.095.205.205 0 0 0 .131-.017l5.424-2.645a.158.158 0 0 0 .082-.087.177.177 0 0 0-.005-.138l-.841-1.724a.133.133 0 0 0-.099-.076.152.152 0 0 0-.119.011l-5.487 2.676a1.882 1.882 0 0 1-.997.191 2.088 2.088 0 0 1-.936-.323 1.91 1.91 0 0 1-.675-.776l-.908-1.863a1.81 1.81 0 0 1-.185-.984c.029-.347.134-.663.317-.949.19-.29.445-.513.764-.669l5.561-2.712c.319-.156.648-.217.985-.185.347.029.665.138.955.329.286.182.507.433.663.752l.337.692-1.673.816-.301-.617a.135.135 0 0 0-.1-.076.135.135 0 0 0-.125-.001l-5.423 2.645a.176.176 0 0 0-.089.106.149.149 0 0 0 .012.119l.84 1.724c.021.042.05.069.087.082.046.009.09.003.132-.018l5.499-2.682a1.82 1.82 0 0 1 .985-.184c.346.029.664.138.954.329.286.182.509.437.669.764l.908 1.862c.156.319.219.652.191.998a2.05 2.05 0 0 1-.335.942 1.807 1.807 0 0 1-.752.662l-5.561 2.713Zm12.937-6.31-3.602-7.386-3.7 1.804-.816-1.674 9.06-4.418.816 1.673-3.687 1.798 3.603 7.387-1.674.816Zm7.333-3.577-3.565-7.31a1.815 1.815 0 0 1-.185-.985c.029-.347.134-.663.317-.949.19-.29.445-.513.764-.669l5.549-2.706c.319-.156.651-.219.997-.191.346.029.665.138.955.329.286.182.507.433.663.752l3.565 7.311-1.673.816-1.485-3.045-5.726 2.792 1.485 3.045-1.661.81Zm-.634-5.516 5.725-2.792-1.233-2.53a.137.137 0 0 0-.1-.076.175.175 0 0 0-.137.005l-5.411 2.639a.176.176 0 0 0-.089.106.149.149 0 0 0 .012.119l1.233 2.529Zm19.357-3.615-4.32-1.928 2.177-1.061 3.728 1.639.227.466-1.812.884Zm-7.222 3.522-4.413-9.047 7.298-3.56c.319-.155.651-.219.998-.19.346.028.664.138.954.329.287.182.507.433.663.751l1.191 2.441c.155.319.218.652.19.998a2.01 2.01 0 0 1-.329.955 1.96 1.96 0 0 1-.77.656l-5.631 2.762 1.51 3.095-1.661.81Zm-.521-5.665 5.411-2.639a.209.209 0 0 0 .095-.093.132.132 0 0 0 .001-.125l-1.129-2.316a.135.135 0 0 0-.099-.076.177.177 0 0 0-.138.005l-5.411 2.639a.18.18 0 0 0-.089.106.149.149 0 0 0 .012.119l1.129 2.315c.02.042.049.07.087.082.046.009.09.003.131-.017Zm15.157-1.473-3.602-7.387-3.7 1.805-.816-1.674 9.06-4.419.816 1.674-3.687 1.798 3.603 7.386-1.674.817Zm-145.139 26.607a1.881 1.881 0 0 1-.997.19 2.087 2.087 0 0 1-.936-.322 1.898 1.898 0 0 1-.669-.764l-.337-.692 1.661-.811.3.617a.209.209 0 0 0 .093.095c.046.009.09.003.132-.018l5.423-2.645a.15.15 0 0 0 .083-.087.175.175 0 0 0-.005-.137l-.841-1.724a.133.133 0 0 0-.1-.076.153.153 0 0 0-.119.011l-5.486 2.676a1.883 1.883 0 0 1-.997.19 2.087 2.087 0 0 1-.936-.322 1.905 1.905 0 0 1-.675-.777l-.908-1.862a1.813 1.813 0 0 1-.185-.985c.029-.346.134-.662.316-.949.191-.29.446-.513.764-.668l5.562-2.713c.319-.155.647-.217.985-.184.346.028.664.138.955.329.286.182.507.432.662.751l.338.692-1.674.816-.3-.616a.135.135 0 0 0-.1-.076.13.13 0 0 0-.125-.001l-5.423 2.645a.171.171 0 0 0-.089.105.152.152 0 0 0 .011.119l.841 1.724c.021.042.05.07.087.082.046.009.09.003.132-.017l5.498-2.682c.319-.155.647-.217.985-.184.346.028.665.138.955.328.286.183.509.437.669.765l.908 1.862c.155.319.219.651.191.997a2.062 2.062 0 0 1-.335.942 1.808 1.808 0 0 1-.752.663l-5.562 2.713Zm9.717-4.739-4.419-9.06 8.342-4.069.817 1.673-6.669 3.253.982 2.013 5.36-2.614.822 1.686-5.36 2.615.982 2.013 6.669-3.253.816 1.674-8.342 4.069Zm10.628-5.184-4.425-9.072 1.661-.81 3.608 7.398 7.399-3.608.816 1.673-9.059 4.419Zm10.825-5.28-4.419-9.06 8.343-4.069.816 1.674-6.669 3.253.982 2.013 5.36-2.614.823 1.686-5.361 2.614.982 2.013 6.669-3.252.816 1.673-8.342 4.069Zm12.364-6.03a1.881 1.881 0 0 1-.997.19 2.087 2.087 0 0 1-.936-.322 1.898 1.898 0 0 1-.669-.764l-2.712-5.562a1.813 1.813 0 0 1-.185-.985c.029-.346.134-.662.316-.948a1.88 1.88 0 0 1 .765-.669l7.285-3.554.816 1.674-6.933 3.382a.523.523 0 0 0-.272.272c-.038.113-.023.24.047.383l2.356 4.832a.528.528 0 0 0 .273.272.523.523 0 0 0 .382-.047l6.934-3.381.816 1.673-7.286 3.554Zm12.851-6.268-3.603-7.386-3.699 1.804-.816-1.674 9.06-4.418.816 1.673-3.687 1.798 3.603 7.387-1.674.816Z"/>
  <path fill="#D4D6CD" d="m355 587 4.33 7.5h-8.66L355 587Zm0 160-4.33-7.5h8.66L355 747Zm80-80-7.5 4.33v-8.66L435 667Zm-161 0 7.5-4.33v8.66L274 667Z"/>
  <path fill="#fff" d="M302.574 290v-8.4h3.504c.536 0 .988.08 1.356.24.368.16.644.4.828.72.192.312.288.696.288 1.152 0 .456-.128.844-.384 1.164-.248.32-.596.54-1.044.66v-.24c.376.08.704.224.984.432.28.2.496.452.648.756.16.304.24.652.24 1.044 0 .4-.064.756-.192 1.068-.12.304-.304.56-.552.768-.24.208-.532.368-.876.48a4.065 4.065 0 0 1-1.176.156h-3.624Zm1.296-1.248h2.256c.328 0 .604-.048.828-.144a1.12 1.12 0 0 0 .528-.42c.128-.192.192-.42.192-.684 0-.248-.068-.46-.204-.636a1.148 1.148 0 0 0-.552-.396 2.289 2.289 0 0 0-.852-.144h-2.196v2.424Zm0-3.672h2.136c.24 0 .452-.048.636-.144.192-.096.34-.228.444-.396.112-.168.168-.36.168-.576 0-.36-.12-.636-.36-.828-.24-.192-.584-.288-1.032-.288h-1.992v2.232Zm5.996 4.92 3.252-8.4h1.32l3.228 8.4h-1.38l-1.92-5.064a7.16 7.16 0 0 1-.144-.408c-.064-.216-.14-.456-.228-.72l-.24-.72c-.072-.224-.12-.368-.144-.432l.276-.012-.18.516c-.064.208-.136.428-.216.66a21.523 21.523 0 0 1-.396 1.164L311.186 290h-1.32Zm1.44-2.088.48-1.248h3.816l.552 1.248h-4.848Zm8.837 2.088v-7.152h-2.352V281.6h6.072v1.248h-2.424V290h-1.296Zm7.277 0v-7.152h-2.352V281.6h6.072v1.248h-2.424V290h-1.296Zm5.319 0v-8.4h5.292v1.248h-3.996v5.904h3.996V290h-5.292Zm.587-3.684v-1.248h4.045v1.248h-4.045ZM340.11 290v-8.4h3.576c.48 0 .92.12 1.32.36.408.232.732.552.972.96.24.4.36.852.36 1.356 0 .456-.12.88-.36 1.272s-.56.708-.96.948c-.4.232-.844.348-1.332.348h-2.28V290h-1.296Zm4.992 0-2.136-3.792 1.332-.3 2.376 4.104-1.572-.012Zm-3.696-4.404h2.4c.232 0 .44-.056.624-.168.184-.12.328-.28.432-.48.104-.208.156-.436.156-.684 0-.28-.068-.524-.204-.732a1.3 1.3 0 0 0-.552-.504 1.699 1.699 0 0 0-.792-.18h-2.064v2.748Zm8.706 4.404v-4.188l.084.588-3.396-4.8h1.56l2.592 3.72-.3-.036 2.34-3.684h1.488l-3.252 4.932.18-.816V290h-1.296Zm94.265-134v-8.4h3.288c.6 0 1.14.1 1.62.3.488.2.904.488 1.248.864s.608.82.792 1.332a5.01 5.01 0 0 1 .276 1.704c0 .624-.092 1.196-.276 1.716a3.904 3.904 0 0 1-.792 1.332 3.386 3.386 0 0 1-1.236.852c-.488.2-1.032.3-1.632.3h-3.288Zm1.296-1.116-.036-.132h1.968c.424 0 .8-.068 1.128-.204.336-.136.616-.328.84-.576a2.55 2.55 0 0 0 .528-.936c.12-.368.18-.78.18-1.236 0-.456-.06-.864-.18-1.224a2.55 2.55 0 0 0-.528-.936 2.314 2.314 0 0 0-.84-.588 2.925 2.925 0 0 0-1.128-.204h-2.004l.072-.108v6.144Zm11.197 1.236a4.13 4.13 0 0 1-1.644-.324 4.11 4.11 0 0 1-1.308-.9 4.323 4.323 0 0 1-.864-1.368 4.84 4.84 0 0 1-.3-1.728c0-.624.1-1.196.3-1.716.208-.528.496-.984.864-1.368a4.019 4.019 0 0 1 1.308-.912 4.13 4.13 0 0 1 1.644-.324c.592 0 1.136.108 1.632.324.504.216.94.52 1.308.912.376.392.664.852.864 1.38.208.52.312 1.088.312 1.704a4.64 4.64 0 0 1-.312 1.716c-.2.52-.488.976-.864 1.368a3.857 3.857 0 0 1-1.308.912 4.044 4.044 0 0 1-1.632.324Zm0-1.26a2.677 2.677 0 0 0 2.004-.864c.248-.28.44-.604.576-.972.144-.376.216-.784.216-1.224 0-.44-.072-.844-.216-1.212a2.875 2.875 0 0 0-.576-.972 2.548 2.548 0 0 0-.888-.648 2.677 2.677 0 0 0-1.116-.228 2.76 2.76 0 0 0-1.128.228 2.786 2.786 0 0 0-.888.636c-.248.272-.44.596-.576.972a3.508 3.508 0 0 0-.204 1.224c0 .44.068.848.204 1.224.136.376.328.7.576.972.256.272.552.484.888.636.344.152.72.228 1.128.228Zm7.103 1.14v-7.152h-2.352V147.6h6.072v1.248h-2.424V156h-1.296Zm8.682 0v-8.4h1.272l3.06 4.98-.612-.012 3.096-4.968h1.2v8.4h-1.296v-3.444c0-.72.016-1.368.048-1.944.04-.576.104-1.148.192-1.716l.168.444-2.748 4.248h-.792l-2.664-4.2.132-.492c.088.536.148 1.088.18 1.656.04.56.06 1.228.06 2.004V156h-1.296Zm9.495 0 3.252-8.4h1.32l3.228 8.4h-1.38l-1.92-5.064a7.16 7.16 0 0 1-.144-.408c-.064-.216-.14-.456-.228-.72l-.24-.72c-.072-.224-.12-.368-.144-.432l.276-.012-.18.516c-.064.208-.136.428-.216.66a21.523 21.523 0 0 1-.396 1.164L483.47 156h-1.32Zm1.44-2.088.48-1.248h3.816l.552 1.248h-4.848Zm8.836 2.088v-7.152h-2.352V147.6h6.072v1.248h-2.424V156h-1.296Zm5.318 0v-8.4h3.576c.48 0 .92.12 1.32.36.408.232.732.552.972.96.24.4.36.852.36 1.356 0 .456-.12.88-.36 1.272s-.56.708-.96.948c-.4.232-.844.348-1.332.348h-2.28V156h-1.296Zm4.992 0-2.136-3.792 1.332-.3 2.376 4.104-1.572-.012Zm-3.696-4.404h2.4c.232 0 .44-.056.624-.168.184-.12.328-.28.432-.48.104-.208.156-.436.156-.684 0-.28-.068-.524-.204-.732a1.3 1.3 0 0 0-.552-.504 1.699 1.699 0 0 0-.792-.18h-2.064v2.748Zm6.736 4.404v-1.2h1.356v-6h-1.356v-1.2h4.008v1.2h-1.356v6h1.356v1.2h-4.008Zm11.155 0-2.604-3.768-3.336-4.632h1.644l2.544 3.72 3.396 4.68h-1.644Zm-6 0 3.204-4.572.804.948-2.484 3.624h-1.524Zm4.44-3.9-.792-.912 2.352-3.588h1.524l-3.084 4.5Zm9.814 3.9-2.676-8.4h1.38l1.62 5.256c.048.128.092.28.132.456.04.168.076.34.108.516s.06.34.084.492c.032.152.06.276.084.372l-.348-.012c.12-.424.212-.752.276-.984a28.8 28.8 0 0 1 .276-.852l1.512-3.792h1.164l1.464 3.792c.08.192.148.384.204.576.064.184.12.372.168.564l.156.588-.312.084c.04-.216.068-.384.084-.504a27.473 27.473 0 0 1 .108-.54c.016-.08.04-.18.072-.3.04-.12.092-.284.156-.492l1.596-5.22h1.392l-2.676 8.4h-.9l-2.22-5.256.108.048-2.136 5.208h-.876Zm9.853 0v-1.2h1.356v-6h-1.356v-1.2h4.008v1.2h-1.356v6h1.356v1.2h-4.008Zm7.638 0v-7.152h-2.352V147.6h6.072v1.248h-2.424V156h-1.296Zm10.802 0v-8.4h1.296v8.4h-1.296Zm-5.484 0v-8.4h1.296v8.4h-1.296Zm.564-3.564v-1.248h5.496v1.248h-5.496Zm14.521 3.684c-.456 0-.88-.06-1.272-.18-.384-.12-.736-.3-1.056-.54a4.189 4.189 0 0 1-.84-.912l.888-1.02c.392.56.768.948 1.128 1.164.36.216.788.324 1.284.324.304 0 .58-.048.828-.144a1.44 1.44 0 0 0 .588-.396.86.86 0 0 0 .216-.576c0-.144-.024-.28-.072-.408a.973.973 0 0 0-.228-.348 1.503 1.503 0 0 0-.384-.288 2.61 2.61 0 0 0-.54-.228 4.723 4.723 0 0 0-.72-.18 5.367 5.367 0 0 1-1.128-.348 2.674 2.674 0 0 1-.804-.54 2.077 2.077 0 0 1-.48-.732 2.671 2.671 0 0 1-.156-.936c0-.336.072-.648.216-.936.152-.288.356-.536.612-.744.264-.216.572-.38.924-.492a3.51 3.51 0 0 1 1.14-.18c.432 0 .828.056 1.188.168.36.112.68.28.96.504.28.216.512.484.696.804l-.912.9a2.809 2.809 0 0 0-.54-.66c-.2-.184-.42-.32-.66-.408a2.049 2.049 0 0 0-.768-.144c-.312 0-.584.048-.816.144a1.315 1.315 0 0 0-.552.408.961.961 0 0 0-.192.6c0 .168.032.324.096.468.064.136.16.26.288.372.136.104.316.2.54.288.224.08.492.152.804.216.44.096.832.22 1.176.372.344.144.636.316.876.516s.42.424.54.672c.128.248.192.516.192.804 0 .536-.124 1-.372 1.392a2.46 2.46 0 0 1-1.056.912c-.456.208-1 .312-1.632.312Zm6.492-.12v-7.152h-2.352V147.6h6.072v1.248h-2.424V156h-1.296Zm5.318 0v-8.4h5.292v1.248h-3.996v5.904h3.996V156h-5.292Zm.588-3.684v-1.248h4.044v1.248h-4.044ZM582.26 156v-8.4h3.576c.48 0 .92.12 1.32.36.408.232.732.552.972.96.24.4.36.852.36 1.356 0 .456-.12.88-.36 1.272s-.56.708-.96.948c-.4.232-.844.348-1.332.348h-2.28V156h-1.296Zm4.992 0-2.136-3.792 1.332-.3 2.376 4.104-1.572-.012Zm-3.696-4.404h2.4c.232 0 .44-.056.624-.168.184-.12.328-.28.432-.48.104-.208.156-.436.156-.684 0-.28-.068-.524-.204-.732a1.3 1.3 0 0 0-.552-.504 1.699 1.699 0 0 0-.792-.18h-2.064v2.748Zm7.048 4.404v-8.4h5.292v1.248H591.9v5.904h3.996V156h-5.292Zm.588-3.684v-1.248h4.044v1.248h-4.044Zm10.299 3.804a4.13 4.13 0 0 1-1.644-.324 4.11 4.11 0 0 1-1.308-.9 4.323 4.323 0 0 1-.864-1.368 4.84 4.84 0 0 1-.3-1.728c0-.624.1-1.196.3-1.716.208-.528.496-.984.864-1.368a4.019 4.019 0 0 1 1.308-.912 4.13 4.13 0 0 1 1.644-.324c.592 0 1.136.108 1.632.324.504.216.94.52 1.308.912.376.392.664.852.864 1.38.208.52.312 1.088.312 1.704a4.64 4.64 0 0 1-.312 1.716c-.2.52-.488.976-.864 1.368a3.857 3.857 0 0 1-1.308.912 4.044 4.044 0 0 1-1.632.324Zm0-1.26a2.677 2.677 0 0 0 2.004-.864c.248-.28.44-.604.576-.972.144-.376.216-.784.216-1.224 0-.44-.072-.844-.216-1.212a2.875 2.875 0 0 0-.576-.972 2.548 2.548 0 0 0-.888-.648 2.677 2.677 0 0 0-1.116-.228 2.76 2.76 0 0 0-1.128.228 2.786 2.786 0 0 0-.888.636c-.248.272-.44.596-.576.972a3.508 3.508 0 0 0-.204 1.224c0 .44.068.848.204 1.224.136.376.328.7.576.972.256.272.552.484.888.636.344.152.72.228 1.128.228Zm11.826 1.26c-.456 0-.88-.06-1.272-.18-.384-.12-.736-.3-1.056-.54a4.189 4.189 0 0 1-.84-.912l.888-1.02c.392.56.768.948 1.128 1.164.36.216.788.324 1.284.324.304 0 .58-.048.828-.144a1.44 1.44 0 0 0 .588-.396.86.86 0 0 0 .216-.576c0-.144-.024-.28-.072-.408a.973.973 0 0 0-.228-.348 1.503 1.503 0 0 0-.384-.288 2.61 2.61 0 0 0-.54-.228 4.723 4.723 0 0 0-.72-.18 5.367 5.367 0 0 1-1.128-.348 2.674 2.674 0 0 1-.804-.54 2.077 2.077 0 0 1-.48-.732 2.671 2.671 0 0 1-.156-.936c0-.336.072-.648.216-.936.152-.288.356-.536.612-.744.264-.216.572-.38.924-.492a3.51 3.51 0 0 1 1.14-.18c.432 0 .828.056 1.188.168.36.112.68.28.96.504.28.216.512.484.696.804l-.912.9a2.809 2.809 0 0 0-.54-.66c-.2-.184-.42-.32-.66-.408a2.049 2.049 0 0 0-.768-.144c-.312 0-.584.048-.816.144a1.315 1.315 0 0 0-.552.408.961.961 0 0 0-.192.6c0 .168.032.324.096.468.064.136.16.26.288.372.136.104.316.2.54.288.224.08.492.152.804.216.44.096.832.22 1.176.372.344.144.636.316.876.516s.42.424.54.672c.128.248.192.516.192.804 0 .536-.124 1-.372 1.392a2.46 2.46 0 0 1-1.056.912c-.456.208-1 .312-1.632.312Zm8.412 0a4.13 4.13 0 0 1-1.644-.324 4.11 4.11 0 0 1-1.308-.9 4.323 4.323 0 0 1-.864-1.368 4.84 4.84 0 0 1-.3-1.728c0-.624.1-1.196.3-1.716.208-.528.496-.984.864-1.368a4.019 4.019 0 0 1 1.308-.912 4.13 4.13 0 0 1 1.644-.324c.592 0 1.136.108 1.632.324.504.216.94.52 1.308.912.376.392.664.852.864 1.38.208.52.312 1.088.312 1.704a4.64 4.64 0 0 1-.312 1.716c-.2.52-.488.976-.864 1.368a3.857 3.857 0 0 1-1.308.912 4.044 4.044 0 0 1-1.632.324Zm0-1.26a2.677 2.677 0 0 0 2.004-.864c.248-.28.44-.604.576-.972.144-.376.216-.784.216-1.224 0-.44-.072-.844-.216-1.212a2.875 2.875 0 0 0-.576-.972 2.548 2.548 0 0 0-.888-.648 2.677 2.677 0 0 0-1.116-.228 2.76 2.76 0 0 0-1.128.228 2.786 2.786 0 0 0-.888.636c-.248.272-.44.596-.576.972a3.508 3.508 0 0 0-.204 1.224c0 .44.068.848.204 1.224.136.376.328.7.576.972.256.272.552.484.888.636.344.152.72.228 1.128.228Zm9.135 1.212c-.648 0-1.228-.14-1.74-.42a3.228 3.228 0 0 1-1.212-1.176 3.373 3.373 0 0 1-.432-1.704v-5.184h1.296v5.076c0 .408.096.776.288 1.104.192.32.444.576.756.768.32.192.668.288 1.044.288.4 0 .76-.096 1.08-.288.328-.192.588-.448.78-.768.192-.328.288-.696.288-1.104v-5.076h1.236v5.184c0 .632-.148 1.2-.444 1.704a3.139 3.139 0 0 1-1.2 1.176c-.512.28-1.092.42-1.74.42Zm5.619-.072v-8.4h1.164l5.136 6.876-.192.108c-.032-.2-.06-.416-.084-.648-.024-.24-.048-.492-.072-.756l-.048-.852-.024-.948a41.87 41.87 0 0 1-.012-1.02v-2.76h1.296v8.4h-1.188l-5.052-6.624.132-.168c.04.488.072.904.096 1.248.032.336.056.624.072.864.024.232.04.424.048.576.008.144.012.264.012.36.008.096.012.18.012.252V156h-1.296Zm9.515 0v-8.4h3.288c.6 0 1.14.1 1.62.3.488.2.904.488 1.248.864s.608.82.792 1.332a5.01 5.01 0 0 1 .276 1.704c0 .624-.092 1.196-.276 1.716a3.904 3.904 0 0 1-.792 1.332 3.386 3.386 0 0 1-1.236.852c-.488.2-1.032.3-1.632.3h-3.288Zm1.296-1.116-.036-.132h1.968c.424 0 .8-.068 1.128-.204.336-.136.616-.328.84-.576a2.55 2.55 0 0 0 .528-.936c.12-.368.18-.78.18-1.236 0-.456-.06-.864-.18-1.224a2.55 2.55 0 0 0-.528-.936 2.314 2.314 0 0 0-.84-.588 2.925 2.925 0 0 0-1.128-.204h-2.004l.072-.108v6.144Z"/>
  <rect width="8" height="30" x="297" y="652" fill="#131718" rx="4"/>
  <rect width="8" height="30" x="320" y="652" fill="#131718" rx="4"/>
  <rect width="8" height="30" x="309" y="652" fill="#131718" rx="4"/>
  <rect width="8" height="30" x="383" y="652" fill="#131718" rx="4"/>
  <rect width="8" height="30" x="406" y="652" fill="#131718" rx="4"/>
  <rect width="8" height="30" x="395" y="652" fill="#131718" rx="4"/>
  <rect width="8" height="30" x="340" y="726" fill="#131718" rx="4" transform="rotate(-90 340 726)"/>
  <rect width="8" height="30" x="340" y="703" fill="#131718" rx="4" transform="rotate(-90 340 703)"/>
  <rect width="8" height="30" x="340" y="714" fill="#131718" rx="4" transform="rotate(-90 340 714)"/>
  <rect width="8" height="30" x="340" y="640" fill="#131718" rx="4" transform="rotate(-90 340 640)"/>
  <rect width="8" height="30" x="340" y="617" fill="#131718" rx="4" transform="rotate(-90 340 617)"/>
  <rect width="8" height="30" x="340" y="628" fill="#131718" rx="4" transform="rotate(-90 340 628)"/>
  <circle cx="355" cy="667" r="17" fill="#000304"/>
  <path stroke="#B1B3AC" stroke-width="4" d="M246 103h531.641M280 75v27.5M324 75v6m7-6v6m7-6v6"/>
  <rect width="102" height="20" x="311" y="78" fill="#B1B3AB" rx="10"/>
  <path fill="#212678" d="m646.301 738.859-4.419-9.059 6.946-3.388c.318-.156.647-.217.985-.185.346.029.664.139.954.329.286.183.507.433.663.752l.865 1.774c.053.109.096.218.128.327.033.109.05.22.053.332.237.124.449.27.635.439.194.164.343.352.445.561l.951 1.951c.156.318.219.651.191.997a2.05 2.05 0 0 1-.335.942 1.884 1.884 0 0 1-.764.669l-7.298 3.559Zm.995-2.557 5.411-2.639a.2.2 0 0 0 .095-.093.177.177 0 0 0-.005-.138l-.878-1.799a.131.131 0 0 0-.099-.076.173.173 0 0 0-.138.005l-5.411 2.639a.17.17 0 0 0-.088.105.152.152 0 0 0 .011.119l.878 1.8c.02.042.051.073.093.095a.205.205 0 0 0 .131-.018Zm-1.841-3.775 5.059-2.467a.148.148 0 0 0 .082-.087.197.197 0 0 0-.018-.131l-.798-1.636a.152.152 0 0 0-.086-.083.137.137 0 0 0-.126-.001l-5.058 2.467a.18.18 0 0 0-.089.106.149.149 0 0 0 .012.119l.798 1.636c.02.042.051.073.092.095.046.008.09.003.132-.018Zm91.808-40.649-3.565-7.311a1.813 1.813 0 0 1-.185-.985c.029-.346.134-.662.316-.949.191-.29.446-.513.765-.668l5.549-2.707c.319-.155.651-.219.997-.19.346.028.665.138.955.328.286.183.507.433.663.752l3.565 7.311-1.673.816-1.485-3.045-5.726 2.792 1.485 3.045-1.661.811Zm-.634-5.517 5.725-2.792-1.233-2.529a.133.133 0 0 0-.1-.076.167.167 0 0 0-.137.005l-5.411 2.639a.171.171 0 0 0-.089.105.149.149 0 0 0 .012.119l1.233 2.529Z"/>
  <path fill="#C6C8BF" d="M373.654 94.16c-.789 0-1.52-.144-2.192-.432a5.49 5.49 0 0 1-1.744-1.2 5.789 5.789 0 0 1-1.152-1.824 6.468 6.468 0 0 1-.4-2.304c0-.832.134-1.595.4-2.288a5.557 5.557 0 0 1 1.152-1.824 5.369 5.369 0 0 1 1.744-1.216 5.507 5.507 0 0 1 2.192-.432c.79 0 1.515.144 2.176.432a5.135 5.135 0 0 1 1.744 1.216 5.358 5.358 0 0 1 1.152 1.84 6.05 6.05 0 0 1 .416 2.272c0 .821-.138 1.584-.416 2.288a5.392 5.392 0 0 1-1.152 1.824 5.135 5.135 0 0 1-1.744 1.216 5.388 5.388 0 0 1-2.176.432Zm0-1.68a3.568 3.568 0 0 0 2.672-1.152 4.04 4.04 0 0 0 .768-1.296 4.525 4.525 0 0 0 .288-1.632c0-.587-.096-1.125-.288-1.616a3.824 3.824 0 0 0-.768-1.296 3.389 3.389 0 0 0-1.184-.864 3.568 3.568 0 0 0-1.488-.304 3.68 3.68 0 0 0-1.504.304 3.722 3.722 0 0 0-1.184.848c-.33.363-.586.795-.768 1.296a4.685 4.685 0 0 0-.272 1.632c0 .587.091 1.13.272 1.632.182.501.438.933.768 1.296.342.363.736.645 1.184.848.459.203.96.304 1.504.304Zm7.828 1.52V82.8h1.552l6.848 9.168-.256.144a15.5 15.5 0 0 1-.112-.864c-.032-.32-.064-.656-.096-1.008-.021-.363-.043-.741-.064-1.136l-.032-1.264a54.19 54.19 0 0 1-.016-1.36V82.8h1.728V94h-1.584l-6.736-8.832.176-.224c.053.65.096 1.205.128 1.664.043.448.075.832.096 1.152.032.31.053.565.064.768.011.192.016.352.016.48.011.128.016.24.016.336V94h-1.728Zm-46.109.16c-.789 0-1.52-.144-2.192-.432a5.49 5.49 0 0 1-1.744-1.2 5.789 5.789 0 0 1-1.152-1.824 6.468 6.468 0 0 1-.4-2.304c0-.832.134-1.595.4-2.288a5.557 5.557 0 0 1 1.152-1.824 5.369 5.369 0 0 1 1.744-1.216 5.507 5.507 0 0 1 2.192-.432c.79 0 1.515.144 2.176.432a5.135 5.135 0 0 1 1.744 1.216 5.358 5.358 0 0 1 1.152 1.84 6.05 6.05 0 0 1 .416 2.272c0 .821-.138 1.584-.416 2.288a5.392 5.392 0 0 1-1.152 1.824 5.135 5.135 0 0 1-1.744 1.216 5.388 5.388 0 0 1-2.176.432Zm0-1.68a3.568 3.568 0 0 0 2.672-1.152 4.04 4.04 0 0 0 .768-1.296 4.525 4.525 0 0 0 .288-1.632c0-.587-.096-1.125-.288-1.616a3.824 3.824 0 0 0-.768-1.296 3.389 3.389 0 0 0-1.184-.864 3.568 3.568 0 0 0-1.488-.304 3.68 3.68 0 0 0-1.504.304 3.722 3.722 0 0 0-1.184.848c-.33.363-.586.795-.768 1.296a4.685 4.685 0 0 0-.272 1.632c0 .587.091 1.13.272 1.632.182.501.438.933.768 1.296.342.363.736.645 1.184.848.459.203.96.304 1.504.304Zm7.828 1.52V82.8h1.728V94h-1.728Zm.768-4.768v-1.664h5.776v1.664h-5.776Zm0-4.768V82.8h6.496v1.664h-6.496ZM352.826 94V82.8h1.728V94h-1.728Zm.768-4.768v-1.664h5.776v1.664h-5.776Zm0-4.768V82.8h6.496v1.664h-6.496Z"/>
  <circle cx="364" cy="88" r="2" fill="#C6C8BF"/>
  <path fill="#C6C8BF" d="m317 88 7.5-4.33v8.66L317 88Zm90 0-7.5 4.33v-8.66L407 88Z"/>
  <rect width="70" height="20" x="404" y="806.686" fill="#59585D" rx="10" transform="rotate(-26 404 806.686)"/>
  <rect width="70" height="20" x="497" y="806.686" fill="#59585D" rx="10" transform="rotate(-26 497 806.686)"/>
  <path stroke="#B1B3AC" stroke-width="4" d="M486 942v6m11-6v6m11-6v6"/>
  <rect width="80" height="20" x="441" y="922" fill="#B1B3AB" rx="10"/>
  <path fill="#C6C8BF" d="M459.416 937v-9.8h3.99c.532 0 1.013.135 1.442.406.439.261.789.621 1.05 1.078.261.457.392.966.392 1.526s-.131 1.069-.392 1.526a3.136 3.136 0 0 1-1.05 1.106c-.429.271-.91.406-1.442.406h-2.478V937h-1.512Zm1.512-5.208h2.45c.252 0 .481-.07.686-.21.205-.149.369-.341.49-.574.131-.243.196-.509.196-.798 0-.289-.065-.551-.196-.784a1.506 1.506 0 0 0-.49-.56 1.19 1.19 0 0 0-.686-.21h-2.45v3.136ZM474.687 937v-9.8h1.512v9.8h-1.512Zm-6.398 0v-9.8h1.512v9.8h-1.512Zm.658-4.158v-1.456h6.412v1.456h-6.412Zm14.094 4.298a4.82 4.82 0 0 1-1.918-.378 4.805 4.805 0 0 1-1.526-1.05 5.048 5.048 0 0 1-1.008-1.596 5.654 5.654 0 0 1-.35-2.016c0-.728.117-1.395.35-2.002a4.854 4.854 0 0 1 1.008-1.596 4.704 4.704 0 0 1 1.526-1.064 4.82 4.82 0 0 1 1.918-.378c.691 0 1.326.126 1.904.378a4.5 4.5 0 0 1 1.526 1.064c.439.457.775.994 1.008 1.61.243.607.364 1.269.364 1.988 0 .719-.121 1.386-.364 2.002a4.719 4.719 0 0 1-1.008 1.596 4.5 4.5 0 0 1-1.526 1.064 4.714 4.714 0 0 1-1.904.378Zm0-1.47a3.128 3.128 0 0 0 2.338-1.008c.29-.327.514-.705.672-1.134.168-.439.252-.915.252-1.428 0-.513-.084-.985-.252-1.414a3.327 3.327 0 0 0-.672-1.134 2.955 2.955 0 0 0-1.036-.756 3.128 3.128 0 0 0-1.302-.266c-.476 0-.914.089-1.316.266a3.254 3.254 0 0 0-1.036.742 3.359 3.359 0 0 0-.672 1.134 4.106 4.106 0 0 0-.238 1.428c0 .513.08.989.238 1.428.159.439.383.817.672 1.134.299.317.644.565 1.036.742.402.177.84.266 1.316.266Zm6.85 1.33v-9.8h1.358l5.992 8.022-.224.126c-.038-.233-.07-.485-.098-.756-.028-.28-.056-.574-.084-.882-.019-.317-.038-.649-.056-.994-.01-.355-.019-.723-.028-1.106-.01-.383-.014-.779-.014-1.19v-3.22h1.512v9.8h-1.386l-5.894-7.728.154-.196c.046.569.084 1.055.112 1.456.037.392.065.728.084 1.008.028.271.046.495.056.672.009.168.014.308.014.42.009.112.014.21.014.294V937h-1.512Zm11.101 0v-9.8h6.174v1.456h-4.662v6.888h4.662V937h-6.174Zm.686-4.298v-1.456h4.718v1.456h-4.718Zm10.938 4.438c-.532 0-1.027-.07-1.484-.21a4.049 4.049 0 0 1-1.232-.63 4.87 4.87 0 0 1-.98-1.064l1.036-1.19c.457.653.896 1.106 1.316 1.358.42.252.919.378 1.498.378.354 0 .676-.056.966-.168.289-.112.518-.266.686-.462.168-.196.252-.42.252-.672 0-.168-.028-.327-.084-.476a1.14 1.14 0 0 0-.266-.406 1.781 1.781 0 0 0-.448-.336 3.076 3.076 0 0 0-.63-.266 5.53 5.53 0 0 0-.84-.21 6.275 6.275 0 0 1-1.316-.406 3.111 3.111 0 0 1-.938-.63 2.421 2.421 0 0 1-.56-.854 3.104 3.104 0 0 1-.182-1.092c0-.392.084-.756.252-1.092.177-.336.415-.625.714-.868a3.231 3.231 0 0 1 1.078-.574c.41-.14.854-.21 1.33-.21.504 0 .966.065 1.386.196.42.131.793.327 1.12.588.326.252.597.565.812.938l-1.064 1.05a3.287 3.287 0 0 0-.63-.77 2.309 2.309 0 0 0-.77-.476 2.391 2.391 0 0 0-.896-.168c-.364 0-.682.056-.952.168a1.53 1.53 0 0 0-.644.476c-.15.196-.224.429-.224.7 0 .196.037.378.112.546.074.159.186.303.336.434.158.121.368.233.63.336a7.1 7.1 0 0 0 .938.252c.513.112.97.257 1.372.434.401.168.742.369 1.022.602.28.233.49.495.63.784.149.289.224.602.224.938 0 .625-.145 1.167-.434 1.624-.29.457-.7.812-1.232 1.064-.532.243-1.167.364-1.904.364Z"/>
  <ellipse cx="445.5" cy="936" fill="#C6C8BF" rx="1.5" ry="2"/>
  <ellipse cx="455.5" cy="936" fill="#C6C8BF" rx="1.5" ry="2"/>
  <path stroke="#C6C8BF" d="M445 934.5c0-5 2-7.5 5.5-7.5s5.5 2.5 5.5 7.5"/>
</svg>
