<svg xmlns="http://www.w3.org/2000/svg" width="1024" height="1024" fill="none" viewBox="0 0 1024 1024">
  <path fill="#AEB1B6" d="m150.086 384.285 7.732-.524 29.62 284.265h-14.024c-3.015 0-13.966-7.799-19.921-14.416-5.242-5.825-9.173-8.912-13.499-16.251-4.089-6.938-7.994-17.169-7.994-23.853 0-6.684 8.343-151.236 18.086-229.221Zm8.256-15.858c2.078.125 2.992.114 4.325 0l102.357-27.523 36.172-33.42c-42.317 6.723-64.938 9.947-100.26 13.237-7.732.721-21.362 7.34-32.502 17.431-9.717 9.846-12.186 16.81-14.417 25.819l4.325.524v3.932Zm706.798.131c-2.078.125-2.992.115-4.325 0l-102.356-27.522-36.173-33.42c42.317 6.722 64.938 9.946 100.26 13.237 7.733.72 21.363 7.339 32.503 17.43 9.716 9.847 12.185 16.81 14.416 25.819l-4.325.524v3.932Zm8.256 15.858-7.732-.524-29.619 284.266h14.023c3.015 0 13.967-7.8 19.921-14.417 5.243-5.825 9.173-8.912 13.499-16.251 4.089-6.938 7.994-17.169 7.994-23.853 0-6.684-8.343-151.236-18.086-229.221Z"/>
  <path fill="#414C86" d="M328.712 297h366.052c17.425 0 46.389 26.343 84.795 36.303 38.406 9.961 55.563 10.747 66.179 13.892 10.615 3.146 18.61 27.785 20.319 37.352 1.71 9.567 22.085 217.01 17.955 232.104-4.13 15.094-19.784 37.336-41.021 49.016-6.51 3.58-79.542 19.496-99.086 27.26-19.544 7.765-23.197 8.743-41.414 15.727-22.454 8.609-90.241 15.976-123.719 17.562H444.705c-33.479-1.586-101.266-8.953-123.72-17.562-18.217-6.984-21.87-7.962-41.414-15.727-19.544-7.764-92.576-23.68-99.086-27.26-21.237-11.68-36.891-33.922-41.021-49.016-4.13-15.094 16.245-222.537 17.955-232.104 1.71-9.567 9.704-34.206 20.32-37.352 10.615-3.145 27.773-3.931 66.178-13.892 38.406-9.96 67.37-36.303 84.795-36.303Z"/>
  <path fill="#1C2323" d="M344.183 351.258c33.294-9.198 130.796-10.878 171.55-10.878 40.753 0 130.266 1.68 163.56 10.878 11.275 4.226 17.3 8.388 20.183 18.217 2.884 9.83 12.582 249.273 9.699 261.462-2.884 12.188-10.154 19.988-25.295 28.177-46.492 15.532-67.614 15.585-107.861 20.183l-1.358.117c-29.303 2.523-35.182 3.029-58.928 3.029-24.109 0-37.79-.522-68.276-3.146-40.246-4.598-61.369-4.651-107.861-20.183-15.14-8.189-22.411-15.989-25.294-28.177-2.883-12.189 6.815-251.632 9.698-261.462 2.883-9.829 8.908-13.991 20.183-18.217Z"/>
  <path fill="#87D0F4" d="M343.79 601.317V376.159h334.723v225.158H343.79Z"/>
  <ellipse cx="757.148" cy="484.807" fill="#AEB1B6" rx="23.59" ry="23.066"/>
  <ellipse cx="826.609" cy="461.741" fill="#AEB1B6" rx="23.59" ry="23.066"/>
  <rect width="84.101" height="5.767" x="733.42" y="569.293" fill="#384483" rx="2.883" transform="rotate(-14 733.42 569.293)"/>
  <rect width="84.101" height="5.767" x="733.295" y="633.327" fill="#384483" rx="2.883" transform="rotate(-14 733.295 633.327)"/>
  <rect width="84.101" height="5.767" x="733.295" y="616.814" fill="#384483" rx="2.883" transform="rotate(-14 733.295 616.814)"/>
  <rect width="84.101" height="5.767" x="733.295" y="601.349" fill="#384483" rx="2.883" transform="rotate(-14 733.295 601.349)"/>
  <rect width="84.101" height="5.767" x="733.295" y="584.574" fill="#384483" rx="2.883" transform="rotate(-14 733.295 584.574)"/>
  <circle cx="757.541" cy="370.655" r="7.208" fill="#5DB24A"/>
  <path fill="#AEB1B6" d="M211.27 456.116h-22.323a4 4 0 0 0-4 4v25.515a4 4 0 0 0 4 4h22.323a4 4 0 0 1 4 4v24.921a4 4 0 0 0 4 4h27.475a4 4 0 0 0 4-4v-24.921a4 4 0 0 1 4-4h23.71a4 4 0 0 0 4-4v-25.515a4 4 0 0 0-4-4h-23.71a4 4 0 0 1-4-4v-23.334a4 4 0 0 0-4-4H219.27a4 4 0 0 0-4 4v23.334a4 4 0 0 1-4 4Z"/>
  <rect width="86.74" height="26.916" x="216.493" y="551.122" fill="#384483" rx="13.458" transform="rotate(12 216.493 551.122)"/>
  <rect width="86.74" height="26.916" x="216.493" y="594.109" fill="#384483" rx="13.458" transform="rotate(12 216.493 594.109)"/>
  <circle cx="285.469" cy="579.562" r="11.14" fill="#AEB1B6"/>
  <circle cx="285.469" cy="622.549" r="11.14" fill="#AEB1B6"/>
  <rect width="94" height="20" x="466" y="313" stroke="#333F74" stroke-width="2" rx="10"/>
  <path fill="#333F74" d="M479.641 328v-10.5h1.62V328h-1.62Zm.72-4.47v-1.56h5.415v1.56h-5.415Zm0-4.47v-1.56h6.09v1.56h-6.09Zm9.368 8.94v-7.875h1.545V328h-1.545Zm.75-9.615c-.33 0-.585-.085-.765-.255-.18-.17-.27-.41-.27-.72 0-.29.09-.525.27-.705.19-.18.445-.27.765-.27.33 0 .585.085.765.255.18.17.27.41.27.72 0 .29-.095.525-.285.705-.18.18-.43.27-.75.27Zm4.37 9.615v-7.875h1.56v2.475l-.15-.6c.11-.38.295-.725.555-1.035.27-.31.575-.555.915-.735.35-.18.71-.27 1.08-.27.17 0 .33.015.48.045.16.03.285.065.375.105l-.405 1.68c-.12-.05-.255-.09-.405-.12-.14-.04-.28-.06-.42-.06-.27 0-.53.055-.78.165-.24.1-.455.245-.645.435-.18.18-.325.395-.435.645-.11.24-.165.505-.165.795V328h-1.56Zm10.588.15c-.81 0-1.53-.17-2.16-.51a3.943 3.943 0 0 1-1.47-1.425c-.35-.6-.525-1.29-.525-2.07 0-.62.1-1.185.3-1.695.2-.51.475-.95.825-1.32.36-.38.785-.67 1.275-.87a4.14 4.14 0 0 1 1.62-.315c.51 0 .985.1 1.425.3.44.19.82.455 1.14.795.33.34.58.745.75 1.215.18.46.265.965.255 1.515l-.015.66h-6.435l-.345-1.23h5.445l-.225.255v-.36c-.03-.33-.14-.625-.33-.885a2.04 2.04 0 0 0-1.665-.84c-.54 0-.995.105-1.365.315-.37.2-.65.5-.84.9-.19.39-.285.875-.285 1.455 0 .55.115 1.03.345 1.44.23.4.555.71.975.93.42.22.905.33 1.455.33.39 0 .75-.065 1.08-.195.34-.13.705-.365 1.095-.705l.78 1.095c-.24.24-.535.45-.885.63-.34.18-.705.325-1.095.435-.38.1-.755.15-1.125.15Zm6.344-.15v-11.1h1.545V328h-1.545Zm5.19 0v-7.875h1.545V328h-1.545Zm.75-9.615c-.33 0-.585-.085-.765-.255-.18-.17-.27-.41-.27-.72 0-.29.09-.525.27-.705.19-.18.445-.27.765-.27.33 0 .585.085.765.255.18.17.27.41.27.72 0 .29-.095.525-.285.705-.18.18-.43.27-.75.27Zm7.894 13.065c-.56 0-1.12-.09-1.68-.27-.55-.17-.995-.395-1.335-.675l.57-1.2c.2.15.435.28.705.39.27.12.555.21.855.27.3.07.595.105.885.105.55 0 1.01-.09 1.38-.27.37-.18.65-.445.84-.795.19-.35.285-.785.285-1.305v-1.515l.165.105c-.05.31-.215.61-.495.9-.27.28-.61.51-1.02.69-.41.18-.83.27-1.26.27-.75 0-1.42-.175-2.01-.525a3.937 3.937 0 0 1-1.38-1.455c-.34-.62-.51-1.325-.51-2.115 0-.79.165-1.49.495-2.1.34-.62.8-1.105 1.38-1.455.59-.36 1.25-.54 1.98-.54.3 0 .59.04.87.12.28.07.54.175.78.315.24.13.455.275.645.435.19.16.345.33.465.51.12.18.195.35.225.51l-.33.12v-1.845h1.545v7.395c0 .63-.095 1.185-.285 1.665-.18.49-.445.9-.795 1.23-.35.34-.775.595-1.275.765-.5.18-1.065.27-1.695.27Zm.06-4.725c.49 0 .925-.115 1.305-.345.38-.23.675-.545.885-.945.21-.4.315-.86.315-1.38 0-.52-.11-.98-.33-1.38-.21-.41-.505-.73-.885-.96-.37-.23-.8-.345-1.29-.345-.48 0-.91.12-1.29.36-.37.23-.665.55-.885.96-.21.4-.315.855-.315 1.365s.105.97.315 1.38c.22.4.515.715.885.945.38.23.81.345 1.29.345Zm7.357 1.275v-11.1h1.545v4.845l-.27.18c.1-.35.295-.67.585-.96.29-.3.635-.54 1.035-.72.4-.19.81-.285 1.23-.285.6 0 1.1.12 1.5.36.4.23.7.585.9 1.065.2.48.3 1.085.3 1.815v4.8h-1.545v-4.695c0-.45-.06-.82-.18-1.11-.12-.3-.305-.515-.555-.645-.25-.14-.56-.2-.93-.18-.3 0-.575.05-.825.15-.25.09-.47.22-.66.39-.18.17-.325.37-.435.6-.1.22-.15.46-.15.72V328h-1.545Zm11.095 0v-9.885h1.545V328h-1.545Zm-1.635-6.375v-1.5h5.01v1.5h-5.01Z"/>
  <path fill="#fff" d="M415.183 648.156c-1.785 0-3.189-.598-4.212-1.794-1.022-1.213-1.534-3.007-1.534-5.382 0-3.484.624-6.24 1.872-8.268 1.266-2.045 3.276-3.068 6.032-3.068a6.98 6.98 0 0 1 1.872.26c.624.156 1.136.364 1.534.624.399.243.598.477.598.702 0 .208-.138.52-.416.936-.277.399-.502.598-.676.598-.052 0-.225-.095-.52-.286a4.556 4.556 0 0 0-1.092-.546c-.416-.156-.91-.234-1.482-.234-1.854 0-3.198.858-4.03 2.574-.832 1.699-1.248 3.874-1.248 6.526 0 1.664.278 2.981.832 3.952.572.953 1.491 1.43 2.756 1.43.919 0 1.699-.113 2.34-.338l.598-5.798h-2.21c-.294 0-.442-.173-.442-.52 0-.104.009-.191.026-.26l.026-.416c.052-.52.252-.78.598-.78h3.848c.468 0 .676.26.624.78l-.78 7.436c-.069.659-.598 1.135-1.586 1.43-.97.295-2.08.442-3.328.442Zm7.768-.104c-.641 0-.945-.147-.91-.442 0-.069.009-.13.026-.182l.052-.156 6.5-17.03c.121-.329.485-.494 1.092-.494h.754c.607 0 .936.165.988.494l2.99 17.03c.035.173.052.286.052.338-.017.139-.113.251-.286.338-.173.069-.416.104-.728.104h-.442c-.52 0-.789-.139-.806-.416l-.676-4.264h-5.668l-1.534 4.264c-.121.277-.451.416-.988.416h-.416Zm8.268-6.552-1.144-7.358a18.485 18.485 0 0 1-.156-1.586h-.13c-.26.815-.433 1.343-.52 1.586l-2.704 7.358h4.654Zm6.419 6.552c-.641 0-.945-.191-.91-.572l1.794-17.16c.035-.381.381-.572 1.04-.572h.494c.503 0 .815.156.936.468l3.146 7.696c.295.693.459 1.309.494 1.846.191-.711.442-1.3.754-1.768l4.758-7.774c.208-.312.555-.468 1.04-.468h.598c.659 0 .971.191.936.572l-1.794 17.16c-.035.381-.39.572-1.066.572h-.312c-.641 0-.945-.191-.91-.572l1.248-11.908c.069-.572.173-1.187.312-1.846l-.104-.052c-.277.572-.598 1.17-.962 1.794l-3.666 5.98c-.121.225-.321.338-.598.338h-.884c-.26 0-.442-.113-.546-.338l-2.418-5.98c-.139-.329-.338-.927-.598-1.794l-.104.052c.035.711.017 1.326-.052 1.846l-1.248 11.908c-.035.381-.39.572-1.066.572h-.312Zm17.848-.052c-.243 0-.416-.061-.52-.182-.104-.121-.139-.321-.104-.598l1.768-16.64c.034-.277.112-.477.234-.598.121-.121.303-.182.546-.182h7.488c.329 0 .468.26.416.78l-.052.416c-.052.52-.243.78-.572.78h-5.85l-.624 5.928h5.252c.329 0 .468.26.416.78l-.052.416c-.052.52-.243.78-.572.78h-5.252l-.676 6.344h5.85c.173 0 .294.061.364.182.069.121.086.321.052.598l-.052.416c-.035.277-.096.477-.182.598-.087.121-.217.182-.39.182h-7.488Zm20.533.156c-1.785 0-3.189-.598-4.212-1.794-1.023-1.213-1.534-3.007-1.534-5.382 0-3.484.624-6.24 1.872-8.268 1.265-2.045 3.276-3.068 6.032-3.068a6.98 6.98 0 0 1 1.872.26c.624.156 1.135.364 1.534.624.399.243.598.477.598.702 0 .208-.139.52-.416.936-.277.399-.503.598-.676.598-.052 0-.225-.095-.52-.286a4.594 4.594 0 0 0-1.092-.546c-.416-.156-.91-.234-1.482-.234-1.855 0-3.198.858-4.03 2.574-.832 1.699-1.248 3.874-1.248 6.526 0 1.664.277 2.981.832 3.952.572.953 1.491 1.43 2.756 1.43.919 0 1.699-.113 2.34-.338l.598-5.798h-2.21c-.295 0-.442-.173-.442-.52 0-.104.009-.191.026-.26l.026-.416c.052-.52.251-.78.598-.78h3.848c.468 0 .676.26.624.78l-.78 7.436c-.069.659-.598 1.135-1.586 1.43-.971.295-2.08.442-3.328.442Zm14.06 0c-1.716 0-3.033-.39-3.952-1.17-.901-.797-1.352-1.907-1.352-3.328a7.9 7.9 0 0 1 .026-.728l1.326-12.61c.035-.381.381-.572 1.04-.572h.364c.659 0 .971.191.936.572l-1.326 12.688a2.19 2.19 0 0 0-.026.39c0 .832.286 1.508.858 2.028.589.503 1.361.754 2.314.754 1.127 0 2.011-.26 2.652-.78.641-.537 1.023-1.335 1.144-2.392l1.326-12.688c.035-.381.381-.572 1.04-.572h.364c.659 0 .971.191.936.572l-1.326 12.61c-.173 1.647-.815 2.929-1.924 3.848-1.092.919-2.565 1.378-4.42 1.378Zm13.702-.104c-.676 0-.988-.191-.936-.572l.832-7.722-3.484-9.1c-.087-.208-.13-.364-.13-.468 0-.156.078-.269.234-.338.156-.069.425-.104.806-.104h.442c.295 0 .511.026.65.078a.55.55 0 0 1 .312.312l2.574 7.358 4.186-7.384a.666.666 0 0 1 .39-.286c.173-.052.399-.078.676-.078h.338c.347.017.589.061.728.13s.208.173.208.312c0 .069-.069.225-.208.468l-5.408 9.178-.806 7.644c-.035.381-.381.572-1.04.572h-.364ZM528.234 646h-1.601v-3.203h-8.938v-1.594h8.938v-4.805h-5.742c-.547 0-1.063.107-1.547.321a3.952 3.952 0 0 0-1.266.859 4.12 4.12 0 0 0-.859 1.266 3.877 3.877 0 0 0-.313 1.554V646h-1.601v-5.602c0-.515.065-1.01.195-1.484a5.77 5.77 0 0 1 .562-1.336c.245-.417.537-.794.876-1.133a5.791 5.791 0 0 1 1.132-.883 5.53 5.53 0 0 1 1.336-.562 5.395 5.395 0 0 1 1.485-.203h7.343V646Zm15.891-5.602a6.31 6.31 0 0 1-.375 2.188 5.338 5.338 0 0 1-1.047 1.781 4.914 4.914 0 0 1-1.633 1.195c-.63.292-1.33.438-2.101.438h-5.649v-1.602h5.649c.552 0 1.047-.104 1.484-.312a3.226 3.226 0 0 0 1.117-.852 3.81 3.81 0 0 0 .703-1.273c.167-.49.25-1.01.25-1.563 0-.552-.083-1.07-.25-1.554a3.729 3.729 0 0 0-.703-1.266 3.197 3.197 0 0 0-1.117-.859 3.332 3.332 0 0 0-1.484-.321h-6.446V646h-1.601v-11.203h8.047c.771 0 1.471.148 2.101.445a4.88 4.88 0 0 1 1.633 1.203 5.342 5.342 0 0 1 1.047 1.782c.25.677.375 1.401.375 2.171Zm14.219-5.601L552.453 646h-1.828l-5.883-11.203h1.82l4.977 9.476 4.977-9.476h1.828ZM572.172 646h-1.602v-3.203h-8.937v-1.594h8.937v-4.805h-5.742c-.547 0-1.062.107-1.547.321a3.948 3.948 0 0 0-1.265.859c-.36.36-.646.781-.86 1.266a3.894 3.894 0 0 0-.312 1.554V646h-1.602v-5.602a5.547 5.547 0 0 1 1.633-3.953 5.797 5.797 0 0 1 1.133-.883 5.513 5.513 0 0 1 1.336-.562 5.388 5.388 0 0 1 1.484-.203h7.344V646Zm4.289 0h-1.602v-11.203h.797c.521 0 1.073.068 1.656.203.589.135 1.188.331 1.797.586.61.255 1.217.565 1.821.93.609.359 1.198.768 1.765 1.226.568.459 1.102.959 1.602 1.5.5.537.948 1.11 1.344 1.719v-6.164h1.601V646h-1.601a6.69 6.69 0 0 0-.43-2.375 9.47 9.47 0 0 0-1.149-2.164 11.427 11.427 0 0 0-1.656-1.867 13.89 13.89 0 0 0-1.961-1.508 12.379 12.379 0 0 0-2.047-1.063 8.675 8.675 0 0 0-1.937-.562V646Zm25.203 0h-7.211c-.776 0-1.482-.146-2.117-.438a4.924 4.924 0 0 1-1.633-1.195 5.405 5.405 0 0 1-1.039-1.781 6.426 6.426 0 0 1-.367-2.188c0-.77.122-1.494.367-2.171a5.41 5.41 0 0 1 1.039-1.782 4.89 4.89 0 0 1 1.633-1.203c.635-.297 1.341-.445 2.117-.445h7.211v1.601h-7.211c-.552 0-1.049.107-1.492.321a3.29 3.29 0 0 0-1.117.859c-.302.36-.537.781-.703 1.266a4.865 4.865 0 0 0-.243 1.554c0 .553.081 1.073.243 1.563.166.484.401.909.703 1.273.307.36.679.644 1.117.852.443.208.94.312 1.492.312h7.211V646Zm13.531 0h-11.586v-11.203h11.586v1.601h-9.984v8h9.984V646Zm-1.359-4.797h-7.828v-1.601h7.828v1.601Z"/>
  <path fill="#969B9E" d="m234 515-8.66-15h17.32L234 515Zm-42-42 15-8.66v17.32L192 473Zm42-42 8.66 15h-17.32l8.66-15Zm41 42-15 8.66v-17.32l15 8.66Z"/>
  <circle cx="234" cy="473" r="9" fill="#969B9E"/>
  <path fill="#969B9E" d="M828.459 478c-.288 0-.444-.132-.468-.396l-.684-3.78c0-.12-.072-.18-.216-.18h-5.256c-.144 0-.216.06-.216.18l-.684 3.78c-.024.264-.18.396-.468.396h-3.276c-.336 0-.468-.156-.396-.468l5.328-24.336c.048-.264.204-.396.468-.396h3.816c.264 0 .42.132.468.396l5.328 24.336v.144c0 .216-.132.324-.396.324h-3.348Zm-6.192-7.812c-.024.12.036.18.18.18h3.996c.144 0 .204-.06.18-.18l-2.088-11.376c-.024-.072-.06-.108-.108-.108s-.084.036-.108.108l-2.052 11.376Z"/>
  <path fill="#333F74" d="M777.712 364.382c.636 0 1.194.156 1.674.468.492.312.87.75 1.134 1.314.276.564.414 1.206.414 1.926 0 1.08-.288 1.95-.864 2.61-.564.66-1.314.99-2.25.99h-1.53c-.06 0-.09.03-.09.09v5.004c0 .06-.024.114-.072.162a.195.195 0 0 1-.144.054h-1.656a.263.263 0 0 1-.162-.054.263.263 0 0 1-.054-.162v-12.186c0-.06.018-.108.054-.144a.224.224 0 0 1 .162-.072h3.384Zm-.342 5.67c.444 0 .798-.168 1.062-.504.276-.348.414-.816.414-1.404 0-.6-.138-1.074-.414-1.422a1.251 1.251 0 0 0-1.062-.54h-1.08c-.06 0-.09.03-.09.09v3.69c0 .06.03.09.09.09h1.08Zm8.209 7.092c-1.032 0-1.866-.312-2.502-.936-.624-.624-.936-1.452-.936-2.484v-6.048c0-1.032.312-1.86.936-2.484.636-.624 1.47-.936 2.502-.936 1.032 0 1.866.312 2.502.936.636.624.954 1.452.954 2.484v6.048c0 1.032-.318 1.86-.954 2.484-.636.624-1.47.936-2.502.936Zm0-1.8c.408 0 .738-.138.99-.414.252-.288.378-.66.378-1.116v-6.228c0-.456-.126-.822-.378-1.098-.252-.288-.582-.432-.99-.432-.408 0-.738.144-.99.432-.24.276-.36.642-.36 1.098v6.228c0 .456.12.828.36 1.116.252.276.582.414.99.414Zm7.233 1.656c-.144 0-.222-.066-.234-.198l-2.394-12.168-.018-.072c0-.108.066-.162.198-.162h1.728c.144 0 .222.066.234.198l1.26 7.506c.012.036.03.054.054.054s.042-.018.054-.054l1.134-7.506c.012-.132.09-.198.234-.198h1.44c.144 0 .222.066.234.198l1.224 7.506c.012.036.03.054.054.054s.042-.018.054-.054l1.134-7.506c.012-.132.09-.198.234-.198h1.674c.156 0 .222.078.198.234l-2.286 12.168c-.012.132-.09.198-.234.198h-1.53c-.144 0-.222-.066-.234-.198l-1.206-7.65c-.012-.048-.03-.072-.054-.072s-.042.024-.054.072l-1.116 7.65c-.012.132-.09.198-.234.198h-1.548Zm16.165-11.016c0 .06-.024.114-.072.162a.195.195 0 0 1-.144.054h-3.888c-.06 0-.09.03-.09.09v3.402c0 .06.03.09.09.09h2.304c.06 0 .108.024.144.072a.171.171 0 0 1 .072.144v1.386c0 .06-.024.114-.072.162a.195.195 0 0 1-.144.054h-2.304c-.06 0-.09.03-.09.09v3.42c0 .06.03.09.09.09h3.888c.06 0 .108.024.144.072a.171.171 0 0 1 .072.144v1.368c0 .06-.024.114-.072.162a.195.195 0 0 1-.144.054h-5.85a.263.263 0 0 1-.162-.054.263.263 0 0 1-.054-.162v-12.168c0-.06.018-.108.054-.144a.224.224 0 0 1 .162-.072h5.85c.06 0 .108.024.144.072a.171.171 0 0 1 .072.144v1.368ZM815.503 377c-.12 0-.198-.06-.234-.18l-1.53-5.166c-.024-.048-.054-.072-.09-.072h-.954c-.06 0-.09.03-.09.09v5.112c0 .06-.024.114-.072.162a.195.195 0 0 1-.144.054h-1.656a.263.263 0 0 1-.162-.054.263.263 0 0 1-.054-.162v-12.168c0-.06.018-.108.054-.144a.224.224 0 0 1 .162-.072h3.384c.636 0 1.194.156 1.674.468.492.3.87.732 1.134 1.296.276.552.414 1.188.414 1.908 0 .744-.144 1.386-.432 1.926-.288.54-.69.948-1.206 1.224-.048.012-.066.048-.054.108l1.764 5.418a.2.2 0 0 1 .018.09c0 .108-.066.162-.198.162h-1.728Zm-2.808-10.8c-.06 0-.09.03-.09.09v3.582c0 .06.03.09.09.09h1.098c.432 0 .78-.168 1.044-.504.276-.336.414-.792.414-1.368 0-.576-.138-1.032-.414-1.368a1.248 1.248 0 0 0-1.044-.522h-1.098Z"/>
  <path fill="#414C86" d="M229.69 574.175c-.974-.207-1.698-.667-2.172-1.381-.474-.714-.61-1.547-.408-2.498l.098-.457a.193.193 0 0 1 .083-.13.224.224 0 0 1 .173-.037l1.602.341a.17.17 0 0 1 .126.1.174.174 0 0 1 .041.156l-.075.352c-.098.458-.065.851.098 1.18.175.332.445.536.809.614.363.077.69.012.98-.197.292-.22.484-.547.576-.981a1.587 1.587 0 0 0-.025-.834c-.081-.25-.219-.5-.411-.75a21.722 21.722 0 0 0-.943-1.102 17.258 17.258 0 0 1-1.187-1.43 4.64 4.64 0 0 1-.647-1.37c-.135-.52-.138-1.085-.008-1.695.207-.974.665-1.686 1.374-2.137.71-.45 1.545-.573 2.508-.369.974.207 1.696.68 2.165 1.417.471.726.601 1.588.388 2.586l-.089.422a.226.226 0 0 1-.104.144.198.198 0 0 1-.153.023l-1.584-.337a.26.26 0 0 1-.147-.087.253.253 0 0 1-.019-.169l.097-.458c.097-.458.057-.847-.12-1.167-.163-.329-.433-.533-.808-.613a1.11 1.11 0 0 0-.945.204c-.276.199-.461.522-.556.968-.09.422-.048.805.124 1.149.184.345.573.851 1.168 1.518.604.68 1.051 1.229 1.343 1.647.294.406.498.829.613 1.271.115.441.113.938-.004 1.49-.212.997-.682 1.738-1.411 2.221-.725.471-1.575.604-2.55.396Zm13.545-10.149a.17.17 0 0 1 .126.1.17.17 0 0 1 .04.156l-.284 1.338a.226.226 0 0 1-.104.144.196.196 0 0 1-.152.022l-2.236-.475c-.059-.012-.095.011-.107.069l-2.182 10.265a.222.222 0 0 1-.104.144.2.2 0 0 1-.152.023l-1.62-.345a.258.258 0 0 1-.147-.086.262.262 0 0 1-.019-.17l2.182-10.265c.012-.058-.011-.094-.07-.106l-2.113-.449a.272.272 0 0 1-.147-.087.268.268 0 0 1-.019-.17l.285-1.338a.193.193 0 0 1 .082-.129.223.223 0 0 1 .174-.037l6.567 1.396Zm3.178 13.557c-.141-.03-.203-.111-.188-.243l.059-1.919c.012-.059-.017-.096-.087-.111l-2.571-.546c-.07-.015-.112.007-.124.065l-.727 1.778c-.04.127-.13.175-.271.145l-1.602-.341c-.164-.035-.212-.125-.145-.27l5.136-11.348c.051-.124.141-.172.27-.145l1.866.397c.129.027.192.108.188.242l.076 12.456-.015.071c-.023.105-.098.144-.227.117l-1.638-.348Zm-2.216-4.465c-.024.057-.001.092.069.107l1.955.416c.07.015.106-.009.106-.07l.162-5.78c-.005-.038-.018-.06-.042-.065-.023-.005-.045.009-.064.042l-2.186 5.35Zm10.122 6.145c-.117-.025-.181-.1-.191-.224l-.422-5.372c-.014-.052-.038-.081-.074-.089l-.933-.198c-.058-.013-.094.011-.106.069l-1.063 5.001a.226.226 0 0 1-.104.143.196.196 0 0 1-.152.023l-1.62-.344a.271.271 0 0 1-.148-.087.268.268 0 0 1-.019-.17l2.53-11.902a.194.194 0 0 1 .083-.129.221.221 0 0 1 .173-.037l3.31.704c.623.132 1.136.4 1.541.805.418.396.698.897.839 1.504.156.597.158 1.248.009 1.952-.155.728-.429 1.326-.823 1.794a2.892 2.892 0 0 1-1.435.947c-.049.002-.074.033-.075.094l.599 5.667a.187.187 0 0 1-.001.091c-.022.106-.098.145-.227.118l-1.691-.36Zm-.501-11.147c-.058-.013-.094.01-.106.069l-.745 3.504c-.013.058.01.094.069.106l1.074.229c.423.089.798-.003 1.126-.276.34-.272.57-.689.689-1.252.12-.564.08-1.038-.12-1.425a1.248 1.248 0 0 0-.913-.727l-1.074-.228Zm12.68.855a.168.168 0 0 1 .126.1c.04.045.053.097.041.156l-.285 1.338a.22.22 0 0 1-.104.143.19.19 0 0 1-.152.023l-2.236-.475c-.058-.013-.094.011-.107.069L261.6 580.59a.227.227 0 0 1-.104.143.194.194 0 0 1-.153.023l-1.619-.344a.264.264 0 0 1-.148-.086.27.27 0 0 1-.019-.17l2.182-10.265c.013-.059-.011-.094-.069-.107l-2.113-.449a.258.258 0 0 1-.147-.086.262.262 0 0 1-.019-.17l.284-1.338a.196.196 0 0 1 .083-.13.22.22 0 0 1 .173-.036l6.567 1.396Zm-41.34 47.304c-.974-.207-1.698-.668-2.172-1.382-.474-.714-.61-1.547-.408-2.497l.097-.458a.196.196 0 0 1 .083-.13.222.222 0 0 1 .174-.036l1.602.34c.058.013.1.046.126.1a.172.172 0 0 1 .04.156l-.075.352c-.097.458-.064.852.099 1.181.175.331.444.536.808.613.364.078.691.012.98-.196.293-.22.485-.548.577-.982a1.583 1.583 0 0 0-.025-.833 2.516 2.516 0 0 0-.411-.75c-.193-.25-.507-.617-.944-1.102a17.387 17.387 0 0 1-1.186-1.43 4.66 4.66 0 0 1-.648-1.371c-.134-.519-.137-1.084-.007-1.695.207-.974.665-1.686 1.374-2.137.709-.45 1.545-.573 2.507-.368.975.207 1.696.679 2.165 1.417.472.726.601 1.587.389 2.585l-.09.423a.223.223 0 0 1-.104.143.191.191 0 0 1-.152.023l-1.585-.337a.264.264 0 0 1-.147-.086.27.27 0 0 1-.019-.17l.097-.458c.098-.457.058-.846-.12-1.166a1.11 1.11 0 0 0-.808-.614 1.117 1.117 0 0 0-.945.204c-.275.199-.46.522-.555.968-.09.423-.049.806.124 1.149.184.346.573.852 1.168 1.518.603.68 1.051 1.229 1.342 1.647.294.406.499.83.614 1.271.114.442.113.938-.004 1.49-.212.998-.683 1.738-1.411 2.221-.726.472-1.576.604-2.55.397Zm13.125-8.62a.222.222 0 0 1-.104.144.195.195 0 0 1-.152.023l-3.803-.809c-.059-.012-.094.011-.107.07l-.707 3.327c-.013.059.011.095.069.107l2.254.479a.171.171 0 0 1 .126.101.17.17 0 0 1 .04.155l-.288 1.356a.222.222 0 0 1-.104.144.195.195 0 0 1-.152.022l-2.254-.479c-.058-.012-.094.011-.107.07l-.711 3.345c-.012.059.011.094.07.107l3.803.808c.058.013.1.046.126.1a.172.172 0 0 1 .04.156l-.284 1.338a.226.226 0 0 1-.104.144.196.196 0 0 1-.152.023l-5.723-1.217a.264.264 0 0 1-.147-.086.268.268 0 0 1-.019-.17l2.53-11.902a.189.189 0 0 1 .083-.129.22.22 0 0 1 .173-.037l5.722 1.216a.172.172 0 0 1 .126.1c.04.046.053.098.041.156l-.285 1.338Zm-.572 11.141a.265.265 0 0 1-.148-.087.266.266 0 0 1-.019-.169l2.53-11.902a.196.196 0 0 1 .083-.13c.057-.037.115-.049.173-.037l1.62.344a.171.171 0 0 1 .126.101c.04.045.053.097.041.156l-2.182 10.264c-.013.059.01.095.069.107l3.803.808a.171.171 0 0 1 .126.101.17.17 0 0 1 .04.156l-.284 1.338a.223.223 0 0 1-.104.143.191.191 0 0 1-.152.023l-5.722-1.216Zm15.531-7.961a.224.224 0 0 1-.104.143.192.192 0 0 1-.152.023l-3.803-.808c-.059-.012-.095.011-.107.069l-.707 3.328c-.013.059.01.094.069.107l2.254.479c.058.012.1.046.126.1a.173.173 0 0 1 .04.156l-.288 1.356a.226.226 0 0 1-.104.143.196.196 0 0 1-.152.023l-2.254-.479c-.059-.012-.094.011-.107.069l-.711 3.346c-.012.058.011.094.07.106l3.803.809a.17.17 0 0 1 .125.1c.04.045.053.097.041.156l-.284 1.338a.225.225 0 0 1-.105.143.19.19 0 0 1-.152.023l-5.722-1.216a.258.258 0 0 1-.147-.086.262.262 0 0 1-.019-.17l2.53-11.902a.195.195 0 0 1 .082-.13.227.227 0 0 1 .174-.037l5.722 1.217a.17.17 0 0 1 .126.1.17.17 0 0 1 .04.156l-.284 1.338Zm2.285 11.895c-.998-.212-1.738-.682-2.221-1.411-.469-.737-.597-1.605-.385-2.603l1.276-6.003c.214-1.01.683-1.744 1.407-2.204.737-.469 1.605-.597 2.603-.385 1.009.214 1.755.686 2.238 1.414.486.717.622 1.58.407 2.589l-.045.211a.222.222 0 0 1-.104.144.17.17 0 0 1-.156.04l-1.652-.277c-.141-.03-.196-.116-.167-.256l.094-.441c.087-.41.041-.77-.139-1.078-.18-.308-.463-.503-.851-.586-.375-.08-.708-.015-.998.193-.289.208-.478.518-.565.929l-1.34 6.303c-.087.411-.041.77.139 1.078.18.309.458.503.833.582.388.083.726.02 1.016-.189.289-.208.478-.518.565-.928l.094-.441a.193.193 0 0 1 .083-.129.224.224 0 0 1 .173-.037l1.622.419a.168.168 0 0 1 .126.1c.04.045.053.097.041.156l-.045.211c-.212.998-.688 1.737-1.428 2.218-.738.468-1.611.596-2.621.381Zm13.918-10.07a.17.17 0 0 1 .126.1c.04.045.053.097.041.156l-.285 1.338a.222.222 0 0 1-.104.144.194.194 0 0 1-.152.022l-2.236-.475c-.058-.012-.094.011-.107.069l-2.181 10.265a.23.23 0 0 1-.104.144.202.202 0 0 1-.153.023l-1.619-.345a.264.264 0 0 1-.148-.086.27.27 0 0 1-.019-.17l2.182-10.265c.013-.058-.011-.094-.069-.106l-2.113-.45a.258.258 0 0 1-.147-.086.262.262 0 0 1-.019-.17l.284-1.338a.19.19 0 0 1 .083-.129.221.221 0 0 1 .173-.037l6.567 1.396Z"/>
  <path fill="#969B9E" d="M761.846 494.088c0 2.208-.648 3.912-1.944 5.112-1.272 1.2-2.94 1.8-5.004 1.8h-6.336a.527.527 0 0 1-.324-.108.527.527 0 0 1-.108-.324v-24.336a.39.39 0 0 1 .108-.288.448.448 0 0 1 .324-.144h5.688c2.28 0 4.068.576 5.364 1.728 1.296 1.152 1.944 2.832 1.944 5.04 0 2.472-.876 4.236-2.628 5.292-.12.072-.144.144-.072.216a6.261 6.261 0 0 1 2.196 2.412c.528 1.008.792 2.208.792 3.6Zm-9.36-14.688c-.12 0-.18.06-.18.18v6.696c0 .12.06.18.18.18h1.836c.984 0 1.752-.3 2.304-.9.552-.6.828-1.452.828-2.556 0-1.152-.276-2.04-.828-2.664-.552-.624-1.32-.936-2.304-.936h-1.836Zm2.088 17.964c.96 0 1.716-.336 2.268-1.008.552-.672.828-1.62.828-2.844 0-1.248-.276-2.22-.828-2.916-.552-.72-1.308-1.08-2.268-1.08h-2.088c-.12 0-.18.06-.18.18v7.488c0 .12.06.18.18.18h2.088Z"/>
</svg>
