<svg xmlns="http://www.w3.org/2000/svg" width="1024" height="1024" fill="none" viewBox="0 0 1024 1024">
  <path fill="#6460A9" d="M730.708 107H292.82c-10.999 0-19.932 8.697-19.994 19.696-.656 117.217-3.823 718.428.113 735.315 4.179 17.933 12.664 23.765 26.699 30.121 1.234.559 2.545.981 3.87 1.267 79.784 17.217 135.541 24.33 212.565 24.33 77.668 0 192.059-19.136 206.692-24.764 14.633-5.628 24.764-15.196 27.859-30.954 2.794-14.222.545-617.708.08-735.277-.044-11.012-8.983-19.734-19.996-19.734Z"/>
  <path fill="#32353A" d="M697.7 135.703H324.315c-11.046 0-20 8.954-20 20v317.158c0 9.952 7.341 18.403 17.202 19.75 146.691 20.046 235.208 19.5 378.955-.015 9.871-1.34 17.228-9.833 17.228-19.794v-317.06c0-11.045-8.955-20.039-20-20.039Z"/>
  <rect width="265.647" height="240.039" x="377.762" y="175.663" fill="#C5CBB1" rx="4"/>
  <path fill="#4D4D4D" d="M347.717 618.168h-26.739a4 4 0 0 0-4 4v30.372a4 4 0 0 0 4 4h26.739a4 4 0 0 1 4 4v29.691a4 4 0 0 0 4 4h32.642a4 4 0 0 0 4-4V660.54a4 4 0 0 1 4.001-4h28.328a4 4 0 0 0 4-4v-30.372a4 4 0 0 0-4-4h-28.329a4 4 0 0 1-4-4v-27.874a4 4 0 0 0-3.999-4h-32.643a4 4 0 0 0-4 4v27.874a4 4 0 0 1-4 4Z"/>
  <circle cx="596.133" cy="652.082" r="28.14" fill="#4D4D4D"/>
  <circle cx="681.961" cy="624.223" r="28.14" fill="#4D4D4D"/>
  <path fill="#4D4D4D" d="M498.22 776.323c0 5.487-10.205 5.769-22.794 5.769s-22.794.422-22.794-5.769 10.205-6.332 22.794-6.332 22.794.844 22.794 6.332Zm72.867 0c0 5.487-10.205 5.769-22.794 5.769-12.588 0-22.793.422-22.793-5.769s10.205-6.332 22.793-6.332c12.589 0 22.794.844 22.794 6.332Z"/>
  <circle cx="635.53" cy="780.121" r="3.94" fill="#4D4D4D"/>
  <circle cx="718.544" cy="848.784" r="3.94" fill="#4D4D4D"/>
  <circle cx="718.544" cy="821.207" r="3.94" fill="#4D4D4D"/>
  <circle cx="718.544" cy="793.629" r="3.94" fill="#4D4D4D"/>
  <circle cx="704.474" cy="864.824" r="3.94" fill="#4D4D4D"/>
  <circle cx="704.474" cy="837.247" r="3.94" fill="#4D4D4D"/>
  <circle cx="704.474" cy="809.669" r="3.94" fill="#4D4D4D"/>
  <circle cx="704.474" cy="782.091" r="3.94" fill="#4D4D4D"/>
  <circle cx="690.967" cy="854.975" r="3.94" fill="#4D4D4D"/>
  <circle cx="690.967" cy="827.398" r="3.94" fill="#4D4D4D"/>
  <circle cx="690.967" cy="799.82" r="3.94" fill="#4D4D4D"/>
  <circle cx="677.459" cy="870.734" r="3.94" fill="#4D4D4D"/>
  <circle cx="677.459" cy="843.156" r="3.94" fill="#4D4D4D"/>
  <circle cx="677.459" cy="815.579" r="3.94" fill="#4D4D4D"/>
  <circle cx="677.459" cy="788.001" r="3.94" fill="#4D4D4D"/>
  <circle cx="663.388" cy="858.915" r="3.94" fill="#4D4D4D"/>
  <circle cx="663.388" cy="831.337" r="3.94" fill="#4D4D4D"/>
  <circle cx="663.388" cy="803.759" r="3.94" fill="#4D4D4D"/>
  <circle cx="649.6" cy="874.673" r="3.94" fill="#4D4D4D"/>
  <circle cx="649.6" cy="847.095" r="3.94" fill="#4D4D4D"/>
  <circle cx="649.6" cy="819.518" r="3.94" fill="#4D4D4D"/>
  <circle cx="649.6" cy="791.94" r="3.94" fill="#4D4D4D"/>
  <circle cx="635.53" cy="862.855" r="3.94" fill="#4D4D4D"/>
  <circle cx="635.53" cy="835.277" r="3.94" fill="#4D4D4D"/>
  <circle cx="635.53" cy="807.699" r="3.94" fill="#4D4D4D"/>
  <circle cx="622.022" cy="851.036" r="3.94" fill="#4D4D4D"/>
  <circle cx="622.022" cy="823.458" r="3.94" fill="#4D4D4D"/>
  <circle cx="622.022" cy="795.88" r="3.94" fill="#4D4D4D"/>
  <circle cx="690.967" cy="771.117" r="3.94" fill="#4D4D4D"/>
  <circle cx="663.388" cy="776.181" r="3.94" fill="#4D4D4D"/>
  <circle cx="704.463" cy="851.115" r="3.94" fill="#5956A0"/>
  <circle cx="704.463" cy="823.537" r="3.94" fill="#5956A0"/>
  <circle cx="704.463" cy="795.96" r="3.94" fill="#5956A0"/>
  <circle cx="690.392" cy="867.155" r="3.94" fill="#5956A0"/>
  <circle cx="690.392" cy="839.577" r="3.94" fill="#5956A0"/>
  <circle cx="690.392" cy="812" r="3.94" fill="#5956A0"/>
  <circle cx="690.392" cy="784.422" r="3.94" fill="#5956A0"/>
  <circle cx="676.885" cy="857.306" r="3.94" fill="#5956A0"/>
  <circle cx="676.885" cy="829.728" r="3.94" fill="#5956A0"/>
  <circle cx="676.885" cy="802.151" r="3.94" fill="#5956A0"/>
  <circle cx="663.377" cy="873.065" r="3.94" fill="#5956A0"/>
  <circle cx="663.377" cy="845.487" r="3.94" fill="#5956A0"/>
  <circle cx="663.377" cy="817.909" r="3.94" fill="#5956A0"/>
  <circle cx="663.377" cy="790.332" r="3.94" fill="#5956A0"/>
  <circle cx="649.307" cy="861.245" r="3.94" fill="#5956A0"/>
  <circle cx="649.307" cy="833.668" r="3.94" fill="#5956A0"/>
  <circle cx="649.307" cy="806.09" r="3.94" fill="#5956A0"/>
  <circle cx="635.518" cy="877.004" r="3.94" fill="#5956A0"/>
  <circle cx="635.518" cy="849.427" r="3.94" fill="#5956A0"/>
  <circle cx="635.518" cy="821.849" r="3.94" fill="#5956A0"/>
  <circle cx="635.518" cy="794.271" r="3.94" fill="#5956A0"/>
  <circle cx="621.448" cy="865.185" r="3.94" fill="#5956A0"/>
  <circle cx="621.448" cy="837.608" r="3.94" fill="#5956A0"/>
  <circle cx="621.448" cy="810.031" r="3.94" fill="#5956A0"/>
  <circle cx="676.885" cy="773.448" r="3.94" fill="#5956A0"/>
  <circle cx="649.307" cy="778.512" r="3.94" fill="#5956A0"/>
  <circle cx="703.94" cy="768.448" r="3.94" fill="#5956A0"/>
  <circle cx="718.94" cy="779.448" r="3.94" fill="#5956A0"/>
  <circle cx="718.94" cy="807.448" r="3.94" fill="#5956A0"/>
  <circle cx="718.94" cy="835.448" r="3.94" fill="#5956A0"/>
  <circle cx="321.34" cy="252.064" r="7.739" fill="#CA172A"/>
  <path fill="#D9D9D9" d="M338.955 252.349c0 4.274-2.184 6.613-6.613 6.613s1.943-2.339 1.943-6.613c0-4.274-6.372-6.757-1.943-6.757s6.613 2.483 6.613 6.757Zm10.245 0c0 4.274-2.184 6.613-6.614 6.613-4.429 0 1.944-2.339 1.944-6.613 0-4.274-6.373-6.757-1.944-6.757 4.43 0 6.614 2.483 6.614 6.757Zm9.876 0c0 4.274-2.184 6.613-6.614 6.613-4.429 0 1.943-2.339 1.943-6.613 0-4.274-6.372-6.757-1.943-6.757 4.43 0 6.614 2.483 6.614 6.757Z"/>
  <path fill="#424344" d="m373 686.509-8.66-15h17.32l-8.66 15Zm-48-48 15-8.66v17.32l-15-8.66Zm48-48 8.66 15h-17.32l8.66-15Zm47 48-15 8.66v-17.32l15 8.66Z"/>
  <circle cx="373" cy="638.509" r="9" fill="#424344"/>
  <path fill="#424344" d="M681.459 639.509c-.288 0-.444-.132-.468-.396l-.684-3.78c0-.12-.072-.18-.216-.18h-5.256c-.144 0-.216.06-.216.18l-.684 3.78c-.024.264-.18.396-.468.396h-3.276c-.336 0-.468-.156-.396-.468l5.328-24.336c.048-.264.204-.396.468-.396h3.816c.264 0 .42.132.468.396l5.328 24.336v.144c0 .216-.132.324-.396.324h-3.348Zm-6.192-7.812c-.024.12.036.18.18.18h3.996c.144 0 .204-.06.18-.18l-2.088-11.376c-.024-.072-.06-.108-.108-.108s-.084.036-.108.108l-2.052 11.376Zm-75.421 28.9c0 2.208-.648 3.912-1.944 5.112-1.272 1.2-2.94 1.8-5.004 1.8h-6.336a.527.527 0 0 1-.324-.108.527.527 0 0 1-.108-.324v-24.336a.39.39 0 0 1 .108-.288.448.448 0 0 1 .324-.144h5.688c2.28 0 4.068.576 5.364 1.728 1.296 1.152 1.944 2.832 1.944 5.04 0 2.472-.876 4.236-2.628 5.292-.12.072-.144.144-.072.216a6.261 6.261 0 0 1 2.196 2.412c.528 1.008.792 2.208.792 3.6Zm-9.36-14.688c-.12 0-.18.06-.18.18v6.696c0 .12.06.18.18.18h1.836c.984 0 1.752-.3 2.304-.9.552-.6.828-1.452.828-2.556 0-1.152-.276-2.04-.828-2.664-.552-.624-1.32-.936-2.304-.936h-1.836Zm2.088 17.964c.96 0 1.716-.336 2.268-1.008.552-.672.828-1.62.828-2.844 0-1.248-.276-2.22-.828-2.916-.552-.72-1.308-1.08-2.268-1.08h-2.088c-.12 0-.18.06-.18.18v7.488c0 .12.06.18.18.18h2.088Z"/>
  <path fill="#D9D9D9" d="M319.878 263.097c.504 0 .948.104 1.332.312.384.208.68.504.888.888.216.376.324.812.324 1.308 0 .488-.108.92-.324 1.296a2.22 2.22 0 0 1-.924.876c-.392.2-.848.3-1.368.3h-1.92c-.04 0-.06.02-.06.06v3.228a.15.15 0 0 1-.048.108.13.13 0 0 1-.096.036h-1.104a.176.176 0 0 1-.108-.036.176.176 0 0 1-.036-.108v-8.124a.13.13 0 0 1 .036-.096.15.15 0 0 1 .108-.048h3.3Zm-.204 3.852c.408 0 .736-.12.984-.36s.372-.556.372-.948c0-.4-.124-.724-.372-.972s-.576-.372-.984-.372h-1.788c-.04 0-.06.02-.06.06v2.532c0 .04.02.06.06.06h1.788Zm7.413 4.68c-.6 0-1.132-.12-1.596-.36a2.662 2.662 0 0 1-1.08-1.044c-.248-.448-.372-.964-.372-1.548v-2.736c0-.576.128-1.084.384-1.524a2.602 2.602 0 0 1 1.068-1.032c.464-.248.996-.372 1.596-.372.608 0 1.14.124 1.596.372.464.24.824.584 1.08 1.032.256.44.384.948.384 1.524v2.736c0 .584-.128 1.1-.384 1.548a2.662 2.662 0 0 1-1.08 1.044c-.456.24-.988.36-1.596.36Zm0-1.2c.504 0 .908-.156 1.212-.468.304-.312.456-.724.456-1.236v-2.796c0-.52-.152-.936-.456-1.248-.304-.312-.708-.468-1.212-.468-.496 0-.896.156-1.2.468-.304.312-.456.728-.456 1.248v2.796c0 .512.152.924.456 1.236.304.312.704.468 1.2.468Zm6.856 1.08c-.088 0-.144-.04-.168-.12l-2.184-8.124-.012-.048c0-.072.044-.108.132-.108h1.176c.088 0 .144.04.168.12l1.368 5.472c.008.024.02.036.036.036.016 0 .028-.012.036-.036l1.308-5.472c.024-.08.076-.12.156-.12h1.152c.088 0 .144.04.168.12l1.392 5.484c.008.024.02.036.036.036.016 0 .028-.012.036-.036l1.344-5.484c.024-.08.08-.12.168-.12h1.116c.112 0 .156.052.132.156l-2.076 8.124c-.024.08-.08.12-.168.12h-1.116c-.088 0-.144-.04-.168-.12l-1.404-5.724c-.008-.024-.02-.036-.036-.036-.016-.008-.028.004-.036.036l-1.344 5.724c-.024.08-.076.12-.156.12h-1.056Zm14.93-7.344a.15.15 0 0 1-.048.108.13.13 0 0 1-.096.036h-4.092c-.04 0-.06.02-.06.06v2.244c0 .04.02.06.06.06h2.748c.04 0 .072.016.096.048a.114.114 0 0 1 .048.096v.912a.15.15 0 0 1-.048.108.13.13 0 0 1-.096.036h-2.748c-.04 0-.06.02-.06.06v2.316c0 .04.02.06.06.06h4.092c.04 0 .072.016.096.048a.114.114 0 0 1 .048.096v.912a.15.15 0 0 1-.048.108.13.13 0 0 1-.096.036h-5.4a.176.176 0 0 1-.108-.036.176.176 0 0 1-.036-.108v-8.112a.13.13 0 0 1 .036-.096.15.15 0 0 1 .108-.048h5.4c.04 0 .072.016.096.048a.114.114 0 0 1 .048.096v.912Zm6.73 7.344a.17.17 0 0 1-.168-.108l-1.584-3.456c-.016-.032-.04-.048-.072-.048h-1.44c-.04 0-.06.02-.06.06v3.408a.15.15 0 0 1-.048.108.13.13 0 0 1-.096.036h-1.104a.176.176 0 0 1-.108-.036.176.176 0 0 1-.036-.108v-8.112a.13.13 0 0 1 .036-.096.15.15 0 0 1 .108-.048h3.3c.488 0 .92.104 1.296.312.376.2.668.488.876.864.208.368.312.792.312 1.272 0 .552-.144 1.024-.432 1.416-.28.384-.672.652-1.176.804-.016 0-.028.008-.036.024a.051.051 0 0 0 0 .048l1.692 3.492a.184.184 0 0 1 .024.072c0 .064-.044.096-.132.096h-1.152Zm-3.264-7.2c-.04 0-.06.02-.06.06v2.388c0 .04.02.06.06.06h1.8c.384 0 .692-.112.924-.336.24-.232.36-.536.36-.912s-.12-.68-.36-.912c-.232-.232-.54-.348-.924-.348h-1.8Z"/>
  <path fill="#fff" d="M406.956 472.701c-2.197 0-3.925-.736-5.184-2.208-1.258-1.494-1.888-3.702-1.888-6.624 0-4.288.768-7.68 2.304-10.176 1.558-2.518 4.032-3.776 7.424-3.776.768 0 1.536.106 2.304.32.768.192 1.398.448 1.888.768.491.298.736.586.736.864 0 .256-.17.64-.512 1.152-.341.49-.618.736-.832.736-.064 0-.277-.118-.64-.352a5.613 5.613 0 0 0-1.344-.672c-.512-.192-1.12-.288-1.824-.288-2.282 0-3.936 1.056-4.96 3.168-1.024 2.09-1.536 4.768-1.536 8.032 0 2.048.342 3.669 1.024 4.864.704 1.173 1.835 1.76 3.392 1.76 1.131 0 2.091-.139 2.88-.416l.736-7.136h-2.72c-.362 0-.544-.214-.544-.64 0-.128.011-.235.032-.32l.032-.512c.064-.64.31-.96.736-.96h4.736c.576 0 .832.32.768.96l-.96 9.152c-.085.81-.736 1.397-1.952 1.76-1.194.362-2.56.544-4.096.544Zm9.561-.128c-.79 0-1.163-.182-1.121-.544 0-.086.011-.16.032-.224l.064-.192 8.001-20.96c.149-.406.597-.608 1.344-.608h.928c.746 0 1.152.202 1.216.608l3.68 20.96c.042.213.064.352.064.416-.022.17-.139.309-.352.416-.214.085-.512.128-.896.128h-.544c-.64 0-.971-.171-.992-.512l-.832-5.248h-6.976l-1.888 5.248c-.15.341-.555.512-1.216.512h-.512Zm10.176-8.064-1.408-9.056a21.913 21.913 0 0 1-.192-1.952h-.16a83.306 83.306 0 0 1-.64 1.952l-3.328 9.056h5.728Zm7.9 8.064c-.79 0-1.163-.235-1.12-.704l2.208-21.12c.042-.47.469-.704 1.28-.704h.608c.618 0 1.002.192 1.152.576l3.872 9.472c.362.853.565 1.61.608 2.272.234-.875.544-1.6.928-2.176l5.856-9.568c.256-.384.682-.576 1.28-.576h.736c.81 0 1.194.234 1.152.704l-2.208 21.12c-.043.469-.48.704-1.312.704h-.384c-.79 0-1.163-.235-1.12-.704l1.536-14.656c.085-.704.213-1.462.384-2.272l-.128-.064a33.1 33.1 0 0 1-1.184 2.208l-4.512 7.36c-.15.277-.395.416-.736.416h-1.088c-.32 0-.544-.139-.672-.416l-2.976-7.36c-.171-.406-.416-1.142-.736-2.208l-.128.064c.042.874.021 1.632-.064 2.272l-1.536 14.656c-.043.469-.48.704-1.312.704h-.384Zm21.966-.064c-.298 0-.512-.075-.64-.224-.128-.15-.17-.395-.128-.736l2.176-20.48c.043-.342.139-.587.288-.736.15-.15.374-.224.672-.224h9.216c.406 0 .576.32.512.96l-.064.512c-.064.64-.298.96-.704.96h-7.2l-.768 7.296h6.464c.406 0 .576.32.512.96l-.064.512c-.064.64-.298.96-.704.96h-6.464l-.832 7.808h7.2c.214 0 .363.074.448.224.086.149.107.394.064.736l-.064.512c-.042.341-.117.586-.224.736-.106.149-.266.224-.48.224h-9.216Zm25.272.192c-2.197 0-3.925-.736-5.184-2.208-1.258-1.494-1.888-3.702-1.888-6.624 0-4.288.768-7.68 2.304-10.176 1.558-2.518 4.032-3.776 7.424-3.776.768 0 1.536.106 2.304.32.768.192 1.398.448 1.888.768.491.298.736.586.736.864 0 .256-.17.64-.512 1.152-.341.49-.618.736-.832.736-.064 0-.277-.118-.64-.352a5.613 5.613 0 0 0-1.344-.672c-.512-.192-1.12-.288-1.824-.288-2.282 0-3.936 1.056-4.96 3.168-1.024 2.09-1.536 4.768-1.536 8.032 0 2.048.342 3.669 1.024 4.864.704 1.173 1.835 1.76 3.392 1.76 1.131 0 2.091-.139 2.88-.416l.736-7.136h-2.72c-.362 0-.544-.214-.544-.64 0-.128.011-.235.032-.32l.032-.512c.064-.64.31-.96.736-.96h4.736c.576 0 .832.32.768.96l-.96 9.152c-.085.81-.736 1.397-1.952 1.76-1.194.362-2.56.544-4.096.544Zm17.304 0c-2.111 0-3.733-.48-4.863-1.44-1.11-.982-1.664-2.347-1.664-4.096 0-.384.01-.683.032-.896l1.632-15.52c.042-.47.469-.704 1.28-.704H496c.81 0 1.194.234 1.152.704l-1.632 15.616a2.58 2.58 0 0 0-.032.48c0 1.024.352 1.856 1.056 2.496.725.618 1.674.928 2.848.928 1.386 0 2.474-.32 3.264-.96.789-.662 1.258-1.643 1.408-2.944l1.632-15.616c.042-.47.469-.704 1.28-.704h.448c.81 0 1.194.234 1.152.704l-1.632 15.52c-.214 2.026-1.003 3.605-2.368 4.736-1.344 1.13-3.158 1.696-5.441 1.696Zm16.865-.128c-.832 0-1.216-.235-1.152-.704l1.024-9.504-4.288-11.2c-.107-.256-.16-.448-.16-.576 0-.192.096-.331.288-.416.192-.086.522-.128.992-.128h.544c.362 0 .629.032.8.096.17.064.298.192.384.384l3.168 9.056 5.152-9.088a.814.814 0 0 1 .48-.352c.213-.064.49-.096.832-.096h.416c.426.021.725.074.896.16.17.085.256.213.256.384 0 .085-.086.277-.256.576l-6.656 11.296-.992 9.408c-.043.469-.47.704-1.28.704H516Z"/>
  <path fill="#0B969B" d="M627.624 472.557c-.544.521-1.212.997-2.006 1.428-.793.43-1.654.77-2.584 1.02-1.337-3.106-2.425-5.452-3.264-7.038a37.975 37.975 0 0 0-2.652-4.42c-.566.204-.997.351-1.292.442-.272.09-.532.17-.782.238-.068 1.79-.147 3.468-.238 5.032-.09 1.564-.204 3.048-.34 4.454-.68.022-1.428 0-2.244-.068a24.335 24.335 0 0 1-2.142-.204c.068-1.224.114-2.244.136-3.06a86.88 86.88 0 0 0 .034-2.448c0-3.038-.079-5.928-.238-8.67-.158-2.743-.43-5.837-.816-9.282 1.043-.816 2.278-1.462 3.706-1.938s2.834-.714 4.216-.714c2.675 0 4.749.623 6.222 1.87 1.496 1.224 2.244 2.912 2.244 5.066a7.505 7.505 0 0 1-1.19 4.114c-.77 1.246-1.915 2.357-3.434 3.332 1.156 1.314 2.267 2.856 3.332 4.624 1.088 1.745 2.199 3.819 3.332 6.222Zm-12.852-21.896c.114 2.334.193 4.193.238 5.576.046 1.36.068 2.652.068 3.876v.918c1.791-.499 3.117-1.247 3.978-2.244.862-1.02 1.292-2.335 1.292-3.944 0-1.406-.34-2.494-1.02-3.264-.657-.794-1.609-1.19-2.856-1.19a5.511 5.511 0 0 0-1.7.272Z"/>
  <path fill="#DEE058" d="M600.225 449.587c2.63 0 4.647.929 6.052 2.788 1.428 1.858 2.142 4.522 2.142 7.99a21.64 21.64 0 0 1-.646 5.202c-.408 1.722-.997 3.241-1.768 4.556-.952 1.677-2.13 2.946-3.536 3.808-1.382.838-2.958 1.258-4.726 1.258-2.584 0-4.612-1.077-6.086-3.23-1.473-2.176-2.21-5.055-2.21-8.636 0-4.035.998-7.333 2.992-9.894 1.995-2.562 4.59-3.842 7.786-3.842Zm-1.53 22.202c1.406 0 2.482-.896 3.23-2.686.771-1.791 1.156-4.262 1.156-7.412 0-3.015-.306-5.202-.918-6.562-.612-1.383-1.598-2.074-2.958-2.074-1.382 0-2.482.872-3.298 2.618-.816 1.722-1.224 4.023-1.224 6.902 0 2.788.352 5.02 1.054 6.698.703 1.677 1.689 2.516 2.958 2.516Z"/>
  <path fill="#93C13B" d="M589.113 469.013c.136.521.261 1.178.374 1.972.136.793.204 1.45.204 1.972-2.266.022-4.386.102-6.358.238-1.972.158-4.272.419-6.902.782-.566-3.876-1.031-8.24-1.394-13.09-.34-4.851-.498-9.078-.476-12.682a12.4 12.4 0 0 1 2.176-.476c.748-.114 1.508-.17 2.278-.17.25 0 .488.011.714.034.25 0 .488.022.714.068a66.678 66.678 0 0 0-.374 4.59 90.665 90.665 0 0 0-.102 5.61c0 2.674.057 4.964.17 6.868.114 1.904.295 3.66.544 5.27a32.57 32.57 0 0 1 4.182-.714 35.257 35.257 0 0 1 4.25-.272Z"/>
  <path fill="#5C4885" d="M565.225 451.587c2.63 0 4.647.929 6.052 2.788 1.428 1.858 2.142 4.522 2.142 7.99a21.64 21.64 0 0 1-.646 5.202c-.408 1.722-.997 3.241-1.768 4.556-.952 1.677-2.13 2.946-3.536 3.808-1.382.838-2.958 1.258-4.726 1.258-2.584 0-4.612-1.077-6.086-3.23-1.473-2.176-2.21-5.055-2.21-8.636 0-4.035.998-7.333 2.992-9.894 1.995-2.562 4.59-3.842 7.786-3.842Zm-1.53 22.202c1.406 0 2.482-.896 3.23-2.686.771-1.791 1.156-4.262 1.156-7.412 0-3.015-.306-5.202-.918-6.562-.612-1.383-1.598-2.074-2.958-2.074-1.382 0-2.482.872-3.298 2.618-.816 1.722-1.224 4.023-1.224 6.902 0 2.788.352 5.02 1.054 6.698.703 1.677 1.689 2.516 2.958 2.516Z"/>
  <path fill="#B11569" d="M549.66 464.723a8.085 8.085 0 0 1 2.21.102c.748.136 1.337.34 1.768.612-.181 2.652-1.031 4.692-2.55 6.12s-3.615 2.142-6.29 2.142-4.76-.896-6.256-2.686c-1.473-1.814-2.21-4.364-2.21-7.65 0-4.126 1.02-7.56 3.06-10.302 2.063-2.743 4.681-4.114 7.854-4.114 2.063 0 3.661.646 4.794 1.938 1.133 1.292 1.757 3.162 1.87 5.61-.861.408-1.632.68-2.312.816-.68.136-1.519.192-2.516.17.045-1.791-.159-3.117-.612-3.978-.431-.884-1.122-1.326-2.074-1.326-1.247 0-2.312.952-3.196 2.856-.861 1.904-1.292 4.272-1.292 7.106 0 2.652.351 4.692 1.054 6.12.725 1.405 1.757 2.108 3.094 2.108 1.269 0 2.221-.499 2.856-1.496.635-1.02.884-2.403.748-4.148Z"/>
  <rect width="130" height="29" x="444" y="536.509" stroke="#54509E" stroke-width="2" rx="14"/>
  <path fill="#54509E" d="M467.089 557.509v-12.6h1.944v12.6h-1.944Zm.864-5.364v-1.872h6.498v1.872h-6.498Zm0-5.364v-1.872h7.308v1.872h-7.308Zm11.962 10.728v-9.45h1.854v9.45h-1.854Zm.9-11.538c-.396 0-.702-.102-.918-.306-.216-.204-.324-.492-.324-.864 0-.348.108-.63.324-.846.228-.216.534-.324.918-.324.396 0 .702.102.918.306.216.204.324.492.324.864 0 .348-.114.63-.342.846-.216.216-.516.324-.9.324Zm5.964 11.538v-9.45h1.872v2.97l-.18-.72c.132-.456.354-.87.666-1.242.324-.372.69-.666 1.098-.882.42-.216.852-.324 1.296-.324.204 0 .396.018.576.054.192.036.342.078.45.126l-.486 2.016a2.579 2.579 0 0 0-.486-.144 1.827 1.827 0 0 0-.504-.072 2.3 2.3 0 0 0-.936.198c-.288.12-.546.294-.774.522-.216.216-.39.474-.522.774a2.262 2.262 0 0 0-.198.954v5.22h-1.872Zm13.425.18c-.972 0-1.836-.204-2.592-.612a4.732 4.732 0 0 1-1.764-1.71c-.42-.72-.63-1.548-.63-2.484 0-.744.12-1.422.36-2.034.24-.612.57-1.14.99-1.584a4.344 4.344 0 0 1 1.53-1.044 4.969 4.969 0 0 1 1.944-.378c.612 0 1.182.12 1.71.36.528.228.984.546 1.368.954.396.408.696.894.9 1.458.216.552.318 1.158.306 1.818l-.018.792h-7.722l-.414-1.476h6.534l-.27.306v-.432a2.086 2.086 0 0 0-.396-1.062 2.447 2.447 0 0 0-1.998-1.008c-.648 0-1.194.126-1.638.378-.444.24-.78.6-1.008 1.08-.228.468-.342 1.05-.342 1.746 0 .66.138 1.236.414 1.728.276.48.666.852 1.17 1.116.504.264 1.086.396 1.746.396.468 0 .9-.078 1.296-.234.408-.156.846-.438 1.314-.846l.936 1.314c-.288.288-.642.54-1.062.756-.408.216-.846.39-1.314.522a5.29 5.29 0 0 1-1.35.18Zm8.333-.18v-13.32h1.854v13.32h-1.854Zm6.948 0v-9.45h1.854v9.45h-1.854Zm.9-11.538c-.396 0-.702-.102-.918-.306-.216-.204-.324-.492-.324-.864 0-.348.108-.63.324-.846.228-.216.534-.324.918-.324.396 0 .702.102.918.306.216.204.324.492.324.864 0 .348-.114.63-.342.846-.216.216-.516.324-.9.324Zm10.193 15.678a6.556 6.556 0 0 1-2.016-.324c-.66-.204-1.194-.474-1.602-.81l.684-1.44c.24.18.522.336.846.468.324.144.666.252 1.026.324.36.084.714.126 1.062.126.66 0 1.212-.108 1.656-.324a2.22 2.22 0 0 0 1.008-.954c.228-.42.342-.942.342-1.566v-1.818l.198.126c-.06.372-.258.732-.594 1.08a3.793 3.793 0 0 1-1.224.828 3.726 3.726 0 0 1-1.512.324c-.9 0-1.704-.21-2.412-.63a4.724 4.724 0 0 1-1.656-1.746c-.408-.744-.612-1.59-.612-2.538 0-.948.198-1.788.594-2.52a4.55 4.55 0 0 1 1.656-1.746c.708-.432 1.5-.648 2.376-.648.36 0 .708.048 1.044.144.336.084.648.21.936.378.288.156.546.33.774.522.228.192.414.396.558.612.144.216.234.42.27.612l-.396.144v-2.214h1.854v8.874c0 .756-.114 1.422-.342 1.998a3.786 3.786 0 0 1-.954 1.476c-.42.408-.93.714-1.53.918-.6.216-1.278.324-2.034.324Zm.072-5.67c.588 0 1.11-.138 1.566-.414.456-.276.81-.654 1.062-1.134.252-.48.378-1.032.378-1.656 0-.624-.132-1.176-.396-1.656a2.816 2.816 0 0 0-1.062-1.152c-.444-.276-.96-.414-1.548-.414-.576 0-1.092.144-1.548.432-.444.276-.798.66-1.062 1.152-.252.48-.378 1.026-.378 1.638 0 .612.126 1.164.378 1.656.264.48.618.858 1.062 1.134a2.93 2.93 0 0 0 1.548.414Zm9.548 1.53v-13.32h1.854v5.814l-.324.216c.12-.42.354-.804.702-1.152.348-.36.762-.648 1.242-.864.48-.228.972-.342 1.476-.342.72 0 1.32.144 1.8.432.48.276.84.702 1.08 1.278.24.576.36 1.302.36 2.178v5.76h-1.854v-5.634c0-.54-.072-.984-.216-1.332-.144-.36-.366-.618-.666-.774-.3-.168-.672-.24-1.116-.216-.36 0-.69.06-.99.18-.3.108-.564.264-.792.468-.216.204-.39.444-.522.72-.12.264-.18.552-.18.864v5.724h-1.854Zm14.035 0v-11.862h1.854v11.862h-1.854Zm-1.962-7.65v-1.8h6.012v1.8h-6.012Zm-18.254 263.818c-1.162 0-2.1-.35-2.814-1.05-.714-.7-1.071-1.617-1.071-2.751v-.546c0-.07.021-.126.063-.168a.261.261 0 0 1 .189-.084h1.911a.2.2 0 0 1 .168.084.2.2 0 0 1 .084.168v.42c0 .546.133.987.399 1.323.28.336.637.504 1.071.504.434 0 .791-.154 1.071-.462.28-.322.42-.742.42-1.26 0-.364-.077-.679-.231-.945a2.932 2.932 0 0 0-.651-.756c-.28-.238-.728-.581-1.344-1.029-.7-.504-1.267-.952-1.701-1.344a5.42 5.42 0 0 1-1.071-1.407c-.28-.56-.42-1.204-.42-1.932 0-1.162.35-2.086 1.05-2.772.7-.686 1.624-1.029 2.772-1.029 1.162 0 2.1.364 2.814 1.092.714.714 1.071 1.666 1.071 2.856v.504c0 .07-.028.133-.084.189a.227.227 0 0 1-.168.063h-1.89a.307.307 0 0 1-.189-.063.307.307 0 0 1-.063-.189v-.546c0-.546-.14-.98-.42-1.302-.266-.336-.623-.504-1.071-.504-.42 0-.763.154-1.029.462-.266.294-.399.707-.399 1.239 0 .504.14.931.42 1.281.294.35.861.833 1.701 1.449.854.63 1.498 1.148 1.932 1.554.434.392.77.826 1.008 1.302.238.476.357 1.043.357 1.701 0 1.19-.357 2.149-1.071 2.877-.714.714-1.652 1.071-2.814 1.071Zm12.995-14.868a.2.2 0 0 1 .168.084.2.2 0 0 1 .084.168v1.596c0 .07-.028.133-.084.189a.227.227 0 0 1-.168.063h-2.667c-.07 0-.105.035-.105.105v12.243c0 .07-.028.133-.084.189a.227.227 0 0 1-.168.063h-1.932a.307.307 0 0 1-.189-.063.307.307 0 0 1-.063-.189v-12.243c0-.07-.035-.105-.105-.105h-2.52a.307.307 0 0 1-.189-.063.307.307 0 0 1-.063-.189v-1.596c0-.07.021-.126.063-.168a.261.261 0 0 1 .189-.084h7.833Zm6.916 14.7c-.168 0-.259-.077-.273-.231l-.399-2.205c0-.07-.042-.105-.126-.105h-3.066c-.084 0-.126.035-.126.105l-.399 2.205c-.014.154-.105.231-.273.231h-1.911c-.196 0-.273-.091-.231-.273l3.108-14.196c.028-.154.119-.231.273-.231h2.226c.154 0 .245.077.273.231l3.108 14.196v.084c0 .126-.077.189-.231.189h-1.953Zm-3.612-4.557c-.014.07.021.105.105.105h2.331c.084 0 .119-.035.105-.105l-1.218-6.636c-.014-.042-.035-.063-.063-.063-.028 0-.049.021-.063.063l-1.197 6.636Zm13.042 4.557c-.14 0-.231-.07-.273-.21l-1.785-6.027c-.028-.056-.063-.084-.105-.084h-1.113c-.07 0-.105.035-.105.105v5.964c0 .07-.028.133-.084.189a.227.227 0 0 1-.168.063h-1.932a.307.307 0 0 1-.189-.063.307.307 0 0 1-.063-.189v-14.196c0-.07.021-.126.063-.168a.261.261 0 0 1 .189-.084h3.948c.742 0 1.393.182 1.953.546.574.35 1.015.854 1.323 1.512.322.644.483 1.386.483 2.226 0 .868-.168 1.617-.504 2.247a3.378 3.378 0 0 1-1.407 1.428c-.056.014-.077.056-.063.126l2.058 6.321a.234.234 0 0 1 .021.105c0 .126-.077.189-.231.189h-2.016Zm-3.276-12.6c-.07 0-.105.035-.105.105v4.179c0 .07.035.105.105.105h1.281c.504 0 .91-.196 1.218-.588.322-.392.483-.924.483-1.596s-.161-1.204-.483-1.596a1.456 1.456 0 0 0-1.218-.609h-1.281Zm14.677-2.1a.2.2 0 0 1 .168.084.2.2 0 0 1 .084.168v1.596c0 .07-.028.133-.084.189a.227.227 0 0 1-.168.063h-2.667c-.07 0-.105.035-.105.105v12.243c0 .07-.028.133-.084.189a.227.227 0 0 1-.168.063h-1.932a.307.307 0 0 1-.189-.063.307.307 0 0 1-.063-.189v-12.243c0-.07-.035-.105-.105-.105h-2.52a.307.307 0 0 1-.189-.063.307.307 0 0 1-.063-.189v-1.596c0-.07.021-.126.063-.168a.261.261 0 0 1 .189-.084h7.833Zm-118.202 14.868c-1.162 0-2.1-.35-2.814-1.05-.714-.7-1.071-1.617-1.071-2.751v-.546c0-.07.021-.126.063-.168a.261.261 0 0 1 .189-.084h1.911a.2.2 0 0 1 .168.084.2.2 0 0 1 .084.168v.42c0 .546.133.987.399 1.323.28.336.637.504 1.071.504.434 0 .791-.154 1.071-.462.28-.322.42-.742.42-1.26 0-.364-.077-.679-.231-.945a2.932 2.932 0 0 0-.651-.756c-.28-.238-.728-.581-1.344-1.029-.7-.504-1.267-.952-1.701-1.344a5.42 5.42 0 0 1-1.071-1.407c-.28-.56-.42-1.204-.42-1.932 0-1.162.35-2.086 1.05-2.772.7-.686 1.624-1.029 2.772-1.029 1.162 0 2.1.364 2.814 1.092.714.714 1.071 1.666 1.071 2.856v.504c0 .07-.028.133-.084.189a.227.227 0 0 1-.168.063h-1.89a.307.307 0 0 1-.189-.063.307.307 0 0 1-.063-.189v-.546c0-.546-.14-.98-.42-1.302-.266-.336-.623-.504-1.071-.504-.42 0-.763.154-1.029.462-.266.294-.399.707-.399 1.239 0 .504.14.931.42 1.281.294.35.861.833 1.701 1.449.854.63 1.498 1.148 1.932 1.554.434.392.77.826 1.008 1.302.238.476.357 1.043.357 1.701 0 1.19-.357 2.149-1.071 2.877-.714.714-1.652 1.071-2.814 1.071Zm12.887-13.02c0 .07-.028.133-.084.189a.227.227 0 0 1-.168.063h-4.536c-.07 0-.105.035-.105.105v3.969c0 .07.035.105.105.105h2.688a.2.2 0 0 1 .168.084.2.2 0 0 1 .084.168v1.617c0 .07-.028.133-.084.189a.227.227 0 0 1-.168.063h-2.688c-.07 0-.105.035-.105.105v3.99c0 .07.035.105.105.105h4.536a.2.2 0 0 1 .168.084.2.2 0 0 1 .084.168v1.596c0 .07-.028.133-.084.189a.227.227 0 0 1-.168.063h-6.825a.307.307 0 0 1-.189-.063.307.307 0 0 1-.063-.189v-14.196c0-.07.021-.126.063-.168a.261.261 0 0 1 .189-.084h6.825a.2.2 0 0 1 .168.084.2.2 0 0 1 .084.168v1.596Zm2.049 12.852a.307.307 0 0 1-.189-.063.307.307 0 0 1-.063-.189v-14.196c0-.07.021-.126.063-.168a.261.261 0 0 1 .189-.084h1.932a.2.2 0 0 1 .168.084.2.2 0 0 1 .084.168v12.243c0 .07.035.105.105.105h4.536a.2.2 0 0 1 .168.084.2.2 0 0 1 .084.168v1.596c0 .07-.028.133-.084.189a.227.227 0 0 1-.168.063h-6.825Zm15.793-12.852c0 .07-.028.133-.084.189a.227.227 0 0 1-.168.063h-4.536c-.07 0-.105.035-.105.105v3.969c0 .07.035.105.105.105h2.688a.2.2 0 0 1 .168.084.2.2 0 0 1 .084.168v1.617c0 .07-.028.133-.084.189a.227.227 0 0 1-.168.063h-2.688c-.07 0-.105.035-.105.105v3.99c0 .07.035.105.105.105h4.536a.2.2 0 0 1 .168.084.2.2 0 0 1 .084.168v1.596c0 .07-.028.133-.084.189a.227.227 0 0 1-.168.063h-6.825a.307.307 0 0 1-.189-.063.307.307 0 0 1-.063-.189v-14.196c0-.07.021-.126.063-.168a.261.261 0 0 1 .189-.084h6.825a.2.2 0 0 1 .168.084.2.2 0 0 1 .084.168v1.596Zm5.493 13.02c-1.19 0-2.149-.357-2.877-1.071-.714-.728-1.071-1.687-1.071-2.877v-7.161c0-1.204.357-2.156 1.071-2.856.728-.714 1.687-1.071 2.877-1.071 1.204 0 2.17.357 2.898 1.071.728.7 1.092 1.652 1.092 2.856v.252c0 .07-.028.133-.084.189a.2.2 0 0 1-.168.084l-1.953.084c-.168 0-.252-.084-.252-.252v-.525c0-.49-.14-.889-.42-1.197-.28-.308-.651-.462-1.113-.462-.448 0-.812.154-1.092.462-.28.308-.42.707-.42 1.197v7.518c0 .49.14.889.42 1.197.28.308.644.462 1.092.462.462 0 .833-.154 1.113-.462.28-.308.42-.707.42-1.197v-.525c0-.07.021-.126.063-.168a.261.261 0 0 1 .189-.084l1.953.084a.2.2 0 0 1 .168.084.2.2 0 0 1 .084.168v.252c0 1.19-.364 2.149-1.092 2.877-.728.714-1.694 1.071-2.898 1.071Zm13.441-14.868a.2.2 0 0 1 .168.084.2.2 0 0 1 .084.168v1.596c0 .07-.028.133-.084.189a.227.227 0 0 1-.168.063h-2.667c-.07 0-.105.035-.105.105v12.243c0 .07-.028.133-.084.189a.227.227 0 0 1-.168.063h-1.932a.307.307 0 0 1-.189-.063.307.307 0 0 1-.063-.189v-12.243c0-.07-.035-.105-.105-.105h-2.52a.307.307 0 0 1-.189-.063.307.307 0 0 1-.063-.189v-1.596c0-.07.021-.126.063-.168a.261.261 0 0 1 .189-.084h7.833Z"/>
</svg>
