<svg xmlns="http://www.w3.org/2000/svg" width="1024" height="1024" fill="none" viewBox="0 0 1024 1024">
  <path fill="#282D32" d="M332.751 692.16c45.216-56.751 140.723-64.133 179.018-65.056 38.296.923 134.264 8.767 179.48 65.517 4.55 5.537 16.61 22.608 21.224 35.066 10.151 35.065 47.207 56.663 77.974 55.828 55.367 10.612 189.169-121.807 185.478-285.599-1.497-66.44-42.909-116.959-56.289-127.805C814.901 285.216 658.952 243.691 512.231 240c-146.721 3.691-303.132 44.755-407.867 129.65-13.38 10.846-54.792 61.364-56.29 127.804-3.69 163.793 130.112 296.211 185.479 285.599 30.767.835 67.823-20.762 77.974-55.828 4.614-12.457 16.673-29.528 21.224-35.065Z"/>
  <path stroke="#000" d="M48.075 497.454c-3.691 163.793 130.111 296.211 185.478 285.599 30.767.835 67.823-20.762 77.974-55.828 4.614-12.457 16.673-29.529 21.224-35.065 45.216-56.751 140.723-64.133 179.018-65.056 38.296.923 134.264 8.766 179.48 65.517 4.551 5.537 16.61 22.608 21.224 35.066 10.151 35.065 47.207 56.662 77.974 55.827 55.367 10.612 189.169-121.806 185.478-285.599"/>
  <path fill="#393B3F" d="M512.231 240c-146.721 3.691-303.132 44.755-407.867 129.65-15.226 13.38-28.145 32.758-39.67 57.212 22.084-1.276 37.975 6.163 66.892 20.762 319.438-63.866 435.088-41.524 800.046-10.15 17.994-11.073 16.181-7.285 27.222-11.073-10.823-24.574-27.222-46.139-39.218-56.29C814.901 285.216 658.952 243.691 512.231 240Z"/>
  <circle cx="263.543" cy="496.993" r="141.185" fill="#0B0B0D"/>
  <circle cx="262.159" cy="496.532" r="114.886" fill="#1E1E23"/>
  <circle cx="263.543" cy="496.993" r="89.509" fill="#040404"/>
  <circle cx="263.543" cy="496.993" r="78.436" fill="#34373C"/>
  <path fill="#3E4145" stroke="#040404" d="M242.959 421.326v56.508h-55.545c-3.342 16.157-3.07 25.228 0 41.389h55.545v53.42c16.426 3.933 25.27 3.49 41.014 0v-53.42h54.776c3.212-15.85 4.417-24.889.923-41.389h-55.699v-56.508c-15.055-3.45-24.022-3.398-41.014 0Z"/>
  <path fill="#0C0F13" d="m212.417 444.945 12.482 5.136-7.346 7.346-5.136-12.482Zm0 103.099 5.136-12.481 7.346 7.346-12.482 5.135Zm102.177 0-12.481-5.135 7.346-7.346 5.135 12.481Zm0-103.099-5.135 12.482-7.346-7.346 12.481-5.136Z"/>
  <path fill="#E9060C" d="m127.895 496.993 17.994-7.192v14.384l-17.994-7.192Zm269.45 0-17.994 7.192v-14.384l17.994 7.192Zm-132.88 133.802-7.192-17.994h14.385l-7.193 17.994Zm0-268.527 7.193 17.994h-14.385l7.192-17.994Z"/>
  <circle cx="174.034" cy="408.406" r="3.691" fill="#D9D9D9"/>
  <circle cx="350.284" cy="408.406" r="3.691" fill="#D9D9D9"/>
  <circle cx="350.284" cy="583.734" r="3.691" fill="#D9D9D9"/>
  <circle cx="174.034" cy="583.734" r="3.691" fill="#D9D9D9"/>
  <circle cx="264.004" cy="496.532" r="14.303" fill="#0C0F13"/>
  <rect width="106.119" height="40.602" x="645.35" y="373.289" fill="#2C2F35" rx="20.301" transform="rotate(-26 645.35 373.289)"/>
  <rect width="84.895" height="18.456" x="658.317" y="379.544" fill="#E4E6EA" rx="9.228" transform="rotate(-25 658.317 379.544)"/>
  <path fill="#0B0B0D" d="M604.508 591.575c-11.073-20.301-17.071-57.21 2.307-89.046 44.293-55.366 98.269-88.072 191.476-115.81 0 0 53.982-13.378 92.277 3.691 64.133 35.066 54.116 111.506 0 141.185 0 0-61.825 24.914-95.507 39.679-33.681 14.764-56.984 29.776-102.428 53.059-29.067 10.615-72.899-5.995-88.125-32.758Z"/>
  <path fill="#1A1A1F" d="M616.993 567.766c-13.393-28.72-1.595-62.886 26.666-77.224l90.961-46.147 93.773-39.997c29.146-12.431 62.9.492 76.291 29.21 13.826 29.649.768 64.881-29.042 78.357l-89.347 40.394-90.612 43.535c-29.486 14.167-64.865 1.521-78.69-28.128Z"/>
  <circle cx="670.487" cy="548.668" r="41.525" fill="#34373B"/>
  <circle cx="761.841" cy="499.761" r="41.525" fill="#34373B"/>
  <circle cx="771.069" cy="522.831" r="2.768" fill="#4E4E57"/>
  <circle cx="856.887" cy="462.85" r="41.525" fill="#34373B"/>
  <path fill="#E8EDF1" d="m492.852 376.109-14.764 22.608c-21.452.44-33.471.893-54.905 1.846l-11.996 7.382v17.533l13.38 5.998c78.193-3.727 122.052-3.731 200.242 0l11.535-5.998v-17.533l-12.919-7.382c-20.63-1.339-32.478-1.805-54.444-1.846l-15.687-22.608h-60.442Z"/>
  <path fill="#B9BEC2" d="m622.964 401.485 12.457 6.921v16.149l-11.073 5.536c-78.191-3.73-121.127-3.727-199.32 0l-12.919-5.536v-16.149l11.535-6.921c21.435-.953 32.992-1.405 54.444-1.845h90.893c21.081-.022 32.921.461 53.983 1.845Z"/>
  <path fill="#282D32" d="M425.588 420.638v-10.547l6.328-4.218h16.875l-4.218 3.164h-10.547v3.164h10.547l-4.219 3.164h-6.328v5.273h-8.438Zm25.698 0v-14.765h8.438v14.765h-8.438Zm10.932-10.547 6.328-4.218h16.875v7.382l-3.164 2.11 3.164 5.273h-8.437l-5.274-8.437h5.274v-3.164h-6.328v11.601h-8.438v-10.547Zm25.698 10.547v-10.547l6.328-4.218h16.875l-4.219 3.164h-10.546v3.164H506.9l-4.218 3.164h-6.328v2.109h14.765l-4.219 3.164h-18.984Zm23.589 0v-14.765h8.437v11.601h14.766l-4.219 3.164h-18.984Zm25.697 0v-14.765h8.438v14.765h-8.438Zm10.933 0v-10.547l6.328-4.218h16.875l-4.219 3.164h-10.547v8.437h6.328v-2.109h-5.273l4.218-3.164h9.493v5.273l-4.219 3.164h-18.984Zm25.697 0v-14.765h8.438v6.328h6.328v-6.328h8.437v14.765h-8.437v-5.273h-6.328v5.273h-8.438Zm25.698-11.601 4.219-3.164h18.984l-4.218 3.164h-3.165v11.601h-8.437v-11.601h-7.383Zm-97.027-19.338-2.288-6.128a.632.632 0 0 0-.272-.288.873.873 0 0 0-.464-.128.987.987 0 0 0-.464.128c-.16.085-.256.181-.288.288l-4.608 13.152h-2.128l4.944-13.952c.085-.224.197-.437.336-.64a2.43 2.43 0 0 1 1.248-.96c.277-.096.597-.144.96-.144.362 0 .677.048.944.144.266.096.501.229.704.4.202.16.373.347.512.56.149.203.277.416.384.64l.48.96.48-.96c.117-.224.245-.437.384-.64.149-.213.32-.4.512-.56.202-.171.437-.304.704-.4.266-.096.581-.144.944-.144.352 0 .666.048.944.144.288.096.533.229.736.4.213.16.389.347.528.56.149.203.261.416.336.64l4.944 13.952h-2.128l-4.608-13.152c-.032-.107-.128-.203-.288-.288a.99.99 0 0 0-.464-.128.868.868 0 0 0-.464.128c-.139.085-.23.181-.272.288l-2.288 6.128Zm0 7.024-3.024-8.064-2.656 8.064h-2.128l4.384-12.752c.021-.064.074-.117.16-.16a.459.459 0 0 1 .24-.08c.074 0 .149.027.224.08.085.043.138.096.16.16l2.64 7.28 2.64-7.28a.294.294 0 0 1 .144-.16.459.459 0 0 1 .24-.08c.074 0 .154.027.24.08.085.043.138.096.16.16l4.384 12.752h-2.048l-2.736-8.064-3.024 8.064Zm10.942-10.864c0-.672.123-1.301.368-1.888a4.938 4.938 0 0 1 .976-1.536 4.616 4.616 0 0 1 1.424-1.024 3.904 3.904 0 0 1 1.68-.384h6.064v2.128h-5.808a2.4 2.4 0 0 0-1.088.24c-.32.16-.592.368-.816.624a2.866 2.866 0 0 0-.496.88 2.78 2.78 0 0 0-.176.96v6.032a2.916 2.916 0 0 0 .672 1.84c.224.256.496.464.816.624.32.16.683.24 1.088.24h5.808v2.128h-6.064a4.05 4.05 0 0 1-1.68-.368 4.99 4.99 0 0 1-1.424-1.024 5.182 5.182 0 0 1-.976-1.536 4.967 4.967 0 0 1-.368-1.904v-6.032Zm2.704 2.752v-2.432c0-.277.043-.56.128-.848.096-.299.235-.565.416-.8.182-.235.411-.427.688-.576.278-.149.603-.224.976-.224h5.6v2.128h-5.552c-.064 0-.133.037-.208.112a.452.452 0 0 0-.096.304v.224h4.64v2.112h-6.592Zm0 .528h6.592v2.128h-4.64v.208c0 .128.032.229.096.304.075.075.144.112.208.112h5.552v2.128h-5.6c-.373 0-.698-.075-.976-.224a2.138 2.138 0 0 1-.688-.576 2.646 2.646 0 0 1-.416-.784 3.157 3.157 0 0 1-.128-.864v-2.432Zm21.427 7.584h-7.2a4.05 4.05 0 0 1-1.68-.368 4.99 4.99 0 0 1-1.424-1.024 5.182 5.182 0 0 1-.976-1.536 4.967 4.967 0 0 1-.368-1.904v-6.032c0-.672.123-1.301.368-1.888a4.938 4.938 0 0 1 .976-1.536 4.616 4.616 0 0 1 1.424-1.024 3.904 3.904 0 0 1 1.68-.384h7.2v2.128h-6.944a2.4 2.4 0 0 0-1.088.24c-.32.16-.592.368-.816.624a2.866 2.866 0 0 0-.496.88 2.78 2.78 0 0 0-.176.96v6.032a2.916 2.916 0 0 0 .672 1.84c.224.256.496.464.816.624.32.16.683.24 1.088.24h5.152v-5.984h-4.768v-2.112h6.56v10.224Zm-6.688-4.832h1.76a.165.165 0 0 0 .16-.096.393.393 0 0 0 0-.432.165.165 0 0 0-.16-.096h-1.632v-2.128h4.208v4.88h-4.384c-.373 0-.698-.075-.976-.224a2.138 2.138 0 0 1-.688-.576 2.646 2.646 0 0 1-.416-.784 3.157 3.157 0 0 1-.128-.864v-5.392c0-.277.043-.56.128-.848.096-.299.235-.565.416-.8.182-.235.411-.427.688-.576.278-.149.603-.224.976-.224h6.736v2.128h-6.688c-.064 0-.133.037-.208.112a.452.452 0 0 0-.096.304v5.2c0 .128.032.229.096.304.075.075.144.112.208.112Zm13.544 2.96h6.64l-4.064-11.28c-.032-.107-.128-.203-.288-.288a.99.99 0 0 0-.464-.128.953.953 0 0 0-.48.128c-.139.085-.224.181-.256.288l-4.624 13.152h-2.128l4.944-13.952a2.54 2.54 0 0 1 .32-.64 2.43 2.43 0 0 1 1.248-.96c.288-.096.613-.144.976-.144.362 0 .682.048.96.144.277.096.517.229.72.4.213.16.389.347.528.56.138.203.25.416.336.64l4.944 13.952h-9.312v-1.872Zm0-.576v-.608l-1.024 3.056h-1.936l4.4-12.752a.294.294 0 0 1 .144-.16.459.459 0 0 1 .24-.08c.074 0 .154.027.24.08.085.043.138.096.16.16l3.648 10.304h-5.872Zm1.824-5.936-1.28 4.032h2.608l-1.328-4.032Z"/>
  <path fill="#fff" d="M670.136 348.119a1.557 1.557 0 0 0-1.166-.736c-.504-.065-1.032.038-1.586.309a2.956 2.956 0 0 0-.968.715 1.89 1.89 0 0 0-.442.885c-.055.311-.012.612.131.904.119.244.279.426.481.545.204.115.426.185.668.211.239.023.479.023.718-.002.237-.027.452-.06.643-.098l1.052-.203c.269-.053.576-.096.922-.129.348-.033.703-.02 1.064.04.363.055.704.188 1.024.397.319.209.584.528.793.957.241.495.329 1.005.265 1.53-.062.524-.282 1.025-.662 1.501-.377.475-.917.884-1.62 1.227-.655.32-1.274.491-1.857.513-.58.021-1.099-.091-1.557-.335a2.81 2.81 0 0 1-1.104-1.094l1.144-.558c.199.331.454.56.767.688.315.123.655.164 1.022.121a3.51 3.51 0 0 0 1.097-.336c.423-.206.77-.46 1.039-.761a2.17 2.17 0 0 0 .517-.971 1.54 1.54 0 0 0-.132-1.02c-.149-.304-.354-.509-.617-.617a2.078 2.078 0 0 0-.897-.138 7.918 7.918 0 0 0-1.05.125l-1.283.228c-.816.143-1.525.125-2.128-.052-.603-.178-1.055-.576-1.355-1.192-.25-.513-.33-1.027-.239-1.543a3.079 3.079 0 0 1 .69-1.443 4.23 4.23 0 0 1 1.43-1.096c.59-.287 1.166-.437 1.727-.45a3.035 3.035 0 0 1 1.509.326c.449.232.793.575 1.033 1.029l-1.073.523Zm2.89-3.024-.48-.983 6.864-3.348.479.983-2.877 1.404 3.984 8.168-1.109.54-3.984-8.168-2.877 1.404Zm12.87 3.834-1.161.566-1.104-10.79 1.144-.558 7.824 7.513-1.162.566-6.492-6.37-.071.035 1.022 9.038Zm-1.314-3.784 4.683-2.284.479.983-4.683 2.284-.479-.983Zm10.449-.672-4.463-9.151 3.092-1.508c.715-.349 1.361-.513 1.939-.492.577.017 1.078.184 1.505.499.427.316.772.743 1.035 1.282.263.539.386 1.071.369 1.596-.017.524-.196 1.017-.535 1.478-.341.457-.866.859-1.575 1.205l-2.503 1.22-.488-1.001 2.467-1.203c.488-.238.847-.501 1.075-.79.231-.289.35-.598.356-.926.008-.331-.078-.681-.257-1.047a2.355 2.355 0 0 0-.674-.861 1.566 1.566 0 0 0-.966-.314c-.375-.005-.81.113-1.304.354l-1.949.951 3.984 8.168-1.108.54Zm2.303-6.212 4.257 3.013-1.287.628-4.221-3.03 1.251-.611Zm2.268-6.129-.479-.983 6.863-3.347.48.983-2.878 1.403 3.984 8.169-1.108.54-3.984-8.168-2.878 1.403Zm-5.166 111.172-.548-1.123 7.844-3.826.548 1.123-3.289 1.604 4.553 9.336-1.266.617-4.553-9.335-3.289 1.604Zm15.502 3.995-5.101-10.459 3.534-1.723c.817-.399 1.556-.586 2.216-.563.659.02 1.232.211 1.72.571.488.361.882.849 1.183 1.465.3.616.441 1.224.421 1.824-.019.599-.223 1.162-.611 1.689-.39.523-.99.982-1.8 1.377l-2.86 1.395-.558-1.144 2.819-1.375c.559-.272.968-.573 1.229-.903.264-.331.4-.683.407-1.058.008-.379-.089-.778-.293-1.197-.205-.419-.462-.747-.771-.983a1.776 1.776 0 0 0-1.104-.359c-.429-.006-.926.129-1.491.404l-2.226 1.086 4.553 9.335-1.267.618Zm2.632-7.099 4.865 3.443-1.471.717-4.824-3.463 1.43-.697Zm3.883-9.025 5.101 10.459-1.267.617-5.101-10.458 1.267-.618Zm12.433-2.018a4.11 4.11 0 0 0-.895-.708 3.167 3.167 0 0 0-.992-.388 3.035 3.035 0 0 0-1.065-.031c-.366.052-.738.17-1.116.355a3.45 3.45 0 0 0-1.456 1.304c-.352.568-.525 1.236-.521 2.005.004.769.227 1.607.669 2.512.442.906.966 1.596 1.573 2.072.607.475 1.247.746 1.921.814a3.62 3.62 0 0 0 1.98-.372c.599-.292 1.065-.677 1.397-1.155a3.025 3.025 0 0 0 .539-1.616c.028-.599-.114-1.219-.426-1.859l.428-.108-3.146 1.534-.548-1.123 3.983-1.943.548 1.124c.42.861.602 1.7.545 2.516a4.239 4.239 0 0 1-.79 2.218c-.47.659-1.121 1.192-1.952 1.597-.926.451-1.846.63-2.76.537-.91-.096-1.757-.45-2.541-1.062-.78-.614-1.439-1.473-1.977-2.576-.403-.827-.655-1.625-.756-2.394-.099-.773-.058-1.493.123-2.158.181-.666.49-1.259.927-1.78a4.98 4.98 0 0 1 1.662-1.272 5.162 5.162 0 0 1 1.664-.502 4.605 4.605 0 0 1 3.094.691c.454.293.853.669 1.195 1.13l-1.307.638Zm11.838-5.774a4.133 4.133 0 0 0-.895-.708 3.188 3.188 0 0 0-.993-.388 3.03 3.03 0 0 0-1.064-.031 3.796 3.796 0 0 0-1.117.355 3.451 3.451 0 0 0-1.456 1.305c-.351.567-.524 1.235-.52 2.005.004.769.227 1.606.669 2.512.441.905.966 1.596 1.573 2.071.607.475 1.247.747 1.92.814a3.612 3.612 0 0 0 1.981-.372c.599-.292 1.065-.677 1.396-1.155a3.023 3.023 0 0 0 .54-1.616c.028-.599-.115-1.219-.427-1.859l.428-.107-3.145 1.534-.548-1.124 3.983-1.942.548 1.123c.42.861.601 1.7.544 2.516a4.243 4.243 0 0 1-.789 2.218c-.471.66-1.121 1.192-1.952 1.597-.926.452-1.846.631-2.76.537-.911-.095-1.757-.449-2.541-1.062-.78-.614-1.439-1.473-1.977-2.576-.403-.827-.655-1.625-.756-2.393-.099-.774-.058-1.493.123-2.159.181-.666.49-1.259.927-1.78a4.98 4.98 0 0 1 1.662-1.272 5.162 5.162 0 0 1 1.664-.502 4.629 4.629 0 0 1 1.623.075 4.421 4.421 0 0 1 1.47.617c.455.292.853.669 1.196 1.129l-1.307.638Zm8.195 4.904-5.101-10.459 6.312-3.078.548 1.123-5.046 2.461 1.724 3.534 4.719-2.302.548 1.124-4.719 2.301 1.733 3.555 5.128-2.501.548 1.123-6.394 3.119Zm9.745-4.753-5.101-10.459 3.534-1.723c.817-.399 1.556-.586 2.216-.563.659.02 1.232.21 1.72.571.488.36.882.849 1.182 1.465.301.616.442 1.224.422 1.824-.019.599-.223 1.162-.611 1.689-.39.523-.99.982-1.8 1.377l-2.86 1.395-.558-1.144 2.819-1.375c.558-.272.968-.573 1.229-.903.264-.331.399-.684.407-1.058.008-.379-.089-.778-.294-1.197-.204-.419-.461-.747-.77-.984a1.79 1.79 0 0 0-1.104-.359c-.429-.006-.926.129-1.491.405l-2.226 1.086 4.553 9.335-1.267.618Zm2.632-7.099 4.865 3.442-1.471.718-4.824-3.463 1.43-.697Z"/>
  <path fill="#E9060C" d="m665.416 560.68-1.048-17.86 3.948-1.926 13.408 11.832-3.279 1.599-3.065-2.724-7.096 3.461.238 4.103-3.106 1.515Zm2.638-8.497 5.199-2.535-5.584-5.207-.237.115.622 7.627Zm91.056-41.505-7.239-14.841 8.521-4.156c1.093-.533 2.04-.817 2.842-.852.802-.035 1.49.154 2.066.568.59.406 1.078 1.005 1.464 1.796.322.661.499 1.279.529 1.851a2.87 2.87 0 0 1-.338 1.607c-.277.491-.715.963-1.313 1.415l.042.086c.818-.221 1.52-.278 2.106-.173.593.085 1.095.33 1.506.734.418.384.792.914 1.122 1.589.281.576.457 1.139.531 1.691a3.431 3.431 0 0 1-.123 1.609c-.177.513-.526 1.021-1.046 1.524-.527.489-1.251.958-2.171 1.406l-8.499 4.146Zm1.917-3.899 4.4-2.146c.69-.337 1.202-.658 1.534-.962.325-.319.496-.661.514-1.025.018-.365-.096-.799-.341-1.303-.239-.489-.514-.835-.827-1.038-.298-.211-.67-.279-1.114-.204-.452.06-1.015.254-1.691.584l-4.401 2.146 1.926 3.948Zm-3.051-6.256 4.335-2.115c.633-.308 1.105-.618 1.416-.93.31-.312.485-.647.525-1.004.039-.357-.05-.759-.267-1.205-.239-.489-.497-.835-.774-1.038-.277-.203-.63-.271-1.06-.203-.43.067-.991.269-1.681.606l-4.336 2.114 1.842 3.775Zm103.268-30.809c-1.251.61-2.333 1.057-3.244 1.342-.919.27-1.725.369-2.418.298a3.848 3.848 0 0 1-1.903-.781c-.554-.442-1.091-1.07-1.613-1.884-.528-.828-1.091-1.853-1.687-3.075-.596-1.223-1.058-2.297-1.385-3.223-.327-.927-.495-1.744-.502-2.452a3.742 3.742 0 0 1 .545-1.949c.371-.59.949-1.157 1.734-1.7.793-.565 1.815-1.152 3.066-1.762a29.98 29.98 0 0 1 3.126-1.311c.517-.181.98-.327 1.389-.437l1.126 2.308c-.489.167-.963.345-1.423.533-.445.182-.858.357-1.239.525-.374.146-.697.286-.97.42-.906.441-1.647.838-2.223 1.191-.562.345-.977.698-1.245 1.061a1.85 1.85 0 0 0-.377 1.198c.01.458.141 1.018.392 1.678.258.64.622 1.441 1.092 2.405.47.963.881 1.751 1.233 2.363.359.59.716 1.03 1.071 1.32.355.289.75.444 1.187.462.443-.003.974-.119 1.592-.349a27.622 27.622 0 0 0 2.307-1.018 32.718 32.718 0 0 0 1.845-.981 25.68 25.68 0 0 0 1.663-1.024l1.157 2.373c-.36.246-.788.518-1.285.813-.482.289-.99.581-1.522.876-.518.288-1.015.548-1.489.78Z"/>
</svg>
