<svg xmlns="http://www.w3.org/2000/svg" width="1024" height="1024" fill="none" viewBox="0 0 1024 1024">
  <rect width="752" height="304" x="136" y="360" fill="#000" rx="10"/>
  <path fill="#333" d="M473 360h405c5.523 0 10 4.477 10 10v87H479a6 6 0 0 1-6-6v-91Zm-337 10c0-5.523 4.477-10 10-10h51v304h-51c-5.523 0-10-4.477-10-10V370Zm337 254a6 6 0 0 1 6-6h409v36c0 5.523-4.477 10-10 10H473v-40Z"/>
  <path fill="#62666F" d="M607 496h112v112H607zm127 0h112v112H734z"/>
  <path fill="#8D2F30" d="M734 470h112v20H734v-20Zm-127 0h112v20H607v-20Z"/>
  <rect width="198" height="194" x="233" y="413" fill="#1C1B1B" rx="50"/>
  <rect width="179" height="175" x="243" y="423" fill="#333" rx="50"/>
  <path fill="#62666F" d="m257.464 427.966-28.593-28.593h210.244l-29.714 28.593c-10.772-8.236-22.426-13.181-35.553-13.181h-80.502c-11.774 0-26.414 4.598-35.882 13.181Zm-6.727 158.664-28.033 27.472V404.979l28.033 29.154c-8.541 10.827-15.138 20.744-15.138 37.003v76.809c0 15.698 6.237 29.17 15.138 38.685Zm159.224 5.606 27.472 28.594H227.75l28.593-28.594c10.909 8.389 22.426 15.138 38.124 15.138h77.37c15.138 0 28.537-6.396 38.124-15.138Zm5.607-158.086 28.593-29.171v208.562l-26.911-28.032c8.236-10.717 13.18-17.941 13.18-38.125v-74.681c0-20.069-6.28-29.134-14.862-38.553Z"/>
  <rect width="247" height="247" x="209" y="387" stroke="#773F40" stroke-width="4" rx="8"/>
  <path fill="#3E3E3E" d="M183 360h14v304h-14zm290 0h13v97h-7a6 6 0 0 1-6-6v-91Zm0 264a6 6 0 0 1 6-6h7v46h-13v-40Z"/>
  <path fill="#3E3E3E" d="M479 457a6 6 0 0 1-6-6v-8h415v14H479Zm-6 174v-7a6 6 0 0 1 6-6h409v13H473Z"/>
  <path fill="#CCD6D8" d="m332.592 402.737 3.884 9.251h-7.769l3.885-9.251ZM224.947 510.382l9.251-3.884v7.768l-9.251-3.884Zm107.645 108.766-3.885-9.251h7.769l-3.884 9.251Zm108.766-108.766-9.251 3.884v-7.769l9.251 3.885Z"/>
  <path fill="#252525" d="m280.095 464.613 11.415 5.235-6.18 6.18-5.235-11.415Zm0 98.562 5.235-11.415 6.18 6.179-11.415 5.236Zm99.683-.001-11.415-5.235 6.179-6.18 5.236 11.415Zm0-98.562-5.235 11.416-6.18-6.18 11.415-5.236Z"/>
  <rect width="11.213" height="28.032" x="326.985" y="437.497" fill="#252525" rx="5"/>
  <rect width="11.213" height="28.032" x="326.985" y="556.355" fill="#252525" rx="5"/>
  <rect width="11.213" height="28.032" x="257.464" y="515.988" fill="#252525" rx="5" transform="rotate(-90 257.464 515.988)"/>
  <rect width="11.213" height="28.032" x="378.565" y="515.988" fill="#252525" rx="5" transform="rotate(-90 378.565 515.988)"/>
  <circle cx="332.031" cy="509.821" r="31.957" fill="#2D2D2D"/>
  <circle cx="658.891" cy="547.385" r="44.852" fill="#1C1B1B"/>
  <circle cx="658.891" cy="547.385" r="35.882" fill="#333"/>
  <circle cx="783.355" cy="547.385" r="44.852" fill="#1C1B1B"/>
  <circle cx="783.355" cy="547.385" r="35.882" fill="#333"/>
  <path fill="#4E4B52" d="M471.633 495.805h2.243v112.13h-2.243zm7.849 0h2.243v112.13h-2.243zm7.849 0h2.243v112.13h-2.243zm7.849 0h2.243v112.13h-2.243zm7.85 0h2.243v112.13h-2.243zm7.849 0h2.243v112.13h-2.243zm7.849 0h2.243v112.13h-2.243zm7.849 0h2.243v112.13h-2.243zm7.849 0h2.243v112.13h-2.243zm7.849 0h2.243v112.13h-2.243zm7.849 0h2.243v112.13h-2.243zm7.849 0h2.243v112.13h-2.243zm7.849 0h2.243v112.13h-2.243zm7.85 0h2.243v112.13h-2.243zm7.849 0h2.243v112.13h-2.243zm7.849 0h2.243v112.13h-2.243zm7.849 0h2.243v112.13h-2.243z"/>
  <path fill="#9D9E9F" d="m502.458 548.708-4.004-10.724c-.075-.187-.233-.355-.476-.504a1.521 1.521 0 0 0-.812-.224c-.261 0-.532.075-.812.224-.28.149-.448.317-.504.504L487.786 561h-3.724l8.652-24.416a5.33 5.33 0 0 1 .588-1.12c.243-.373.541-.7.896-.98a4.28 4.28 0 0 1 1.288-.7c.485-.168 1.045-.252 1.68-.252s1.185.084 1.652.252c.467.168.877.401 1.232.7.355.28.653.607.896.98.261.355.485.728.672 1.12l.84 1.68.84-1.68c.205-.392.429-.765.672-1.12.261-.373.56-.7.896-.98a3.985 3.985 0 0 1 1.232-.7c.467-.168 1.017-.252 1.652-.252.616 0 1.167.084 1.652.252.504.168.933.401 1.288.7.373.28.681.607.924.98.261.355.457.728.588 1.12L520.854 561h-3.724l-8.064-23.016c-.056-.187-.224-.355-.504-.504a1.728 1.728 0 0 0-.812-.224c-.299 0-.569.075-.812.224-.243.149-.401.317-.476.504l-4.004 10.724Zm0 12.292-5.292-14.112L492.518 561h-3.724l7.672-22.316c.037-.112.131-.205.28-.28a.802.802 0 0 1 .42-.14c.131 0 .261.047.392.14.149.075.243.168.28.28l4.62 12.74 4.62-12.74a.515.515 0 0 1 .252-.28.802.802 0 0 1 .42-.14c.131 0 .271.047.42.14.149.075.243.168.28.28L516.122 561h-3.584l-4.788-14.112L502.458 561Zm16.909-19.012c0-1.176.215-2.277.644-3.304.43-1.045.999-1.941 1.708-2.688a8.075 8.075 0 0 1 2.492-1.792 6.832 6.832 0 0 1 2.94-.672h10.612v3.724h-10.164c-.709 0-1.344.14-1.904.42-.56.28-1.036.644-1.428 1.092a5.003 5.003 0 0 0-.868 1.54 4.86 4.86 0 0 0-.308 1.68v10.556a5.096 5.096 0 0 0 1.176 3.22c.392.448.868.812 1.428 1.092.56.28 1.195.42 1.904.42h10.164V561h-10.612a7.085 7.085 0 0 1-2.94-.644 8.733 8.733 0 0 1-2.492-1.792 9.06 9.06 0 0 1-1.708-2.688 8.69 8.69 0 0 1-.644-3.332v-10.556Zm4.732 4.816v-4.256c0-.485.075-.98.224-1.484.168-.523.411-.989.728-1.4a3.74 3.74 0 0 1 1.204-1.008c.486-.261 1.055-.392 1.708-.392h9.8v3.724h-9.716c-.112 0-.233.065-.364.196-.112.131-.168.308-.168.532v.392h8.12v3.696h-11.536Zm0 .924h11.536v3.724h-8.12v.364c0 .224.056.401.168.532.131.131.252.196.364.196h9.716v3.724h-9.8c-.653 0-1.222-.131-1.708-.392a3.74 3.74 0 0 1-1.204-1.008 4.622 4.622 0 0 1-.728-1.372 5.513 5.513 0 0 1-.224-1.512v-4.256ZM559.357 561h-12.6a7.085 7.085 0 0 1-2.94-.644 8.719 8.719 0 0 1-2.492-1.792 9.02 9.02 0 0 1-1.708-2.688 8.67 8.67 0 0 1-.644-3.332v-10.556c0-1.176.214-2.277.644-3.304.429-1.045.998-1.941 1.708-2.688a8.063 8.063 0 0 1 2.492-1.792 6.832 6.832 0 0 1 2.94-.672h12.6v3.724h-12.152c-.71 0-1.344.14-1.904.42-.56.28-1.036.644-1.428 1.092a4.963 4.963 0 0 0-.868 1.54 4.836 4.836 0 0 0-.308 1.68v10.556c0 .56.102 1.129.308 1.708.205.56.494 1.064.868 1.512.392.448.868.812 1.428 1.092.56.28 1.194.42 1.904.42h9.016v-10.472h-8.344v-3.696h11.48V561Zm-11.704-8.456h3.08a.29.29 0 0 0 .28-.168.696.696 0 0 0 0-.756.29.29 0 0 0-.28-.168h-2.856v-3.724h7.364v8.54h-7.672c-.654 0-1.223-.131-1.708-.392a3.718 3.718 0 0 1-1.204-1.008 4.6 4.6 0 0 1-.728-1.372 5.475 5.475 0 0 1-.224-1.512v-9.436c0-.485.074-.98.224-1.484.168-.523.41-.989.728-1.4a3.718 3.718 0 0 1 1.204-1.008c.485-.261 1.054-.392 1.708-.392h11.788v3.724h-11.704c-.112 0-.234.065-.364.196-.112.131-.168.308-.168.532v9.1c0 .224.056.401.168.532.13.131.252.196.364.196Zm21.461 5.18h11.62l-7.112-19.74c-.056-.187-.224-.355-.504-.504a1.728 1.728 0 0 0-.812-.224c-.299 0-.579.075-.84.224-.243.149-.392.317-.448.504L562.926 561h-3.724l8.652-24.416c.13-.392.317-.765.56-1.12.242-.373.541-.7.896-.98a4.267 4.267 0 0 1 1.288-.7 5.385 5.385 0 0 1 1.708-.252c.634 0 1.194.084 1.68.252a3.93 3.93 0 0 1 1.26.7c.373.28.681.607.924.98.242.355.438.728.588 1.12L585.41 561h-16.296v-3.276Zm0-1.008v-1.064L567.322 561h-3.388l7.7-22.316a.515.515 0 0 1 .252-.28.802.802 0 0 1 .42-.14c.13 0 .27.047.42.14.149.075.242.168.28.28l6.384 18.032h-10.276Zm3.192-10.388-2.24 7.056h4.564l-2.324-7.056Z"/>
  <path fill="#CDCDCD" d="M652.855 485c-.304 0-.584-.076-.84-.228a1.793 1.793 0 0 1-.6-.6 1.615 1.615 0 0 1-.228-.84v-.66h1.584v.588c0 .04.012.076.036.108a.176.176 0 0 0 .108.036h5.172a.13.13 0 0 0 .096-.036.15.15 0 0 0 .048-.108v-1.644a.114.114 0 0 0-.048-.096.13.13 0 0 0-.096-.036h-5.232c-.304 0-.584-.076-.84-.228a1.793 1.793 0 0 1-.6-.6 1.637 1.637 0 0 1-.228-.852v-1.776c0-.304.076-.58.228-.828.152-.256.352-.46.6-.612.256-.152.536-.228.84-.228h5.304c.304 0 .58.076.828.228.256.152.46.356.612.612.152.248.228.524.228.828v.66h-1.596v-.588a.114.114 0 0 0-.048-.096.114.114 0 0 0-.096-.048h-5.172a.15.15 0 0 0-.108.048.13.13 0 0 0-.036.096v1.644c0 .04.012.072.036.096a.176.176 0 0 0 .108.036h5.244c.304 0 .58.076.828.228.256.152.46.356.612.612.152.248.228.528.228.84v1.776c0 .304-.076.584-.228.84a1.759 1.759 0 0 1-.612.6 1.553 1.553 0 0 1-.828.228h-5.304Zm12.338 0v-7.044h-3.528v-1.596h8.64v1.596h-3.516V485h-1.596Zm6.993 0v-6.972c0-.304.076-.58.228-.828.152-.256.352-.46.6-.612.256-.152.536-.228.84-.228h5.292c.304 0 .584.076.84.228.256.152.46.356.612.612.152.248.228.524.228.828V485h-1.596v-2.904h-5.46V485h-1.584Zm1.584-4.488h5.46V478.1a.114.114 0 0 0-.048-.096.15.15 0 0 0-.108-.048h-5.16a.15.15 0 0 0-.108.048.13.13 0 0 0-.036.096v2.412ZM690.041 485l-2.604-3.108h2.076l2.256 2.664V485h-1.728Zm-6.888 0v-8.628h6.96c.304 0 .584.076.84.228.256.152.46.356.612.612.152.248.228.524.228.828v2.328c0 .304-.076.584-.228.84-.152.256-.356.46-.612.612a1.684 1.684 0 0 1-.84.216l-5.376.012V485h-1.584Zm1.728-4.56h5.16c.04 0 .076-.012.108-.036a.114.114 0 0 0 .048-.096V478.1a.114.114 0 0 0-.048-.096.15.15 0 0 0-.108-.048h-5.16a.15.15 0 0 0-.108.048.13.13 0 0 0-.036.096v2.208c0 .04.012.072.036.096a.176.176 0 0 0 .108.036Zm12.231 4.56v-7.044h-3.528v-1.596h8.64v1.596h-3.516V485h-1.596Zm-66.325 0v-7.74a3.548 3.548 0 0 1-.3.144l-.36.156-.36.144a5.866 5.866 0 0 0-.312.144v-1.488c.088-.048.212-.112.372-.192.16-.088.332-.184.516-.288.184-.104.356-.208.516-.312.16-.112.28-.208.36-.288h1.572V485h-2.004Zm127.123 0v-1.416l2.328-3.576c.176-.264.34-.52.492-.768.16-.248.288-.5.384-.756.104-.256.156-.524.156-.804s-.056-.488-.168-.624a.56.56 0 0 0-.456-.204c-.216 0-.384.06-.504.18a.987.987 0 0 0-.252.48c-.04.2-.06.424-.06.672v.48h-1.944v-.516c0-.576.092-1.088.276-1.536a2.22 2.22 0 0 1 .876-1.068c.4-.264.924-.396 1.572-.396.872 0 1.528.228 1.968.684.448.448.672 1.076.672 1.884 0 .392-.064.756-.192 1.092-.12.336-.284.664-.492.984-.2.312-.416.64-.648.984l-1.776 2.652h2.844V485h-5.076Z"/>
  <path fill="#000" d="M241.766 370.219h180.53v26.911h-180.53z"/>
  <path fill="#CACAC7" d="M266.269 377.717h1.387l1.338 4.892-1.817.528c-.605-1.166-1.175-1.992-1.708-2.481-.743-.67-1.547-1.006-2.413-1.006-.631 0-1.224.176-1.777.528-.547.351-.983.869-1.309 1.552-.319.684-.478 1.485-.478 2.403 0 1.4.368 2.604 1.103 3.613.743 1.009 1.713 1.514 2.911 1.514.761 0 1.494-.218 2.197-.655.879-.54 1.637-1.266 2.275-2.177l1.514 1.123c-.983 1.341-1.882 2.275-2.695 2.803-1.257.813-2.657 1.22-4.2 1.22-1.282 0-2.444-.306-3.486-.918-1.035-.618-1.862-1.481-2.48-2.588a7.294 7.294 0 0 1-.928-3.623c0-1.302.299-2.487.898-3.554a6.56 6.56 0 0 1 2.461-2.51c1.042-.599 2.201-.899 3.477-.899 1.295 0 2.431.274 3.408.821l.322-.586Zm11.602-.235c2.161 0 3.909.658 5.244 1.973 1.341 1.315 2.012 3.005 2.012 5.068 0 1.387-.306 2.618-.918 3.692a6.362 6.362 0 0 1-2.539 2.49c-1.075.58-2.373.869-3.897.869-2.012 0-3.659-.553-4.941-1.66-1.55-1.335-2.324-3.118-2.324-5.352 0-2.076.677-3.776 2.031-5.097 1.361-1.322 3.138-1.983 5.332-1.983Zm.039 2.168c-1.035 0-1.859.388-2.471 1.162-.768.977-1.152 2.237-1.152 3.78 0 1.543.358 2.763 1.074 3.662.619.768 1.436 1.152 2.451 1.152 1.022 0 1.839-.384 2.451-1.152.723-.918 1.084-2.145 1.084-3.682 0-1.08-.156-1.989-.468-2.724-.306-.736-.723-1.286-1.25-1.651a2.969 2.969 0 0 0-1.719-.547Zm8.662-1.933h5.537l3.994 7.949v-4.863c0-.417-.023-.677-.068-.782a.61.61 0 0 0-.264-.322c-.11-.065-.325-.097-.644-.097h-.664v-1.885h5.625v1.885h-.625c-.313 0-.537.035-.674.107a.597.597 0 0 0-.274.293c-.052.124-.078.391-.078.801v10.537h-2.802l-5.059-10.039v7.021c0 .404.023.661.068.772.052.11.14.198.264.263.13.066.352.098.664.098h.654v1.885h-5.654v-1.885h.586c.325 0 .547-.026.664-.078a.64.64 0 0 0 .293-.293c.072-.137.107-.342.107-.615v-7.813c0-.299-.032-.517-.097-.654a.614.614 0 0 0-.264-.303c-.111-.065-.296-.097-.557-.097h-.732v-1.885Zm15.752-.459h1.289l.137.459h7.685l.166-.459h1.299l1.69 4.775-1.817.635c-.403-.794-.693-1.312-.869-1.553a4.143 4.143 0 0 0-1.191-1.123c-.339-.208-.674-.312-1.006-.312-.156 0-.264.039-.322.117-.059.071-.088.241-.088.508v7.832c0 .462.016.752.048.869a.593.593 0 0 0 .166.283.707.707 0 0 0 .323.137c.136.019.501.029 1.093.029v1.885h-6.64v-1.885h.4c.443 0 .726-.026.85-.078a.59.59 0 0 0 .283-.293c.065-.143.098-.436.098-.879v-8.008c0-.228-.026-.371-.078-.429-.052-.059-.163-.088-.332-.088-.339 0-.717.127-1.133.381-.417.253-.788.612-1.114 1.074-.13.182-.406.693-.83 1.533l-1.787-.635 1.68-4.775Zm13.018.459h8.398c.54 0 1.13.049 1.768.146a4.378 4.378 0 0 1 1.738.645c.521.332.924.752 1.211 1.26.286.507.429 1.08.429 1.718 0 1.035-.371 1.875-1.113 2.52-.735.638-1.608 1.055-2.617 1.25l2.803 3.262.117.146c.182.221.348.387.498.498.15.104.299.179.449.225.15.045.358.068.625.068h.586v1.885h-4.365l-4.375-5.869h-1.133v2.715c0 .468.026.768.078.898a.58.58 0 0 0 .244.283c.118.059.349.088.694.088h.625v1.885h-6.66v-1.885h.605c.319 0 .544-.032.674-.098a.669.669 0 0 0 .303-.312c.032-.078.048-.322.048-.733v-7.666c0-.299-.026-.511-.078-.634a.38.38 0 0 0-.234-.254 1.268 1.268 0 0 0-.537-.108l-.274.01h-.507v-1.943Zm5.019 2.236v3.526h2.022c.794 0 1.386-.072 1.777-.215.397-.15.693-.362.889-.635.201-.274.302-.606.302-.996 0-.358-.094-.664-.283-.918-.182-.261-.446-.453-.791-.576-.338-.124-.895-.186-1.67-.186h-2.246Zm17.92-2.471c2.161 0 3.91.658 5.244 1.973 1.341 1.315 2.012 3.005 2.012 5.068 0 1.387-.306 2.618-.918 3.692a6.356 6.356 0 0 1-2.539 2.49c-1.074.58-2.373.869-3.897.869-2.011 0-3.658-.553-4.941-1.66-1.55-1.335-2.324-3.118-2.324-5.352 0-2.076.677-3.776 2.031-5.097 1.361-1.322 3.138-1.983 5.332-1.983Zm.039 2.168c-1.035 0-1.859.388-2.471 1.162-.768.977-1.152 2.237-1.152 3.78 0 1.543.358 2.763 1.074 3.662.619.768 1.436 1.152 2.451 1.152 1.023 0 1.84-.384 2.452-1.152.722-.918 1.084-2.145 1.084-3.682 0-1.08-.157-1.989-.469-2.724-.306-.736-.723-1.286-1.25-1.651a2.967 2.967 0 0 0-1.719-.547Zm8.701-1.933h6.66v1.885h-.586c-.325 0-.53.016-.615.048a.655.655 0 0 0-.342.303c-.071.13-.107.342-.107.635v7.783c0 .313.013.505.039.576.033.072.094.13.186.176.091.039.267.059.527.059.872 0 1.572-.114 2.1-.342.533-.228 1.012-.593 1.435-1.094.43-.508.798-1.195 1.104-2.06l1.797.615-1.797 5.039h-10.401v-1.885h.655c.266 0 .468-.036.605-.107a.65.65 0 0 0 .293-.284c.065-.123.098-.335.098-.634v-7.715c0-.326-.033-.56-.098-.703a.604.604 0 0 0-.264-.313c-.11-.065-.299-.097-.566-.097h-.723v-1.885Zm19.61 0h7.197c.911 0 1.667.094 2.266.283a4.098 4.098 0 0 1 1.552.84c.436.377.772.827 1.006 1.348.234.514.352 1.061.352 1.64 0 1.165-.45 2.142-1.348 2.93-.892.788-2.126 1.181-3.701 1.181h-2.324v2.549c0 .319.022.521.068.606a.565.565 0 0 0 .264.273c.123.059.328.088.615.088h.693v1.885h-6.64v-1.885h.459c.403 0 .67-.029.8-.088a.553.553 0 0 0 .284-.273c.058-.13.087-.394.087-.791v-7.491c0-.416-.026-.69-.078-.82a.515.515 0 0 0-.254-.293c-.11-.065-.325-.097-.644-.097h-.654v-1.885Zm5 2.226v3.868h1.162c.709 0 1.23-.072 1.562-.215.332-.15.599-.375.801-.674.202-.306.303-.667.303-1.084 0-.625-.241-1.12-.723-1.484-.358-.274-.889-.411-1.592-.411h-1.513Zm13.095-2.226h3.057l4.092 10.517c.221.56.416.905.586 1.036.175.13.494.192.957.185v1.885h-6.446v-1.885l.391-.01c.358 0 .609-.045.752-.136.143-.098.215-.215.215-.352 0-.117-.062-.358-.186-.723l-.4-1.24h-4.15l-.508 1.377c-.104.293-.157.485-.157.576 0 .104.036.199.108.283.078.085.202.147.371.186.111.026.417.039.918.039v1.885h-5.274v-1.885c.339 0 .586-.029.743-.088a.891.891 0 0 0 .381-.263c.104-.118.218-.336.341-.655l4.209-10.732Zm-.42 7.334h2.725l-1.328-3.75-1.397 3.75Zm9.883-7.334h7.139c1.621 0 2.91.257 3.867.771.957.515 1.719 1.276 2.285 2.285.573 1.01.86 2.22.86 3.633 0 .983-.147 1.862-.44 2.637a6.325 6.325 0 0 1-1.289 2.1c-.573.618-1.188 1.084-1.846 1.396-.494.234-1.198.426-2.109.576-.905.15-1.631.225-2.178.225h-6.289v-1.885h.469c.397 0 .658-.032.781-.098a.717.717 0 0 0 .303-.332c.052-.123.078-.393.078-.81v-7.442c0-.416-.029-.683-.088-.8a.512.512 0 0 0-.273-.274c-.124-.065-.391-.097-.801-.097h-.469v-1.885Zm4.981 2.187v8.467c0 .287.016.462.049.527a.432.432 0 0 0 .224.206c.104.032.348.048.733.048 1.067 0 1.901-.162 2.5-.488.605-.332 1.093-.859 1.464-1.582.371-.729.557-1.595.557-2.598 0-.989-.176-1.849-.527-2.578-.345-.735-.775-1.253-1.289-1.552-.515-.3-1.25-.45-2.207-.45h-1.504Z"/>
</svg>
