<svg xmlns="http://www.w3.org/2000/svg" width="1024" height="1024" fill="none" viewBox="0 0 1024 1024">
  <path fill="#7F848D" d="M678.278 203.015c95.555 11.172 126.731 21.013 152.748 44.614l-1.008-16.888c-16.016-11.103-26.214-17.392-46.379-23.693-20.164-6.302-58.477-12.603-114.435-17.14 2.838 4.77 5.393 7.517 9.074 13.107Zm-484.962 44.614c26.017-23.601 57.193-33.442 152.748-44.614 3.682-5.59 6.236-8.337 9.074-13.107-55.957 4.537-94.27 10.838-114.434 17.14-20.165 6.301-30.363 12.59-46.379 23.693l-1.009 16.888Z"/>
  <path fill="#AEB3BE" d="M193.145 246.369c26.017-23.601 57.193-33.442 152.748-44.614 3.681-5.591 6.236-8.337 9.074-13.108 3.349-5.628 6.943-13.381 11.091-21.929C413.411 148.504 443.692 140 512 140s98.59 8.504 145.942 26.718c4.148 8.548 7.742 16.301 11.091 21.929 2.838 4.771 5.393 7.517 9.074 13.108 95.555 11.172 126.731 21.013 152.748 44.614 22.419 22.851 33.795 37.052 45.875 68.308 5.088 22.142 6.485 41.753 8.57 78.895 22.181 72.845 19.408 233.911-9.326 301.463-7.47 17.56-19.101 25.467-30.5 26.718-18.421 2.021-32.825-1.758-46.378-26.718-24.198-57.722-50.664-165.351-50.664-165.351-10.94-23.316-28.483-15.917-65.536-12.603-37.052 3.314-50.412 21.173-57.469 35.036-4.267 8.382-21.677 132.331-43.607 222.064-18.167 74.341-39.825 109.646-69.316 109.646s-52.157-35.305-70.324-109.646c-21.93-89.733-39.34-213.682-43.607-222.064-7.057-13.863-20.417-31.722-57.469-35.036-37.053-3.314-54.596-10.713-65.536 12.603 0 0-26.466 107.629-50.664 165.351-13.553 24.96-27.957 28.739-46.378 26.718-11.399-1.251-23.03-9.158-30.5-26.718-28.734-67.552-31.507-228.618-9.326-301.463 2.085-37.142 3.482-56.753 8.57-78.895 12.081-31.256 23.457-45.457 45.875-68.308Z"/>
  <path stroke="#8C9693" stroke-width="4" d="m661.5 392.5 57.5 58"/>
  <circle cx="777" cy="348" r="51" stroke="#8C9693" stroke-width="2"/>
  <path fill="#009365" d="M661.895 364.584c-17.141 0-30.536 12.855-30.248 31.004.252 15.88 13.107 29.239 30.248 29.239 16.131 0 29.238-13.359 29.49-29.239.252-15.88-12.35-31.004-29.49-31.004Z"/>
  <path fill="#0050AB" d="M717.348 420.29c-17.14 0-30.536 12.855-30.248 31.003.253 15.88 13.108 29.239 30.248 29.239 16.131 0 29.238-13.359 29.491-29.239.252-15.88-12.351-31.003-29.491-31.003Z"/>
  <circle cx="729" cy="348" r="23" fill="#F7B704"/>
  <circle cx="777" cy="303" r="23" fill="#F7B704"/>
  <circle cx="824" cy="348" r="23" fill="#F7B704"/>
  <circle cx="777" cy="395" r="23" fill="#F7B704"/>
  <circle cx="272" cy="372" r="80" fill="#B1B6C0"/>
  <path fill="#7F848D" d="M245.022 353.494h-30.566a4 4 0 0 0-4 4v34.598a4 4 0 0 0 4 4h30.566a4 4 0 0 1 4 4v33.842a4 4 0 0 0 4 4h37.118a4 4 0 0 0 4-4v-33.842a4 4 0 0 1 4-4h32.33a4 4 0 0 0 4-4v-34.598a4 4 0 0 0-4-4h-32.33a4 4 0 0 1-4-4v-31.826a4 4 0 0 0-4-4h-37.118a4 4 0 0 0-4 4v31.826a4 4 0 0 1-4 4Z"/>
  <path fill="#3B3E49" d="M511.904 636.318c-44.192.058-79.583-40.056-78.894-80.407.772-45.22 32.533-80.911 78.894-80.911 46.362 0 78.123 35.691 78.895 80.911.689 40.351-34.702 80.465-78.895 80.407Z"/>
  <path fill="#2B303B" d="M549.196 519.863 511.891 506l-35.792 13.863L464 557.42l12.099 38.565 35.792 10.587 37.305-10.587 11.343-38.565-11.343-37.557Z"/>
  <circle cx="512" cy="556" r="35" fill="#D7D9E9"/>
  <circle cx="512" cy="404" r="35" fill="#A5A6B3"/>
  <circle cx="511.5" cy="403.5" r="27.5" fill="#D31C23"/>
  <path fill="#007E57" d="M660.846 401.088c0 2.208-.648 3.912-1.944 5.112-1.272 1.2-2.94 1.8-5.004 1.8h-6.336a.527.527 0 0 1-.324-.108.527.527 0 0 1-.108-.324v-24.336a.39.39 0 0 1 .108-.288.448.448 0 0 1 .324-.144h5.688c2.28 0 4.068.576 5.364 1.728 1.296 1.152 1.944 2.832 1.944 5.04 0 2.472-.876 4.236-2.628 5.292-.12.072-.144.144-.072.216a6.261 6.261 0 0 1 2.196 2.412c.528 1.008.792 2.208.792 3.6Zm-9.36-14.688c-.12 0-.18.06-.18.18v6.696c0 .12.06.18.18.18h1.836c.984 0 1.752-.3 2.304-.9.552-.6.828-1.452.828-2.556 0-1.152-.276-2.04-.828-2.664-.552-.624-1.32-.936-2.304-.936h-1.836Zm2.088 17.964c.96 0 1.716-.336 2.268-1.008.552-.672.828-1.62.828-2.844 0-1.248-.276-2.22-.828-2.916-.552-.72-1.308-1.08-2.268-1.08h-2.088c-.12 0-.18.06-.18.18v7.488c0 .12.06.18.18.18h2.088Z"/>
  <path fill="#8C9693" d="M776.553 362.288c-2.04 0-3.684-.612-4.932-1.836-1.224-1.248-1.836-2.892-1.836-4.932v-12.276c0-2.064.612-3.696 1.836-4.896 1.248-1.224 2.892-1.836 4.932-1.836 2.064 0 3.72.612 4.968 1.836 1.248 1.2 1.872 2.832 1.872 4.896v.432c0 .12-.048.228-.144.324a.342.342 0 0 1-.288.144l-3.348.144c-.288 0-.432-.144-.432-.432v-.9c0-.84-.24-1.524-.72-2.052s-1.116-.792-1.908-.792c-.768 0-1.392.264-1.872.792-.48.528-.72 1.212-.72 2.052v12.888c0 .84.24 1.524.72 2.052s1.104.792 1.872.792c.792 0 1.428-.264 1.908-.792s.72-1.212.72-2.052v-.9a.39.39 0 0 1 .108-.288.448.448 0 0 1 .324-.144l3.348.144c.12 0 .216.048.288.144a.342.342 0 0 1 .144.288v.432c0 2.04-.624 3.684-1.872 4.932-1.248 1.224-2.904 1.836-4.968 1.836Z"/>
  <path fill="#00418B" d="M712.459 464c-.288 0-.444-.132-.468-.396l-.684-3.78c0-.12-.072-.18-.216-.18h-5.256c-.144 0-.216.06-.216.18l-.684 3.78c-.024.264-.18.396-.468.396h-3.276c-.336 0-.468-.156-.396-.468l5.328-24.336c.048-.264.204-.396.468-.396h3.816c.264 0 .42.132.468.396l5.328 24.336v.144c0 .216-.132.324-.396.324h-3.348Zm-6.192-7.812c-.024.12.036.18.18.18h3.996c.144 0 .204-.06.18-.18l-2.088-11.376c-.024-.072-.06-.108-.108-.108s-.084.036-.108.108l-2.052 11.376Z"/>
  <path fill="#A5070D" d="M493.835 411.176c-1.086 0-1.966-.359-2.64-1.078-.675-.719-1.012-1.657-1.012-2.816v-.506c0-.147.073-.22.22-.22h1.078c.146 0 .22.073.22.22v.44c0 .777.198 1.408.594 1.892.396.469.909.704 1.54.704.616 0 1.129-.227 1.54-.682.41-.455.616-1.056.616-1.804 0-.499-.103-.924-.308-1.276a3.008 3.008 0 0 0-.77-.946c-.308-.279-.829-.697-1.562-1.254a24.637 24.637 0 0 1-1.738-1.386 5.036 5.036 0 0 1-1.056-1.408c-.264-.543-.396-1.181-.396-1.914 0-1.144.33-2.046.99-2.706.66-.675 1.518-1.012 2.574-1.012 1.114 0 2.002.367 2.662 1.1.674.719 1.012 1.679 1.012 2.882v.55c0 .147-.074.22-.22.22h-1.1c-.147 0-.22-.073-.22-.22v-.572c0-.777-.198-1.401-.594-1.87-.382-.484-.895-.726-1.54-.726-.587 0-1.071.213-1.452.638-.382.411-.572.997-.572 1.76 0 .455.08.858.242 1.21.176.337.432.66.77.968.337.308.836.711 1.496 1.21.88.645 1.532 1.173 1.958 1.584.44.396.777.836 1.012 1.32.234.469.352 1.041.352 1.716 0 1.203-.345 2.171-1.034 2.904-.69.719-1.577 1.078-2.662 1.078Zm12.613-15.576c.147 0 .22.073.22.22v.924c0 .147-.073.22-.22.22h-2.904c-.058 0-.088.029-.088.088v13.728c0 .147-.073.22-.22.22h-1.122c-.146 0-.22-.073-.22-.22v-13.728c0-.059-.029-.088-.088-.088h-2.728c-.146 0-.22-.073-.22-.22v-.924c0-.147.074-.22.22-.22h7.37Zm7.605 15.4c-.132 0-.213-.066-.242-.198l-.55-2.728c0-.029-.015-.051-.044-.066-.015-.015-.037-.022-.066-.022h-3.982a.191.191 0 0 0-.088.022c-.015.015-.022.037-.022.066l-.55 2.728c-.015.132-.095.198-.242.198h-1.122a.238.238 0 0 1-.176-.066c-.029-.044-.037-.103-.022-.176l3.3-14.96c.029-.132.11-.198.242-.198h1.32c.147 0 .227.066.242.198l3.344 14.96v.044c0 .132-.066.198-.198.198h-1.144Zm-4.708-4.378c0 .059.022.088.066.088h3.476c.044 0 .066-.029.066-.088l-1.76-8.646c-.015-.044-.029-.066-.044-.066-.015 0-.029.022-.044.066l-1.76 8.646ZM523.429 411c-.132 0-.22-.059-.264-.176l-2.244-6.798c-.015-.044-.044-.066-.088-.066h-1.914c-.059 0-.088.029-.088.088v6.732c0 .147-.074.22-.22.22h-1.122c-.147 0-.22-.073-.22-.22v-14.96c0-.147.073-.22.22-.22h3.63c1.07 0 1.936.396 2.596 1.188.66.777.99 1.797.99 3.058 0 .953-.206 1.775-.616 2.464-.411.689-.968 1.173-1.672 1.452-.059.015-.081.051-.066.11l2.398 6.886.022.088c0 .103-.066.154-.198.154h-1.144Zm-4.51-14.036c-.059 0-.088.029-.088.088v5.566c0 .059.029.088.088.088h1.98c.674 0 1.217-.257 1.628-.77.41-.528.616-1.225.616-2.09 0-.865-.206-1.562-.616-2.09-.411-.528-.954-.792-1.628-.792h-1.98Zm14.857-1.364c.147 0 .22.073.22.22v.924c0 .147-.073.22-.22.22h-2.904c-.058 0-.088.029-.088.088v13.728c0 .147-.073.22-.22.22h-1.122c-.146 0-.22-.073-.22-.22v-13.728c0-.059-.029-.088-.088-.088h-2.728c-.146 0-.22-.073-.22-.22v-.924c0-.147.074-.22.22-.22h7.37Z"/>
  <path fill="#E1A600" d="m777 288 12.99 22.5h-25.98L777 288Zm-63 60 22.5-12.99v25.98L714 348Zm125 0-22.5 12.99v-25.98L839 348Zm-62 62-12.99-22.5h25.98L777 410Z"/>
  <path fill="#6F7379" d="m272 431-12.99-22.5h25.98L272 431Zm-55-55 22.5-12.99v25.98L217 376Zm55-56 12.99 22.5h-25.98L272 320Zm56 56-22.5 12.99v-25.98L328 376Z"/>
  <circle cx="272" cy="376" r="12" fill="#6F7379"/>
  <path fill="#A3A8B4" d="M354.967 188.647c-2.838 4.771-5.393 7.517-9.074 13.108L382.5 308l-16.442-141.282c-4.148 8.548-7.742 16.301-11.091 21.929Zm314.069.082c2.838 4.77 5.393 7.517 9.074 13.107l-36.607 106.246L657.945 166.8c4.148 8.547 7.742 16.301 11.091 21.929ZM300.5 513c-88.5 0-161.799-40.5-161.799-119.428 0 65.092 42.248 108.759 103.299 127.928 29 3.5 29 23 29 23 6-18.5 9.5-31.5 29.5-31.5Zm422.701 0C811.701 513 885 472.5 885 393.572c0 65.092-42.249 108.759-103.299 127.928-29 3.5-29 23-29 23-6-18.5-9.5-31.5-29.5-31.5Z"/>
  <circle cx="511.5" cy="555.5" r="25.5" stroke="#B1B2BB" stroke-width="2"/>
  <circle cx="512" cy="556" r="19" stroke="#B1B2BB" stroke-width="2"/>
  <circle cx="512" cy="556" r="11" fill="#B1B2BB" stroke="#B1B2BB" stroke-width="2"/>
  <rect width="187" height="40" x="418" y="217" stroke="#9DA3B1" stroke-width="2" rx="20"/>
</svg>
