<svg xmlns="http://www.w3.org/2000/svg" width="1024" height="1024" fill="none" viewBox="0 0 1024 1024">
  <path fill="#7F848D" d="M678.278 203.015c95.555 11.172 126.731 21.013 152.748 44.614l-1.008-16.888c-16.016-11.103-26.214-17.392-46.379-23.693-20.164-6.302-58.477-12.603-114.435-17.14 2.838 4.77 5.393 7.517 9.074 13.107Zm-484.962 44.614c26.017-23.601 57.193-33.442 152.748-44.614 3.682-5.59 6.236-8.337 9.074-13.107-55.957 4.537-94.27 10.838-114.434 17.14-20.165 6.301-30.363 12.59-46.379 23.693l-1.009 16.888Z"/>
  <path fill="#AEB3BE" d="M193.145 246.369c26.017-23.601 57.193-33.442 152.748-44.614 3.681-5.591 6.236-8.337 9.074-13.108 3.349-5.628 6.943-13.381 11.091-21.929C413.41 148.504 443.692 140 512 140s98.59 8.504 145.942 26.718c4.148 8.548 7.742 16.301 11.091 21.929 2.838 4.771 5.393 7.517 9.074 13.108 95.555 11.172 126.731 21.013 152.748 44.614 22.418 22.851 33.794 37.052 45.875 68.308 5.088 22.142 6.485 41.753 8.57 78.895 22.181 72.845 19.408 233.911-9.326 301.463-7.47 17.56-19.101 25.467-30.5 26.718-18.421 2.021-32.825-1.758-46.378-26.718-24.198-57.722-50.664-165.351-50.664-165.351-10.94-23.316-28.483-15.917-65.536-12.603-37.052 3.314-50.412 21.173-57.469 35.036-4.267 8.382-21.677 132.331-43.607 222.064-18.167 74.341-39.825 109.646-69.316 109.646s-52.157-35.305-70.324-109.646c-21.93-89.733-39.34-213.682-43.607-222.064-7.057-13.863-20.417-31.722-57.469-35.036-37.053-3.314-54.596-10.713-65.536 12.603 0 0-26.466 107.629-50.664 165.351-13.553 24.96-27.957 28.739-46.378 26.718-11.399-1.251-23.03-9.158-30.5-26.718-28.734-67.552-31.507-228.618-9.326-301.463 2.085-37.142 3.482-56.753 8.57-78.895 12.081-31.256 23.457-45.457 45.875-68.308Z"/>
  <path fill="#009365" d="M661.895 364.584c-17.141 0-30.536 12.855-30.248 31.004.252 15.88 13.107 29.239 30.248 29.239 16.131 0 29.238-13.359 29.49-29.239.252-15.88-12.35-31.004-29.49-31.004Z"/>
  <path fill="#0050AB" d="M717.348 420.29c-17.14 0-30.536 12.855-30.248 31.003.253 15.88 13.108 29.239 30.248 29.239 16.131 0 29.238-13.359 29.491-29.239.252-15.88-12.351-31.003-29.491-31.003Z"/>
  <path fill="#F7B704" d="M777.842 370.201c-13.132-.594-23.694 7.239-23.694 24.631 0 13.107 11.481 22.121 23.694 22.181 12.213.061 20.74-9.63 21.425-22.181.685-12.551-8.293-24.037-21.425-24.631Zm-47.639-45.875c-13.133-.594-23.694 7.239-23.694 24.631 0 13.107 11.48 22.121 23.694 22.181 12.213.061 20.739-9.63 21.425-22.181.685-12.551-8.293-24.037-21.425-24.631Zm47.639-45.118c-13.132-.594-23.694 7.238-23.694 24.63 0 13.107 11.481 22.121 23.694 22.182 12.213.06 20.74-9.631 21.425-22.182.685-12.55-8.293-24.036-21.425-24.63Zm47.387 45.118c-13.132-.594-23.693 7.239-23.693 24.631 0 13.107 11.48 22.121 23.693 22.181 12.213.061 20.74-9.63 21.425-22.181.686-12.551-8.293-24.037-21.425-24.631Z"/>
  <path fill="#D31C23" d="M512.171 372.146c-11.594-1.008-28.23 11.595-27.978 27.474.252 15.88 10.838 29.239 27.978 29.239s27.727-13.359 27.979-29.239c.252-15.879-16.384-28.482-27.979-27.474Z"/>
  <path fill="#7F848D" d="M245.022 353.494h-30.566a4 4 0 0 0-4 4v34.598a4 4 0 0 0 4 4h30.566a4 4 0 0 1 4 4v33.842a4 4 0 0 0 4 4h37.118a4 4 0 0 0 4-4v-33.842a4 4 0 0 1 4-4h32.33a4 4 0 0 0 4-4v-34.598a4 4 0 0 0-4-4h-32.33a4 4 0 0 1-4-4v-31.826a4 4 0 0 0-4-4h-37.118a4 4 0 0 0-4 4v31.826a4 4 0 0 1-4 4Z"/>
  <path fill="#3B3E49" d="M513.442 636.557c-44.193.057-79.584-40.056-78.895-80.407.773-45.22 32.533-80.911 78.895-80.911 46.361 0 78.122 35.691 78.894 80.911.69 40.351-34.702 80.464-78.894 80.407Z"/>
  <path fill="#2B303B" stroke="#2B303B" stroke-width="12" d="m550.746 519.601-37.305-13.864-35.792 13.864-12.099 37.556 12.099 38.565 35.792 10.587 37.305-10.587 11.343-38.565-11.343-37.556Z"/>
  <path fill="#D7D9E9" d="M478.909 557.158c0 22.181 14.368 35.036 34.533 35.036 20.164 0 34.532-12.855 34.532-35.036s-13.359-35.792-34.532-35.792c-21.173 0-34.533 13.611-34.533 35.792Z"/>
</svg>
