<svg xmlns="http://www.w3.org/2000/svg" width="1024" height="1024" fill="none" viewBox="0 0 1024 1024">
  <path fill="#F5F5F5" d="M137 657.087V367a6 6 0 0 1 6-6h738a6 6 0 0 1 6 6v290.087a6 6 0 0 1-6 6H143a6 6 0 0 1-6-6Z"/>
  <path fill="#313139" d="M163.757 640.611V394.446h699.964v246.165H163.757Z"/>
  <path fill="#21212B" d="M245.366 504.966v-36.951a4 4 0 0 1 4-4h33.206a4 4 0 0 1 4 4v36.951a4 4 0 0 0 4 4h36.684a4 4 0 0 1 4 4v37.487a4 4 0 0 1-4 4h-36.684a4 4 0 0 0-4 4v34.277a4 4 0 0 1-4 4h-33.206a4 4 0 0 1-4-4v-34.277a4 4 0 0 0-4-4h-36.684a4 4 0 0 1-4-4v-37.487a4 4 0 0 1 4-4h36.684a4 4 0 0 0 4-4Z"/>
  <path fill="#EFF1F0" d="M577.194 532.513H391.419c-6.627 0-12 5.372-12 12v48.244c0 6.627 5.373 12 12 12h185.775c6.628 0 12-5.373 12-12v-48.244c0-6.628-5.372-12-12-12Z"/>
  <path fill="#F0F9F8" d="M701.574 531.175h-77.061v77.06h77.061v-77.06Zm96.86.267h-77.06v77.061h77.06v-77.061Z"/>
  <mask id="a" width="210" height="41" x="379" y="395" maskUnits="userSpaceOnUse" style="mask-type:alpha">
    <path fill="#656776" d="M379 436v-41h210v41H379Z"/>
  </mask>
  <g mask="url(#a)">
    <path fill="#656776" d="M379 424v-26c0-6.627 5.373-12 12-12h186c6.627 0 12 5.373 12 12v26c0 6.627-5.373 12-12 12H391c-6.627 0-12-5.373-12-12Z"/>
  </g>
  <mask id="b" width="211" height="17" x="379" y="624" maskUnits="userSpaceOnUse" style="mask-type:alpha">
    <path fill="#656776" d="M379.419 640.611v-16.59h209.775v16.59H379.419Z"/>
  </mask>
  <g mask="url(#b)">
    <path fill="#656776" d="M379 643v-7c0-6.627 5.373-12 12-12h186c6.627 0 12 5.373 12 12v7c0 6.627-5.373 12-12 12H391c-6.627 0-12-5.373-12-12Z"/>
  </g>
  <path fill="#2A2A33" d="M450.191 557.665h-31.306c-5.984 0-10.836 4.851-10.836 10.836s4.852 10.837 10.836 10.837h31.306c5.985 0 10.837-4.852 10.837-10.837 0-5.985-4.852-10.836-10.837-10.836Zm99.269 0h-31.306c-5.985 0-10.837 4.851-10.837 10.836s4.852 10.837 10.837 10.837h31.306c5.985 0 10.836-4.852 10.836-10.837 0-5.985-4.851-10.836-10.836-10.836Z"/>
  <path fill="#656776" d="M379 471v-15c0-6.627 5.373-12 12-12h186c6.627 0 12 5.373 12 12v15c0 6.627-5.373 12-12 12H391c-6.627 0-12-5.373-12-12Zm0 44.319V504c0-6.627 5.373-12 12-12h185.775c6.628 0 12 5.373 12 12v11.319c0 6.628-5.372 12-12 12H391c-6.627 0-12-5.372-12-12Z"/>
  <circle cx="662.776" cy="569.705" r="30.771" fill="#D93B3C"/>
  <circle cx="761.242" cy="569.705" r="30.771" fill="#D93B3C"/>
  <path fill="#D93B3C" d="M395.21 517.252c-.77 0-1.519-.119-2.247-.357a5.492 5.492 0 0 1-1.932-1.092c-.546-.49-.945-1.113-1.197-1.869l1.827-.546c.168.504.441.924.819 1.26.378.322.812.56 1.302.714a5.15 5.15 0 0 0 1.512.231c.56 0 1.092-.091 1.596-.273.504-.182.91-.455 1.218-.819.322-.378.483-.847.483-1.407 0-.574-.21-1.029-.63-1.365-.42-.336-1.148-.637-2.184-.903l-1.785-.399a12.42 12.42 0 0 1-1.911-.672 4.04 4.04 0 0 1-1.533-1.197c-.392-.518-.588-1.211-.588-2.079 0-.798.245-1.477.735-2.037.504-.56 1.148-.987 1.932-1.281a7.112 7.112 0 0 1 2.478-.441c.658 0 1.302.098 1.932.294a4.98 4.98 0 0 1 1.722.861 3.91 3.91 0 0 1 1.218 1.47l-1.806.525c-.266-.49-.7-.861-1.302-1.113a4.643 4.643 0 0 0-1.848-.378c-.504 0-.987.084-1.449.252-.462.154-.84.392-1.134.714-.294.322-.441.728-.441 1.218 0 .462.133.833.399 1.113.28.28.644.504 1.092.672.462.154.966.294 1.512.42l1.533.336c.714.168 1.386.399 2.016.693.63.294 1.141.707 1.533 1.239.392.532.588 1.246.588 2.142 0 .644-.154 1.225-.462 1.743a4.15 4.15 0 0 1-1.239 1.281 6.308 6.308 0 0 1-1.764.777 7.3 7.3 0 0 1-1.995.273Zm8.94-.252v-14.028h9.513v1.701h-7.539v4.263h5.565v1.701h-5.565v4.662h7.539V517h-9.513Zm12.965 0v-14.028h1.974v12.327h7.539V517h-9.513Zm12.37 0v-14.028h9.513v1.701h-7.539v4.263h5.565v1.701h-5.565v4.662h7.539V517h-9.513Zm18.393.252c-1.33 0-2.471-.308-3.423-.924-.952-.63-1.68-1.491-2.184-2.583-.504-1.092-.756-2.352-.756-3.78 0-1.456.266-2.723.798-3.801.546-1.092 1.309-1.939 2.289-2.541.98-.602 2.128-.903 3.444-.903 1.176 0 2.233.273 3.171.819.952.546 1.666 1.33 2.142 2.352l-1.722.63a3.699 3.699 0 0 0-1.407-1.533c-.616-.406-1.379-.609-2.289-.609-.826 0-1.575.21-2.247.63-.658.42-1.183 1.05-1.575 1.89-.392.826-.588 1.848-.588 3.066 0 1.176.189 2.184.567 3.024.378.84.903 1.484 1.575 1.932.686.448 1.463.672 2.331.672.91 0 1.673-.196 2.289-.588a3.811 3.811 0 0 0 1.428-1.554l1.722.63c-.504 1.036-1.246 1.827-2.226 2.373-.98.532-2.093.798-3.339.798Zm12.29-.252v-12.327h-4.662v-1.701h11.298v1.701h-4.662V517h-1.974Zm54.617.252c-.77 0-1.519-.119-2.247-.357a5.492 5.492 0 0 1-1.932-1.092c-.546-.49-.945-1.113-1.197-1.869l1.827-.546c.168.504.441.924.819 1.26.378.322.812.56 1.302.714a5.15 5.15 0 0 0 1.512.231c.56 0 1.092-.091 1.596-.273.504-.182.91-.455 1.218-.819.322-.378.483-.847.483-1.407 0-.574-.21-1.029-.63-1.365-.42-.336-1.148-.637-2.184-.903l-1.785-.399a12.42 12.42 0 0 1-1.911-.672 4.04 4.04 0 0 1-1.533-1.197c-.392-.518-.588-1.211-.588-2.079 0-.798.245-1.477.735-2.037.504-.56 1.148-.987 1.932-1.281a7.112 7.112 0 0 1 2.478-.441c.658 0 1.302.098 1.932.294a4.98 4.98 0 0 1 1.722.861 3.91 3.91 0 0 1 1.218 1.47l-1.806.525c-.266-.49-.7-.861-1.302-1.113a4.643 4.643 0 0 0-1.848-.378c-.504 0-.987.084-1.449.252-.462.154-.84.392-1.134.714-.294.322-.441.728-.441 1.218 0 .462.133.833.399 1.113.28.28.644.504 1.092.672.462.154.966.294 1.512.42l1.533.336c.714.168 1.386.399 2.016.693.63.294 1.141.707 1.533 1.239.392.532.588 1.246.588 2.142 0 .644-.154 1.225-.462 1.743a4.15 4.15 0 0 1-1.239 1.281 6.308 6.308 0 0 1-1.764.777 7.3 7.3 0 0 1-1.995.273Zm12.216-.252v-12.327h-4.662v-1.701h11.298v1.701h-4.662V517h-1.974Zm6.703 0 5.271-14.049h2.205L546.43 517h-2.1l-1.071-3.066h-6.384L535.804 517h-2.1Zm3.78-4.767h5.166l-2.583-7.287-2.583 7.287ZM549.286 517v-14.028h4.452c1.148 0 2.156.105 3.024.315.882.196 1.568.588 2.058 1.176.504.574.756 1.421.756 2.541 0 .63-.098 1.218-.294 1.764-.196.546-.574 1.008-1.134 1.386-.546.378-1.365.644-2.457.798l4.347 6.048h-2.415l-4.263-5.901h-2.1V517h-1.974Zm1.974-7.56h2.625c.686 0 1.302-.049 1.848-.147.56-.098 1.001-.315 1.323-.651.336-.35.504-.882.504-1.596 0-.728-.168-1.26-.504-1.596-.322-.336-.763-.553-1.323-.651a9.238 9.238 0 0 0-1.848-.168h-2.625v4.809Zm15.333 7.56v-12.327h-4.662v-1.701h11.298v1.701h-4.662V517h-1.974Zm139.318 114v-14.7h6.132c.938 0 1.729.14 2.373.42.644.28 1.127.7 1.449 1.26.336.546.504 1.218.504 2.016s-.224 1.477-.672 2.037c-.434.56-1.043.945-1.827 1.155v-.42c.658.14 1.232.392 1.722.756.49.35.868.791 1.134 1.323.28.532.42 1.141.42 1.827 0 .7-.112 1.323-.336 1.869-.21.532-.532.98-.966 1.344-.42.364-.931.644-1.533.84-.602.182-1.288.273-2.058.273h-6.342Zm2.268-2.184h3.948c.574 0 1.057-.084 1.449-.252.406-.168.714-.413.924-.735.224-.336.336-.735.336-1.197 0-.434-.119-.805-.357-1.113-.224-.308-.546-.539-.966-.693-.42-.168-.917-.252-1.491-.252h-3.843v4.242Zm0-6.426h3.738c.42 0 .791-.084 1.113-.252.336-.168.595-.399.777-.693.196-.294.294-.63.294-1.008 0-.63-.21-1.113-.63-1.449-.42-.336-1.022-.504-1.806-.504h-3.486v3.906Zm94.994 8.61 5.691-14.7h2.31l5.649 14.7h-2.415l-3.36-8.862a12.53 12.53 0 0 1-.252-.714 39.553 39.553 0 0 0-.399-1.26l-.42-1.26a22.1 22.1 0 0 0-.252-.756l.483-.021a163.5 163.5 0 0 0-.315.903c-.112.364-.238.749-.378 1.155-.126.406-.252.791-.378 1.155l-.315.882-3.339 8.778h-2.31Zm2.52-3.654.84-2.184h6.678l.966 2.184h-8.484Z"/>
  <path fill="#1B1B23" d="M254.5 489.5V503h23v-13.5h5.5l-17-21-17 21h5.5Zm23 82V558h-23v13.5H249l17 21 17-21h-5.5Zm-52.5-30h13.5v-23H225V513l-21 17 21 17v-5.5Zm82.5-23H294v23h13.5v5.5l21-17-21-17v5.5Z"/>
  <circle cx="266" cy="531" r="12" fill="#1B1B23"/>
</svg>
