<svg xmlns="http://www.w3.org/2000/svg" width="1024" height="1024" fill="none" viewBox="0 0 1024 1024">
  <path fill="#5D5B5C" d="M236.198 372.307v4.33l158.096-16.007-1.705-5.117s-80.009-3.405-102.074 0c-22.064 3.406-33.95 7.133-54.317 16.794Zm550.909-.09v4.329L629.011 360.54l1.706-5.117s79.788-2.849 102.073 0c22.286 2.849 34.156 6.624 54.317 16.794Z"/>
  <path fill="#ADADB9" d="M406.89 634.576h209.657C652.066 659.431 676.768 670 720.851 670c44.083 0 76.198-11.728 113.357-48.676 23.524-24.565 39.229-62.319 39.229-106.271s-18.348-81.869-39.229-103.386c-20.881-21.517-58.384-50.774-113.357-50.774H302.586c-54.973 0-92.476 29.257-113.357 50.774C168.347 433.184 150 471.101 150 515.053s15.705 82.756 39.229 107.321C226.388 659.321 258.502 670 302.586 670c44.083 0 68.785-10.569 104.304-35.424Z"/>
  <circle cx="719.539" cy="517.808" r="132.512" fill="#8F8D98"/>
  <rect width="154.472" height="69.361" x="601.66" y="509.444" fill="#B9B8C0" rx="34.68" transform="rotate(-37 601.66 509.444)"/>
  <rect width="154.472" height="69.361" x="668.896" y="561.703" fill="#B9B8C0" rx="34.68" transform="rotate(-37 668.896 561.703)"/>
  <rect width="58.435" height="19.551" x="494.784" y="547.282" fill="#454648" rx="9.776" transform="rotate(-37 494.784 547.282)"/>
  <rect width="58.435" height="19.551" x="416.467" y="547.202" fill="#454648" rx="9.776" transform="rotate(-37 416.467 547.202)"/>
  <circle cx="719.539" cy="462.966" r="26.24" fill="#A7A8EB"/>
  <circle cx="719.539" cy="568.451" r="26.24" fill="#5B4D98"/>
  <circle cx="786.451" cy="515.447" r="26.24" fill="#5B4D98"/>
  <circle cx="651.053" cy="515.447" r="26.24" fill="#A7A8EB"/>
  <path fill="#B9B8C0" d="M832.262 488c-.234 0-.352-.117-.352-.352l-.16-3.36c0-.107-.064-.16-.192-.16h-4.512c-.106 0-.181.053-.224.16l-.992 3.36c-.064.235-.213.352-.448.352h-2.816c-.277 0-.373-.139-.288-.416l7.232-21.632c.064-.235.214-.352.448-.352h3.296c.235 0 .352.117.352.352l1.952 21.632v.064c0 .235-.128.352-.384.352h-2.912Zm-4.48-6.944c-.021.107.032.16.16.16h3.424c.128 0 .192-.053.192-.16l-.576-10.112c0-.064-.021-.096-.064-.096-.042 0-.085.032-.128.096l-3.008 10.112Z"/>
  <path fill="#6A6A6A" d="M420.861 594.16c-.973 0-1.746-.28-2.32-.84-.573-.56-.86-1.3-.86-2.22 0-.133.014-.32.04-.56l.06-.52a.308.308 0 0 1 .08-.16.252.252 0 0 1 .18-.08h1.76c.147 0 .22.08.22.24l-.06.4c-.013.067-.02.173-.02.32 0 .44.107.787.32 1.04.214.253.494.38.84.38.44 0 .814-.18 1.12-.54.32-.36.48-.82.48-1.38 0-.4-.126-.747-.38-1.04-.24-.293-.7-.72-1.38-1.28-.533-.44-.966-.827-1.3-1.16a4.776 4.776 0 0 1-.82-1.18c-.213-.453-.32-.973-.32-1.56 0-.107.014-.293.04-.56.134-1.107.567-1.987 1.3-2.64.734-.653 1.627-.98 2.68-.98.974 0 1.74.287 2.3.86.574.56.86 1.32.86 2.28 0 .12-.013.327-.04.62l-.04.48a.34.34 0 0 1-.1.18.291.291 0 0 1-.18.06h-1.74a.217.217 0 0 1-.16-.06c-.04-.053-.053-.113-.04-.18l.06-.52c.014-.08.02-.193.02-.34 0-.427-.106-.76-.32-1-.213-.253-.5-.38-.86-.38-.426 0-.793.173-1.1.52-.293.333-.44.793-.44 1.38 0 .387.12.74.36 1.06.24.307.674.727 1.3 1.26.64.533 1.134.973 1.48 1.32.347.347.614.72.8 1.12.187.387.28.827.28 1.32 0 .12-.013.313-.04.58-.146 1.147-.593 2.06-1.34 2.74-.746.68-1.653 1.02-2.72 1.02Zm14.84-12.4a.34.34 0 0 1-.1.18.216.216 0 0 1-.16.06h-4.2c-.066 0-.1.033-.1.1l-.48 3.78c0 .067.034.1.1.1h2.48a.19.19 0 0 1 .16.08c.04.04.054.093.04.16l-.2 1.54a.245.245 0 0 1-.08.18.291.291 0 0 1-.18.06h-2.48c-.066 0-.1.033-.1.1l-.48 3.8c0 .067.034.1.1.1h4.18a.19.19 0 0 1 .16.08c.04.04.054.093.04.16l-.18 1.52a.34.34 0 0 1-.1.18.216.216 0 0 1-.16.06h-6.3c-.146 0-.22-.08-.22-.24l1.66-13.52a.26.26 0 0 1 .1-.16.252.252 0 0 1 .18-.08h6.3a.19.19 0 0 1 .16.08c.04.04.054.093.04.16l-.18 1.52Zm1.798 12.24c-.147 0-.22-.08-.22-.24l1.66-13.52a.251.251 0 0 1 .1-.16.249.249 0 0 1 .18-.08h1.78c.066 0 .12.027.16.08.04.04.053.093.04.16l-1.44 11.66c0 .067.033.1.1.1h4.18c.066 0 .12.027.16.08.04.04.053.093.04.16l-.18 1.52a.353.353 0 0 1-.1.18.217.217 0 0 1-.16.06h-6.3Zm17.506-12.24a.34.34 0 0 1-.1.18.216.216 0 0 1-.16.06h-4.2c-.066 0-.1.033-.1.1l-.48 3.78c0 .067.034.1.1.1h2.48a.19.19 0 0 1 .16.08c.04.04.054.093.04.16l-.2 1.54a.245.245 0 0 1-.08.18.291.291 0 0 1-.18.06h-2.48c-.066 0-.1.033-.1.1l-.48 3.8c0 .067.034.1.1.1h4.18a.19.19 0 0 1 .16.08c.04.04.054.093.04.16l-.18 1.52a.34.34 0 0 1-.1.18.216.216 0 0 1-.16.06h-6.3c-.146 0-.22-.08-.22-.24l1.66-13.52a.26.26 0 0 1 .1-.16.252.252 0 0 1 .18-.08h6.3a.19.19 0 0 1 .16.08c.04.04.054.093.04.16l-.18 1.52Zm4.958 12.4c-1 0-1.794-.28-2.38-.84-.574-.573-.86-1.347-.86-2.32 0-.133.013-.333.04-.6l.84-6.82c.133-1.147.573-2.053 1.32-2.72.76-.68 1.693-1.02 2.8-1.02 1 0 1.793.28 2.38.84.586.56.88 1.327.88 2.3 0 .133-.014.333-.04.6l-.04.24a.249.249 0 0 1-.08.18.252.252 0 0 1-.18.08l-1.8.08c-.16 0-.234-.08-.22-.24l.06-.5c.013-.067.02-.16.02-.28 0-.4-.114-.713-.34-.94-.214-.24-.514-.36-.9-.36-.414 0-.767.147-1.06.44-.28.293-.454.673-.52 1.14l-.88 7.16c-.014.067-.02.16-.02.28 0 .4.106.72.32.96.226.227.526.34.9.34.426 0 .786-.147 1.08-.44.293-.293.473-.673.54-1.14l.06-.5c0-.067.026-.12.08-.16a.249.249 0 0 1 .18-.08l1.78.08c.146 0 .22.08.22.24l-.04.24c-.134 1.133-.58 2.047-1.34 2.74-.76.68-1.694 1.02-2.8 1.02ZM475.529 580a.19.19 0 0 1 .16.08c.04.04.054.093.04.16l-.18 1.52a.34.34 0 0 1-.1.18.216.216 0 0 1-.16.06h-2.46c-.053 0-.093.033-.12.1l-1.42 11.66a.34.34 0 0 1-.1.18.216.216 0 0 1-.16.06h-1.8a.217.217 0 0 1-.16-.06c-.04-.053-.053-.113-.04-.18l1.44-11.66c0-.067-.033-.1-.1-.1h-2.32a.217.217 0 0 1-.16-.06c-.04-.053-.053-.113-.04-.18l.18-1.52a.308.308 0 0 1 .08-.16.252.252 0 0 1 .18-.08h7.24Zm27.663 14.16c-.973 0-1.746-.28-2.32-.84-.573-.56-.86-1.3-.86-2.22 0-.133.014-.32.04-.56l.06-.52a.308.308 0 0 1 .08-.16.252.252 0 0 1 .18-.08h1.76c.147 0 .22.08.22.24l-.06.4c-.013.067-.02.173-.02.32 0 .44.107.787.32 1.04.214.253.494.38.84.38.44 0 .814-.18 1.12-.54.32-.36.48-.82.48-1.38 0-.4-.126-.747-.38-1.04-.24-.293-.7-.72-1.38-1.28-.533-.44-.966-.827-1.3-1.16a4.776 4.776 0 0 1-.82-1.18c-.213-.453-.32-.973-.32-1.56 0-.107.014-.293.04-.56.134-1.107.567-1.987 1.3-2.64.734-.653 1.627-.98 2.68-.98.974 0 1.74.287 2.3.86.574.56.86 1.32.86 2.28 0 .12-.013.327-.04.62l-.04.48a.34.34 0 0 1-.1.18.291.291 0 0 1-.18.06h-1.74a.217.217 0 0 1-.16-.06c-.04-.053-.053-.113-.04-.18l.06-.52c.014-.08.02-.193.02-.34 0-.427-.106-.76-.32-1-.213-.253-.5-.38-.86-.38-.426 0-.793.173-1.1.52-.293.333-.44.793-.44 1.38 0 .387.12.74.36 1.06.24.307.674.727 1.3 1.26.64.533 1.134.973 1.48 1.32.347.347.614.72.8 1.12.187.387.28.827.28 1.32 0 .12-.013.313-.04.58-.146 1.147-.593 2.06-1.34 2.74-.746.68-1.653 1.02-2.72 1.02ZM518.335 580c.066 0 .12.027.16.08.04.04.053.093.04.16l-.18 1.52a.353.353 0 0 1-.1.18.217.217 0 0 1-.16.06h-2.46c-.054 0-.094.033-.12.1l-1.42 11.66a.353.353 0 0 1-.1.18.217.217 0 0 1-.16.06h-1.8a.216.216 0 0 1-.16-.06.214.214 0 0 1-.04-.18l1.44-11.66c0-.067-.034-.1-.1-.1h-2.32a.216.216 0 0 1-.16-.06.214.214 0 0 1-.04-.18l.18-1.52a.3.3 0 0 1 .08-.16.249.249 0 0 1 .18-.08h7.24Zm6.052 14c-.147 0-.22-.073-.22-.22l-.1-2.1c0-.067-.04-.1-.12-.1h-2.82c-.067 0-.114.033-.14.1l-.62 2.1c-.04.147-.134.22-.28.22h-1.76c-.174 0-.234-.087-.18-.26l4.52-13.52c.04-.147.133-.22.28-.22h2.06c.146 0 .22.073.22.22l1.22 13.52v.04c0 .147-.08.22-.24.22h-1.82Zm-2.8-4.34c-.014.067.02.1.1.1h2.14c.08 0 .12-.033.12-.1l-.36-6.32c0-.04-.014-.06-.04-.06-.027 0-.054.02-.08.06l-1.88 6.32Zm12.947 4.34c-.134 0-.214-.067-.24-.2l-.94-5.74c0-.013-.007-.027-.02-.04-.014-.027-.034-.04-.06-.04h-1.04c-.067 0-.1.033-.1.1l-.7 5.68a.353.353 0 0 1-.1.18.217.217 0 0 1-.16.06h-1.78c-.147 0-.22-.08-.22-.24l1.66-13.52a.251.251 0 0 1 .1-.16.249.249 0 0 1 .18-.08h3.64c.933 0 1.666.313 2.2.94.546.613.82 1.433.82 2.46 0 .133-.014.36-.04.68-.107.827-.354 1.54-.74 2.14a3.855 3.855 0 0 1-1.46 1.36c-.054.013-.08.053-.08.12l1.16 6.02v.08c0 .133-.074.2-.22.2h-1.86Zm-1.56-12c-.067 0-.1.033-.1.1l-.5 3.98c0 .067.026.1.08.1h1.2c.52 0 .953-.227 1.3-.68.36-.467.54-1.08.54-1.84 0-.52-.12-.927-.36-1.22-.24-.293-.567-.44-.98-.44h-1.18Zm15.225-2c.066 0 .12.027.16.08.04.04.053.093.04.16l-.18 1.52a.353.353 0 0 1-.1.18.217.217 0 0 1-.16.06h-2.46c-.054 0-.094.033-.12.1l-1.42 11.66a.353.353 0 0 1-.1.18.217.217 0 0 1-.16.06h-1.8a.216.216 0 0 1-.16-.06.214.214 0 0 1-.04-.18l1.44-11.66c0-.067-.034-.1-.1-.1h-2.32a.216.216 0 0 1-.16-.06c-.04-.053-.054-.113-.04-.18l.18-1.52a.3.3 0 0 1 .08-.16.249.249 0 0 1 .18-.08h7.24Z"/>
  <path fill="#B9B8C0" d="M605.43 557.968a.347.347 0 0 1-.256-.096.347.347 0 0 1-.064-.288l1.088-8.736-.032-.192-2.752-12.608v-.096c0-.107.032-.192.096-.256a.347.347 0 0 1 .256-.096h2.976c.235 0 .374.107.416.32l1.312 8.224c0 .064.022.096.064.096.064 0 .107-.032.128-.096l3.328-8.224c.107-.213.267-.32.48-.32h2.976c.128 0 .214.043.256.128.064.064.064.171 0 .32l-5.856 12.608-.064.192-1.056 8.736a.548.548 0 0 1-.16.288.345.345 0 0 1-.256.096h-2.88ZM757.952 438c-.128 0-.214-.043-.256-.128-.043-.085-.032-.192.032-.32l5.568-10.656a.215.215 0 0 0 .032-.192l-2.944-10.656-.032-.128c0-.213.117-.32.352-.32h2.944c.234 0 .362.107.384.32l1.632 6.944c0 .064.021.096.064.096.064 0 .106-.032.128-.096l3.296-6.944c.106-.213.256-.32.448-.32h2.912c.149 0 .234.043.256.128.042.085.032.192-.032.32l-5.568 10.656-.032.192 2.944 10.656.032.128c0 .213-.118.32-.352.32h-2.88c-.214 0-.352-.107-.416-.32l-1.6-6.912c0-.064-.022-.096-.064-.096-.043 0-.075.032-.096.096l-3.36 6.912c-.064.213-.214.32-.448.32h-2.944Zm-74.184 167.016c-.24 2.232-1.056 3.96-2.448 5.184-1.392 1.2-3.108 1.8-5.148 1.8h-6.12c-.264 0-.396-.144-.396-.432l2.988-24.336a.46.46 0 0 1 .18-.288.448.448 0 0 1 .324-.144h5.508c1.992 0 3.54.468 4.644 1.404 1.128.936 1.692 2.328 1.692 4.176 0 .264-.024.66-.072 1.188-.312 2.472-1.38 4.236-3.204 5.292-.144.072-.18.144-.108.216 1.488 1.104 2.232 2.712 2.232 4.824 0 .216-.024.588-.072 1.116Zm-7.272-14.616c-.12 0-.18.06-.18.18l-.828 6.696c-.048.12 0 .18.144.18h1.764c.96 0 1.74-.3 2.34-.9.624-.6 1.008-1.452 1.152-2.556.024-.168.036-.408.036-.72 0-.912-.228-1.62-.684-2.124-.456-.504-1.116-.756-1.98-.756h-1.764Zm-.18 17.964c.936 0 1.704-.336 2.304-1.008.624-.672 1.02-1.62 1.188-2.844a7.16 7.16 0 0 0 .036-.828c0-.984-.228-1.752-.684-2.304-.432-.576-1.056-.864-1.872-.864h-2.016c-.144 0-.216.06-.216.18l-.9 7.488c-.048.12 0 .18.144.18h2.016Z"/>
  <circle cx="306" cy="513" r="80" fill="#A4A4AF"/>
  <path fill="#515153" d="M278.533 491.084h-31.25a4 4 0 0 0-4 4v35.266a4 4 0 0 0 4 4h31.25a4 4 0 0 1 4 4v34.498a4 4 0 0 0 4 4h37.919a4 4 0 0 0 4-4V538.35a4 4 0 0 1 4-4h33.046a4 4 0 0 0 4-4v-35.266a4 4 0 0 0-4-4h-33.046a4 4 0 0 1-4-4v-32.45a4 4 0 0 0-4-4h-37.919a4 4 0 0 0-4 4v32.45a4 4 0 0 1-4 4Z"/>
  <path fill="#5E5E61" d="m306 568-12.99-22.5h25.98L306 568Zm-55-55 22.5-12.99v25.98L251 513Zm55-56 12.99 22.5h-25.98L306 457Zm56 56-22.5 12.99v-25.98L362 513Z"/>
  <circle cx="306" cy="513" r="12" fill="#5E5E61"/>
  <path fill="#6A6A6A" d="M399 409h185v18H399z"/>
  <path fill="#ADADB9" d="M409.351 412.714c-.024.12-.09.18-.198.18h-3.942a.138.138 0 0 0-.054.018c-.012.012-.018.03-.018.054l-.486 3.906c0 .048.024.072.072.072h2.412c.12 0 .168.06.144.18l-.144 1.134c0 .048-.018.09-.054.126a.173.173 0 0 1-.126.054h-2.412c-.036 0-.066.024-.09.072l-.468 3.924c-.012.012-.012.03 0 .054.012.012.03.018.054.018h3.924c.108 0 .162.06.162.18l-.144 1.134c-.024.12-.09.18-.198.18h-5.508a.173.173 0 0 1-.126-.054.151.151 0 0 1-.018-.126l1.494-12.24a.267.267 0 0 1 .072-.126.173.173 0 0 1 .126-.054h5.508c.12 0 .168.06.144.18l-.126 1.134Zm8.369-1.134c.024-.12.09-.18.198-.18h1.314c.048 0 .084.018.108.054a.125.125 0 0 1 .036.126l-1.494 12.24c-.024.12-.09.18-.198.18h-1.512c-.096 0-.15-.048-.162-.144l-1.962-8.226c-.012-.024-.03-.03-.054-.018-.024 0-.036.012-.036.036l-.99 8.172c-.024.12-.09.18-.198.18h-1.332a.173.173 0 0 1-.126-.054.151.151 0 0 1-.018-.126l1.494-12.24a.267.267 0 0 1 .072-.126.173.173 0 0 1 .126-.054h1.494c.084 0 .144.048.18.144l1.962 8.226c.012.036.03.054.054.054.024-.012.036-.036.036-.072l1.008-8.172Zm11.364-.18c.048 0 .084.018.108.054a.125.125 0 0 1 .036.126l-.144 1.134c0 .048-.018.09-.054.126a.195.195 0 0 1-.144.054H426.6c-.048 0-.072.024-.072.072l-1.332 10.854c-.024.12-.09.18-.198.18h-1.332c-.12 0-.168-.06-.144-.18l1.332-10.854c0-.048-.024-.072-.072-.072h-2.16c-.12 0-.168-.06-.144-.18l.126-1.134a.267.267 0 0 1 .072-.126.173.173 0 0 1 .126-.054h6.282Zm9.086 1.314c-.024.12-.09.18-.198.18h-3.942a.138.138 0 0 0-.054.018c-.012.012-.018.03-.018.054l-.486 3.906c0 .048.024.072.072.072h2.412c.12 0 .168.06.144.18l-.144 1.134c0 .048-.018.09-.054.126a.173.173 0 0 1-.126.054h-2.412c-.036 0-.066.024-.09.072l-.468 3.924c-.012.012-.012.03 0 .054.012.012.03.018.054.018h3.924c.108 0 .162.06.162.18l-.144 1.134c-.024.12-.09.18-.198.18h-5.508a.173.173 0 0 1-.126-.054.151.151 0 0 1-.018-.126l1.494-12.24a.267.267 0 0 1 .072-.126.173.173 0 0 1 .126-.054h5.508c.12 0 .168.06.144.18l-.126 1.134ZM444.937 424a.194.194 0 0 1-.108-.036.175.175 0 0 1-.072-.108l-.954-5.364c-.012-.036-.03-.054-.054-.054h-1.224c-.036 0-.066.024-.09.072l-.648 5.31c-.024.12-.09.18-.198.18h-1.332a.173.173 0 0 1-.126-.054.151.151 0 0 1-.018-.126l1.494-12.24a.267.267 0 0 1 .072-.126.173.173 0 0 1 .126-.054h3.132c.792 0 1.422.27 1.89.81.468.528.702 1.236.702 2.124 0 .276-.012.492-.036.648-.084.756-.312 1.416-.684 1.98-.372.564-.834.966-1.386 1.206-.048.036-.066.072-.054.108l1.098 5.526v.036c0 .108-.054.162-.162.162h-1.368Zm-1.746-11.106a.138.138 0 0 0-.054.018c-.012.012-.018.03-.018.054l-.486 4.032c-.012.012-.012.03 0 .054.012.012.03.018.054.018h1.296c.528 0 .972-.234 1.332-.702.36-.468.54-1.068.54-1.8 0-.516-.126-.924-.378-1.224-.24-.3-.57-.45-.99-.45h-1.296Zm13.885-1.494c.048 0 .084.018.108.054a.125.125 0 0 1 .036.126l-.144 1.134c0 .048-.018.09-.054.126a.195.195 0 0 1-.144.054h-2.286c-.048 0-.072.024-.072.072l-1.332 10.854c-.024.12-.09.18-.198.18h-1.332c-.12 0-.168-.06-.144-.18l1.332-10.854c0-.048-.024-.072-.072-.072h-2.16c-.12 0-.168-.06-.144-.18l.126-1.134a.267.267 0 0 1 .072-.126.173.173 0 0 1 .126-.054h6.282Zm5.883 12.6c-.12 0-.18-.054-.18-.162l-.126-2.07c0-.024-.012-.042-.036-.054-.012-.012-.03-.018-.054-.018h-2.844a.16.16 0 0 0-.072.018c-.012.012-.018.03-.018.054l-.63 2.07c-.012.108-.078.162-.198.162h-1.332c-.06 0-.102-.018-.126-.054-.024-.036-.024-.084 0-.144l4.104-12.24c.024-.108.09-.162.198-.162h1.566c.108 0 .162.054.162.162l1.116 12.24c0 .132-.06.198-.18.198h-1.35Zm-2.844-3.744c-.012.012-.012.03 0 .054.012.012.024.018.036.018h2.322c.024 0 .048-.024.072-.072l-.414-6.39c0-.024-.012-.036-.036-.036-.012 0-.024.012-.036.036l-1.944 6.39Zm7.449 3.744a.173.173 0 0 1-.126-.054.151.151 0 0 1-.018-.126l1.494-12.24a.267.267 0 0 1 .072-.126.173.173 0 0 1 .126-.054h1.332c.108 0 .162.06.162.18l-1.512 12.24c-.024.12-.09.18-.198.18h-1.332Zm11.734-12.42c.024-.12.09-.18.198-.18h1.314c.048 0 .084.018.108.054a.125.125 0 0 1 .036.126l-1.494 12.24c-.024.12-.09.18-.198.18h-1.512c-.096 0-.15-.048-.162-.144l-1.962-8.226c-.012-.024-.03-.03-.054-.018-.024 0-.036.012-.036.036l-.99 8.172c-.024.12-.09.18-.198.18h-1.332a.173.173 0 0 1-.126-.054.151.151 0 0 1-.018-.126l1.494-12.24a.267.267 0 0 1 .072-.126.173.173 0 0 1 .126-.054h1.494c.084 0 .144.048.18.144l1.962 8.226c.012.036.03.054.054.054.024-.012.036-.036.036-.072l1.008-8.172Zm10.878-.054a.276.276 0 0 1 .234-.126h1.332c.12 0 .168.06.144.18l-1.494 12.24c-.024.12-.09.18-.198.18h-1.332c-.12 0-.168-.06-.144-.18l1.08-8.928c.012-.036.006-.054-.018-.054-.012 0-.03.012-.054.036l-2.07 3.222c-.048.084-.108.126-.18.126-.06 0-.108-.042-.144-.126l-1.26-3.204c-.024-.024-.048-.036-.072-.036-.012 0-.018.018-.018.054l-1.098 8.91c-.024.12-.09.18-.198.18h-1.332a.173.173 0 0 1-.126-.054.151.151 0 0 1-.018-.126l1.512-12.24c0-.048.018-.09.054-.126a.173.173 0 0 1 .126-.054h1.332c.096 0 .162.042.198.126l1.422 3.384c0 .012.012.018.036.018a.16.16 0 0 0 .072-.018l2.214-3.384Zm11.171 1.188c-.024.12-.09.18-.198.18h-3.942a.138.138 0 0 0-.054.018c-.012.012-.018.03-.018.054l-.486 3.906c0 .048.024.072.072.072h2.412c.12 0 .168.06.144.18l-.144 1.134c0 .048-.018.09-.054.126a.173.173 0 0 1-.126.054h-2.412c-.036 0-.066.024-.09.072l-.468 3.924c-.012.012-.012.03 0 .054.012.012.03.018.054.018h3.924c.108 0 .162.06.162.18l-.144 1.134c-.024.12-.09.18-.198.18h-5.508a.173.173 0 0 1-.126-.054.151.151 0 0 1-.018-.126l1.494-12.24a.267.267 0 0 1 .072-.126.173.173 0 0 1 .126-.054h5.508c.12 0 .168.06.144.18l-.126 1.134Zm8.369-1.134c.024-.12.09-.18.198-.18h1.314c.048 0 .084.018.108.054a.125.125 0 0 1 .036.126l-1.494 12.24c-.024.12-.09.18-.198.18h-1.512c-.096 0-.15-.048-.162-.144l-1.962-8.226c-.012-.024-.03-.03-.054-.018-.024 0-.036.012-.036.036l-.99 8.172c-.024.12-.09.18-.198.18h-1.332a.173.173 0 0 1-.126-.054.151.151 0 0 1-.018-.126l1.494-12.24a.267.267 0 0 1 .072-.126.173.173 0 0 1 .126-.054h1.494c.084 0 .144.048.18.144l1.962 8.226c.012.036.03.054.054.054.024-.012.036-.036.036-.072l1.008-8.172Zm11.364-.18c.048 0 .084.018.108.054a.125.125 0 0 1 .036.126l-.144 1.134c0 .048-.018.09-.054.126a.195.195 0 0 1-.144.054h-2.286c-.048 0-.072.024-.072.072l-1.332 10.854c-.024.12-.09.18-.198.18h-1.332c-.12 0-.168-.06-.144-.18l1.332-10.854c0-.048-.024-.072-.072-.072h-2.16c-.12 0-.168-.06-.144-.18l.126-1.134a.267.267 0 0 1 .072-.126.173.173 0 0 1 .126-.054h6.282Zm9.597 12.744c-.828 0-1.488-.246-1.98-.738s-.738-1.152-.738-1.98c0-.096.012-.264.036-.504l.072-.468c0-.048.018-.09.054-.126a.195.195 0 0 1 .144-.054h1.278c.06 0 .102.018.126.054a.125.125 0 0 1 .036.126l-.054.378a2.14 2.14 0 0 0-.018.324c0 .468.108.834.324 1.098.228.264.528.396.9.396.468 0 .864-.186 1.188-.558.336-.384.504-.864.504-1.44 0-.288-.066-.546-.198-.774a2.296 2.296 0 0 0-.486-.648 14.286 14.286 0 0 0-.99-.864c-.492-.42-.876-.774-1.152-1.062a4.085 4.085 0 0 1-.702-1.008 3.056 3.056 0 0 1-.288-1.35c0-.744.15-1.392.45-1.944.3-.564.708-.996 1.224-1.296.528-.3 1.116-.45 1.764-.45.84 0 1.5.252 1.98.756.492.492.738 1.164.738 2.016 0 .108-.012.294-.036.558l-.054.45c-.024.12-.09.18-.198.18h-1.296a.173.173 0 0 1-.126-.054.151.151 0 0 1-.018-.126l.054-.486c.012-.084.018-.204.018-.36 0-.444-.114-.792-.342-1.044-.216-.264-.516-.396-.9-.396-.456 0-.84.18-1.152.54-.3.348-.45.828-.45 1.44 0 .384.108.726.324 1.026.228.3.642.702 1.242 1.206.576.48 1.014.876 1.314 1.188.3.3.534.63.702.99a2.7 2.7 0 0 1 .252 1.188c0 .084-.012.246-.036.486-.12 1.008-.51 1.818-1.17 2.43-.648.6-1.428.9-2.34.9Zm8.164-.162c-.12 0-.168-.06-.144-.18l.63-5.148c0-.012-.006-.024-.018-.036 0-.024.006-.042.018-.054l-1.584-6.966v-.036c0-.108.054-.162.162-.162h1.404c.096 0 .162.048.198.144l.864 4.968c.012.024.03.036.054.036s.042-.012.054-.036l2.088-4.968c.06-.096.138-.144.234-.144h1.404c.06 0 .096.018.108.054.024.036.024.084 0 .144l-3.276 6.966a.122.122 0 0 0-.036.09l-.63 5.148c-.024.12-.09.18-.198.18h-1.332Zm9.56.162c-.828 0-1.488-.246-1.98-.738s-.738-1.152-.738-1.98c0-.096.012-.264.036-.504l.072-.468c0-.048.018-.09.054-.126a.195.195 0 0 1 .144-.054h1.278c.06 0 .102.018.126.054.036.036.048.078.036.126l-.054.378a2.14 2.14 0 0 0-.018.324c0 .468.108.834.324 1.098.228.264.528.396.9.396.468 0 .864-.186 1.188-.558.336-.384.504-.864.504-1.44 0-.288-.066-.546-.198-.774a2.296 2.296 0 0 0-.486-.648 14.286 14.286 0 0 0-.99-.864c-.492-.42-.876-.774-1.152-1.062a4.085 4.085 0 0 1-.702-1.008 3.056 3.056 0 0 1-.288-1.35c0-.744.15-1.392.45-1.944.3-.564.708-.996 1.224-1.296.528-.3 1.116-.45 1.764-.45.84 0 1.5.252 1.98.756.492.492.738 1.164.738 2.016 0 .108-.012.294-.036.558l-.054.45c-.024.12-.09.18-.198.18h-1.296a.173.173 0 0 1-.126-.054.151.151 0 0 1-.018-.126l.054-.486c.012-.084.018-.204.018-.36 0-.444-.114-.792-.342-1.044-.216-.264-.516-.396-.9-.396-.456 0-.84.18-1.152.54-.3.348-.45.828-.45 1.44 0 .384.108.726.324 1.026.228.3.642.702 1.242 1.206.576.48 1.014.876 1.314 1.188.3.3.534.63.702.99a2.7 2.7 0 0 1 .252 1.188c0 .084-.012.246-.036.486-.12 1.008-.51 1.818-1.17 2.43-.648.6-1.428.9-2.34.9Zm13.686-12.744c.048 0 .084.018.108.054.036.036.048.078.036.126l-.144 1.134c0 .048-.018.09-.054.126a.195.195 0 0 1-.144.054h-2.286c-.048 0-.072.024-.072.072l-1.332 10.854c-.024.12-.09.18-.198.18h-1.332c-.12 0-.168-.06-.144-.18l1.332-10.854c0-.048-.024-.072-.072-.072h-2.16c-.12 0-.168-.06-.144-.18l.126-1.134a.267.267 0 0 1 .072-.126.173.173 0 0 1 .126-.054h6.282Zm9.086 1.314c-.024.12-.09.18-.198.18h-3.942a.138.138 0 0 0-.054.018c-.012.012-.018.03-.018.054l-.486 3.906c0 .048.024.072.072.072h2.412c.12 0 .168.06.144.18l-.144 1.134c0 .048-.018.09-.054.126a.173.173 0 0 1-.126.054h-2.412c-.036 0-.066.024-.09.072l-.468 3.924c-.012.012-.012.03 0 .054.012.012.03.018.054.018h3.924c.108 0 .162.06.162.18l-.144 1.134c-.024.12-.09.18-.198.18h-5.508a.173.173 0 0 1-.126-.054.151.151 0 0 1-.018-.126l1.494-12.24a.267.267 0 0 1 .072-.126.173.173 0 0 1 .126-.054h5.508c.12 0 .168.06.144.18l-.126 1.134Zm8.873-1.188a.276.276 0 0 1 .234-.126h1.332c.12 0 .168.06.144.18l-1.494 12.24c-.024.12-.09.18-.198.18h-1.332c-.12 0-.168-.06-.144-.18l1.08-8.928c.012-.036.006-.054-.018-.054-.012 0-.03.012-.054.036l-2.07 3.222c-.048.084-.108.126-.18.126-.06 0-.108-.042-.144-.126l-1.26-3.204c-.024-.024-.048-.036-.072-.036-.012 0-.018.018-.018.054l-1.098 8.91c-.024.12-.09.18-.198.18h-1.332a.173.173 0 0 1-.126-.054.151.151 0 0 1-.018-.126l1.512-12.24c0-.048.018-.09.054-.126a.173.173 0 0 1 .126-.054h1.332c.096 0 .162.042.198.126l1.422 3.384c0 .012.012.018.036.018a.16.16 0 0 0 .072-.018l2.214-3.384Z"/>
  <path fill="#6A6A6A" d="M405.265 406.256c-1.472 0-2.645-.437-3.52-1.312-.874-.875-1.312-2.048-1.312-3.52 0-.171.022-.469.064-.896l.128-.832c0-.085.032-.16.096-.224a.347.347 0 0 1 .256-.096h2.272c.107 0 .182.032.224.096a.221.221 0 0 1 .064.224l-.096.672a3.85 3.85 0 0 0-.032.576c0 .832.192 1.483.576 1.952.406.469.939.704 1.6.704.832 0 1.536-.331 2.112-.992.598-.683.896-1.536.896-2.56 0-.512-.117-.971-.352-1.376a4.06 4.06 0 0 0-.864-1.152c-.362-.363-.949-.875-1.76-1.536-.874-.747-1.557-1.376-2.048-1.888a7.291 7.291 0 0 1-1.248-1.792c-.341-.704-.512-1.504-.512-2.4 0-1.323.267-2.475.8-3.456.534-1.003 1.259-1.771 2.176-2.304.939-.533 1.984-.8 3.136-.8 1.494 0 2.667.448 3.52 1.344.875.875 1.312 2.069 1.312 3.584 0 .192-.021.523-.064.992l-.096.8c-.042.213-.16.32-.352.32h-2.304a.308.308 0 0 1-.224-.096.273.273 0 0 1-.032-.224l.096-.864c.022-.149.032-.363.032-.64 0-.789-.202-1.408-.608-1.856-.384-.469-.917-.704-1.6-.704-.81 0-1.493.32-2.048.96-.533.619-.8 1.472-.8 2.56 0 .683.192 1.291.576 1.824.406.533 1.142 1.248 2.208 2.144 1.024.853 1.803 1.557 2.336 2.112.534.533.95 1.12 1.248 1.76.299.619.448 1.323.448 2.112 0 .149-.021.437-.064.864-.213 1.792-.906 3.232-2.08 4.32-1.152 1.067-2.538 1.6-4.16 1.6Zm13.986 0c-1.514 0-2.709-.48-3.584-1.44-.874-.96-1.312-2.24-1.312-3.84 0-.235.022-.587.064-1.056l1.984-16c0-.085.032-.16.096-.224a.347.347 0 0 1 .256-.096h2.336c.192 0 .288.107.288.32l-2.016 16.32a4.897 4.897 0 0 0-.032.64c0 .832.203 1.493.608 1.984.406.491.96.736 1.664.736.79 0 1.462-.309 2.016-.928.576-.619.928-1.429 1.056-2.432l2.016-16.32c0-.085.032-.16.096-.224a.347.347 0 0 1 .256-.096h2.336c.192 0 .288.107.288.32l-1.984 16c-.213 1.899-.917 3.435-2.112 4.608-1.173 1.152-2.613 1.728-4.32 1.728Zm17.637-22.688c1.408 0 2.528.48 3.36 1.44.832.939 1.248 2.208 1.248 3.808 0 .512-.021.907-.064 1.184-.213 1.877-.875 3.392-1.984 4.544-1.088 1.152-2.411 1.728-3.968 1.728h-2.912c-.085 0-.128.043-.128.128l-1.152 9.28c-.043.213-.16.32-.352.32h-2.368a.308.308 0 0 1-.224-.096.27.27 0 0 1-.032-.224L431 383.888c0-.085.032-.16.096-.224a.345.345 0 0 1 .256-.096h5.536Zm-1.728 10.24c.853 0 1.579-.331 2.176-.992.597-.683.971-1.6 1.12-2.752.043-.384.064-.651.064-.8 0-.939-.224-1.675-.672-2.208-.427-.555-1.013-.832-1.76-.832h-2.272c-.064 0-.117.043-.16.128l-.896 7.328c0 .085.043.128.128.128h2.272Zm19.985-7.872c-.043.213-.16.32-.352.32h-7.008a.245.245 0 0 0-.096.032c-.022.021-.032.053-.032.096l-.864 6.944c0 .085.042.128.128.128h4.288c.213 0 .298.107.256.32l-.256 2.016c0 .085-.032.16-.096.224a.308.308 0 0 1-.224.096h-4.288c-.064 0-.118.043-.16.128l-.832 6.976c-.022.021-.022.053 0 .096.021.021.053.032.096.032h6.976c.192 0 .288.107.288.32l-.256 2.016c-.043.213-.16.32-.352.32h-9.792a.306.306 0 0 1-.224-.096.266.266 0 0 1-.032-.224l2.656-21.76a.474.474 0 0 1 .128-.224.306.306 0 0 1 .224-.096h9.792c.213 0 .298.107.256.32l-.224 2.016Zm9.15 20.064a.342.342 0 0 1-.192-.064.311.311 0 0 1-.128-.192l-1.696-9.536c-.021-.064-.053-.096-.096-.096h-2.176c-.064 0-.117.043-.16.128l-1.152 9.44c-.043.213-.16.32-.352.32h-2.368a.308.308 0 0 1-.224-.096.27.27 0 0 1-.032-.224l2.656-21.76a.474.474 0 0 1 .128-.224.308.308 0 0 1 .224-.096h5.568c1.408 0 2.528.48 3.36 1.44.832.939 1.248 2.197 1.248 3.776 0 .491-.021.875-.064 1.152-.149 1.344-.555 2.517-1.216 3.52-.661 1.003-1.483 1.717-2.464 2.144-.085.064-.117.128-.096.192l1.952 9.824v.064c0 .192-.096.288-.288.288h-2.432Zm-3.104-19.744a.255.255 0 0 0-.096.032c-.021.021-.032.053-.032.096l-.864 7.168c-.021.021-.021.053 0 .096.021.021.053.032.096.032h2.304c.939 0 1.728-.416 2.368-1.248.64-.832.96-1.899.96-3.2 0-.917-.224-1.643-.672-2.176-.427-.533-1.013-.8-1.76-.8h-2.304Zm27.641-.32c-.043.213-.16.32-.352.32h-6.976a.245.245 0 0 0-.096.032c-.022.021-.032.053-.032.096l-.864 6.944c0 .085.042.128.128.128h4.256c.213 0 .298.107.256.32l-.256 2.016c0 .085-.032.16-.096.224a.308.308 0 0 1-.224.096h-4.256c-.064 0-.118.043-.16.128l-1.152 9.44c-.043.213-.16.32-.352.32h-2.368a.306.306 0 0 1-.224-.096.266.266 0 0 1-.032-.224l2.656-21.76a.474.474 0 0 1 .128-.224.306.306 0 0 1 .224-.096h9.76c.213 0 .298.107.256.32l-.224 2.016Zm.206 20.064a.306.306 0 0 1-.224-.096.266.266 0 0 1-.032-.224l2.656-21.76a.474.474 0 0 1 .128-.224.306.306 0 0 1 .224-.096h2.368c.192 0 .288.107.288.32l-2.688 21.76c-.043.213-.16.32-.352.32h-2.368Zm15.132 0a.342.342 0 0 1-.192-.064.311.311 0 0 1-.128-.192l-1.696-9.536c-.021-.064-.053-.096-.096-.096h-2.176c-.064 0-.117.043-.16.128l-1.152 9.44c-.043.213-.16.32-.352.32h-2.368a.308.308 0 0 1-.224-.096.27.27 0 0 1-.032-.224l2.656-21.76a.474.474 0 0 1 .128-.224.308.308 0 0 1 .224-.096h5.568c1.408 0 2.528.48 3.36 1.44.832.939 1.248 2.197 1.248 3.776 0 .491-.021.875-.064 1.152-.149 1.344-.555 2.517-1.216 3.52-.661 1.003-1.483 1.717-2.464 2.144-.085.064-.117.128-.096.192l1.952 9.824v.064c0 .192-.096.288-.288.288h-2.432Zm-3.104-19.744a.255.255 0 0 0-.096.032c-.021.021-.032.053-.032.096l-.864 7.168c-.021.021-.021.053 0 .096.021.021.053.032.096.032h2.304c.939 0 1.728-.416 2.368-1.248.64-.832.96-1.899.96-3.2 0-.917-.224-1.643-.672-2.176-.427-.533-1.013-.8-1.76-.8h-2.304Zm21.454-.32c-.043.213-.16.32-.352.32h-7.008a.245.245 0 0 0-.096.032c-.022.021-.032.053-.032.096l-.864 6.944c0 .085.042.128.128.128h4.288c.213 0 .298.107.256.32l-.256 2.016c0 .085-.032.16-.096.224a.308.308 0 0 1-.224.096h-4.288c-.064 0-.118.043-.16.128l-.832 6.976c-.022.021-.022.053 0 .096.021.021.053.032.096.032h6.976c.192 0 .288.107.288.32l-.256 2.016c-.043.213-.16.32-.352.32h-9.792a.306.306 0 0 1-.224-.096.266.266 0 0 1-.032-.224l2.656-21.76a.474.474 0 0 1 .128-.224.306.306 0 0 1 .224-.096h9.792c.213 0 .298.107.256.32l-.224 2.016Zm.83 20.064a.308.308 0 0 1-.224-.096.27.27 0 0 1-.032-.224l2.656-21.76a.474.474 0 0 1 .128-.224.308.308 0 0 1 .224-.096h2.368c.192 0 .288.107.288.32l-2.368 19.296c-.021.021-.021.053 0 .096.021.021.053.032.096.032h6.944c.192 0 .288.107.288.32l-.256 2.016c-.043.213-.16.32-.352.32h-9.76Zm12.594 0a.306.306 0 0 1-.224-.096.266.266 0 0 1-.032-.224l2.656-21.76a.474.474 0 0 1 .128-.224.306.306 0 0 1 .224-.096h2.368c.192 0 .288.107.288.32l-2.688 21.76c-.043.213-.16.32-.352.32h-2.368Zm11.644.256c-1.536 0-2.752-.416-3.648-1.248-.874-.853-1.312-2.005-1.312-3.456 0-.213.022-.512.064-.896l1.44-11.712c.214-1.685.886-3.04 2.016-4.064 1.152-1.024 2.571-1.536 4.256-1.536 1.515 0 2.72.427 3.616 1.28.918.853 1.376 2.016 1.376 3.488 0 .192-.021.48-.064.864l-.192 1.344c0 .085-.032.16-.096.224a.306.306 0 0 1-.224.096h-2.368c-.192 0-.288-.107-.288-.32l.192-1.408c.022-.107.032-.277.032-.512 0-.725-.213-1.301-.64-1.728-.405-.448-.96-.672-1.664-.672-.789 0-1.461.267-2.016.8-.554.533-.885 1.237-.992 2.112l-1.44 11.776a3.296 3.296 0 0 0-.032.512c0 .747.203 1.333.608 1.76.406.427.971.64 1.696.64.79 0 1.462-.267 2.016-.8.555-.533.886-1.237.992-2.112l.416-3.52c0-.085-.032-.128-.096-.128h-2.368c-.213 0-.298-.107-.256-.32l.224-1.984c.043-.213.16-.32.352-.32h5.152c.192 0 .288.107.288.32l-.736 5.92c-.213 1.685-.896 3.04-2.048 4.064-1.152 1.024-2.57 1.536-4.256 1.536Zm19.692-22.336c.042-.213.16-.32.352-.32h2.336c.106 0 .181.032.224.096a.223.223 0 0 1 .064.224l-2.688 21.76c0 .085-.032.16-.096.224a.308.308 0 0 1-.224.096h-2.368c-.192 0-.288-.107-.288-.32l1.184-9.44c0-.085-.043-.128-.128-.128h-4.672c-.064 0-.118.043-.16.128l-1.152 9.44c-.043.213-.16.32-.352.32h-2.368a.306.306 0 0 1-.224-.096.266.266 0 0 1-.032-.224l2.656-21.76a.474.474 0 0 1 .128-.224.306.306 0 0 1 .224-.096h2.368c.192 0 .288.107.288.32l-1.184 9.408c0 .085.042.128.128.128h4.672c.064 0 .117-.043.16-.128l1.152-9.408Zm17.342-.32c.085 0 .149.032.192.096a.223.223 0 0 1 .064.224l-.256 2.016c0 .085-.032.16-.096.224a.347.347 0 0 1-.256.096h-4.064c-.086 0-.128.043-.128.128l-2.368 19.296c-.043.213-.16.32-.352.32h-2.368c-.214 0-.299-.107-.256-.32l2.368-19.296c0-.085-.043-.128-.128-.128h-3.84c-.214 0-.299-.107-.256-.32l.224-2.016a.474.474 0 0 1 .128-.224.306.306 0 0 1 .224-.096h11.168Z"/>
</svg>
