<svg xmlns="http://www.w3.org/2000/svg" width="1024" height="1024" fill="none" viewBox="0 0 1024 1024">
  <path fill="#5D5B5C" stroke="#5D5B5C" stroke-width="12" d="M236.198 372.307v4.33l158.096-16.007-1.705-5.117s-80.009-3.405-102.074 0c-22.064 3.406-33.95 7.133-54.317 16.794Zm550.909-.09v4.329L629.011 360.54l1.706-5.117s79.788-2.849 102.073 0c22.286 2.849 34.156 6.624 54.317 16.794Z"/>
  <path fill="#ADADB9" d="M406.89 634.576h209.657C652.066 659.431 676.768 670 720.851 670c44.083 0 76.198-11.728 113.357-48.676 23.524-24.565 39.229-62.319 39.229-106.271s-18.348-81.869-39.229-103.386c-20.881-21.517-58.384-50.774-113.357-50.774H302.586c-54.973 0-92.476 29.257-113.357 50.774C168.347 433.184 150 471.101 150 515.053s15.705 82.756 39.229 107.321C226.388 659.321 258.502 670 302.586 670c44.083 0 68.785-10.569 104.304-35.424Z"/>
  <circle cx="719.539" cy="517.808" r="132.512" fill="#9C9AA6"/>
  <rect width="154.472" height="69.361" x="601.66" y="509.444" fill="#B9B8C0" rx="34.68" transform="rotate(-37 601.66 509.444)"/>
  <rect width="154.472" height="69.361" x="668.896" y="561.703" fill="#B9B8C0" rx="34.68" transform="rotate(-37 668.896 561.703)"/>
  <rect width="58.435" height="19.551" x="494.784" y="547.282" fill="#454648" rx="9.776" transform="rotate(-37 494.784 547.282)"/>
  <rect width="58.435" height="19.551" x="416.467" y="547.202" fill="#454648" rx="9.776" transform="rotate(-37 416.467 547.202)"/>
  <circle cx="719.539" cy="462.966" r="26.24" fill="#A7A8EB"/>
  <circle cx="719.539" cy="568.451" r="26.24" fill="#5B4D98"/>
  <circle cx="786.451" cy="515.447" r="26.24" fill="#5B4D98"/>
  <circle cx="651.053" cy="515.447" r="26.24" fill="#A7A8EB"/>
  <path fill="#515153" d="M278.533 491.084h-31.25a4 4 0 0 0-4 4v35.266a4 4 0 0 0 4 4h31.25a4 4 0 0 1 4 4v34.498a4 4 0 0 0 4 4h37.919a4 4 0 0 0 4-4V538.35a4 4 0 0 1 4-4h33.046a4 4 0 0 0 4-4v-35.266a4 4 0 0 0-4-4h-33.046a4 4 0 0 1-4-4v-32.45a4 4 0 0 0-4-4h-37.919a4 4 0 0 0-4 4v32.45a4 4 0 0 1-4 4Z"/>
</svg>
