<svg xmlns="http://www.w3.org/2000/svg" width="1024" height="1024" fill="none" viewBox="0 0 1024 1024">
  <path fill="#4C5055" d="M212.458 278.147c-6.635 9.757-11.373 16.052-12.952 21.709l194.83-36.668-1.277-12.952c-15.53-6.341-23.715-11.493-39.768-16.236-62.937 1.459-108.909 9.304-140.833 44.147Zm599.634.182c6.635 9.757 11.373 16.052 12.952 21.709L630.213 263.37l1.277-12.952c15.531-6.34 23.715-11.493 39.769-16.236 62.937 1.46 108.908 9.304 140.833 44.147Z"/>
  <path fill="#404246" d="m383.571 252.425 130.619-1.459 126.239 1.459c76.854 2.282 120.219 8.757 166.008 36.668 8.024 4.891 15.052 7.96 22.985 13.317l14.959 19.52c12.541 33.826 23.351 82.821 23.533 89.206 12.04 51.991 41.046 210.337 43.965 273.821 2.551 68.045-35.575 103.8-75.707 105.077-16.764-.988-24.907-4.246-37.762-13.682-22.623-14.958-68.777-120.948-73.7-125.873-5.814-8.367-10.85-14.988-17.698-19.368-3.967-2.538-8.542-4.323-14.229-5.26H331.217c-5.687.937-10.262 2.722-14.229 5.26-6.848 4.38-11.884 11.001-17.698 19.368-4.923 4.925-51.077 110.915-73.7 125.873-12.855 9.436-20.998 12.694-37.762 13.682-40.132-1.277-78.258-37.032-75.707-105.077 2.919-63.484 31.925-221.83 43.965-273.821.182-6.385 10.992-55.38 23.533-89.206l14.959-19.52c7.933-5.357 14.961-8.426 22.985-13.317 45.789-27.911 89.154-34.386 166.008-36.668Z"/>
  <path fill="#535559" d="M911.879 684.957c-2.919-63.485-31.925-221.83-43.965-273.822-55.604 89.759-89.826 138.462-160.902 219.975 6.848 4.38 11.884 11.002 17.698 19.368 4.923 4.926 51.077 110.915 73.7 125.874 12.855 9.435 20.998 12.694 37.762 13.682 40.131-1.277 78.258-37.033 75.707-105.077Zm-799.758 0c2.919-63.485 31.925-221.83 43.965-273.822 56.124 92.284 91.463 140.344 160.902 219.975-6.848 4.38-11.884 11.002-17.698 19.368-4.923 4.926-51.077 110.915-73.7 125.874-12.855 9.435-20.998 12.694-37.762 13.682-40.132-1.277-78.258-37.033-75.707-105.077Z"/>
  <circle cx="660.861" cy="401.285" r="28.094" fill="#4C5055"/>
  <circle cx="723.98" cy="455.283" r="28.094" fill="#4C5055"/>
  <circle cx="723.98" cy="346.922" r="28.094" fill="#4C5055"/>
  <circle cx="786.735" cy="401.285" r="28.094" fill="#4C5055"/>
  <circle cx="413.126" cy="341.084" r="16.418" fill="#4C5055"/>
  <circle cx="611.606" cy="341.084" r="16.418" fill="#4C5055"/>
  <circle cx="568.918" cy="401.649" r="21.891" fill="#87ABEF"/>
  <circle cx="568.918" cy="401.649" r="16.418" fill="#4C5055"/>
  <circle cx="617.808" cy="511.105" r="61.66" fill="#242A2F"/>
  <circle cx="617.808" cy="511.105" r="44.877" fill="#53595E"/>
  <circle cx="617.991" cy="510.922" r="29.654" fill="#53595E" stroke="#393939" stroke-width="6"/>
  <rect width="31.377" height="31.377" x="439.396" y="385.961" fill="#4C5055" rx="15"/>
  <path fill="#38393D" d="M362.312 490.352H333.21a4 4 0 0 0-4 4v33.023a4 4 0 0 0 4 4h29.102a4 4 0 0 1 4 4v32.295a4 4 0 0 0 4 4h35.406a4 4 0 0 0 4-4v-32.295a4 4 0 0 1 4-4h30.799a4 4 0 0 0 4-4v-33.023a4 4 0 0 0-4-4h-30.799a4 4 0 0 1-4-4v-30.353a4 4 0 0 0-4-4h-35.406a4 4 0 0 0-4 4v30.353a4 4 0 0 1-4 4Z"/>
  <circle cx="291.266" cy="402.379" r="61.66" fill="#242A2F"/>
  <circle cx="291.266" cy="402.379" r="44.877" fill="#53595E"/>
  <circle cx="291.448" cy="402.197" r="29.654" fill="#53595E" stroke="#393939" stroke-width="6"/>
</svg>
