<svg xmlns="http://www.w3.org/2000/svg" width="1024" height="1024" fill="none" viewBox="0 0 1024 1024">
  <path fill="#303030" d="m663.77 227-20.459 16.739 156.235 49.289c-18.6-41.849-61.581-64.669-135.776-66.028Zm-302.239 0 20.459 16.739-156.234 49.289c18.599-41.849 61.581-64.669 135.775-66.028Z"/>
  <path fill="#4D4D4D" d="M103 705.933C116.02 798 185.767 798 185.767 798c17.101-11.228 20.459-12.682 37.199-27.899 16.739-15.218 73.467-90.207 73.467-90.207 28.852-32.343 47.429-41.849 72.538-41.849h143.215V243.739H381.99c-62.308 0-119.036 17.669-141.355 36.269-22.319 18.599-8.37 7.166-28.829 28.829-20.459 21.663-79.047 206.453-79.047 206.453C109.959 588.269 103 630.606 103 705.933Z"/>
  <path fill="#4D4D4D" d="M921.189 705.933C908.169 798 838.422 798 838.422 798c-17.101-11.228-20.46-12.682-37.199-27.899-16.739-15.218-73.467-90.207-73.467-90.207-28.852-32.343-47.429-41.849-72.538-41.849H512.003V243.739h130.196c62.307 0 119.035 17.669 141.355 36.269 22.319 18.599 8.369 7.166 28.829 28.829C832.842 330.5 891.43 515.29 891.43 515.29c22.799 72.979 29.759 115.316 29.759 190.643Z"/>
  <circle cx="300.153" cy="382.305" r="53.938" fill="#3B3B3B"/>
  <circle cx="300.153" cy="382.305" r="46.498" fill="#3B3B3B"/>
  <circle cx="300.153" cy="382.305" r="29.759" fill="#2F2F2F"/>
  <circle cx="621.922" cy="510.64" r="53.938" fill="#3B3B3B"/>
  <circle cx="621.922" cy="510.641" r="46.498" fill="#3B3B3B"/>
  <circle cx="621.922" cy="510.641" r="29.759" fill="#2F2F2F"/>
  <path fill="#4A4A4A" d="M404.31 586.897c36.979 0 66.957-29.978 66.957-66.958H337.352c0 36.98 29.978 66.958 66.958 66.958Z"/>
  <path fill="#292929" d="M404.31 452.981c-36.98 0-66.958 29.978-66.958 66.958h133.915c0-36.98-29.978-66.958-66.957-66.958Z"/>
  <path fill="#242424" d="M382.92 456.444v40.245h42.779v-40.314c-16.697-4.748-26.083-5.099-42.779.069Z"/>
  <path fill="#353535" d="M340.854 541.328h42.066v-44.639H341.5c-6.008 17.67-5.078 30.689-.646 44.639Z"/>
  <path fill="#434343" d="M425.699 496.689H382.92v44.639h42.779v-44.639Z"/>
  <path fill="#5C5C5C" d="M425.699 583.388v-42.06H382.92v42.092c17.67 5.336 26.969 4.406 42.779-.032Z"/>
  <path fill="#353535" d="M425.699 496.689h41.444c6.164 16.465 6.59 26.266.637 44.639h-42.081v-44.639Z"/>
  <circle cx="451.738" cy="383.234" r="19.529" fill="#3B3B3B"/>
  <circle cx="670.28" cy="384.165" r="29.759" fill="#3B3B3B"/>
  <path fill="#4CA8EB" d="M663.771 367.425h-9.3l9.3 15.81-9.3 17.669h7.44l7.439-12.089 5.58 12.089h9.3l-9.3-17.669 9.3-15.81h-9.3l-5.58 10.23-5.579-10.23Z"/>
  <circle cx="724.218" cy="330.225" r="29.759" fill="#3B3B3B"/>
  <path fill="#DACE51" d="M718.638 313.486h-7.439l9.299 19.53v15.809h9.3v-15.809l9.3-19.53h-7.44l-6.51 13.02-6.51-13.02Z"/>
  <circle cx="724.218" cy="441.822" r="29.759" fill="#3B3B3B"/>
  <path fill="#81BD65" fill-rule="evenodd" d="m707.479 456.701 13.949-34.409h7.44l13.949 34.409h-9.299l-3.72-9.299h-9.3l-3.72 9.299h-9.299Zm17.669-27.899-3.72 11.16h7.44l-3.72-11.16Z" clip-rule="evenodd"/>
  <circle cx="780.016" cy="384.165" r="29.759" fill="#3B3B3B"/>
  <path fill="#D55C57" fill-rule="evenodd" d="M770.717 369.285v33.952h18.599c2.79 0 5.58-5.123 5.58-8.843 0-3.72-2.79-9.299-5.58-9.299 2.79-.001 2.79-3.721 2.79-7.44 0-3.72-1.86-8.37-6.51-8.37h-14.879Zm7.439 5.58v7.44h6.51c1.425-2.91 0-7.44 0-7.44h-6.51Zm0 22.319v-9.299h7.44c2.864 3.619 2.695 5.674 0 9.299h-7.44Z" clip-rule="evenodd"/>
  <circle cx="572.634" cy="383.234" r="19.529" fill="#3B3B3B"/>
  <path fill="#F4F4F4" fill-rule="evenodd" d="M537.14 322.787a33.356 33.356 0 0 0 8.525-22.319c0-9.506-3.962-18.085-10.323-24.18-6.804 2.926-9.899 5.068-13.857 10.23 11.41 12.962 14.097 21.071 15.655 36.269Zm-24.954 11.159c9.915 0 18.824-4.31 24.954-11.159-7.317-12.833-12.154-19.661-24.954-29.759-11.939 9.285-16.429 16.555-24.179 29.759 2.315-15.232 4.05-23.648 15.809-36.269-4.057-5.166-7.371-7.266-14.786-10.23-6.362 6.095-10.323 14.674-10.323 24.18 0 18.489 14.989 33.478 33.479 33.478Zm-20.46-59.517c8.37 0 15.21 1.182 20.46 4.649 5.425-3.236 11.159-4.649 20.459-4.649-5.32-3.561-13.577-7.44-20.459-7.44-6.883 0-15.14 3.879-20.46 7.44Z" clip-rule="evenodd"/>
  <rect width="48.358" height="29.759" x="488.006" y="413.923" fill="#3B3B3B" rx="14.88"/>
</svg>
