<svg xmlns="http://www.w3.org/2000/svg" width="4483" height="3128" fill="none" viewBox="0 0 4483 3128">
  <path fill="#303030" d="M3071.87 0 2959.8 91.698l855.84 269.999C3713.76 132.452 3478.31 7.447 3071.87 0ZM1416.22 0l112.08 91.698-855.85 269.999C774.337 132.452 1009.79 7.447 1416.22 0Z"/>
  <path fill="#4D4D4D" d="M0 2623.57c71.32 504.34 453.394 504.34 453.394 504.34 93.678-61.5 112.075-69.47 203.773-152.83 91.698-83.36 402.453-494.15 402.453-494.15 158.05-177.17 259.81-229.24 397.36-229.24h784.52V91.697s-371.89.002-713.2 0c-341.32-.001-652.077 96.789-774.341 198.677-122.264 101.888-45.849 39.254-157.924 157.924C483.96 566.968 163.018 1579.24 163.018 1579.24 38.123 1979.02 0 2210.93 0 2623.57Zm4483 0c-71.32 504.34-453.39 504.34-453.39 504.34-93.68-61.5-112.08-69.47-203.78-152.83-91.69-83.36-402.45-494.15-402.45-494.15-158.05-177.17-259.81-229.24-397.36-229.24H2241.5V91.697s371.89.002 713.2 0c341.32-.001 652.08 96.789 774.34 198.677 122.26 101.888 45.85 39.254 157.92 157.924 112.08 118.67 433.02 1130.942 433.02 1130.942 124.9 399.78 163.02 631.69 163.02 1044.33Z"/>
  <circle cx="1080" cy="850.752" r="295.47" fill="#3B3B3B"/>
  <circle cx="1080" cy="850.75" r="254.716" fill="#3B3B3B"/>
  <circle cx="1080" cy="850.752" r="163.018" fill="#2F2F2F"/>
  <circle cx="2842.63" cy="1553.77" r="295.47" fill="#3B3B3B"/>
  <circle cx="2842.63" cy="1553.77" r="254.716" fill="#3B3B3B"/>
  <circle cx="2842.63" cy="1553.77" r="163.018" fill="#2F2F2F"/>
  <path fill="#4A4A4A" d="M1650.56 1971.5c202.57 0 366.79-164.22 366.79-366.79h-733.58c0 202.57 164.22 366.79 366.79 366.79Z"/>
  <path fill="#252525" d="M1650.56 1237.92c-202.57 0-366.79 164.22-366.79 366.79h733.58c0-202.57-164.22-366.79-366.79-366.79Z"/>
  <path fill="#1D1D1D" d="M1533.39 1256.89v220.46h234.34v-220.84c-91.47-26.01-142.88-27.93-234.34.38Z"/>
  <path fill="#353535" d="M1302.95 1721.88h230.44v-244.53h-226.9c-32.91 96.8-27.82 168.12-3.54 244.53Z"/>
  <path fill="#434343" d="M1767.73 1477.35h-234.34v244.53h234.34v-244.53Z"/>
  <path fill="#6B6B6B" d="M1767.73 1952.29v-230.41h-234.34v230.58c96.79 29.23 147.73 24.14 234.34-.17Z"/>
  <path fill="#353535" d="M1767.73 1477.35h227.03c33.76 90.2 36.1 143.88 3.49 244.53h-230.52v-244.53Z"/>
  <circle cx="1910.37" cy="855.845" r="106.981" fill="#3B3B3B"/>
  <circle cx="3107.53" cy="860.938" r="163.018" fill="#3B3B3B"/>
  <path fill="#4CA8EB" d="M3071.87 769.24h-50.94l50.94 86.604-50.94 96.792h40.76l40.75-66.226 30.57 66.226h50.94l-50.94-96.792 50.94-86.604h-50.94l-30.57 56.038-30.57-56.038Z"/>
  <circle cx="3403" cy="565.469" r="163.018" fill="#3B3B3B"/>
  <path fill="#DACE51" d="M3372.44 473.771h-40.76l50.95 106.981v86.604h50.94v-86.604l50.94-106.981h-40.75l-35.66 71.321-35.66-71.321Z"/>
  <circle cx="3403" cy="1176.79" r="163.018" fill="#3B3B3B"/>
  <path fill="#81BD65" fill-rule="evenodd" d="m3311.31 1258.3 76.41-188.49h40.76l76.41 188.49h-50.94l-20.38-50.95h-50.94l-20.38 50.95h-50.94Zm96.79-152.83-20.38 61.13h40.76l-20.38-61.13Z" clip-rule="evenodd"/>
  <circle cx="3708.66" cy="860.938" r="163.018" fill="#3B3B3B"/>
  <path fill="#D55C57" fill-rule="evenodd" d="M3657.72 779.431v193.584h101.89c15.28 0 30.56-35.66 30.56-56.037 0-20.377-15.28-50.943-30.56-50.943 15.28-.002 15.28-20.379 15.28-40.756 0-20.378-10.19-45.847-35.66-45.848h-81.51Zm40.76 30.566v40.755h35.66c7.8-15.941 0-40.755 0-40.755h-35.66Zm0 122.264v-50.943h40.75c15.69 19.825 14.76 31.083 0 50.943h-40.75Z" clip-rule="evenodd"/>
  <circle cx="2572.63" cy="855.845" r="106.981" fill="#3B3B3B"/>
  <path fill="#F4F4F4" fill-rule="evenodd" d="M2378.2 524.715c29.04-32.446 46.7-75.293 46.7-122.264 0-52.069-21.7-99.069-56.55-132.452-37.27 16.029-54.23 27.761-75.91 56.037 62.5 71.004 77.22 115.426 85.76 198.679Zm-136.7 61.132c54.32 0 103.12-23.613 136.7-61.132-40.08-70.295-66.58-107.7-136.7-163.018-65.4 50.865-90 90.687-132.45 163.018 12.68-83.441 22.18-129.54 86.6-198.679-22.22-28.301-40.38-39.803-81-56.037-34.85 33.383-56.55 80.383-56.55 132.452 0 101.287 82.11 183.396 183.4 183.396ZM2129.43 259.81c45.84 0 83.31 6.475 112.07 25.472 29.72-17.731 61.13-25.472 112.08-25.472-29.15-19.506-74.38-40.754-112.08-40.754s-82.93 21.248-112.07 40.754Z" clip-rule="evenodd"/>
  <rect width="264.905" height="163.018" x="2109.05" y="1023.96" fill="#3B3B3B" rx="81.509"/>
</svg>
