<svg xmlns="http://www.w3.org/2000/svg" width="1024" height="1024" fill="none" viewBox="0 0 1024 1024">
  <path fill="#303030" d="m663.77 227-20.459 16.739 156.235 49.289c-18.6-41.849-61.581-64.669-135.776-66.028Zm-302.239 0 20.459 16.739-156.234 49.289c18.599-41.849 61.581-64.669 135.775-66.028Z"/>
  <path fill="#4D4D4D" d="M103 705.933C116.02 798 185.767 798 185.767 798c17.101-11.228 20.459-12.682 37.199-27.899 16.739-15.218 73.467-90.207 73.467-90.207 28.852-32.343 47.429-41.849 72.538-41.849h143.215V243.739H381.99c-62.308 0-119.036 17.669-141.355 36.269-22.319 18.599-8.37 7.166-28.829 28.829-20.459 21.663-79.047 206.453-79.047 206.453C109.959 588.269 103 630.606 103 705.933Z"/>
  <path fill="#4D4D4D" d="M921.189 705.933C908.169 798 838.422 798 838.422 798c-17.101-11.228-20.46-12.682-37.199-27.899-16.739-15.218-73.467-90.207-73.467-90.207-28.852-32.343-47.429-41.849-72.538-41.849H512.003V243.739h130.196c62.307 0 119.035 17.669 141.355 36.269 22.319 18.599 8.369 7.166 28.829 28.829C832.842 330.5 891.43 515.29 891.43 515.29c22.799 72.979 29.759 115.316 29.759 190.643Z"/>
  <circle cx="300.153" cy="382.305" r="53.938" fill="#3B3B3B"/>
  <circle cx="300.153" cy="382.305" r="46.498" fill="#3B3B3B"/>
  <circle cx="300.153" cy="382.305" r="29.759" fill="#2F2F2F"/>
  <circle cx="621.922" cy="510.64" r="53.938" fill="#3B3B3B"/>
  <circle cx="621.922" cy="510.641" r="46.498" fill="#3B3B3B"/>
  <circle cx="621.922" cy="510.641" r="29.759" fill="#2F2F2F"/>
  <path fill="#4A4A4A" d="M404.31 586.897c36.979 0 66.957-29.978 66.957-66.958H337.352c0 36.98 29.978 66.958 66.958 66.958Z"/>
  <path fill="#292929" d="M404.31 452.981c-36.98 0-66.958 29.978-66.958 66.958h133.915c0-36.98-29.978-66.958-66.957-66.958Z"/>
  <path fill="#242424" d="M382.92 456.444v40.245h42.779v-40.314c-16.697-4.748-26.083-5.099-42.779.069Z"/>
  <path fill="#353535" d="M340.854 541.328h42.066v-44.639H341.5c-6.008 17.67-5.078 30.689-.646 44.639Z"/>
  <path fill="#434343" d="M425.699 496.689H382.92v44.639h42.779v-44.639Z"/>
  <path fill="#5C5C5C" d="M425.699 583.388v-42.06H382.92v42.092c17.67 5.336 26.969 4.406 42.779-.032Z"/>
  <path fill="#353535" d="M425.699 496.689h41.444c6.164 16.465 6.59 26.266.637 44.639h-42.081v-44.639Z"/>
  <circle cx="451.738" cy="383.234" r="19.529" fill="#3B3B3B"/>
  <circle cx="670.28" cy="384.165" r="29.759" fill="#3B3B3B"/>
  <path fill="#4CA8EB" d="m663.637 368.455 6.727 11.186h.239l6.756-11.186h6.309l-9.411 15.272 9.56 15.273h-6.413l-6.801-11.112h-.239L663.563 399h-6.384l9.65-15.273-9.53-15.272h6.338Z"/>
  <circle cx="724.218" cy="330.225" r="29.759" fill="#3B3B3B"/>
  <path fill="#DACE51" d="M709.979 314h6.546l7.829 14.156h.312L732.494 314h6.547L727.4 334.063V346h-5.781v-11.937L709.979 314Z"/>
  <circle cx="724.218" cy="441.822" r="29.759" fill="#3B3B3B"/>
  <path fill="#81BD65" d="M715.346 458h-6.188l11.266-32h7.156l11.281 32h-6.187l-8.547-25.438h-.25L715.346 458Zm.203-12.547h16.875v4.656h-16.875v-4.656Z"/>
  <circle cx="780.016" cy="384.165" r="29.759" fill="#3B3B3B"/>
  <path fill="#D55C57" d="M769.197 400v-32h12.25c2.313 0 4.235.365 5.766 1.094 1.542.718 2.693 1.703 3.453 2.953.771 1.25 1.156 2.667 1.156 4.25 0 1.302-.25 2.417-.75 3.344a6.318 6.318 0 0 1-2.015 2.234 8.535 8.535 0 0 1-2.828 1.234v.313c1.135.062 2.223.411 3.265 1.047 1.052.625 1.912 1.51 2.578 2.656.667 1.146 1 2.531 1 4.156 0 1.656-.401 3.146-1.203 4.469-.802 1.312-2.01 2.349-3.625 3.109-1.614.761-3.646 1.141-6.094 1.141h-12.953Zm5.797-4.844h6.235c2.104 0 3.619-.401 4.546-1.203.938-.812 1.407-1.854 1.407-3.125 0-.948-.235-1.802-.703-2.562-.469-.771-1.136-1.375-2-1.813-.865-.448-1.896-.672-3.094-.672h-6.391v9.375Zm0-13.547h5.735c1 0 1.901-.182 2.703-.547.802-.375 1.432-.901 1.89-1.578.469-.687.703-1.5.703-2.437 0-1.24-.437-2.261-1.312-3.063-.865-.802-2.151-1.203-3.859-1.203h-5.86v8.828Z"/>
  <circle cx="572.634" cy="383.234" r="19.529" fill="#3B3B3B"/>
  <path fill="#F4F4F4" fill-rule="evenodd" d="M537.14 322.787a33.356 33.356 0 0 0 8.525-22.319c0-9.506-3.962-18.085-10.323-24.18-6.804 2.926-9.899 5.068-13.857 10.23 11.41 12.962 14.097 21.071 15.655 36.269Zm-24.954 11.159c9.915 0 18.824-4.31 24.954-11.159-7.317-12.833-12.154-19.661-24.954-29.759-11.939 9.285-16.429 16.555-24.179 29.759 2.315-15.232 4.05-23.648 15.809-36.269-4.057-5.166-7.371-7.266-14.786-10.23-6.362 6.095-10.323 14.674-10.323 24.18 0 18.489 14.989 33.478 33.479 33.478Zm-20.46-59.517c8.37 0 15.21 1.182 20.46 4.649 5.425-3.236 11.159-4.649 20.459-4.649-5.32-3.561-13.577-7.44-20.459-7.44-6.883 0-15.14 3.879-20.46 7.44Z" clip-rule="evenodd"/>
  <rect width="48.358" height="29.759" x="488.006" y="413.923" fill="#3B3B3B" rx="14.88"/>
  <path stroke="#848484" stroke-width="2" d="M498 426.5v11h28v-11m-14 6.5v-13m0 0-4 4m4-4 4 4m43-48.5h27m-27 15h27m-27-8h27M447 393v-12h16.5v12H447Z"/>
  <path stroke="#848484" stroke-width="2" d="M444 387h-4v-12h16.5v3"/>
</svg>
