<svg width="586" height="695" viewBox="0 0 586 695" fill="none" xmlns="http://www.w3.org/2000/svg">
<path d="M458.742 82.5284V75.1101C458.742 64.8676 467.699 56.5644 478.748 56.5644H488.189C499.238 56.5644 508.195 64.8676 508.195 75.1101V82.5284C508.195 92.7709 499.238 101.074 488.189 101.074H478.748C467.699 101.074 458.742 92.7709 458.742 82.5284Z" fill="url(#paint0_linear_54_8)"/>
<path d="M23.325 302.759C-42.8019 442.573 38.4327 613.042 181.875 672.931C132.86 621.281 110.352 562.399 106.352 518.353C102.352 474.307 104.001 457.385 117.292 419.597C71.821 382.053 50.7313 356.956 23.325 302.759Z" fill="url(#paint1_linear_54_8)"/>
<path d="M214.886 684.403C193.291 675.065 177.874 574.917 205.883 518.353C233.892 461.788 288.409 395.487 333.923 331.968C379.437 268.449 382.438 189.166 362.932 136.311C343.426 83.4557 286 33.0702 219.887 0C253.059 70.8524 257.899 102.001 243.895 174.33C229.89 246.658 159.368 335.214 132.86 384.36C126.578 396.006 121.42 407.861 117.292 419.597C104.001 457.385 102.352 474.307 106.352 518.353C110.352 562.399 132.86 621.281 181.875 672.931C192.546 677.387 203.561 681.23 214.886 684.403Z" fill="url(#paint2_linear_54_8)"/>
<path d="M292.409 695C407.446 695 586 578.626 586 425.624C586 272.622 512.978 226.258 463.462 196.121C480.468 249.44 451.958 318.986 451.958 318.986C423.45 389.924 362.932 425.624 318.917 486.361C296.12 516.473 281.405 541.071 272.903 593.463C265.529 638.9 271.845 660.551 292.409 695Z" fill="url(#paint3_linear_54_8)"/>
<path d="M76.8987 174.33C65.853 174.33 56.8987 183.284 56.8987 194.33V198.839C56.8987 209.885 65.853 218.839 76.8987 218.839H86.3519C97.3976 218.839 106.352 209.885 106.352 198.839V194.33C106.352 183.284 97.3976 174.33 86.3519 174.33H76.8987Z" fill="url(#paint4_linear_54_8)"/>
<defs>
<linearGradient id="paint0_linear_54_8" x1="293" y1="0" x2="293" y2="695" gradientUnits="userSpaceOnUse">
<stop stop-color="#FC8344"/>
<stop offset="1" stop-color="#AD2D06"/>
</linearGradient>
<linearGradient id="paint1_linear_54_8" x1="293" y1="0" x2="293" y2="695" gradientUnits="userSpaceOnUse">
<stop stop-color="#FC8344"/>
<stop offset="1" stop-color="#AD2D06"/>
</linearGradient>
<linearGradient id="paint2_linear_54_8" x1="293" y1="0" x2="293" y2="695" gradientUnits="userSpaceOnUse">
<stop stop-color="#FC8344"/>
<stop offset="1" stop-color="#AD2D06"/>
</linearGradient>
<linearGradient id="paint3_linear_54_8" x1="293" y1="0" x2="293" y2="695" gradientUnits="userSpaceOnUse">
<stop stop-color="#FC8344"/>
<stop offset="1" stop-color="#AD2D06"/>
</linearGradient>
<linearGradient id="paint4_linear_54_8" x1="293" y1="0" x2="293" y2="695" gradientUnits="userSpaceOnUse">
<stop stop-color="#FC8344"/>
<stop offset="1" stop-color="#AD2D06"/>
</linearGradient>
</defs>
</svg>
