<svg xmlns="http://www.w3.org/2000/svg" width="1024" height="1024" fill="none" viewBox="0 0 1024 1024">
  <path stroke="#fff" stroke-width="3" d="m261.939 527.061-149-149m190 304.016 113.137-113.138m-14.137 113.138 113.137-113.138m283.001 120.259L684.939 576.061m210.138 113.137L781.939 576.061"/>
  <path fill="#fff" d="M66.87 369v-21.006h5.8c7.403 0 11.104 3.413 11.104 10.239 0 3.243-1.03 5.85-3.09 7.823-2.051 1.963-4.8 2.944-8.248 2.944H66.87Zm2.461-18.779v16.552h3.135c2.754 0 4.897-.737 6.43-2.211 1.534-1.475 2.3-3.565 2.3-6.27 0-5.381-2.861-8.071-8.584-8.071h-3.28Zm27.428 11.367H88.76v-1.89h7.998v1.89Zm8.619-.527V369h-2.461v-21.006h5.771c2.247 0 3.985.547 5.215 1.641 1.241 1.094 1.861 2.636 1.861 4.629 0 1.992-.689 3.623-2.066 4.892-1.367 1.27-3.218 1.905-5.552 1.905h-2.768Zm0-10.84v8.613h2.578c1.699 0 2.993-.386 3.882-1.157.898-.781 1.348-1.88 1.348-3.296 0-2.774-1.641-4.16-4.922-4.16h-2.886ZM130.623 369h-2.402v-2.344h-.059c-1.045 1.797-2.583 2.696-4.614 2.696-1.494 0-2.666-.396-3.516-1.187-.84-.791-1.26-1.841-1.26-3.149 0-2.803 1.651-4.434 4.952-4.893l4.497-.63c0-2.549-1.031-3.823-3.091-3.823-1.807 0-3.438.615-4.893 1.846v-2.461c1.475-.938 3.174-1.407 5.098-1.407 3.525 0 5.288 1.866 5.288 5.596V369Zm-2.402-7.588-3.618.498c-1.114.156-1.954.435-2.52.835-.566.391-.85 1.089-.85 2.095 0 .732.259 1.333.777 1.802.527.459 1.225.688 2.094.688 1.192 0 2.173-.415 2.945-1.245.781-.84 1.172-1.899 1.172-3.179v-1.494ZM149.452 369h-2.402v-2.549h-.059c-1.113 1.934-2.832 2.901-5.156 2.901-1.885 0-3.394-.669-4.526-2.007-1.123-1.348-1.685-3.179-1.685-5.493 0-2.481.625-4.468 1.875-5.962 1.25-1.494 2.915-2.242 4.995-2.242 2.061 0 3.56.811 4.497 2.432h.059v-9.287h2.402V369Zm-2.402-6.782v-2.212c0-1.211-.401-2.236-1.201-3.076-.801-.84-1.817-1.26-3.047-1.26-1.465 0-2.617.537-3.457 1.611-.84 1.074-1.26 2.559-1.26 4.453 0 1.729.4 3.096 1.201 4.102.811.996 1.895 1.494 3.252 1.494 1.338 0 2.422-.483 3.252-1.45.84-.967 1.26-2.188 1.26-3.662ZM257.206 708.15v-2.9c.332.293.728.557 1.187.791.468.234.957.435 1.464.601.518.156 1.036.278 1.553.366a8.61 8.61 0 0 0 1.436.132c1.513 0 2.641-.279 3.383-.835.752-.567 1.128-1.377 1.128-2.432 0-.566-.127-1.06-.38-1.479a4.02 4.02 0 0 0-1.026-1.143 9.36 9.36 0 0 0-1.567-.996 84.28 84.28 0 0 0-1.934-1.011 32.892 32.892 0 0 1-2.051-1.128 8.924 8.924 0 0 1-1.655-1.26 5.388 5.388 0 0 1-1.113-1.552c-.264-.586-.396-1.27-.396-2.051 0-.957.21-1.787.63-2.49a5.376 5.376 0 0 1 1.656-1.758 7.507 7.507 0 0 1 2.329-1.026 10.809 10.809 0 0 1 2.68-.336c2.071 0 3.579.249 4.527.747v2.768c-1.241-.859-2.832-1.289-4.776-1.289-.537 0-1.074.059-1.611.176a4.421 4.421 0 0 0-1.436.542c-.42.254-.761.581-1.025.981-.264.401-.396.889-.396 1.465 0 .537.098 1.001.293 1.392.206.39.503.747.894 1.069.391.322.864.635 1.421.938.566.302 1.216.634 1.948.996.752.371 1.465.761 2.139 1.172.674.41 1.264.864 1.772 1.362.508.498.908 1.05 1.201 1.655.303.606.455 1.299.455 2.08 0 1.035-.206 1.914-.616 2.637a4.916 4.916 0 0 1-1.64 1.743c-.684.449-1.475.772-2.373.967-.899.205-1.846.308-2.842.308-.332 0-.742-.03-1.231-.088a13.826 13.826 0 0 1-1.494-.235 12.335 12.335 0 0 1-1.45-.366c-.449-.156-.811-.327-1.084-.513Zm30.152-6.049h-10.59c.039 1.67.488 2.959 1.347 3.867.86.908 2.041 1.362 3.545 1.362 1.69 0 3.242-.557 4.658-1.67v2.256c-1.318.957-3.061 1.436-5.229 1.436-2.119 0-3.784-.679-4.995-2.037-1.211-1.367-1.817-3.286-1.817-5.756 0-2.334.66-4.234 1.978-5.699 1.328-1.474 2.974-2.212 4.936-2.212 1.963 0 3.482.635 4.556 1.905 1.074 1.269 1.611 3.032 1.611 5.288v1.26Zm-2.461-2.037c-.009-1.386-.346-2.465-1.01-3.237-.655-.771-1.568-1.157-2.74-1.157-1.132 0-2.094.405-2.885 1.216-.791.81-1.28 1.87-1.465 3.178h8.1ZM294.908 709h-2.402v-22.207h2.402V709Zm18.419-6.899h-10.591c.039 1.67.489 2.959 1.348 3.867.859.908 2.041 1.362 3.545 1.362 1.689 0 3.242-.557 4.658-1.67v2.256c-1.318.957-3.061 1.436-5.229 1.436-2.12 0-3.785-.679-4.996-2.037-1.21-1.367-1.816-3.286-1.816-5.756 0-2.334.659-4.234 1.978-5.699 1.328-1.474 2.973-2.212 4.936-2.212s3.482.635 4.556 1.905c1.074 1.269 1.611 3.032 1.611 5.288v1.26Zm-2.461-2.037c-.01-1.386-.346-2.465-1.011-3.237-.654-.771-1.567-1.157-2.739-1.157-1.133 0-2.095.405-2.886 1.216-.791.81-1.279 1.87-1.464 3.178h8.1Zm17.833 8.248c-1.152.693-2.519 1.04-4.101 1.04-2.139 0-3.868-.694-5.186-2.081-1.308-1.396-1.963-3.203-1.963-5.419 0-2.471.708-4.454 2.124-5.948 1.416-1.504 3.306-2.256 5.669-2.256 1.319 0 2.481.245 3.487.733v2.461c-1.114-.781-2.305-1.172-3.575-1.172-1.533 0-2.793.552-3.779 1.655-.977 1.094-1.465 2.534-1.465 4.321 0 1.758.459 3.145 1.377 4.161.928 1.015 2.168 1.523 3.721 1.523 1.308 0 2.539-.434 3.691-1.304v2.286Zm12.091.542c-.566.312-1.313.468-2.241.468-2.627 0-3.941-1.465-3.941-4.394v-8.877h-2.578V694h2.578v-3.662l2.403-.776V694h3.779v2.051h-3.779v8.452c0 1.006.171 1.724.512 2.153.342.43.909.645 1.7.645.605 0 1.128-.166 1.567-.498v2.051Zm22.984-.704v-2.9c.332.293.728.557 1.187.791.469.234.957.435 1.465.601.517.156 1.035.278 1.553.366.517.088.996.132 1.435.132 1.514 0 2.642-.279 3.384-.835.752-.567 1.128-1.377 1.128-2.432 0-.566-.127-1.06-.381-1.479a4.015 4.015 0 0 0-1.025-1.143 9.37 9.37 0 0 0-1.568-.996 86.24 86.24 0 0 0-1.933-1.011 32.608 32.608 0 0 1-2.051-1.128 8.9 8.9 0 0 1-1.656-1.26 5.426 5.426 0 0 1-1.113-1.552c-.263-.586-.395-1.27-.395-2.051 0-.957.21-1.787.63-2.49a5.373 5.373 0 0 1 1.655-1.758 7.518 7.518 0 0 1 2.329-1.026 10.81 10.81 0 0 1 2.681-.336c2.07 0 3.579.249 4.526.747v2.768c-1.24-.859-2.832-1.289-4.775-1.289a7.55 7.55 0 0 0-1.612.176 4.415 4.415 0 0 0-1.435.542c-.42.254-.762.581-1.026.981-.263.401-.395.889-.395 1.465 0 .537.097 1.001.293 1.392.205.39.503.747.893 1.069.391.322.865.635 1.421.938.567.302 1.216.634 1.949.996.751.371 1.464.761 2.138 1.172.674.41 1.265.864 1.773 1.362.507.498.908 1.05 1.201 1.655.303.606.454 1.299.454 2.08 0 1.035-.205 1.914-.615 2.637a4.928 4.928 0 0 1-1.641 1.743c-.684.449-1.475.772-2.373.967-.898.205-1.846.308-2.842.308-.332 0-.742-.03-1.23-.088a13.749 13.749 0 0 1-1.494-.235 12.353 12.353 0 0 1-1.451-.366c-.449-.156-.81-.327-1.084-.513Zm24.088.704c-.566.312-1.313.468-2.241.468-2.627 0-3.94-1.465-3.94-4.394v-8.877h-2.578V694h2.578v-3.662l2.402-.776V694h3.779v2.051h-3.779v8.452c0 1.006.171 1.724.513 2.153.342.43.908.645 1.699.645.605 0 1.128-.166 1.567-.498v2.051Zm15.446.146h-2.403v-2.344h-.058c-1.045 1.797-2.583 2.696-4.615 2.696-1.494 0-2.666-.396-3.515-1.187-.84-.791-1.26-1.841-1.26-3.149 0-2.803 1.65-4.434 4.951-4.893l4.497-.63c0-2.549-1.03-3.823-3.091-3.823-1.806 0-3.437.615-4.892 1.846v-2.461c1.474-.938 3.174-1.407 5.098-1.407 3.525 0 5.288 1.866 5.288 5.596V709Zm-2.403-7.588-3.618.498c-1.113.156-1.953.435-2.519.835-.567.391-.85 1.089-.85 2.095 0 .732.259 1.333.776 1.802.528.459 1.226.688 2.095.688 1.191 0 2.173-.415 2.944-1.245.782-.84 1.172-1.899 1.172-3.179v-1.494Zm16.251-4.98c-.42-.323-1.025-.484-1.816-.484-1.026 0-1.885.484-2.578 1.45-.684.967-1.026 2.286-1.026 3.956V709h-2.402v-15h2.402v3.091h.059c.342-1.055.864-1.875 1.567-2.461.703-.596 1.49-.894 2.359-.894.625 0 1.103.069 1.435.205v2.491Zm11.066 12.422c-.567.312-1.314.468-2.242.468-2.626 0-3.94-1.465-3.94-4.394v-8.877h-2.578V694h2.578v-3.662l2.402-.776V694h3.78v2.051h-3.78v8.452c0 1.006.171 1.724.513 2.153.342.43.908.645 1.699.645.606 0 1.128-.166 1.568-.498v2.051Zm376.933.146v-21.006h5.977c1.816 0 3.257.444 4.321 1.333 1.065.889 1.597 2.046 1.597 3.472 0 1.191-.322 2.226-.967 3.105s-1.533 1.504-2.666 1.875v.059c1.416.166 2.549.703 3.398 1.611.85.899 1.275 2.071 1.275 3.516 0 1.797-.645 3.252-1.934 4.365-1.289 1.113-2.915 1.67-4.878 1.67h-6.123Zm2.461-18.779v6.782h2.52c1.347 0 2.407-.322 3.178-.967.772-.654 1.158-1.572 1.158-2.754 0-2.041-1.343-3.061-4.029-3.061h-2.827Zm0 8.994v7.558h3.34c1.445 0 2.564-.341 3.355-1.025.8-.684 1.201-1.621 1.201-2.812 0-2.481-1.69-3.721-5.069-3.721h-2.827ZM915.331 709h-2.725l-2.226-5.889h-8.906L899.379 709h-2.739l8.056-21.006h2.549L915.331 709Zm-5.757-8.101-3.296-8.95c-.107-.293-.215-.761-.322-1.406h-.059c-.097.596-.209 1.064-.336 1.406l-3.267 8.95h7.28Z"/>
</svg>
