<svg xmlns="http://www.w3.org/2000/svg" width="60" height="60" fill="none" viewBox="0 0 60 60">
  <circle cx="30.016" cy="30.165" r="29.759" fill="#3B3B3B"/>
  <path fill="#D55C57" d="M19.197 46V14h12.25c2.313 0 4.235.365 5.766 1.094 1.542.719 2.693 1.703 3.453 2.953.77 1.25 1.156 2.666 1.156 4.25 0 1.302-.25 2.416-.75 3.344a6.307 6.307 0 0 1-2.015 2.234 8.53 8.53 0 0 1-2.829 1.234v.313c1.136.062 2.224.411 3.266 1.047 1.052.625 1.912 1.51 2.578 2.656.667 1.146 1 2.531 1 4.156 0 1.657-.4 3.146-1.203 4.469-.802 1.313-2.01 2.349-3.625 3.11-1.614.76-3.646 1.14-6.094 1.14H19.197Zm5.797-4.844h6.235c2.104 0 3.62-.4 4.546-1.203.938-.812 1.407-1.854 1.407-3.125 0-.948-.235-1.802-.704-2.562-.468-.771-1.135-1.375-2-1.813-.864-.448-1.895-.672-3.093-.672h-6.39v9.375Zm0-13.547h5.735c1 0 1.9-.182 2.703-.547.802-.375 1.432-.9 1.89-1.578.469-.687.703-1.5.703-2.437 0-1.24-.437-2.26-1.312-3.063-.865-.802-2.151-1.203-3.86-1.203h-5.859v8.828Z"/>
</svg>
