<svg width="27" height="31" viewBox="0 0 27 31" fill="none" xmlns="http://www.w3.org/2000/svg">
<path d="M21.1366 3.68112V3.35023C21.1366 2.89338 21.5493 2.52302 22.0584 2.52302H22.4933C23.0024 2.52302 23.4151 2.89338 23.4151 3.35023V3.68112C23.4151 4.13798 23.0024 4.50834 22.4933 4.50834H22.0584C21.5493 4.50834 21.1366 4.13798 21.1366 3.68112Z" fill="url(#paint0_linear_53_4)"/>
<path d="M1.0747 13.5044C-1.9721 19.7407 1.77079 27.3443 8.37991 30.0156C6.12154 27.7118 5.08448 25.0854 4.90018 23.1208C4.71588 21.1561 4.79185 20.4013 5.40424 18.7158C3.30916 17.0412 2.33745 15.9218 1.0747 13.5044Z" fill="url(#paint1_linear_53_4)"/>
<path d="M9.90089 30.5273C8.9059 30.1108 8.19556 25.6438 9.48608 23.1208C10.7766 20.5977 13.2885 17.6404 15.3855 14.8072C17.4826 11.974 17.6209 8.43762 16.7221 6.08006C15.8234 3.72248 13.1775 1.47507 10.1313 0C11.6597 3.16032 11.8827 4.54968 11.2375 7.77587C10.5922 11.002 7.34289 14.952 6.12154 17.1441C5.83209 17.6636 5.59444 18.1924 5.40424 18.7158C4.79185 20.4013 4.71588 21.1561 4.90018 23.1208C5.08448 25.0854 6.12154 27.7118 8.37991 30.0156C8.87157 30.2144 9.37909 30.3858 9.90089 30.5273Z" fill="url(#paint2_linear_53_4)"/>
<path d="M13.4728 31C18.7731 31 27 25.8092 27 18.9847C27 12.1601 23.6355 10.0921 21.3541 8.74784C22.1376 11.1261 20.824 14.2282 20.824 14.2282C19.5105 17.3923 16.7221 18.9847 14.6941 21.6938C13.6438 23.0369 12.9658 24.1341 12.574 26.471C12.2343 28.4977 12.5253 29.4634 13.4728 31Z" fill="url(#paint3_linear_53_4)"/>
<path d="M3.54311 7.77587C3.03418 7.77587 2.62161 8.17526 2.62161 8.66796V8.86908C2.62161 9.36178 3.03418 9.76116 3.54311 9.76116H3.97867C4.4876 9.76116 4.90018 9.36178 4.90018 8.86908V8.66796C4.90018 8.17526 4.4876 7.77587 3.97867 7.77587H3.54311Z" fill="url(#paint4_linear_53_4)"/>
<defs>
<linearGradient id="paint0_linear_53_4" x1="18.8639" y1="0" x2="18.8639" y2="31.48" gradientUnits="userSpaceOnUse">
<stop stop-color="#FC8344"/>
<stop offset="1" stop-color="#AD2D06"/>
</linearGradient>
<linearGradient id="paint1_linear_53_4" x1="4.21353" y1="7.77587" x2="4.21353" y2="9.7919" gradientUnits="userSpaceOnUse">
<stop stop-color="#FC8344"/>
<stop offset="1" stop-color="#AD2D06"/>
</linearGradient>
<linearGradient id="paint2_linear_53_4" x1="21.1339" y1="0" x2="21.1339" y2="31.48" gradientUnits="userSpaceOnUse">
<stop stop-color="#FC8344"/>
<stop offset="1" stop-color="#AD2D06"/>
</linearGradient>
<linearGradient id="paint3_linear_53_4" x1="4.21353" y1="7.77587" x2="4.21353" y2="9.7919" gradientUnits="userSpaceOnUse">
<stop stop-color="#FC8344"/>
<stop offset="1" stop-color="#AD2D06"/>
</linearGradient>
<linearGradient id="paint4_linear_53_4" x1="4.21353" y1="7.77587" x2="4.21353" y2="9.7919" gradientUnits="userSpaceOnUse">
<stop stop-color="#FC8344"/>
<stop offset="1" stop-color="#AD2D06"/>
</linearGradient>
</defs>
</svg>
