<svg width="1024" height="1024" viewBox="0 0 1024 1024" fill="none" xmlns="http://www.w3.org/2000/svg">
<rect x="24.5" y="363.5" width="975" height="296" rx="19.5" fill="#585858" stroke="black"/>
<rect x="114" y="457" width="40" height="40" rx="6" fill="#D9D9D9"/>
<rect x="36" y="457" width="66" height="40" rx="6" fill="#D9D9D9"/>
<rect x="36" y="507" width="72" height="40" rx="6" fill="#D9D9D9"/>
<rect x="36" y="557" width="86" height="40" rx="6" fill="#D9D9D9"/>
<rect x="290" y="607" width="248" height="40" rx="6" fill="#D9D9D9"/>
<rect x="166" y="457" width="40" height="40" rx="6" fill="#D9D9D9"/>
<rect x="218" y="457" width="40" height="40" rx="6" fill="#D9D9D9"/>
<rect x="270" y="457" width="40" height="40" rx="6" fill="#D9D9D9"/>
<rect x="322" y="457" width="40" height="40" rx="6" fill="#D9D9D9"/>
<rect x="374" y="457" width="40" height="40" rx="6" fill="#D9D9D9"/>
<rect x="426" y="457" width="40" height="40" rx="6" fill="#D9D9D9"/>
<rect x="478" y="457" width="40" height="40" rx="6" fill="#D9D9D9"/>
<rect x="530" y="457" width="40" height="40" rx="6" fill="#D9D9D9"/>
<rect x="582" y="457" width="40" height="40" rx="6" fill="#D9D9D9"/>
<rect x="120" y="507" width="40" height="40" rx="6" fill="#D9D9D9"/>
<rect x="172" y="507" width="40" height="40" rx="6" fill="#D9D9D9"/>
<rect x="224" y="507" width="40" height="40" rx="6" fill="#D9D9D9"/>
<rect x="276" y="507" width="40" height="40" rx="6" fill="#D9D9D9"/>
<rect x="328" y="507" width="40" height="40" rx="6" fill="#D9D9D9"/>
<rect x="380" y="507" width="40" height="40" rx="6" fill="#D9D9D9"/>
<rect x="432" y="507" width="40" height="40" rx="6" fill="#D9D9D9"/>
<rect x="484" y="507" width="40" height="40" rx="6" fill="#D9D9D9"/>
<rect x="536" y="507" width="40" height="40" rx="6" fill="#D9D9D9"/>
<rect x="588" y="507" width="40" height="40" rx="6" fill="#D9D9D9"/>
<rect x="134" y="557" width="40" height="40" rx="6" fill="#D9D9D9"/>
<rect x="186" y="557" width="40" height="40" rx="6" fill="#D9D9D9"/>
<rect x="118" y="607" width="40" height="40" rx="6" fill="#D9D9D9"/>
<rect x="36" y="607" width="70" height="40" rx="6" fill="#D9D9D9"/>
<rect x="170" y="607" width="40" height="40" rx="6" fill="#D9D9D9"/>
<rect x="238" y="557" width="40" height="40" rx="6" fill="#D9D9D9"/>
<rect x="290" y="557" width="40" height="40" rx="6" fill="#D9D9D9"/>
<rect x="342" y="557" width="40" height="40" rx="6" fill="#D9D9D9"/>
<rect x="394" y="557" width="40" height="40" rx="6" fill="#D9D9D9"/>
<rect x="290" y="557" width="40" height="40" rx="6" fill="#D9D9D9"/>
<rect x="342" y="557" width="40" height="40" rx="6" fill="#D9D9D9"/>
<rect x="394" y="557" width="40" height="40" rx="6" fill="#D9D9D9"/>
<rect x="446" y="557" width="40" height="40" rx="6" fill="#D9D9D9"/>
<rect x="498" y="557" width="40" height="40" rx="6" fill="#D9D9D9"/>
<rect x="550" y="557" width="40" height="40" rx="6" fill="#D9D9D9"/>
<rect x="602" y="557" width="40" height="40" rx="6" fill="#D9D9D9"/>
<rect x="738" y="557" width="40" height="40" rx="6" fill="#D9D9D9"/>
<rect x="790" y="557" width="40" height="40" rx="6" fill="#D9D9D9"/>
<rect x="842" y="557" width="40" height="40" rx="6" fill="#D9D9D9"/>
<rect x="894" y="557" width="40" height="40" rx="6" fill="#D9D9D9"/>
<rect x="790" y="507" width="40" height="40" rx="6" fill="#D9D9D9"/>
<rect x="842" y="507" width="40" height="40" rx="6" fill="#D9D9D9"/>
<rect x="894" y="507" width="40" height="40" rx="6" fill="#D9D9D9"/>
<rect x="790" y="457" width="40" height="40" rx="6" fill="#D9D9D9"/>
<rect x="842" y="457" width="40" height="40" rx="6" fill="#D9D9D9"/>
<rect x="894" y="457" width="40" height="40" rx="6" fill="#D9D9D9"/>
<rect x="790" y="407" width="40" height="40" rx="6" fill="#D9D9D9"/>
<rect x="842" y="407" width="40" height="40" rx="6" fill="#D9D9D9"/>
<rect x="894" y="407" width="40" height="40" rx="6" fill="#D9D9D9"/>
<rect x="946" y="407" width="40" height="40" rx="6" fill="#D9D9D9"/>
<rect x="946" y="457" width="40" height="90" rx="6" fill="#D9D9D9"/>
<rect x="946" y="557" width="40" height="90" rx="6" fill="#D9D9D9"/>
<rect x="738" y="607" width="40" height="40" rx="6" fill="#D9D9D9"/>
<rect x="790" y="607" width="40" height="40" rx="6" fill="#D9D9D9"/>
<rect x="842" y="607" width="40" height="40" rx="6" fill="#D9D9D9"/>
<rect x="894" y="607" width="40" height="40" rx="6" fill="#D9D9D9"/>
<rect x="550" y="607" width="56" height="40" rx="6" fill="#D9D9D9"/>
<rect x="222" y="607" width="56" height="40" rx="6" fill="#D9D9D9"/>
<rect x="618" y="607" width="56" height="40" rx="6" fill="#D9D9D9"/>
<rect x="686" y="607" width="40" height="40" rx="6" fill="#D9D9D9"/>
<rect x="654" y="557" width="72" height="40" rx="6" fill="#D9D9D9"/>
<rect x="640" y="507" width="40" height="40" rx="6" fill="#D9D9D9"/>
<rect x="634" y="457" width="40" height="40" rx="6" fill="#D9D9D9"/>
<rect x="686" y="457" width="40" height="40" rx="6" fill="#D9D9D9"/>
<path d="M738 463C738 459.686 740.686 457 744 457H772C775.314 457 778 459.686 778 463V541C778 544.314 775.314 547 772 547H738V507V463Z" fill="#D9D9D9"/>
<path d="M738 547V507H698C694.686 507 692 509.686 692 513V527V541C692 544.314 694.686 547 698 547H738Z" fill="#D9D9D9"/>
<rect x="88" y="407" width="40" height="40" rx="6" fill="#D9D9D9"/>
<rect x="36" y="407" width="40" height="40" rx="6" fill="#D9D9D9"/>
<rect x="36" y="374" width="45" height="24" rx="6" fill="#D9D9D9"/>
<rect x="86" y="374" width="45" height="24" rx="6" fill="#D9D9D9"/>
<rect x="136" y="374" width="45" height="24" rx="6" fill="#D9D9D9"/>
<rect x="186" y="374" width="45" height="24" rx="6" fill="#D9D9D9"/>
<rect x="236" y="374" width="45" height="24" rx="6" fill="#D9D9D9"/>
<rect x="286" y="374" width="45" height="24" rx="6" fill="#D9D9D9"/>
<rect x="336" y="374" width="45" height="24" rx="6" fill="#D9D9D9"/>
<rect x="386" y="374" width="45" height="24" rx="6" fill="#D9D9D9"/>
<rect x="436" y="374" width="45" height="24" rx="6" fill="#D9D9D9"/>
<rect x="486" y="374" width="45" height="24" rx="6" fill="#D9D9D9"/>
<rect x="536" y="374" width="45" height="24" rx="6" fill="#D9D9D9"/>
<rect x="586" y="374" width="45" height="24" rx="6" fill="#D9D9D9"/>
<rect x="636" y="374" width="45" height="24" rx="6" fill="#D9D9D9"/>
<rect x="686" y="374" width="45" height="24" rx="6" fill="#D9D9D9"/>
<rect x="736" y="374" width="45" height="24" rx="6" fill="#D9D9D9"/>
<rect x="788" y="374" width="45" height="24" rx="6" fill="#D9D9D9"/>
<rect x="839" y="374" width="45" height="24" rx="6" fill="#D9D9D9"/>
<rect x="890" y="374" width="45" height="24" rx="6" fill="#D9D9D9"/>
<rect x="941" y="374" width="45" height="24" rx="6" fill="#D9D9D9"/>
<rect x="140" y="407" width="40" height="40" rx="6" fill="#D9D9D9"/>
<rect x="192" y="407" width="40" height="40" rx="6" fill="#D9D9D9"/>
<rect x="244" y="407" width="40" height="40" rx="6" fill="#D9D9D9"/>
<rect x="296" y="407" width="40" height="40" rx="6" fill="#D9D9D9"/>
<rect x="348" y="407" width="40" height="40" rx="6" fill="#D9D9D9"/>
<rect x="400" y="407" width="40" height="40" rx="6" fill="#D9D9D9"/>
<rect x="452" y="407" width="40" height="40" rx="6" fill="#D9D9D9"/>
<rect x="504" y="407" width="40" height="40" rx="6" fill="#D9D9D9"/>
<rect x="556" y="407" width="40" height="40" rx="6" fill="#D9D9D9"/>
<rect x="608" y="407" width="40" height="40" rx="6" fill="#D9D9D9"/>
<rect x="660" y="407" width="40" height="40" rx="6" fill="#D9D9D9"/>
<rect x="712" y="407" width="70" height="40" rx="6" fill="#D9D9D9"/>
</svg>
