<svg xmlns="http://www.w3.org/2000/svg" width="1024" height="1024" fill="none" viewBox="0 0 1024 1024">
  <path fill="#4C5055" d="M212.458 278.147c-6.635 9.757-11.373 16.052-12.952 21.709l194.83-36.668-1.277-12.952c-15.53-6.341-23.715-11.493-39.768-16.236-62.937 1.459-108.909 9.304-140.833 44.147Zm599.634.182c6.635 9.757 11.373 16.052 12.952 21.709L630.213 263.37l1.277-12.952c15.531-6.34 23.715-11.493 39.769-16.236 62.937 1.46 108.908 9.304 140.833 44.147Z"/>
  <path fill="#404246" d="m383.571 252.425 130.619-1.459 126.239 1.459c76.854 2.282 120.219 8.757 166.008 36.668 8.024 4.891 15.052 7.96 22.985 13.317l14.959 19.52c12.541 33.826 23.351 82.821 23.533 89.206 12.04 51.991 41.046 210.337 43.965 273.821 2.551 68.045-35.575 103.8-75.707 105.077-16.764-.988-24.907-4.246-37.762-13.682-22.623-14.958-68.777-120.948-73.7-125.873-5.814-8.367-10.85-14.988-17.698-19.368-3.967-2.538-8.542-4.323-14.229-5.26H331.217c-5.687.937-10.262 2.722-14.229 5.26-6.848 4.38-11.884 11.001-17.698 19.368-4.923 4.925-51.077 110.915-73.7 125.873-12.855 9.436-20.998 12.694-37.762 13.682-40.132-1.277-78.258-37.032-75.707-105.077 2.919-63.484 31.925-221.83 43.965-273.821.182-6.385 10.992-55.38 23.533-89.206l14.959-19.52c7.933-5.357 14.961-8.426 22.985-13.317 45.789-27.911 89.154-34.386 166.008-36.668Z"/>
  <path fill="#535559" d="M911.879 684.957c-2.919-63.485-31.925-221.83-43.965-273.822-55.604 89.759-89.826 138.462-160.902 219.975 6.848 4.38 11.884 11.002 17.698 19.368 4.923 4.926 51.077 110.915 73.7 125.874 12.855 9.435 20.998 12.694 37.762 13.682 40.131-1.277 78.258-37.033 75.707-105.077Zm-799.758 0c2.919-63.485 31.925-221.83 43.965-273.822 56.124 92.284 91.463 140.344 160.902 219.975-6.848 4.38-11.884 11.002-17.698 19.368-4.923 4.926-51.077 110.915-73.7 125.874-12.855 9.435-20.998 12.694-37.762 13.682-40.132-1.277-78.258-37.033-75.707-105.077Z"/>
  <circle cx="660.861" cy="401.285" r="28.094" fill="#4C5055"/>
  <circle cx="723.98" cy="455.283" r="28.094" fill="#4C5055"/>
  <circle cx="723.98" cy="346.922" r="28.094" fill="#4C5055"/>
  <circle cx="786.735" cy="401.285" r="28.094" fill="#4C5055"/>
  <circle cx="413.126" cy="341.084" r="16.418" fill="#4C5055"/>
  <circle cx="611.606" cy="341.084" r="16.418" fill="#4C5055"/>
  <circle cx="568.918" cy="401.649" r="21.891" fill="#87ABEF"/>
  <circle cx="568.918" cy="401.649" r="16.418" fill="#4C5055"/>
  <path fill="#393939" fill-rule="evenodd" d="m569 388-12 10h3v13h18v-13h3l-12-10Zm4 18v-8h-8v8h8Z" clip-rule="evenodd"/>
  <circle cx="617.808" cy="511.105" r="61.66" fill="#242A2F"/>
  <circle cx="617.808" cy="511.105" r="44.877" fill="#53595E"/>
  <circle cx="617.991" cy="510.922" r="29.654" fill="#53595E" stroke="#393939" stroke-width="6"/>
  <rect width="31.377" height="31.377" x="439.396" y="385.961" fill="#4C5055" rx="4"/>
  <circle cx="455" cy="402" r="12" fill="#393939"/>
  <path fill="#38393D" d="M362.312 490.352H333.21a4 4 0 0 0-4 4v33.023a4 4 0 0 0 4 4h29.102a4 4 0 0 1 4 4v32.295a4 4 0 0 0 4 4h35.406a4 4 0 0 0 4-4v-32.295a4 4 0 0 1 4-4h30.799a4 4 0 0 0 4-4v-33.023a4 4 0 0 0-4-4h-30.799a4 4 0 0 1-4-4v-30.353a4 4 0 0 0-4-4h-35.406a4 4 0 0 0-4 4v30.353a4 4 0 0 1-4 4Z"/>
  <path fill="#BDBDBD" d="m382 469 6-10 6 10h-12Zm12 85-6 10-6-10h12Zm-47-38-10-6 10-6v12Zm85-12 10 6-10 6v-12Z"/>
  <circle cx="291.266" cy="402.379" r="61.66" fill="#242A2F"/>
  <circle cx="291.266" cy="402.379" r="44.877" fill="#53595E"/>
  <circle cx="291.448" cy="402.197" r="29.654" fill="#53595E" stroke="#393939" stroke-width="6"/>
  <path fill="#393939" d="M402 339h22v4h-22zm199 0h21v4h-21z"/>
  <path fill="#393939" d="M610 352v-22h4v22z"/>
  <path fill="#D5D5D5" d="M780.086 412h-2.088l7.937-21.818h2.13L796.002 412h-2.088l-6.839-19.229h-.15L780.086 412Zm1.502-8.363h10.824v1.79h-10.824v-1.79ZM717.186 466v-21.818h7.361c1.421 0 2.603.248 3.548.746.952.497 1.665 1.175 2.141 2.034.476.86.714 1.836.714 2.93 0 .909-.153 1.687-.458 2.333a4.14 4.14 0 0 1-1.247 1.566 5.122 5.122 0 0 1-1.757.863v.171c.703.049 1.385.298 2.045.745.661.441 1.204 1.059 1.63 1.854.426.795.639 1.747.639 2.855 0 1.101-.245 2.085-.735 2.951-.49.859-1.243 1.538-2.258 2.035-1.009.49-2.294.735-3.857.735h-7.766Zm1.992-1.79h5.774c1.683 0 2.926-.373 3.729-1.118.81-.746 1.214-1.684 1.214-2.813a4.3 4.3 0 0 0-.607-2.258 4.28 4.28 0 0 0-1.694-1.62c-.724-.397-1.577-.596-2.557-.596h-5.859v8.405Zm0-10.174h5.55c.86 0 1.613-.177 2.259-.532a3.871 3.871 0 0 0 1.513-1.471c.362-.625.543-1.338.543-2.141 0-1.158-.376-2.099-1.129-2.823-.753-.732-1.875-1.097-3.367-1.097h-5.369v8.064Zm-67.038-62.854h2.301l6.467 10.355h.192l6.466-10.355h2.302l-7.873 12.368V413h-1.982v-9.45l-7.873-12.368Zm66.253-55 6.04 9.471h.139l6.04-9.471h2.355l-7.021 10.909L732.967 358h-2.355l-6.04-9.364h-.139l-6.04 9.364h-2.354l7.127-10.909-7.127-10.909h2.354Z"/>
</svg>
