<svg xmlns="http://www.w3.org/2000/svg" width="60" height="61" fill="none" viewBox="0 0 60 61">
  <path fill="#0050AB" d="M30.348.29C13.208.29-.188 13.145.1 31.293c.253 15.88 13.108 29.239 30.248 29.239 16.131 0 29.238-13.36 29.49-29.24C60.092 15.414 47.489.29 30.349.29Z"/>
  <path fill="#00418B" d="M25.459 44c-.288 0-.444-.132-.468-.396l-.684-3.78c0-.12-.072-.18-.216-.18h-5.256c-.144 0-.216.06-.216.18l-.684 3.78c-.024.264-.18.396-.468.396h-3.276c-.336 0-.468-.156-.396-.468l5.328-24.336c.048-.264.204-.396.468-.396h3.816c.264 0 .42.132.468.396l5.328 24.336v.144c0 .216-.132.324-.396.324h-3.348Zm-6.192-7.812c-.024.12.036.18.18.18h3.996c.144 0 .204-.06.18-.18l-2.088-11.376c-.024-.072-.06-.108-.108-.108s-.084.036-.108.108l-2.052 11.376Z"/>
</svg>
