<svg xmlns="http://www.w3.org/2000/svg" width="61" height="61" fill="none" viewBox="0 0 61 61">
  <path fill="#009365" d="M30.895.584C13.755.584.358 13.44.646 31.588.9 47.468 13.754 60.827 30.895 60.827c16.131 0 29.238-13.36 29.49-29.24C60.638 15.709 48.035.585 30.895.585Z"/>
  <path fill="#007E57" d="M29.846 37.088c0 2.208-.648 3.912-1.945 5.112-1.271 1.2-2.94 1.8-5.003 1.8H16.56a.527.527 0 0 1-.323-.108.527.527 0 0 1-.108-.324V19.232a.39.39 0 0 1 .108-.288.448.448 0 0 1 .323-.144h5.689c2.28 0 4.067.576 5.363 1.728 1.297 1.152 1.945 2.832 1.945 5.04 0 2.472-.877 4.236-2.628 5.292-.12.072-.145.144-.072.216a6.261 6.261 0 0 1 2.195 2.412c.528 1.008.793 2.208.793 3.6ZM20.486 22.4c-.12 0-.18.06-.18.18v6.696c0 .12.06.18.18.18h1.835c.984 0 1.752-.3 2.304-.9.552-.6.828-1.452.828-2.556 0-1.152-.276-2.04-.828-2.664-.552-.624-1.32-.936-2.303-.936h-1.837Zm2.087 17.964c.96 0 1.716-.336 2.268-1.008.552-.672.828-1.62.828-2.844 0-1.248-.276-2.22-.828-2.916-.552-.72-1.308-1.08-2.268-1.08h-2.088c-.12 0-.18.06-.18.18v7.488c0 .12.06.18.18.18h2.088Z"/>
</svg>
