<svg width="128" height="128" viewBox="0 0 128 128" fill="none" xmlns="http://www.w3.org/2000/svg">
<g clip-path="url(#clip0_1168_2)">
<mask id="path-1-inside-1_1168_2" fill="white">
<path fill-rule="evenodd" clip-rule="evenodd" d="M4.30689 10C4.30689 4.47715 8.78404 0 14.3069 0H113.67C119.192 0 123.67 4.47715 123.67 10V55.5603C123.67 55.9829 123.643 56.3997 123.592 56.8089C124.856 57.243 126.726 59.2687 126.726 60.9264V65.1282L125.839 65.5457C125.888 65.6415 125.947 65.733 126.014 65.8185C126.161 66.0048 126.267 66.2202 126.325 66.4504L126.485 67.0905C126.579 67.467 126.626 67.8536 126.626 68.2417V120C126.626 124.418 123.045 128 118.626 128H9.03885C4.62057 128 1.03885 124.418 1.03885 120V68.0681C1.03885 67.795 1.06167 67.5214 1.12453 67.2557C1.16411 67.0883 1.20893 66.9351 1.2755 66.7751C1.45554 66.3427 1.6327 65.9009 1.65821 65.4362L1 65.1282V60.9264C1 59.1514 3.14405 56.9546 4.39202 56.7414C4.33585 56.3129 4.30689 55.876 4.30689 55.4325V10ZM12.01 38.5165C12.01 38.7314 11.8359 38.9056 11.621 38.9056C11.4061 38.9056 11.2319 38.7314 11.2319 38.5165C11.2319 38.3016 11.4061 38.1274 11.621 38.1274C11.8359 38.1274 12.01 38.3016 12.01 38.5165ZM14.5001 38.9054C14.7149 38.9054 14.8891 38.7313 14.8891 38.5164C14.8891 38.3015 14.7149 38.1273 14.5001 38.1273C14.2852 38.1273 14.111 38.3015 14.111 38.5164C14.111 38.7313 14.2852 38.9054 14.5001 38.9054ZM17.7687 38.5164C17.7687 38.7313 17.5945 38.9054 17.3796 38.9054C17.1647 38.9054 16.9906 38.7313 16.9906 38.5164C16.9906 38.3015 17.1647 38.1273 17.3796 38.1273C17.5945 38.1273 17.7687 38.3015 17.7687 38.5164ZM20.2587 38.9054C20.4736 38.9054 20.6478 38.7313 20.6478 38.5164C20.6478 38.3015 20.4736 38.1273 20.2587 38.1273C20.0438 38.1273 19.8696 38.3015 19.8696 38.5164C19.8696 38.7313 20.0438 38.9054 20.2587 38.9054ZM23.5263 38.5164C23.5263 38.7313 23.3522 38.9054 23.1373 38.9054C22.9224 38.9054 22.7482 38.7313 22.7482 38.5164C22.7482 38.3015 22.9224 38.1273 23.1373 38.1273C23.3522 38.1273 23.5263 38.3015 23.5263 38.5164ZM26.0164 38.9054C26.2312 38.9054 26.4054 38.7313 26.4054 38.5164C26.4054 38.3015 26.2312 38.1273 26.0164 38.1273C25.8015 38.1273 25.6273 38.3015 25.6273 38.5164C25.6273 38.7313 25.8015 38.9054 26.0164 38.9054ZM29.2845 38.5164C29.2845 38.7313 29.1103 38.9054 28.8954 38.9054C28.6806 38.9054 28.5064 38.7313 28.5064 38.5164C28.5064 38.3015 28.6806 38.1273 28.8954 38.1273C29.1103 38.1273 29.2845 38.3015 29.2845 38.5164ZM11.621 42.8742C11.8359 42.8742 12.01 42.7 12.01 42.4851C12.01 42.2703 11.8359 42.0961 11.621 42.0961C11.4061 42.0961 11.2319 42.2703 11.2319 42.4851C11.2319 42.7 11.4061 42.8742 11.621 42.8742ZM14.8891 42.4851C14.8891 42.7 14.7149 42.8742 14.5001 42.8742C14.2852 42.8742 14.111 42.7 14.111 42.4851C14.111 42.2703 14.2852 42.0961 14.5001 42.0961C14.7149 42.0961 14.8891 42.2703 14.8891 42.4851ZM17.3796 42.8742C17.5945 42.8742 17.7687 42.7 17.7687 42.4851C17.7687 42.2703 17.5945 42.0961 17.3796 42.0961C17.1647 42.0961 16.9906 42.2703 16.9906 42.4851C16.9906 42.7 17.1647 42.8742 17.3796 42.8742ZM20.6478 42.4851C20.6478 42.7 20.4736 42.8742 20.2587 42.8742C20.0438 42.8742 19.8696 42.7 19.8696 42.4851C19.8696 42.2703 20.0438 42.0961 20.2587 42.0961C20.4736 42.0961 20.6478 42.2703 20.6478 42.4851ZM23.1373 42.8742C23.3522 42.8742 23.5263 42.7 23.5263 42.4851C23.5263 42.2703 23.3522 42.0961 23.1373 42.0961C22.9224 42.0961 22.7482 42.2703 22.7482 42.4851C22.7482 42.7 22.9224 42.8742 23.1373 42.8742ZM26.4054 42.4851C26.4054 42.7 26.2312 42.8742 26.0164 42.8742C25.8015 42.8742 25.6273 42.7 25.6273 42.4851C25.6273 42.2703 25.8015 42.0961 26.0164 42.0961C26.2312 42.0961 26.4054 42.2703 26.4054 42.4851ZM28.8954 42.8742C29.1103 42.8742 29.2845 42.7 29.2845 42.4851C29.2845 42.2703 29.1103 42.0961 28.8954 42.0961C28.6806 42.0961 28.5064 42.2703 28.5064 42.4851C28.5064 42.7 28.6806 42.8742 28.8954 42.8742ZM12.01 46.4534C12.01 46.6683 11.8359 46.8425 11.621 46.8425C11.4061 46.8425 11.2319 46.6683 11.2319 46.4534C11.2319 46.2385 11.4061 46.0644 11.621 46.0644C11.8359 46.0644 12.01 46.2385 12.01 46.4534ZM14.5001 46.8425C14.7149 46.8425 14.8891 46.6683 14.8891 46.4534C14.8891 46.2385 14.7149 46.0644 14.5001 46.0644C14.2852 46.0644 14.111 46.2385 14.111 46.4534C14.111 46.6683 14.2852 46.8425 14.5001 46.8425ZM17.7687 46.4534C17.7687 46.6683 17.5945 46.8425 17.3796 46.8425C17.1647 46.8425 16.9906 46.6683 16.9906 46.4534C16.9906 46.2385 17.1647 46.0644 17.3796 46.0644C17.5945 46.0644 17.7687 46.2385 17.7687 46.4534ZM20.2587 46.8425C20.4736 46.8425 20.6478 46.6683 20.6478 46.4534C20.6478 46.2385 20.4736 46.0644 20.2587 46.0644C20.0438 46.0644 19.8696 46.2385 19.8696 46.4534C19.8696 46.6683 20.0438 46.8425 20.2587 46.8425ZM23.5263 46.4534C23.5263 46.6683 23.3522 46.8425 23.1373 46.8425C22.9224 46.8425 22.7482 46.6683 22.7482 46.4534C22.7482 46.2385 22.9224 46.0644 23.1373 46.0644C23.3522 46.0644 23.5263 46.2385 23.5263 46.4534ZM26.0164 46.8425C26.2312 46.8425 26.4054 46.6683 26.4054 46.4534C26.4054 46.2385 26.2312 46.0644 26.0164 46.0644C25.8015 46.0644 25.6273 46.2385 25.6273 46.4534C25.6273 46.6683 25.8015 46.8425 26.0164 46.8425ZM29.2845 46.4534C29.2845 46.6683 29.1103 46.8425 28.8954 46.8425C28.6806 46.8425 28.5064 46.6683 28.5064 46.4534C28.5064 46.2385 28.6806 46.0644 28.8954 46.0644C29.1103 46.0644 29.2845 46.2385 29.2845 46.4534ZM11.621 50.8112C11.8359 50.8112 12.01 50.637 12.01 50.4222C12.01 50.2073 11.8359 50.0331 11.621 50.0331C11.4061 50.0331 11.2319 50.2073 11.2319 50.4222C11.2319 50.637 11.4061 50.8112 11.621 50.8112ZM14.8891 50.4222C14.8891 50.637 14.7149 50.8112 14.5001 50.8112C14.2852 50.8112 14.111 50.637 14.111 50.4222C14.111 50.2073 14.2852 50.0331 14.5001 50.0331C14.7149 50.0331 14.8891 50.2073 14.8891 50.4222ZM17.3796 50.8112C17.5945 50.8112 17.7687 50.637 17.7687 50.4222C17.7687 50.2073 17.5945 50.0331 17.3796 50.0331C17.1647 50.0331 16.9906 50.2073 16.9906 50.4222C16.9906 50.637 17.1647 50.8112 17.3796 50.8112ZM20.6478 50.4222C20.6478 50.637 20.4736 50.8112 20.2587 50.8112C20.0438 50.8112 19.8696 50.637 19.8696 50.4222C19.8696 50.2073 20.0438 50.0331 20.2587 50.0331C20.4736 50.0331 20.6478 50.2073 20.6478 50.4222ZM23.1373 50.8112C23.3522 50.8112 23.5263 50.637 23.5263 50.4222C23.5263 50.2073 23.3522 50.0331 23.1373 50.0331C22.9224 50.0331 22.7482 50.2073 22.7482 50.4222C22.7482 50.637 22.9224 50.8112 23.1373 50.8112ZM26.4054 50.4222C26.4054 50.637 26.2312 50.8112 26.0164 50.8112C25.8015 50.8112 25.6273 50.637 25.6273 50.4222C25.6273 50.2073 25.8015 50.0331 26.0164 50.0331C26.2312 50.0331 26.4054 50.2073 26.4054 50.4222ZM28.8954 50.8112C29.1103 50.8112 29.2845 50.637 29.2845 50.4222C29.2845 50.2073 29.1103 50.0331 28.8954 50.0331C28.6806 50.0331 28.5064 50.2073 28.5064 50.4222C28.5064 50.637 28.6806 50.8112 28.8954 50.8112ZM99.3924 38.5165C99.3924 38.7314 99.2182 38.9056 99.0033 38.9056C98.7884 38.9056 98.6143 38.7314 98.6143 38.5165C98.6143 38.3016 98.7884 38.1274 99.0033 38.1274C99.2182 38.1274 99.3924 38.3016 99.3924 38.5165ZM101.882 38.9054C102.097 38.9054 102.271 38.7313 102.271 38.5164C102.271 38.3015 102.097 38.1273 101.882 38.1273C101.668 38.1273 101.493 38.3015 101.493 38.5164C101.493 38.7313 101.668 38.9054 101.882 38.9054ZM105.151 38.5164C105.151 38.7313 104.976 38.9054 104.762 38.9054C104.547 38.9054 104.372 38.7313 104.372 38.5164C104.372 38.3015 104.547 38.1273 104.762 38.1273C104.976 38.1273 105.151 38.3015 105.151 38.5164ZM107.641 38.9054C107.855 38.9054 108.03 38.7313 108.03 38.5164C108.03 38.3015 107.855 38.1273 107.641 38.1273C107.426 38.1273 107.252 38.3015 107.252 38.5164C107.252 38.7313 107.426 38.9054 107.641 38.9054ZM110.908 38.5164C110.908 38.7313 110.734 38.9054 110.519 38.9054C110.304 38.9054 110.13 38.7313 110.13 38.5164C110.13 38.3015 110.304 38.1273 110.519 38.1273C110.734 38.1273 110.908 38.3015 110.908 38.5164ZM113.398 38.9054C113.613 38.9054 113.787 38.7313 113.787 38.5164C113.787 38.3015 113.613 38.1273 113.398 38.1273C113.183 38.1273 113.009 38.3015 113.009 38.5164C113.009 38.7313 113.183 38.9054 113.398 38.9054ZM116.667 38.5164C116.667 38.7313 116.493 38.9054 116.278 38.9054C116.063 38.9054 115.889 38.7313 115.889 38.5164C115.889 38.3015 116.063 38.1273 116.278 38.1273C116.493 38.1273 116.667 38.3015 116.667 38.5164ZM99.0034 42.8742C99.2182 42.8742 99.3924 42.7 99.3924 42.4851C99.3924 42.2703 99.2182 42.0961 99.0034 42.0961C98.7885 42.0961 98.6143 42.2703 98.6143 42.4851C98.6143 42.7 98.7885 42.8742 99.0034 42.8742ZM102.271 42.4851C102.271 42.7 102.097 42.8742 101.882 42.8742C101.668 42.8742 101.493 42.7 101.493 42.4851C101.493 42.2703 101.668 42.0961 101.882 42.0961C102.097 42.0961 102.271 42.2703 102.271 42.4851ZM104.762 42.8742C104.976 42.8742 105.151 42.7 105.151 42.4851C105.151 42.2703 104.976 42.0961 104.762 42.0961C104.547 42.0961 104.372 42.2703 104.372 42.4851C104.372 42.7 104.547 42.8742 104.762 42.8742ZM108.03 42.4851C108.03 42.7 107.855 42.8742 107.641 42.8742C107.426 42.8742 107.252 42.7 107.252 42.4851C107.252 42.2703 107.426 42.0961 107.641 42.0961C107.855 42.0961 108.03 42.2703 108.03 42.4851ZM110.519 42.8742C110.734 42.8742 110.908 42.7 110.908 42.4851C110.908 42.2703 110.734 42.0961 110.519 42.0961C110.304 42.0961 110.13 42.2703 110.13 42.4851C110.13 42.7 110.304 42.8742 110.519 42.8742ZM113.787 42.4851C113.787 42.7 113.613 42.8742 113.398 42.8742C113.183 42.8742 113.009 42.7 113.009 42.4851C113.009 42.2703 113.183 42.0961 113.398 42.0961C113.613 42.0961 113.787 42.2703 113.787 42.4851ZM116.278 42.8742C116.493 42.8742 116.667 42.7 116.667 42.4851C116.667 42.2703 116.493 42.0961 116.278 42.0961C116.063 42.0961 115.889 42.2703 115.889 42.4851C115.889 42.7 116.063 42.8742 116.278 42.8742ZM99.3924 46.4534C99.3924 46.6683 99.2182 46.8425 99.0034 46.8425C98.7885 46.8425 98.6143 46.6683 98.6143 46.4534C98.6143 46.2385 98.7885 46.0644 99.0034 46.0644C99.2182 46.0644 99.3924 46.2385 99.3924 46.4534ZM101.882 46.8425C102.097 46.8425 102.271 46.6683 102.271 46.4534C102.271 46.2385 102.097 46.0644 101.882 46.0644C101.668 46.0644 101.493 46.2385 101.493 46.4534C101.493 46.6683 101.668 46.8425 101.882 46.8425ZM105.151 46.4534C105.151 46.6683 104.976 46.8425 104.762 46.8425C104.547 46.8425 104.372 46.6683 104.372 46.4534C104.372 46.2385 104.547 46.0644 104.762 46.0644C104.976 46.0644 105.151 46.2385 105.151 46.4534ZM107.641 46.8425C107.855 46.8425 108.03 46.6683 108.03 46.4534C108.03 46.2385 107.855 46.0644 107.641 46.0644C107.426 46.0644 107.252 46.2385 107.252 46.4534C107.252 46.6683 107.426 46.8425 107.641 46.8425ZM110.908 46.4534C110.908 46.6683 110.734 46.8425 110.519 46.8425C110.304 46.8425 110.13 46.6683 110.13 46.4534C110.13 46.2385 110.304 46.0644 110.519 46.0644C110.734 46.0644 110.908 46.2385 110.908 46.4534ZM113.398 46.8425C113.613 46.8425 113.787 46.6683 113.787 46.4534C113.787 46.2385 113.613 46.0644 113.398 46.0644C113.183 46.0644 113.009 46.2385 113.009 46.4534C113.009 46.6683 113.183 46.8425 113.398 46.8425ZM116.667 46.4534C116.667 46.6683 116.493 46.8425 116.278 46.8425C116.063 46.8425 115.889 46.6683 115.889 46.4534C115.889 46.2385 116.063 46.0644 116.278 46.0644C116.493 46.0644 116.667 46.2385 116.667 46.4534ZM99.0034 50.8112C99.2182 50.8112 99.3924 50.637 99.3924 50.4222C99.3924 50.2073 99.2182 50.0331 99.0034 50.0331C98.7885 50.0331 98.6143 50.2073 98.6143 50.4222C98.6143 50.637 98.7885 50.8112 99.0034 50.8112ZM102.271 50.4222C102.271 50.637 102.097 50.8112 101.882 50.8112C101.668 50.8112 101.493 50.637 101.493 50.4222C101.493 50.2073 101.668 50.0331 101.882 50.0331C102.097 50.0331 102.271 50.2073 102.271 50.4222ZM104.762 50.8112C104.976 50.8112 105.151 50.637 105.151 50.4222C105.151 50.2073 104.976 50.0331 104.762 50.0331C104.547 50.0331 104.372 50.2073 104.372 50.4222C104.372 50.637 104.547 50.8112 104.762 50.8112ZM108.03 50.4222C108.03 50.637 107.855 50.8112 107.641 50.8112C107.426 50.8112 107.252 50.637 107.252 50.4222C107.252 50.2073 107.426 50.0331 107.641 50.0331C107.855 50.0331 108.03 50.2073 108.03 50.4222ZM110.519 50.8112C110.734 50.8112 110.908 50.637 110.908 50.4222C110.908 50.2073 110.734 50.0331 110.519 50.0331C110.304 50.0331 110.13 50.2073 110.13 50.4222C110.13 50.637 110.304 50.8112 110.519 50.8112ZM113.787 50.4222C113.787 50.637 113.613 50.8112 113.398 50.8112C113.183 50.8112 113.009 50.637 113.009 50.4222C113.009 50.2073 113.183 50.0331 113.398 50.0331C113.613 50.0331 113.787 50.2073 113.787 50.4222ZM116.278 50.8112C116.493 50.8112 116.667 50.637 116.667 50.4222C116.667 50.2073 116.493 50.0331 116.278 50.0331C116.063 50.0331 115.889 50.2073 115.889 50.4222C115.889 50.637 116.063 50.8112 116.278 50.8112ZM11.7773 70.5752H18.3913C19.3797 70.5752 20.181 71.3765 20.181 72.3649C20.181 73.3533 19.3797 74.1545 18.3913 74.1545H11.7773V70.5752ZM12.9495 87.4988V80.8497C14.9987 80.4328 17.003 80.4265 18.8188 80.8497V87.4988H25.1387C25.5601 89.5229 25.5261 91.3125 25.1387 93.2568H18.9301V99.4123C17.0313 99.8404 15.0417 99.8948 13.0607 99.4123V93.2568H6.91365C6.5434 91.2743 6.51061 89.4808 6.91365 87.4988L12.9495 87.4988ZM102.768 92.4577C101.581 91.2702 101.581 89.345 102.768 88.1575C103.956 86.9701 105.881 86.9701 107.068 88.1575C108.256 89.345 108.256 91.2702 107.068 92.4577C105.881 93.6452 103.956 93.6452 102.768 92.4577ZM109.718 81.3524C108.53 82.5398 108.53 84.4651 109.718 85.6525C110.905 86.84 112.831 86.84 114.018 85.6525C115.206 84.4651 115.206 82.5398 114.018 81.3524C112.831 80.1649 110.905 80.1649 109.718 81.3524ZM109.718 99.5524C108.53 98.365 108.53 96.4397 109.718 95.2523C110.905 94.0648 112.831 94.0648 114.018 95.2523C115.206 96.4397 115.206 98.365 114.018 99.5524C112.831 100.74 110.905 100.74 109.718 99.5524ZM116.668 88.1575C115.481 89.345 115.481 91.2702 116.668 92.4577C117.856 93.6452 119.781 93.6452 120.968 92.4577C122.156 91.2702 122.156 89.345 120.968 88.1575C119.781 86.9701 117.856 86.9701 116.668 88.1575ZM103.205 72.3645C103.205 71.4621 103.937 70.7305 104.839 70.7305H110.908V73.9986H104.839C103.937 73.9986 103.205 73.267 103.205 72.3645ZM119.001 73.9985C119.903 73.9985 120.635 73.267 120.635 72.3645C120.635 71.462 119.903 70.7305 119.001 70.7305H112.931V73.9985H119.001ZM100.17 5.91351C100.17 4.96808 100.937 4.20166 101.882 4.20166C102.828 4.20166 103.594 4.96808 103.594 5.91351C103.594 6.85894 102.828 7.62537 101.882 7.62537C100.937 7.62537 100.17 6.85894 100.17 5.91351ZM38.2329 121.542H37.1436V123.876H38.2329V121.542ZM24.2266 56.2578C24.2266 55.3123 24.993 54.5459 25.9384 54.5459C26.8838 54.5459 27.6503 55.3123 27.6503 56.2578C27.6503 57.2032 26.8838 57.9696 25.9384 57.9696C24.993 57.9696 24.2266 57.2032 24.2266 56.2578ZM25.9384 4.20166C24.993 4.20166 24.2266 4.96808 24.2266 5.91351C24.2266 6.85894 24.993 7.62537 25.9384 7.62537C26.8838 7.62537 27.6503 6.85894 27.6503 5.91351C27.6503 4.96808 26.8838 4.20166 25.9384 4.20166ZM100.17 56.2578C100.17 55.3123 100.937 54.5459 101.882 54.5459C102.828 54.5459 103.594 55.3123 103.594 56.2578C103.594 57.2032 102.828 57.9696 101.882 57.9696C100.937 57.9696 100.17 57.2032 100.17 56.2578ZM87.4097 121.542H86.3203V123.876H87.4097V121.542ZM89.2769 121.542H90.3662V123.876H89.2769V121.542ZM36.7002 12C36.7002 10.8954 37.5956 10 38.7002 10H89.4016C90.5062 10 91.4016 10.8954 91.4016 12V49.1623C91.4016 50.2668 90.5062 51.1623 89.4016 51.1623H38.7002C37.5956 51.1623 36.7002 50.2668 36.7002 49.1623V12ZM39 67C37.8954 67 37 67.8954 37 69V105C37 106.105 37.8954 107 39 107H89C90.1046 107 91 106.105 91 105V69C91 67.8954 90.1046 67 89 67H39Z"/>
</mask>
<path fill-rule="evenodd" clip-rule="evenodd" d="M4.30689 10C4.30689 4.47715 8.78404 0 14.3069 0H113.67C119.192 0 123.67 4.47715 123.67 10V55.5603C123.67 55.9829 123.643 56.3997 123.592 56.8089C124.856 57.243 126.726 59.2687 126.726 60.9264V65.1282L125.839 65.5457C125.888 65.6415 125.947 65.733 126.014 65.8185C126.161 66.0048 126.267 66.2202 126.325 66.4504L126.485 67.0905C126.579 67.467 126.626 67.8536 126.626 68.2417V120C126.626 124.418 123.045 128 118.626 128H9.03885C4.62057 128 1.03885 124.418 1.03885 120V68.0681C1.03885 67.795 1.06167 67.5214 1.12453 67.2557C1.16411 67.0883 1.20893 66.9351 1.2755 66.7751C1.45554 66.3427 1.6327 65.9009 1.65821 65.4362L1 65.1282V60.9264C1 59.1514 3.14405 56.9546 4.39202 56.7414C4.33585 56.3129 4.30689 55.876 4.30689 55.4325V10ZM12.01 38.5165C12.01 38.7314 11.8359 38.9056 11.621 38.9056C11.4061 38.9056 11.2319 38.7314 11.2319 38.5165C11.2319 38.3016 11.4061 38.1274 11.621 38.1274C11.8359 38.1274 12.01 38.3016 12.01 38.5165ZM14.5001 38.9054C14.7149 38.9054 14.8891 38.7313 14.8891 38.5164C14.8891 38.3015 14.7149 38.1273 14.5001 38.1273C14.2852 38.1273 14.111 38.3015 14.111 38.5164C14.111 38.7313 14.2852 38.9054 14.5001 38.9054ZM17.7687 38.5164C17.7687 38.7313 17.5945 38.9054 17.3796 38.9054C17.1647 38.9054 16.9906 38.7313 16.9906 38.5164C16.9906 38.3015 17.1647 38.1273 17.3796 38.1273C17.5945 38.1273 17.7687 38.3015 17.7687 38.5164ZM20.2587 38.9054C20.4736 38.9054 20.6478 38.7313 20.6478 38.5164C20.6478 38.3015 20.4736 38.1273 20.2587 38.1273C20.0438 38.1273 19.8696 38.3015 19.8696 38.5164C19.8696 38.7313 20.0438 38.9054 20.2587 38.9054ZM23.5263 38.5164C23.5263 38.7313 23.3522 38.9054 23.1373 38.9054C22.9224 38.9054 22.7482 38.7313 22.7482 38.5164C22.7482 38.3015 22.9224 38.1273 23.1373 38.1273C23.3522 38.1273 23.5263 38.3015 23.5263 38.5164ZM26.0164 38.9054C26.2312 38.9054 26.4054 38.7313 26.4054 38.5164C26.4054 38.3015 26.2312 38.1273 26.0164 38.1273C25.8015 38.1273 25.6273 38.3015 25.6273 38.5164C25.6273 38.7313 25.8015 38.9054 26.0164 38.9054ZM29.2845 38.5164C29.2845 38.7313 29.1103 38.9054 28.8954 38.9054C28.6806 38.9054 28.5064 38.7313 28.5064 38.5164C28.5064 38.3015 28.6806 38.1273 28.8954 38.1273C29.1103 38.1273 29.2845 38.3015 29.2845 38.5164ZM11.621 42.8742C11.8359 42.8742 12.01 42.7 12.01 42.4851C12.01 42.2703 11.8359 42.0961 11.621 42.0961C11.4061 42.0961 11.2319 42.2703 11.2319 42.4851C11.2319 42.7 11.4061 42.8742 11.621 42.8742ZM14.8891 42.4851C14.8891 42.7 14.7149 42.8742 14.5001 42.8742C14.2852 42.8742 14.111 42.7 14.111 42.4851C14.111 42.2703 14.2852 42.0961 14.5001 42.0961C14.7149 42.0961 14.8891 42.2703 14.8891 42.4851ZM17.3796 42.8742C17.5945 42.8742 17.7687 42.7 17.7687 42.4851C17.7687 42.2703 17.5945 42.0961 17.3796 42.0961C17.1647 42.0961 16.9906 42.2703 16.9906 42.4851C16.9906 42.7 17.1647 42.8742 17.3796 42.8742ZM20.6478 42.4851C20.6478 42.7 20.4736 42.8742 20.2587 42.8742C20.0438 42.8742 19.8696 42.7 19.8696 42.4851C19.8696 42.2703 20.0438 42.0961 20.2587 42.0961C20.4736 42.0961 20.6478 42.2703 20.6478 42.4851ZM23.1373 42.8742C23.3522 42.8742 23.5263 42.7 23.5263 42.4851C23.5263 42.2703 23.3522 42.0961 23.1373 42.0961C22.9224 42.0961 22.7482 42.2703 22.7482 42.4851C22.7482 42.7 22.9224 42.8742 23.1373 42.8742ZM26.4054 42.4851C26.4054 42.7 26.2312 42.8742 26.0164 42.8742C25.8015 42.8742 25.6273 42.7 25.6273 42.4851C25.6273 42.2703 25.8015 42.0961 26.0164 42.0961C26.2312 42.0961 26.4054 42.2703 26.4054 42.4851ZM28.8954 42.8742C29.1103 42.8742 29.2845 42.7 29.2845 42.4851C29.2845 42.2703 29.1103 42.0961 28.8954 42.0961C28.6806 42.0961 28.5064 42.2703 28.5064 42.4851C28.5064 42.7 28.6806 42.8742 28.8954 42.8742ZM12.01 46.4534C12.01 46.6683 11.8359 46.8425 11.621 46.8425C11.4061 46.8425 11.2319 46.6683 11.2319 46.4534C11.2319 46.2385 11.4061 46.0644 11.621 46.0644C11.8359 46.0644 12.01 46.2385 12.01 46.4534ZM14.5001 46.8425C14.7149 46.8425 14.8891 46.6683 14.8891 46.4534C14.8891 46.2385 14.7149 46.0644 14.5001 46.0644C14.2852 46.0644 14.111 46.2385 14.111 46.4534C14.111 46.6683 14.2852 46.8425 14.5001 46.8425ZM17.7687 46.4534C17.7687 46.6683 17.5945 46.8425 17.3796 46.8425C17.1647 46.8425 16.9906 46.6683 16.9906 46.4534C16.9906 46.2385 17.1647 46.0644 17.3796 46.0644C17.5945 46.0644 17.7687 46.2385 17.7687 46.4534ZM20.2587 46.8425C20.4736 46.8425 20.6478 46.6683 20.6478 46.4534C20.6478 46.2385 20.4736 46.0644 20.2587 46.0644C20.0438 46.0644 19.8696 46.2385 19.8696 46.4534C19.8696 46.6683 20.0438 46.8425 20.2587 46.8425ZM23.5263 46.4534C23.5263 46.6683 23.3522 46.8425 23.1373 46.8425C22.9224 46.8425 22.7482 46.6683 22.7482 46.4534C22.7482 46.2385 22.9224 46.0644 23.1373 46.0644C23.3522 46.0644 23.5263 46.2385 23.5263 46.4534ZM26.0164 46.8425C26.2312 46.8425 26.4054 46.6683 26.4054 46.4534C26.4054 46.2385 26.2312 46.0644 26.0164 46.0644C25.8015 46.0644 25.6273 46.2385 25.6273 46.4534C25.6273 46.6683 25.8015 46.8425 26.0164 46.8425ZM29.2845 46.4534C29.2845 46.6683 29.1103 46.8425 28.8954 46.8425C28.6806 46.8425 28.5064 46.6683 28.5064 46.4534C28.5064 46.2385 28.6806 46.0644 28.8954 46.0644C29.1103 46.0644 29.2845 46.2385 29.2845 46.4534ZM11.621 50.8112C11.8359 50.8112 12.01 50.637 12.01 50.4222C12.01 50.2073 11.8359 50.0331 11.621 50.0331C11.4061 50.0331 11.2319 50.2073 11.2319 50.4222C11.2319 50.637 11.4061 50.8112 11.621 50.8112ZM14.8891 50.4222C14.8891 50.637 14.7149 50.8112 14.5001 50.8112C14.2852 50.8112 14.111 50.637 14.111 50.4222C14.111 50.2073 14.2852 50.0331 14.5001 50.0331C14.7149 50.0331 14.8891 50.2073 14.8891 50.4222ZM17.3796 50.8112C17.5945 50.8112 17.7687 50.637 17.7687 50.4222C17.7687 50.2073 17.5945 50.0331 17.3796 50.0331C17.1647 50.0331 16.9906 50.2073 16.9906 50.4222C16.9906 50.637 17.1647 50.8112 17.3796 50.8112ZM20.6478 50.4222C20.6478 50.637 20.4736 50.8112 20.2587 50.8112C20.0438 50.8112 19.8696 50.637 19.8696 50.4222C19.8696 50.2073 20.0438 50.0331 20.2587 50.0331C20.4736 50.0331 20.6478 50.2073 20.6478 50.4222ZM23.1373 50.8112C23.3522 50.8112 23.5263 50.637 23.5263 50.4222C23.5263 50.2073 23.3522 50.0331 23.1373 50.0331C22.9224 50.0331 22.7482 50.2073 22.7482 50.4222C22.7482 50.637 22.9224 50.8112 23.1373 50.8112ZM26.4054 50.4222C26.4054 50.637 26.2312 50.8112 26.0164 50.8112C25.8015 50.8112 25.6273 50.637 25.6273 50.4222C25.6273 50.2073 25.8015 50.0331 26.0164 50.0331C26.2312 50.0331 26.4054 50.2073 26.4054 50.4222ZM28.8954 50.8112C29.1103 50.8112 29.2845 50.637 29.2845 50.4222C29.2845 50.2073 29.1103 50.0331 28.8954 50.0331C28.6806 50.0331 28.5064 50.2073 28.5064 50.4222C28.5064 50.637 28.6806 50.8112 28.8954 50.8112ZM99.3924 38.5165C99.3924 38.7314 99.2182 38.9056 99.0033 38.9056C98.7884 38.9056 98.6143 38.7314 98.6143 38.5165C98.6143 38.3016 98.7884 38.1274 99.0033 38.1274C99.2182 38.1274 99.3924 38.3016 99.3924 38.5165ZM101.882 38.9054C102.097 38.9054 102.271 38.7313 102.271 38.5164C102.271 38.3015 102.097 38.1273 101.882 38.1273C101.668 38.1273 101.493 38.3015 101.493 38.5164C101.493 38.7313 101.668 38.9054 101.882 38.9054ZM105.151 38.5164C105.151 38.7313 104.976 38.9054 104.762 38.9054C104.547 38.9054 104.372 38.7313 104.372 38.5164C104.372 38.3015 104.547 38.1273 104.762 38.1273C104.976 38.1273 105.151 38.3015 105.151 38.5164ZM107.641 38.9054C107.855 38.9054 108.03 38.7313 108.03 38.5164C108.03 38.3015 107.855 38.1273 107.641 38.1273C107.426 38.1273 107.252 38.3015 107.252 38.5164C107.252 38.7313 107.426 38.9054 107.641 38.9054ZM110.908 38.5164C110.908 38.7313 110.734 38.9054 110.519 38.9054C110.304 38.9054 110.13 38.7313 110.13 38.5164C110.13 38.3015 110.304 38.1273 110.519 38.1273C110.734 38.1273 110.908 38.3015 110.908 38.5164ZM113.398 38.9054C113.613 38.9054 113.787 38.7313 113.787 38.5164C113.787 38.3015 113.613 38.1273 113.398 38.1273C113.183 38.1273 113.009 38.3015 113.009 38.5164C113.009 38.7313 113.183 38.9054 113.398 38.9054ZM116.667 38.5164C116.667 38.7313 116.493 38.9054 116.278 38.9054C116.063 38.9054 115.889 38.7313 115.889 38.5164C115.889 38.3015 116.063 38.1273 116.278 38.1273C116.493 38.1273 116.667 38.3015 116.667 38.5164ZM99.0034 42.8742C99.2182 42.8742 99.3924 42.7 99.3924 42.4851C99.3924 42.2703 99.2182 42.0961 99.0034 42.0961C98.7885 42.0961 98.6143 42.2703 98.6143 42.4851C98.6143 42.7 98.7885 42.8742 99.0034 42.8742ZM102.271 42.4851C102.271 42.7 102.097 42.8742 101.882 42.8742C101.668 42.8742 101.493 42.7 101.493 42.4851C101.493 42.2703 101.668 42.0961 101.882 42.0961C102.097 42.0961 102.271 42.2703 102.271 42.4851ZM104.762 42.8742C104.976 42.8742 105.151 42.7 105.151 42.4851C105.151 42.2703 104.976 42.0961 104.762 42.0961C104.547 42.0961 104.372 42.2703 104.372 42.4851C104.372 42.7 104.547 42.8742 104.762 42.8742ZM108.03 42.4851C108.03 42.7 107.855 42.8742 107.641 42.8742C107.426 42.8742 107.252 42.7 107.252 42.4851C107.252 42.2703 107.426 42.0961 107.641 42.0961C107.855 42.0961 108.03 42.2703 108.03 42.4851ZM110.519 42.8742C110.734 42.8742 110.908 42.7 110.908 42.4851C110.908 42.2703 110.734 42.0961 110.519 42.0961C110.304 42.0961 110.13 42.2703 110.13 42.4851C110.13 42.7 110.304 42.8742 110.519 42.8742ZM113.787 42.4851C113.787 42.7 113.613 42.8742 113.398 42.8742C113.183 42.8742 113.009 42.7 113.009 42.4851C113.009 42.2703 113.183 42.0961 113.398 42.0961C113.613 42.0961 113.787 42.2703 113.787 42.4851ZM116.278 42.8742C116.493 42.8742 116.667 42.7 116.667 42.4851C116.667 42.2703 116.493 42.0961 116.278 42.0961C116.063 42.0961 115.889 42.2703 115.889 42.4851C115.889 42.7 116.063 42.8742 116.278 42.8742ZM99.3924 46.4534C99.3924 46.6683 99.2182 46.8425 99.0034 46.8425C98.7885 46.8425 98.6143 46.6683 98.6143 46.4534C98.6143 46.2385 98.7885 46.0644 99.0034 46.0644C99.2182 46.0644 99.3924 46.2385 99.3924 46.4534ZM101.882 46.8425C102.097 46.8425 102.271 46.6683 102.271 46.4534C102.271 46.2385 102.097 46.0644 101.882 46.0644C101.668 46.0644 101.493 46.2385 101.493 46.4534C101.493 46.6683 101.668 46.8425 101.882 46.8425ZM105.151 46.4534C105.151 46.6683 104.976 46.8425 104.762 46.8425C104.547 46.8425 104.372 46.6683 104.372 46.4534C104.372 46.2385 104.547 46.0644 104.762 46.0644C104.976 46.0644 105.151 46.2385 105.151 46.4534ZM107.641 46.8425C107.855 46.8425 108.03 46.6683 108.03 46.4534C108.03 46.2385 107.855 46.0644 107.641 46.0644C107.426 46.0644 107.252 46.2385 107.252 46.4534C107.252 46.6683 107.426 46.8425 107.641 46.8425ZM110.908 46.4534C110.908 46.6683 110.734 46.8425 110.519 46.8425C110.304 46.8425 110.13 46.6683 110.13 46.4534C110.13 46.2385 110.304 46.0644 110.519 46.0644C110.734 46.0644 110.908 46.2385 110.908 46.4534ZM113.398 46.8425C113.613 46.8425 113.787 46.6683 113.787 46.4534C113.787 46.2385 113.613 46.0644 113.398 46.0644C113.183 46.0644 113.009 46.2385 113.009 46.4534C113.009 46.6683 113.183 46.8425 113.398 46.8425ZM116.667 46.4534C116.667 46.6683 116.493 46.8425 116.278 46.8425C116.063 46.8425 115.889 46.6683 115.889 46.4534C115.889 46.2385 116.063 46.0644 116.278 46.0644C116.493 46.0644 116.667 46.2385 116.667 46.4534ZM99.0034 50.8112C99.2182 50.8112 99.3924 50.637 99.3924 50.4222C99.3924 50.2073 99.2182 50.0331 99.0034 50.0331C98.7885 50.0331 98.6143 50.2073 98.6143 50.4222C98.6143 50.637 98.7885 50.8112 99.0034 50.8112ZM102.271 50.4222C102.271 50.637 102.097 50.8112 101.882 50.8112C101.668 50.8112 101.493 50.637 101.493 50.4222C101.493 50.2073 101.668 50.0331 101.882 50.0331C102.097 50.0331 102.271 50.2073 102.271 50.4222ZM104.762 50.8112C104.976 50.8112 105.151 50.637 105.151 50.4222C105.151 50.2073 104.976 50.0331 104.762 50.0331C104.547 50.0331 104.372 50.2073 104.372 50.4222C104.372 50.637 104.547 50.8112 104.762 50.8112ZM108.03 50.4222C108.03 50.637 107.855 50.8112 107.641 50.8112C107.426 50.8112 107.252 50.637 107.252 50.4222C107.252 50.2073 107.426 50.0331 107.641 50.0331C107.855 50.0331 108.03 50.2073 108.03 50.4222ZM110.519 50.8112C110.734 50.8112 110.908 50.637 110.908 50.4222C110.908 50.2073 110.734 50.0331 110.519 50.0331C110.304 50.0331 110.13 50.2073 110.13 50.4222C110.13 50.637 110.304 50.8112 110.519 50.8112ZM113.787 50.4222C113.787 50.637 113.613 50.8112 113.398 50.8112C113.183 50.8112 113.009 50.637 113.009 50.4222C113.009 50.2073 113.183 50.0331 113.398 50.0331C113.613 50.0331 113.787 50.2073 113.787 50.4222ZM116.278 50.8112C116.493 50.8112 116.667 50.637 116.667 50.4222C116.667 50.2073 116.493 50.0331 116.278 50.0331C116.063 50.0331 115.889 50.2073 115.889 50.4222C115.889 50.637 116.063 50.8112 116.278 50.8112ZM11.7773 70.5752H18.3913C19.3797 70.5752 20.181 71.3765 20.181 72.3649C20.181 73.3533 19.3797 74.1545 18.3913 74.1545H11.7773V70.5752ZM12.9495 87.4988V80.8497C14.9987 80.4328 17.003 80.4265 18.8188 80.8497V87.4988H25.1387C25.5601 89.5229 25.5261 91.3125 25.1387 93.2568H18.9301V99.4123C17.0313 99.8404 15.0417 99.8948 13.0607 99.4123V93.2568H6.91365C6.5434 91.2743 6.51061 89.4808 6.91365 87.4988L12.9495 87.4988ZM102.768 92.4577C101.581 91.2702 101.581 89.345 102.768 88.1575C103.956 86.9701 105.881 86.9701 107.068 88.1575C108.256 89.345 108.256 91.2702 107.068 92.4577C105.881 93.6452 103.956 93.6452 102.768 92.4577ZM109.718 81.3524C108.53 82.5398 108.53 84.4651 109.718 85.6525C110.905 86.84 112.831 86.84 114.018 85.6525C115.206 84.4651 115.206 82.5398 114.018 81.3524C112.831 80.1649 110.905 80.1649 109.718 81.3524ZM109.718 99.5524C108.53 98.365 108.53 96.4397 109.718 95.2523C110.905 94.0648 112.831 94.0648 114.018 95.2523C115.206 96.4397 115.206 98.365 114.018 99.5524C112.831 100.74 110.905 100.74 109.718 99.5524ZM116.668 88.1575C115.481 89.345 115.481 91.2702 116.668 92.4577C117.856 93.6452 119.781 93.6452 120.968 92.4577C122.156 91.2702 122.156 89.345 120.968 88.1575C119.781 86.9701 117.856 86.9701 116.668 88.1575ZM103.205 72.3645C103.205 71.4621 103.937 70.7305 104.839 70.7305H110.908V73.9986H104.839C103.937 73.9986 103.205 73.267 103.205 72.3645ZM119.001 73.9985C119.903 73.9985 120.635 73.267 120.635 72.3645C120.635 71.462 119.903 70.7305 119.001 70.7305H112.931V73.9985H119.001ZM100.17 5.91351C100.17 4.96808 100.937 4.20166 101.882 4.20166C102.828 4.20166 103.594 4.96808 103.594 5.91351C103.594 6.85894 102.828 7.62537 101.882 7.62537C100.937 7.62537 100.17 6.85894 100.17 5.91351ZM38.2329 121.542H37.1436V123.876H38.2329V121.542ZM24.2266 56.2578C24.2266 55.3123 24.993 54.5459 25.9384 54.5459C26.8838 54.5459 27.6503 55.3123 27.6503 56.2578C27.6503 57.2032 26.8838 57.9696 25.9384 57.9696C24.993 57.9696 24.2266 57.2032 24.2266 56.2578ZM25.9384 4.20166C24.993 4.20166 24.2266 4.96808 24.2266 5.91351C24.2266 6.85894 24.993 7.62537 25.9384 7.62537C26.8838 7.62537 27.6503 6.85894 27.6503 5.91351C27.6503 4.96808 26.8838 4.20166 25.9384 4.20166ZM100.17 56.2578C100.17 55.3123 100.937 54.5459 101.882 54.5459C102.828 54.5459 103.594 55.3123 103.594 56.2578C103.594 57.2032 102.828 57.9696 101.882 57.9696C100.937 57.9696 100.17 57.2032 100.17 56.2578ZM87.4097 121.542H86.3203V123.876H87.4097V121.542ZM89.2769 121.542H90.3662V123.876H89.2769V121.542ZM36.7002 12C36.7002 10.8954 37.5956 10 38.7002 10H89.4016C90.5062 10 91.4016 10.8954 91.4016 12V49.1623C91.4016 50.2668 90.5062 51.1623 89.4016 51.1623H38.7002C37.5956 51.1623 36.7002 50.2668 36.7002 49.1623V12ZM39 67C37.8954 67 37 67.8954 37 69V105C37 106.105 37.8954 107 39 107H89C90.1046 107 91 106.105 91 105V69C91 67.8954 90.1046 67 89 67H39Z" fill="white"/>
<path d="M123.592 56.8089L119.623 56.3136L119.221 59.5367L122.293 60.592L123.592 56.8089ZM126.726 65.1282L128.429 68.7475L130.726 67.6666V65.1282H126.726ZM125.839 65.5457L124.136 61.9264L120.389 63.6895L122.281 67.373L125.839 65.5457ZM126.014 65.8185L122.875 68.2971L122.875 68.2971L126.014 65.8185ZM126.325 66.4504L130.205 65.4803L130.205 65.4803L126.325 66.4504ZM126.485 67.0905L130.365 66.1204L130.365 66.1204L126.485 67.0905ZM1.12453 67.2557L5.01714 68.1764L5.01714 68.1763L1.12453 67.2557ZM1.2755 66.7751L4.96831 68.3124L4.96831 68.3124L1.2755 66.7751ZM1.65821 65.4362L5.65219 65.6554L5.80024 62.9582L3.35356 61.8133L1.65821 65.4362ZM1 65.1282H-3V67.6727L-0.695354 68.7512L1 65.1282ZM4.39202 56.7414L5.06558 60.6843L8.85809 60.0364L8.3581 56.2216L4.39202 56.7414ZM11.7773 70.5752V66.5752H7.77734V70.5752H11.7773ZM11.7773 74.1545H7.77734V78.1545H11.7773V74.1545ZM12.9495 80.8497L12.1521 76.93L8.94945 77.5815V80.8497H12.9495ZM12.9495 87.4988L12.9495 91.4988L16.9495 91.4988V87.4988H12.9495ZM18.8188 80.8497H22.8188V77.6747L19.7267 76.9541L18.8188 80.8497ZM18.8188 87.4988H14.8188V91.4988H18.8188V87.4988ZM25.1387 87.4988L29.0548 86.6835L28.3918 83.4988H25.1387V87.4988ZM25.1387 93.2568V97.2568H28.4204L29.0616 94.0384L25.1387 93.2568ZM18.9301 93.2568V89.2568H14.9301V93.2568H18.9301ZM18.9301 99.4123L19.8099 103.314L22.9301 102.611V99.4123H18.9301ZM13.0607 99.4123H9.06074V102.555L12.1141 103.299L13.0607 99.4123ZM13.0607 93.2568H17.0607V89.2568H13.0607V93.2568ZM6.91365 93.2568L2.98163 93.9912L3.5915 97.2568H6.91365V93.2568ZM6.91365 87.4988L6.91365 83.4988L3.64518 83.4988L2.99387 86.7017L6.91365 87.4988ZM102.768 88.1575L105.597 90.986L105.597 90.986L102.768 88.1575ZM102.768 92.4577L105.597 89.6293L105.597 89.6293L102.768 92.4577ZM107.068 88.1575L104.24 90.986L104.24 90.986L107.068 88.1575ZM107.068 92.4577L104.24 89.6293L104.24 89.6293L107.068 92.4577ZM109.718 85.6525L112.546 82.8241L112.546 82.8241L109.718 85.6525ZM109.718 81.3524L112.546 84.1808L112.546 84.1808L109.718 81.3524ZM114.018 85.6525L111.19 82.8241L111.19 82.8241L114.018 85.6525ZM114.018 81.3524L111.19 84.1808L111.19 84.1808L114.018 81.3524ZM109.718 95.2523L112.546 98.0807L112.546 98.0807L109.718 95.2523ZM109.718 99.5524L112.546 96.724L112.546 96.724L109.718 99.5524ZM114.018 95.2523L111.19 98.0807L111.19 98.0807L114.018 95.2523ZM114.018 99.5524L111.19 96.724L111.19 96.724L114.018 99.5524ZM116.668 92.4577L119.497 89.6293L119.497 89.6293L116.668 92.4577ZM116.668 88.1575L119.497 90.986L119.497 90.986L116.668 88.1575ZM120.968 92.4577L118.14 89.6293L118.14 89.6293L120.968 92.4577ZM120.968 88.1575L118.14 90.986L118.14 90.986L120.968 88.1575ZM110.908 70.7305H114.908V66.7305H110.908V70.7305ZM110.908 73.9986V77.9986H114.908V73.9986H110.908ZM112.931 70.7305V66.7305H108.931V70.7305H112.931ZM112.931 73.9985H108.931V77.9985H112.931V73.9985ZM37.1436 121.542V117.542H33.1436V121.542H37.1436ZM38.2329 121.542H42.2329V117.542H38.2329V121.542ZM37.1436 123.876H33.1436V127.876H37.1436V123.876ZM38.2329 123.876V127.876H42.2329V123.876H38.2329ZM86.3203 121.542V117.542H82.3203V121.542H86.3203ZM87.4097 121.542H91.4097V117.542H87.4097V121.542ZM86.3203 123.876H82.3203V127.876H86.3203V123.876ZM87.4097 123.876V127.876H91.4097V123.876H87.4097ZM90.3662 121.542H94.3662V117.542H90.3662V121.542ZM89.2769 121.542V117.542H85.2769V121.542H89.2769ZM90.3662 123.876V127.876H94.3662V123.876H90.3662ZM89.2769 123.876H85.2769V127.876H89.2769V123.876ZM14.3069 -4C6.5749 -4 0.306887 2.26802 0.306887 10H8.30689C8.30689 6.68629 10.9932 4 14.3069 4V-4ZM113.67 -4H14.3069V4H113.67V-4ZM127.67 10C127.67 2.26801 121.402 -4 113.67 -4V4C116.983 4 119.67 6.6863 119.67 10H127.67ZM127.67 55.5603V10H119.67V55.5603H127.67ZM127.561 57.3043C127.633 56.7312 127.67 56.149 127.67 55.5603H119.67C119.67 55.8169 119.654 56.0682 119.623 56.3136L127.561 57.3043ZM130.726 60.9264C130.726 58.7571 129.604 56.9509 128.734 55.8826C127.852 54.8 126.494 53.5764 124.892 53.0259L122.293 60.592C122.152 60.5438 122.08 60.5011 122.077 60.4994C122.07 60.4951 122.095 60.5092 122.147 60.5499C122.255 60.6351 122.397 60.7699 122.532 60.935C122.668 61.1028 122.743 61.2352 122.772 61.2978C122.784 61.3249 122.775 61.3122 122.762 61.2595C122.749 61.2071 122.726 61.0928 122.726 60.9264H130.726ZM130.726 65.1282V60.9264H122.726V65.1282H130.726ZM127.542 69.165L128.429 68.7475L125.023 61.5089L124.136 61.9264L127.542 69.165ZM129.154 63.34C129.247 63.4585 129.329 63.5853 129.397 63.7184L122.281 67.373C122.447 67.6978 122.646 68.0075 122.875 68.2971L129.154 63.34ZM130.205 65.4803C130.01 64.7005 129.652 63.9709 129.154 63.3399L122.875 68.2971C122.671 68.0387 122.524 67.7399 122.444 67.4206L130.205 65.4803ZM130.365 66.1204L130.205 65.4803L122.444 67.4206L122.604 68.0607L130.365 66.1204ZM130.626 68.2417C130.626 67.5265 130.539 66.8141 130.365 66.1204L122.604 68.0606C122.619 68.1199 122.626 68.1807 122.626 68.2417H130.626ZM130.626 120V68.2417H122.626V120H130.626ZM118.626 132C125.254 132 130.626 126.628 130.626 120H122.626C122.626 122.209 120.836 124 118.626 124V132ZM9.03885 132H118.626V124H9.03885V132ZM-2.96115 120C-2.96115 126.628 2.41143 132 9.03885 132V124C6.8297 124 5.03885 122.209 5.03885 120H-2.96115ZM-2.96115 68.0681V120H5.03885V68.0681H-2.96115ZM-2.76807 66.335C-2.92127 66.9827 -2.96115 67.58 -2.96115 68.0681H5.03885C5.03885 68.0418 5.04 68.0398 5.0383 68.0568C5.03655 68.0743 5.0314 68.1161 5.01714 68.1764L-2.76807 66.335ZM-2.41732 65.2379C-2.59295 65.6598 -2.69706 66.0348 -2.76807 66.335L5.01714 68.1763C5.0222 68.1549 5.02041 68.165 5.01172 68.1932C5.00227 68.2238 4.9879 68.2653 4.96831 68.3124L-2.41732 65.2379ZM-2.33578 65.217C-2.33017 65.1147 -2.31742 65.0359 -2.30731 64.986C-2.29741 64.9372 -2.28925 64.9123 -2.29103 64.918C-2.29304 64.9244 -2.30162 64.9506 -2.32329 65.0066C-2.33388 65.034 -2.34662 65.066 -2.36248 65.105C-2.37853 65.1445 -2.39616 65.1871 -2.41732 65.2379L4.96831 68.3124C5.11787 67.9531 5.58365 66.9043 5.65219 65.6554L-2.33578 65.217ZM-0.695354 68.7512L-0.0371488 69.0592L3.35356 61.8133L2.69535 61.5053L-0.695354 68.7512ZM-3 60.9264V65.1282H5V60.9264H-3ZM3.71845 52.7985C2.58236 52.9926 1.65079 53.5322 1.04102 53.9592C0.369006 54.4298 -0.25587 55.0073 -0.793518 55.6271C-1.73779 56.7156 -3 58.6231 -3 60.9264H5C5 61.1041 4.97374 61.2227 4.96103 61.2706C4.94816 61.3192 4.94167 61.324 4.95987 61.2861C4.97743 61.2495 5.00991 61.1901 5.06206 61.1127C5.11372 61.0359 5.17696 60.953 5.24956 60.8694C5.32211 60.7857 5.39663 60.7098 5.46731 60.6453C5.53884 60.58 5.59549 60.5363 5.63004 60.5121C5.66784 60.4856 5.65722 60.4978 5.59356 60.5278C5.5597 60.5437 5.50128 60.5693 5.41919 60.5968C5.33802 60.624 5.21882 60.6581 5.06558 60.6843L3.71845 52.7985ZM0.306887 55.4325C0.306887 56.0503 0.347252 56.6609 0.425936 57.2612L8.3581 56.2216C8.32445 55.9649 8.30689 55.7016 8.30689 55.4325H0.306887ZM0.306887 10V55.4325H8.30689V10H0.306887ZM11.621 42.9056C14.045 42.9056 16.01 40.9405 16.01 38.5165H8.01005C8.01005 36.5222 9.62671 34.9056 11.621 34.9056V42.9056ZM7.23193 38.5165C7.23193 40.9405 9.19698 42.9056 11.621 42.9056V34.9056C13.6153 34.9056 15.2319 36.5222 15.2319 38.5165H7.23193ZM11.621 34.1274C9.19698 34.1274 7.23193 36.0925 7.23193 38.5165H15.2319C15.2319 40.5108 13.6153 42.1274 11.621 42.1274V34.1274ZM16.01 38.5165C16.01 36.0925 14.045 34.1274 11.621 34.1274V42.1274C9.62671 42.1274 8.01005 40.5108 8.01005 38.5165H16.01ZM10.8891 38.5164C10.8891 36.5221 12.5058 34.9054 14.5001 34.9054V42.9054C16.9241 42.9054 18.8891 40.9404 18.8891 38.5164H10.8891ZM14.5001 42.1273C12.5058 42.1273 10.8891 40.5107 10.8891 38.5164H18.8891C18.8891 36.0924 16.9241 34.1273 14.5001 34.1273V42.1273ZM18.111 38.5164C18.111 40.5107 16.4943 42.1273 14.5001 42.1273V34.1273C12.076 34.1273 10.111 36.0924 10.111 38.5164H18.111ZM14.5001 34.9054C16.4943 34.9054 18.111 36.5221 18.111 38.5164H10.111C10.111 40.9404 12.076 42.9054 14.5001 42.9054V34.9054ZM17.3796 42.9054C19.8036 42.9054 21.7687 40.9404 21.7687 38.5164H13.7687C13.7687 36.5221 15.3853 34.9054 17.3796 34.9054V42.9054ZM12.9906 38.5164C12.9906 40.9404 14.9556 42.9054 17.3796 42.9054V34.9054C19.3739 34.9054 20.9906 36.5221 20.9906 38.5164H12.9906ZM17.3796 34.1273C14.9556 34.1273 12.9906 36.0924 12.9906 38.5164H20.9906C20.9906 40.5107 19.3739 42.1273 17.3796 42.1273V34.1273ZM21.7687 38.5164C21.7687 36.0924 19.8036 34.1273 17.3796 34.1273V42.1273C15.3853 42.1273 13.7687 40.5107 13.7687 38.5164H21.7687ZM16.6478 38.5164C16.6478 36.5221 18.2644 34.9054 20.2587 34.9054V42.9054C22.6827 42.9054 24.6478 40.9404 24.6478 38.5164H16.6478ZM20.2587 42.1273C18.2644 42.1273 16.6478 40.5107 16.6478 38.5164H24.6478C24.6478 36.0924 22.6827 34.1273 20.2587 34.1273V42.1273ZM23.8696 38.5164C23.8696 40.5107 22.253 42.1273 20.2587 42.1273V34.1273C17.8347 34.1273 15.8696 36.0924 15.8696 38.5164H23.8696ZM20.2587 34.9054C22.253 34.9054 23.8696 36.5221 23.8696 38.5164H15.8696C15.8696 40.9404 17.8347 42.9054 20.2587 42.9054V34.9054ZM23.1373 42.9054C25.5613 42.9054 27.5263 40.9404 27.5263 38.5164H19.5263C19.5263 36.5221 21.143 34.9054 23.1373 34.9054V42.9054ZM18.7482 38.5164C18.7482 40.9404 20.7133 42.9054 23.1373 42.9054V34.9054C25.1316 34.9054 26.7482 36.5221 26.7482 38.5164H18.7482ZM23.1373 34.1273C20.7133 34.1273 18.7482 36.0924 18.7482 38.5164H26.7482C26.7482 40.5107 25.1316 42.1273 23.1373 42.1273V34.1273ZM27.5263 38.5164C27.5263 36.0924 25.5613 34.1273 23.1373 34.1273V42.1273C21.143 42.1273 19.5263 40.5107 19.5263 38.5164H27.5263ZM22.4054 38.5164C22.4054 36.5221 24.0221 34.9054 26.0164 34.9054V42.9054C28.4404 42.9054 30.4054 40.9404 30.4054 38.5164H22.4054ZM26.0164 42.1273C24.0221 42.1273 22.4054 40.5107 22.4054 38.5164H30.4054C30.4054 36.0924 28.4404 34.1273 26.0164 34.1273V42.1273ZM29.6273 38.5164C29.6273 40.5107 28.0106 42.1273 26.0164 42.1273V34.1273C23.5924 34.1273 21.6273 36.0924 21.6273 38.5164H29.6273ZM26.0164 34.9054C28.0106 34.9054 29.6273 36.5221 29.6273 38.5164H21.6273C21.6273 40.9404 23.5924 42.9054 26.0164 42.9054V34.9054ZM28.8954 42.9054C31.3195 42.9054 33.2845 40.9404 33.2845 38.5164H25.2845C25.2845 36.5221 26.9012 34.9054 28.8954 34.9054V42.9054ZM24.5064 38.5164C24.5064 40.9404 26.4714 42.9054 28.8954 42.9054V34.9054C30.8897 34.9054 32.5064 36.5221 32.5064 38.5164H24.5064ZM28.8954 34.1273C26.4714 34.1273 24.5064 36.0924 24.5064 38.5164H32.5064C32.5064 40.5107 30.8897 42.1273 28.8954 42.1273V34.1273ZM33.2845 38.5164C33.2845 36.0924 31.3195 34.1273 28.8954 34.1273V42.1273C26.9012 42.1273 25.2845 40.5107 25.2845 38.5164H33.2845ZM8.01004 42.4851C8.01004 40.4909 9.62671 38.8742 11.621 38.8742V46.8742C14.045 46.8742 16.01 44.9092 16.01 42.4851H8.01004ZM11.621 46.0961C9.62671 46.0961 8.01004 44.4794 8.01004 42.4851H16.01C16.01 40.0611 14.045 38.0961 11.621 38.0961V46.0961ZM15.2319 42.4851C15.2319 44.4794 13.6152 46.0961 11.621 46.0961V38.0961C9.19697 38.0961 7.23192 40.0611 7.23192 42.4851H15.2319ZM11.621 38.8742C13.6152 38.8742 15.2319 40.4909 15.2319 42.4851H7.23192C7.23192 44.9092 9.19697 46.8742 11.621 46.8742V38.8742ZM14.5001 46.8742C16.9241 46.8742 18.8891 44.9091 18.8891 42.4851H10.8891C10.8891 40.4909 12.5058 38.8742 14.5001 38.8742V46.8742ZM10.111 42.4851C10.111 44.9092 12.076 46.8742 14.5001 46.8742V38.8742C16.4943 38.8742 18.111 40.4909 18.111 42.4851H10.111ZM14.5001 38.0961C12.076 38.0961 10.111 40.0611 10.111 42.4851H18.111C18.111 44.4794 16.4943 46.0961 14.5001 46.0961V38.0961ZM18.8891 42.4851C18.8891 40.0611 16.9241 38.0961 14.5001 38.0961V46.0961C12.5058 46.0961 10.8891 44.4794 10.8891 42.4851H18.8891ZM13.7687 42.4851C13.7687 40.4909 15.3853 38.8742 17.3796 38.8742V46.8742C19.8036 46.8742 21.7687 44.9092 21.7687 42.4851H13.7687ZM17.3796 46.0961C15.3853 46.0961 13.7687 44.4794 13.7687 42.4851H21.7687C21.7687 40.0611 19.8036 38.0961 17.3796 38.0961V46.0961ZM20.9906 42.4851C20.9906 44.4794 19.3739 46.0961 17.3796 46.0961V38.0961C14.9556 38.0961 12.9906 40.0611 12.9906 42.4851H20.9906ZM17.3796 38.8742C19.3739 38.8742 20.9906 40.4909 20.9906 42.4851H12.9906C12.9906 44.9092 14.9556 46.8742 17.3796 46.8742V38.8742ZM20.2587 46.8742C22.6827 46.8742 24.6478 44.9092 24.6478 42.4851H16.6478C16.6478 40.4909 18.2644 38.8742 20.2587 38.8742V46.8742ZM15.8696 42.4851C15.8696 44.9092 17.8347 46.8742 20.2587 46.8742V38.8742C22.253 38.8742 23.8696 40.4909 23.8696 42.4851H15.8696ZM20.2587 38.0961C17.8347 38.0961 15.8696 40.0611 15.8696 42.4851H23.8696C23.8696 44.4794 22.253 46.0961 20.2587 46.0961V38.0961ZM24.6478 42.4851C24.6478 40.0611 22.6827 38.0961 20.2587 38.0961V46.0961C18.2644 46.0961 16.6478 44.4794 16.6478 42.4851H24.6478ZM19.5263 42.4851C19.5263 40.4909 21.143 38.8742 23.1373 38.8742V46.8742C25.5613 46.8742 27.5263 44.9092 27.5263 42.4851H19.5263ZM23.1373 46.0961C21.143 46.0961 19.5263 44.4794 19.5263 42.4851H27.5263C27.5263 40.0611 25.5613 38.0961 23.1373 38.0961V46.0961ZM26.7482 42.4851C26.7482 44.4794 25.1316 46.0961 23.1373 46.0961V38.0961C20.7133 38.0961 18.7482 40.0611 18.7482 42.4851H26.7482ZM23.1373 38.8742C25.1316 38.8742 26.7482 40.4909 26.7482 42.4851H18.7482C18.7482 44.9092 20.7133 46.8742 23.1373 46.8742V38.8742ZM26.0164 46.8742C28.4404 46.8742 30.4054 44.9092 30.4054 42.4851H22.4054C22.4054 40.4909 24.0221 38.8742 26.0164 38.8742V46.8742ZM21.6273 42.4851C21.6273 44.9092 23.5924 46.8742 26.0164 46.8742V38.8742C28.0106 38.8742 29.6273 40.4909 29.6273 42.4851H21.6273ZM26.0164 38.0961C23.5924 38.0961 21.6273 40.0611 21.6273 42.4851H29.6273C29.6273 44.4794 28.0106 46.0961 26.0164 46.0961V38.0961ZM30.4054 42.4851C30.4054 40.0611 28.4404 38.0961 26.0164 38.0961V46.0961C24.0221 46.0961 22.4054 44.4794 22.4054 42.4851H30.4054ZM25.2845 42.4851C25.2845 40.4909 26.9012 38.8742 28.8954 38.8742V46.8742C31.3195 46.8742 33.2845 44.9092 33.2845 42.4851H25.2845ZM28.8954 46.0961C26.9012 46.0961 25.2845 44.4794 25.2845 42.4851H33.2845C33.2845 40.0611 31.3195 38.0961 28.8954 38.0961V46.0961ZM32.5064 42.4851C32.5064 44.4794 30.8897 46.0961 28.8954 46.0961V38.0961C26.4714 38.0961 24.5064 40.0611 24.5064 42.4851H32.5064ZM28.8954 38.8742C30.8897 38.8742 32.5064 40.4909 32.5064 42.4851H24.5064C24.5064 44.9092 26.4714 46.8742 28.8954 46.8742V38.8742ZM11.621 50.8425C14.045 50.8425 16.01 48.8774 16.01 46.4534H8.01004C8.01004 44.4591 9.62671 42.8425 11.621 42.8425V50.8425ZM7.23192 46.4534C7.23192 48.8774 9.19697 50.8425 11.621 50.8425V42.8425C13.6152 42.8425 15.2319 44.4591 15.2319 46.4534H7.23192ZM11.621 42.0644C9.19697 42.0644 7.23192 44.0294 7.23192 46.4534H15.2319C15.2319 48.4477 13.6152 50.0644 11.621 50.0644V42.0644ZM16.01 46.4534C16.01 44.0294 14.045 42.0644 11.621 42.0644V50.0644C9.62671 50.0644 8.01004 48.4477 8.01004 46.4534H16.01ZM10.8891 46.4534C10.8891 44.4591 12.5058 42.8425 14.5001 42.8425V50.8425C16.9241 50.8425 18.8891 48.8774 18.8891 46.4534H10.8891ZM14.5001 50.0644C12.5058 50.0644 10.8891 48.4477 10.8891 46.4534H18.8891C18.8891 44.0294 16.9241 42.0644 14.5001 42.0644V50.0644ZM18.111 46.4534C18.111 48.4477 16.4943 50.0644 14.5001 50.0644V42.0644C12.076 42.0644 10.111 44.0294 10.111 46.4534H18.111ZM14.5001 42.8425C16.4943 42.8425 18.111 44.4591 18.111 46.4534H10.111C10.111 48.8774 12.076 50.8425 14.5001 50.8425V42.8425ZM17.3796 50.8425C19.8036 50.8425 21.7687 48.8774 21.7687 46.4534H13.7687C13.7687 44.4591 15.3853 42.8425 17.3796 42.8425V50.8425ZM12.9906 46.4534C12.9906 48.8774 14.9556 50.8425 17.3796 50.8425V42.8425C19.3739 42.8425 20.9906 44.4591 20.9906 46.4534H12.9906ZM17.3796 42.0644C14.9556 42.0644 12.9906 44.0294 12.9906 46.4534H20.9906C20.9906 48.4477 19.3739 50.0644 17.3796 50.0644V42.0644ZM21.7687 46.4534C21.7687 44.0294 19.8036 42.0644 17.3796 42.0644V50.0644C15.3853 50.0644 13.7687 48.4477 13.7687 46.4534H21.7687ZM16.6478 46.4534C16.6478 44.4591 18.2644 42.8425 20.2587 42.8425V50.8425C22.6827 50.8425 24.6478 48.8774 24.6478 46.4534H16.6478ZM20.2587 50.0644C18.2644 50.0644 16.6478 48.4477 16.6478 46.4534H24.6478C24.6478 44.0294 22.6827 42.0644 20.2587 42.0644V50.0644ZM23.8696 46.4534C23.8696 48.4477 22.253 50.0644 20.2587 50.0644V42.0644C17.8347 42.0644 15.8696 44.0294 15.8696 46.4534H23.8696ZM20.2587 42.8425C22.253 42.8425 23.8696 44.4591 23.8696 46.4534H15.8696C15.8696 48.8774 17.8347 50.8425 20.2587 50.8425V42.8425ZM23.1373 50.8425C25.5613 50.8425 27.5263 48.8774 27.5263 46.4534H19.5263C19.5263 44.4591 21.143 42.8425 23.1373 42.8425V50.8425ZM18.7482 46.4534C18.7482 48.8774 20.7133 50.8425 23.1373 50.8425V42.8425C25.1316 42.8425 26.7482 44.4591 26.7482 46.4534H18.7482ZM23.1373 42.0644C20.7133 42.0644 18.7482 44.0294 18.7482 46.4534H26.7482C26.7482 48.4477 25.1316 50.0644 23.1373 50.0644V42.0644ZM27.5263 46.4534C27.5263 44.0294 25.5613 42.0644 23.1373 42.0644V50.0644C21.143 50.0644 19.5263 48.4477 19.5263 46.4534H27.5263ZM22.4054 46.4534C22.4054 44.4591 24.0221 42.8425 26.0164 42.8425V50.8425C28.4404 50.8425 30.4054 48.8774 30.4054 46.4534H22.4054ZM26.0164 50.0644C24.0221 50.0644 22.4054 48.4477 22.4054 46.4534H30.4054C30.4054 44.0294 28.4404 42.0644 26.0164 42.0644V50.0644ZM29.6273 46.4534C29.6273 48.4477 28.0106 50.0644 26.0164 50.0644V42.0644C23.5924 42.0644 21.6273 44.0294 21.6273 46.4534H29.6273ZM26.0164 42.8425C28.0106 42.8425 29.6273 44.4591 29.6273 46.4534H21.6273C21.6273 48.8774 23.5924 50.8425 26.0164 50.8425V42.8425ZM28.8954 50.8425C31.3195 50.8425 33.2845 48.8774 33.2845 46.4534H25.2845C25.2845 44.4591 26.9012 42.8425 28.8954 42.8425V50.8425ZM24.5064 46.4534C24.5064 48.8774 26.4714 50.8425 28.8954 50.8425V42.8425C30.8897 42.8425 32.5064 44.4591 32.5064 46.4534H24.5064ZM28.8954 42.0644C26.4714 42.0644 24.5064 44.0294 24.5064 46.4534H32.5064C32.5064 48.4477 30.8897 50.0644 28.8954 50.0644V42.0644ZM33.2845 46.4534C33.2845 44.0294 31.3195 42.0644 28.8954 42.0644V50.0644C26.9012 50.0644 25.2845 48.4477 25.2845 46.4534H33.2845ZM8.01004 50.4222C8.01004 48.4279 9.62671 46.8112 11.621 46.8112V54.8112C14.045 54.8112 16.01 52.8462 16.01 50.4222H8.01004ZM11.621 54.0331C9.62671 54.0331 8.01004 52.4164 8.01004 50.4222H16.01C16.01 47.9982 14.045 46.0331 11.621 46.0331V54.0331ZM15.2319 50.4222C15.2319 52.4164 13.6152 54.0331 11.621 54.0331V46.0331C9.19697 46.0331 7.23192 47.9982 7.23192 50.4222H15.2319ZM11.621 46.8112C13.6152 46.8112 15.2319 48.4279 15.2319 50.4222H7.23192C7.23192 52.8462 9.19697 54.8112 11.621 54.8112V46.8112ZM14.5001 54.8112C16.9241 54.8112 18.8891 52.8462 18.8891 50.4222H10.8891C10.8891 48.4279 12.5058 46.8112 14.5001 46.8112V54.8112ZM10.111 50.4222C10.111 52.8462 12.076 54.8112 14.5001 54.8112V46.8112C16.4943 46.8112 18.111 48.4279 18.111 50.4222H10.111ZM14.5001 46.0331C12.076 46.0331 10.111 47.9982 10.111 50.4222H18.111C18.111 52.4164 16.4943 54.0331 14.5001 54.0331V46.0331ZM18.8891 50.4222C18.8891 47.9982 16.9241 46.0331 14.5001 46.0331V54.0331C12.5058 54.0331 10.8891 52.4164 10.8891 50.4222H18.8891ZM13.7687 50.4222C13.7687 48.4279 15.3853 46.8112 17.3796 46.8112V54.8112C19.8036 54.8112 21.7687 52.8462 21.7687 50.4222H13.7687ZM17.3796 54.0331C15.3853 54.0331 13.7687 52.4164 13.7687 50.4222H21.7687C21.7687 47.9982 19.8036 46.0331 17.3796 46.0331V54.0331ZM20.9906 50.4222C20.9906 52.4164 19.3739 54.0331 17.3796 54.0331V46.0331C14.9556 46.0331 12.9906 47.9982 12.9906 50.4222H20.9906ZM17.3796 46.8112C19.3739 46.8112 20.9906 48.4279 20.9906 50.4222H12.9906C12.9906 52.8462 14.9556 54.8112 17.3796 54.8112V46.8112ZM20.2587 54.8112C22.6827 54.8112 24.6478 52.8462 24.6478 50.4222H16.6478C16.6478 48.4279 18.2644 46.8112 20.2587 46.8112V54.8112ZM15.8696 50.4222C15.8696 52.8462 17.8347 54.8112 20.2587 54.8112V46.8112C22.253 46.8112 23.8696 48.4279 23.8696 50.4222H15.8696ZM20.2587 46.0331C17.8347 46.0331 15.8696 47.9982 15.8696 50.4222H23.8696C23.8696 52.4164 22.253 54.0331 20.2587 54.0331V46.0331ZM24.6478 50.4222C24.6478 47.9982 22.6827 46.0331 20.2587 46.0331V54.0331C18.2644 54.0331 16.6478 52.4164 16.6478 50.4222H24.6478ZM19.5263 50.4222C19.5263 48.4279 21.143 46.8112 23.1373 46.8112V54.8112C25.5613 54.8112 27.5263 52.8462 27.5263 50.4222H19.5263ZM23.1373 54.0331C21.143 54.0331 19.5263 52.4164 19.5263 50.4222H27.5263C27.5263 47.9982 25.5613 46.0331 23.1373 46.0331V54.0331ZM26.7482 50.4222C26.7482 52.4164 25.1316 54.0331 23.1373 54.0331V46.0331C20.7133 46.0331 18.7482 47.9982 18.7482 50.4222H26.7482ZM23.1373 46.8112C25.1316 46.8112 26.7482 48.4279 26.7482 50.4222H18.7482C18.7482 52.8462 20.7133 54.8112 23.1373 54.8112V46.8112ZM26.0164 54.8112C28.4404 54.8112 30.4054 52.8462 30.4054 50.4222H22.4054C22.4054 48.4279 24.0221 46.8112 26.0164 46.8112V54.8112ZM21.6273 50.4222C21.6273 52.8462 23.5924 54.8112 26.0164 54.8112V46.8112C28.0106 46.8112 29.6273 48.4279 29.6273 50.4222H21.6273ZM26.0164 46.0331C23.5924 46.0331 21.6273 47.9982 21.6273 50.4222H29.6273C29.6273 52.4164 28.0106 54.0331 26.0164 54.0331V46.0331ZM30.4054 50.4222C30.4054 47.9982 28.4404 46.0331 26.0164 46.0331V54.0331C24.0221 54.0331 22.4054 52.4164 22.4054 50.4222H30.4054ZM25.2845 50.4222C25.2845 48.4279 26.9012 46.8112 28.8954 46.8112V54.8112C31.3195 54.8112 33.2845 52.8462 33.2845 50.4222H25.2845ZM28.8954 54.0331C26.9012 54.0331 25.2845 52.4164 25.2845 50.4222H33.2845C33.2845 47.9982 31.3195 46.0331 28.8954 46.0331V54.0331ZM32.5064 50.4222C32.5064 52.4164 30.8897 54.0331 28.8954 54.0331V46.0331C26.4714 46.0331 24.5064 47.9982 24.5064 50.4222H32.5064ZM28.8954 46.8112C30.8897 46.8112 32.5064 48.4279 32.5064 50.4222H24.5064C24.5064 52.8462 26.4714 54.8112 28.8954 54.8112V46.8112ZM99.0033 42.9056C101.427 42.9056 103.392 40.9405 103.392 38.5165H95.3924C95.3924 36.5222 97.0091 34.9056 99.0033 34.9056V42.9056ZM94.6143 38.5165C94.6143 40.9405 96.5793 42.9056 99.0033 42.9056V34.9056C100.998 34.9056 102.614 36.5223 102.614 38.5165H94.6143ZM99.0033 34.1274C96.5793 34.1274 94.6143 36.0925 94.6143 38.5165H102.614C102.614 40.5107 100.998 42.1274 99.0033 42.1274V34.1274ZM103.392 38.5165C103.392 36.0925 101.427 34.1274 99.0033 34.1274V42.1274C97.0091 42.1274 95.3924 40.5108 95.3924 38.5165H103.392ZM98.2715 38.5164C98.2715 36.5221 99.8881 34.9054 101.882 34.9054V42.9054C104.306 42.9054 106.271 40.9404 106.271 38.5164H98.2715ZM101.882 42.1273C99.8881 42.1273 98.2715 40.5106 98.2715 38.5164H106.271C106.271 36.0924 104.306 34.1273 101.882 34.1273V42.1273ZM105.493 38.5164C105.493 40.5106 103.877 42.1273 101.882 42.1273V34.1273C99.4584 34.1273 97.4934 36.0924 97.4934 38.5164H105.493ZM101.882 34.9054C103.877 34.9054 105.493 36.5221 105.493 38.5164H97.4934C97.4934 40.9404 99.4584 42.9054 101.882 42.9054V34.9054ZM104.762 42.9054C107.186 42.9054 109.151 40.9404 109.151 38.5164H101.151C101.151 36.5221 102.767 34.9054 104.762 34.9054V42.9054ZM100.372 38.5164C100.372 40.9404 102.337 42.9054 104.762 42.9054V34.9054C106.756 34.9054 108.372 36.5221 108.372 38.5164H100.372ZM104.762 34.1273C102.337 34.1273 100.372 36.0924 100.372 38.5164H108.372C108.372 40.5106 106.756 42.1273 104.762 42.1273V34.1273ZM109.151 38.5164C109.151 36.0924 107.186 34.1273 104.762 34.1273V42.1273C102.767 42.1273 101.151 40.5107 101.151 38.5164H109.151ZM104.03 38.5164C104.03 36.5221 105.646 34.9054 107.641 34.9054V42.9054C110.065 42.9054 112.03 40.9404 112.03 38.5164H104.03ZM107.641 42.1273C105.646 42.1273 104.03 40.5106 104.03 38.5164H112.03C112.03 36.0924 110.065 34.1273 107.641 34.1273V42.1273ZM111.252 38.5164C111.252 40.5106 109.635 42.1273 107.641 42.1273V34.1273C105.217 34.1273 103.252 36.0925 103.252 38.5164H111.252ZM107.641 34.9054C109.635 34.9054 111.252 36.5222 111.252 38.5164H103.252C103.252 40.9403 105.217 42.9054 107.641 42.9054V34.9054ZM110.519 42.9054C112.943 42.9054 114.908 40.9404 114.908 38.5164H106.908C106.908 36.5221 108.525 34.9054 110.519 34.9054V42.9054ZM106.13 38.5164C106.13 40.9404 108.095 42.9054 110.519 42.9054V34.9054C112.513 34.9054 114.13 36.5221 114.13 38.5164H106.13ZM110.519 34.1273C108.095 34.1273 106.13 36.0924 106.13 38.5164H114.13C114.13 40.5106 112.513 42.1273 110.519 42.1273V34.1273ZM114.908 38.5164C114.908 36.0924 112.943 34.1273 110.519 34.1273V42.1273C108.525 42.1273 106.908 40.5107 106.908 38.5164H114.908ZM109.787 38.5164C109.787 36.5221 111.404 34.9054 113.398 34.9054V42.9054C115.822 42.9054 117.787 40.9404 117.787 38.5164H109.787ZM113.398 42.1273C111.404 42.1273 109.787 40.5106 109.787 38.5164H117.787C117.787 36.0924 115.822 34.1273 113.398 34.1273V42.1273ZM117.009 38.5164C117.009 40.5106 115.393 42.1273 113.398 42.1273V34.1273C110.974 34.1273 109.009 36.0925 109.009 38.5164H117.009ZM113.398 34.9054C115.393 34.9054 117.009 36.5222 117.009 38.5164H109.009C109.009 40.9403 110.974 42.9054 113.398 42.9054V34.9054ZM116.278 42.9054C118.702 42.9054 120.667 40.9404 120.667 38.5164H112.667C112.667 36.5221 114.284 34.9054 116.278 34.9054V42.9054ZM111.889 38.5164C111.889 40.9404 113.854 42.9054 116.278 42.9054V34.9054C118.272 34.9054 119.889 36.5221 119.889 38.5164H111.889ZM116.278 34.1273C113.854 34.1273 111.889 36.0924 111.889 38.5164H119.889C119.889 40.5106 118.272 42.1273 116.278 42.1273V34.1273ZM120.667 38.5164C120.667 36.0924 118.702 34.1273 116.278 34.1273V42.1273C114.284 42.1273 112.667 40.5107 112.667 38.5164H120.667ZM95.3924 42.4851C95.3924 40.4909 97.0091 38.8742 99.0034 38.8742V46.8742C101.427 46.8742 103.392 44.9091 103.392 42.4851H95.3924ZM99.0034 46.0961C97.0091 46.0961 95.3924 44.4794 95.3924 42.4851H103.392C103.392 40.0612 101.427 38.0961 99.0034 38.0961V46.0961ZM102.614 42.4851C102.614 44.4794 100.998 46.0961 99.0034 46.0961V38.0961C96.5794 38.0961 94.6143 40.0611 94.6143 42.4851H102.614ZM99.0034 38.8742C100.998 38.8742 102.614 40.4908 102.614 42.4851H94.6143C94.6143 44.9092 96.5794 46.8742 99.0034 46.8742V38.8742ZM101.882 46.8742C104.306 46.8742 106.271 44.9091 106.271 42.4851H98.2715C98.2715 40.4909 99.8881 38.8742 101.882 38.8742V46.8742ZM97.4934 42.4851C97.4934 44.9091 99.4584 46.8742 101.882 46.8742V38.8742C103.877 38.8742 105.493 40.4909 105.493 42.4851H97.4934ZM101.882 38.0961C99.4584 38.0961 97.4934 40.0612 97.4934 42.4851H105.493C105.493 44.4794 103.877 46.0961 101.882 46.0961V38.0961ZM106.271 42.4851C106.271 40.0612 104.306 38.0961 101.882 38.0961V46.0961C99.8881 46.0961 98.2715 44.4794 98.2715 42.4851H106.271ZM101.151 42.4851C101.151 40.4908 102.767 38.8742 104.762 38.8742V46.8742C107.186 46.8742 109.151 44.9092 109.151 42.4851H101.151ZM104.762 46.0961C102.767 46.0961 101.151 44.4794 101.151 42.4851H109.151C109.151 40.0611 107.186 38.0961 104.762 38.0961V46.0961ZM108.372 42.4851C108.372 44.4794 106.756 46.0961 104.762 46.0961V38.0961C102.337 38.0961 100.372 40.0612 100.372 42.4851H108.372ZM104.762 38.8742C106.756 38.8742 108.372 40.4909 108.372 42.4851H100.372C100.372 44.9091 102.337 46.8742 104.762 46.8742V38.8742ZM107.641 46.8742C110.065 46.8742 112.03 44.9091 112.03 42.4851H104.03C104.03 40.4909 105.646 38.8742 107.641 38.8742V46.8742ZM103.252 42.4851C103.252 44.9091 105.217 46.8742 107.641 46.8742V38.8742C109.635 38.8742 111.252 40.4909 111.252 42.4851H103.252ZM107.641 38.0961C105.217 38.0961 103.252 40.0612 103.252 42.4851H111.252C111.252 44.4793 109.635 46.0961 107.641 46.0961V38.0961ZM112.03 42.4851C112.03 40.0612 110.065 38.0961 107.641 38.0961V46.0961C105.646 46.0961 104.03 44.4794 104.03 42.4851H112.03ZM106.908 42.4851C106.908 40.4908 108.525 38.8742 110.519 38.8742V46.8742C112.943 46.8742 114.908 44.9092 114.908 42.4851H106.908ZM110.519 46.0961C108.525 46.0961 106.908 44.4794 106.908 42.4851H114.908C114.908 40.0611 112.943 38.0961 110.519 38.0961V46.0961ZM114.13 42.4851C114.13 44.4794 112.513 46.0961 110.519 46.0961V38.0961C108.095 38.0961 106.13 40.0612 106.13 42.4851H114.13ZM110.519 38.8742C112.513 38.8742 114.13 40.4909 114.13 42.4851H106.13C106.13 44.9091 108.095 46.8742 110.519 46.8742V38.8742ZM113.398 46.8742C115.822 46.8742 117.787 44.9091 117.787 42.4851H109.787C109.787 40.4909 111.404 38.8742 113.398 38.8742V46.8742ZM109.009 42.4851C109.009 44.9091 110.974 46.8742 113.398 46.8742V38.8742C115.393 38.8742 117.009 40.4909 117.009 42.4851H109.009ZM113.398 38.0961C110.974 38.0961 109.009 40.0612 109.009 42.4851H117.009C117.009 44.4793 115.393 46.0961 113.398 46.0961V38.0961ZM117.787 42.4851C117.787 40.0612 115.822 38.0961 113.398 38.0961V46.0961C111.404 46.0961 109.787 44.4794 109.787 42.4851H117.787ZM112.667 42.4851C112.667 40.4908 114.284 38.8742 116.278 38.8742V46.8742C118.702 46.8742 120.667 44.9092 120.667 42.4851H112.667ZM116.278 46.0961C114.284 46.0961 112.667 44.4794 112.667 42.4851H120.667C120.667 40.0611 118.702 38.0961 116.278 38.0961V46.0961ZM119.889 42.4851C119.889 44.4794 118.272 46.0961 116.278 46.0961V38.0961C113.854 38.0961 111.889 40.0612 111.889 42.4851H119.889ZM116.278 38.8742C118.272 38.8742 119.889 40.4909 119.889 42.4851H111.889C111.889 44.9091 113.854 46.8742 116.278 46.8742V38.8742ZM99.0034 50.8425C101.427 50.8425 103.392 48.8774 103.392 46.4534H95.3924C95.3924 44.4592 97.0091 42.8425 99.0034 42.8425V50.8425ZM94.6143 46.4534C94.6143 48.8774 96.5794 50.8425 99.0034 50.8425V42.8425C100.998 42.8425 102.614 44.4591 102.614 46.4534H94.6143ZM99.0034 42.0644C96.5794 42.0644 94.6143 44.0294 94.6143 46.4534H102.614C102.614 48.4477 100.998 50.0644 99.0034 50.0644V42.0644ZM103.392 46.4534C103.392 44.0294 101.427 42.0644 99.0034 42.0644V50.0644C97.0091 50.0644 95.3924 48.4477 95.3924 46.4534H103.392ZM98.2715 46.4534C98.2715 44.4592 99.8881 42.8425 101.882 42.8425V50.8425C104.306 50.8425 106.271 48.8774 106.271 46.4534H98.2715ZM101.882 50.0644C99.8881 50.0644 98.2715 48.4477 98.2715 46.4534H106.271C106.271 44.0294 104.306 42.0644 101.882 42.0644V50.0644ZM105.493 46.4534C105.493 48.4477 103.877 50.0644 101.882 50.0644V42.0644C99.4584 42.0644 97.4934 44.0294 97.4934 46.4534H105.493ZM101.882 42.8425C103.877 42.8425 105.493 44.4592 105.493 46.4534H97.4934C97.4934 48.8774 99.4584 50.8425 101.882 50.8425V42.8425ZM104.762 50.8425C107.186 50.8425 109.151 48.8774 109.151 46.4534H101.151C101.151 44.4591 102.767 42.8425 104.762 42.8425V50.8425ZM100.372 46.4534C100.372 48.8774 102.337 50.8425 104.762 50.8425V42.8425C106.756 42.8425 108.372 44.4592 108.372 46.4534H100.372ZM104.762 42.0644C102.337 42.0644 100.372 44.0294 100.372 46.4534H108.372C108.372 48.4477 106.756 50.0644 104.762 50.0644V42.0644ZM109.151 46.4534C109.151 44.0294 107.186 42.0644 104.762 42.0644V50.0644C102.767 50.0644 101.151 48.4477 101.151 46.4534H109.151ZM104.03 46.4534C104.03 44.4592 105.646 42.8425 107.641 42.8425V50.8425C110.065 50.8425 112.03 48.8774 112.03 46.4534H104.03ZM107.641 50.0644C105.646 50.0644 104.03 48.4477 104.03 46.4534H112.03C112.03 44.0294 110.065 42.0644 107.641 42.0644V50.0644ZM111.252 46.4534C111.252 48.4476 109.635 50.0644 107.641 50.0644V42.0644C105.217 42.0644 103.252 44.0295 103.252 46.4534H111.252ZM107.641 42.8425C109.635 42.8425 111.252 44.4592 111.252 46.4534H103.252C103.252 48.8773 105.217 50.8425 107.641 50.8425V42.8425ZM110.519 50.8425C112.943 50.8425 114.908 48.8774 114.908 46.4534H106.908C106.908 44.4591 108.525 42.8425 110.519 42.8425V50.8425ZM106.13 46.4534C106.13 48.8774 108.095 50.8425 110.519 50.8425V42.8425C112.513 42.8425 114.13 44.4592 114.13 46.4534H106.13ZM110.519 42.0644C108.095 42.0644 106.13 44.0294 106.13 46.4534H114.13C114.13 48.4477 112.513 50.0644 110.519 50.0644V42.0644ZM114.908 46.4534C114.908 44.0294 112.943 42.0644 110.519 42.0644V50.0644C108.525 50.0644 106.908 48.4477 106.908 46.4534H114.908ZM109.787 46.4534C109.787 44.4592 111.404 42.8425 113.398 42.8425V50.8425C115.822 50.8425 117.787 48.8774 117.787 46.4534H109.787ZM113.398 50.0644C111.404 50.0644 109.787 48.4477 109.787 46.4534H117.787C117.787 44.0294 115.822 42.0644 113.398 42.0644V50.0644ZM117.009 46.4534C117.009 48.4476 115.393 50.0644 113.398 50.0644V42.0644C110.974 42.0644 109.009 44.0295 109.009 46.4534H117.009ZM113.398 42.8425C115.393 42.8425 117.009 44.4592 117.009 46.4534H109.009C109.009 48.8773 110.974 50.8425 113.398 50.8425V42.8425ZM116.278 50.8425C118.702 50.8425 120.667 48.8774 120.667 46.4534H112.667C112.667 44.4591 114.284 42.8425 116.278 42.8425V50.8425ZM111.889 46.4534C111.889 48.8774 113.854 50.8425 116.278 50.8425V42.8425C118.272 42.8425 119.889 44.4592 119.889 46.4534H111.889ZM116.278 42.0644C113.854 42.0644 111.889 44.0294 111.889 46.4534H119.889C119.889 48.4477 118.272 50.0644 116.278 50.0644V42.0644ZM120.667 46.4534C120.667 44.0294 118.702 42.0644 116.278 42.0644V50.0644C114.284 50.0644 112.667 48.4477 112.667 46.4534H120.667ZM95.3924 50.4222C95.3924 48.4279 97.0091 46.8112 99.0034 46.8112V54.8112C101.427 54.8112 103.392 52.8461 103.392 50.4222H95.3924ZM99.0034 54.0331C97.0091 54.0331 95.3924 52.4164 95.3924 50.4222H103.392C103.392 47.9982 101.427 46.0331 99.0034 46.0331V54.0331ZM102.614 50.4222C102.614 52.4165 100.998 54.0331 99.0034 54.0331V46.0331C96.5794 46.0331 94.6143 47.9981 94.6143 50.4222H102.614ZM99.0034 46.8112C100.998 46.8112 102.614 48.4279 102.614 50.4222H94.6143C94.6143 52.8462 96.5794 54.8112 99.0034 54.8112V46.8112ZM101.882 54.8112C104.306 54.8112 106.271 52.8461 106.271 50.4222H98.2715C98.2715 48.4279 99.8881 46.8112 101.882 46.8112V54.8112ZM97.4934 50.4222C97.4934 52.8461 99.4584 54.8112 101.882 54.8112V46.8112C103.877 46.8112 105.493 48.4279 105.493 50.4222H97.4934ZM101.882 46.0331C99.4584 46.0331 97.4934 47.9982 97.4934 50.4222H105.493C105.493 52.4164 103.877 54.0331 101.882 54.0331V46.0331ZM106.271 50.4222C106.271 47.9982 104.306 46.0331 101.882 46.0331V54.0331C99.8881 54.0331 98.2715 52.4164 98.2715 50.4222H106.271ZM101.151 50.4222C101.151 48.4279 102.767 46.8112 104.762 46.8112V54.8112C107.186 54.8112 109.151 52.8462 109.151 50.4222H101.151ZM104.762 54.0331C102.767 54.0331 101.151 52.4165 101.151 50.4222H109.151C109.151 47.9981 107.186 46.0331 104.762 46.0331V54.0331ZM108.372 50.4222C108.372 52.4164 106.756 54.0331 104.762 54.0331V46.0331C102.337 46.0331 100.372 47.9982 100.372 50.4222H108.372ZM104.762 46.8112C106.756 46.8112 108.372 48.4279 108.372 50.4222H100.372C100.372 52.8461 102.337 54.8112 104.762 54.8112V46.8112ZM107.641 54.8112C110.065 54.8112 112.03 52.8461 112.03 50.4222H104.03C104.03 48.4279 105.646 46.8112 107.641 46.8112V54.8112ZM103.252 50.4222C103.252 52.8461 105.217 54.8112 107.641 54.8112V46.8112C109.635 46.8112 111.252 48.428 111.252 50.4222H103.252ZM107.641 46.0331C105.217 46.0331 103.252 47.9982 103.252 50.4222H111.252C111.252 52.4164 109.635 54.0331 107.641 54.0331V46.0331ZM112.03 50.4222C112.03 47.9982 110.065 46.0331 107.641 46.0331V54.0331C105.646 54.0331 104.03 52.4164 104.03 50.4222H112.03ZM106.908 50.4222C106.908 48.4279 108.525 46.8112 110.519 46.8112V54.8112C112.943 54.8112 114.908 52.8462 114.908 50.4222H106.908ZM110.519 54.0331C108.525 54.0331 106.908 52.4165 106.908 50.4222H114.908C114.908 47.9981 112.943 46.0331 110.519 46.0331V54.0331ZM114.13 50.4222C114.13 52.4164 112.513 54.0331 110.519 54.0331V46.0331C108.095 46.0331 106.13 47.9982 106.13 50.4222H114.13ZM110.519 46.8112C112.513 46.8112 114.13 48.4279 114.13 50.4222H106.13C106.13 52.8461 108.095 54.8112 110.519 54.8112V46.8112ZM113.398 54.8112C115.822 54.8112 117.787 52.8461 117.787 50.4222H109.787C109.787 48.4279 111.404 46.8112 113.398 46.8112V54.8112ZM109.009 50.4222C109.009 52.8461 110.974 54.8112 113.398 54.8112V46.8112C115.393 46.8112 117.009 48.428 117.009 50.4222H109.009ZM113.398 46.0331C110.974 46.0331 109.009 47.9982 109.009 50.4222H117.009C117.009 52.4164 115.393 54.0331 113.398 54.0331V46.0331ZM117.787 50.4222C117.787 47.9982 115.822 46.0331 113.398 46.0331V54.0331C111.404 54.0331 109.787 52.4164 109.787 50.4222H117.787ZM112.667 50.4222C112.667 48.4279 114.284 46.8112 116.278 46.8112V54.8112C118.702 54.8112 120.667 52.8462 120.667 50.4222H112.667ZM116.278 54.0331C114.284 54.0331 112.667 52.4165 112.667 50.4222H120.667C120.667 47.9981 118.702 46.0331 116.278 46.0331V54.0331ZM119.889 50.4222C119.889 52.4164 118.272 54.0331 116.278 54.0331V46.0331C113.854 46.0331 111.889 47.9982 111.889 50.4222H119.889ZM116.278 46.8112C118.272 46.8112 119.889 48.4279 119.889 50.4222H111.889C111.889 52.8461 113.854 54.8112 116.278 54.8112V46.8112ZM18.3913 66.5752H11.7773V74.5752H18.3913V66.5752ZM24.181 72.3649C24.181 69.1673 21.5889 66.5752 18.3913 66.5752V74.5752C17.1706 74.5752 16.181 73.5856 16.181 72.3649H24.181ZM18.3913 78.1545C21.5889 78.1545 24.181 75.5624 24.181 72.3649H16.181C16.181 71.1441 17.1706 70.1545 18.3913 70.1545V78.1545ZM11.7773 78.1545H18.3913V70.1545H11.7773V78.1545ZM7.77734 70.5752V74.1545H15.7773V70.5752H7.77734ZM8.94945 80.8497V87.4988H16.9495V80.8497H8.94945ZM19.7267 76.9541C17.2741 76.3825 14.6821 76.4153 12.1521 76.93L13.7468 84.7694C15.3152 84.4504 16.732 84.4705 17.9109 84.7453L19.7267 76.9541ZM22.8188 87.4988V80.8497H14.8188V87.4988H22.8188ZM25.1387 83.4988H18.8188V91.4988H25.1387V83.4988ZM29.0616 94.0384C29.5445 91.6148 29.5953 89.2799 29.0548 86.6835L21.2227 88.314C21.5249 89.7658 21.5077 91.0103 21.2158 92.4752L29.0616 94.0384ZM18.9301 97.2568H25.1387V89.2568H18.9301V97.2568ZM22.9301 99.4123V93.2568H14.9301V99.4123H22.9301ZM12.1141 103.299C14.7743 103.947 17.3948 103.859 19.8099 103.314L18.0503 95.5103C16.6678 95.822 15.3091 95.843 14.0074 95.5259L12.1141 103.299ZM9.06074 93.2568V99.4123H17.0607V93.2568H9.06074ZM6.91365 97.2568H13.0607V89.2568H6.91365V97.2568ZM2.99387 86.7017C2.47522 89.2523 2.52949 91.5701 2.98163 93.9912L10.8457 92.5225C10.5573 90.9785 10.546 89.7094 10.8334 88.2959L2.99387 86.7017ZM12.9494 83.4988L6.91365 83.4988L6.91366 91.4988L12.9495 91.4988L12.9494 83.4988ZM99.9398 85.3291C97.1903 88.0787 97.1903 92.5366 99.9398 95.2861L105.597 89.6293C105.971 90.0039 105.971 90.6113 105.597 90.986L99.9398 85.3291ZM109.897 85.3291C107.147 82.5796 102.689 82.5796 99.9398 85.3291L105.597 90.986C105.222 91.3606 104.615 91.3606 104.24 90.986L109.897 85.3291ZM109.897 95.2861C112.646 92.5366 112.646 88.0787 109.897 85.3291L104.24 90.986C103.865 90.6113 103.865 90.0039 104.24 89.6293L109.897 95.2861ZM99.9398 95.2861C102.689 98.0357 107.147 98.0357 109.897 95.2861L104.24 89.6293C104.615 89.2546 105.222 89.2546 105.597 89.6293L99.9398 95.2861ZM112.546 82.8241C112.921 83.1987 112.921 83.8061 112.546 84.1808L106.89 78.5239C104.14 81.2735 104.14 85.7314 106.89 88.4809L112.546 82.8241ZM111.19 82.8241C111.564 82.4495 112.172 82.4495 112.546 82.8241L106.89 88.4809C109.639 91.2305 114.097 91.2305 116.847 88.4809L111.19 82.8241ZM111.19 84.1808C110.815 83.8061 110.815 83.1987 111.19 82.8241L116.847 88.4809C119.596 85.7314 119.596 81.2735 116.847 78.5239L111.19 84.1808ZM112.546 84.1808C112.172 84.5554 111.564 84.5554 111.19 84.1808L116.847 78.5239C114.097 75.7744 109.639 75.7744 106.89 78.5239L112.546 84.1808ZM106.89 92.4238C104.14 95.1734 104.14 99.6313 106.89 102.381L112.546 96.724C112.921 97.0986 112.921 97.7061 112.546 98.0807L106.89 92.4238ZM116.847 92.4238C114.097 89.6743 109.639 89.6743 106.89 92.4238L112.546 98.0807C112.172 98.4553 111.564 98.4553 111.19 98.0807L116.847 92.4238ZM116.847 102.381C119.596 99.6313 119.596 95.1734 116.847 92.4238L111.19 98.0807C110.815 97.7061 110.815 97.0986 111.19 96.724L116.847 102.381ZM106.89 102.381C109.639 105.13 114.097 105.13 116.847 102.381L111.19 96.724C111.564 96.3494 112.172 96.3494 112.546 96.724L106.89 102.381ZM119.497 89.6293C119.871 90.0039 119.871 90.6113 119.497 90.986L113.84 85.3291C111.09 88.0787 111.09 92.5366 113.84 95.2861L119.497 89.6293ZM118.14 89.6293C118.515 89.2546 119.122 89.2546 119.497 89.6293L113.84 95.2861C116.589 98.0357 121.047 98.0357 123.797 95.2861L118.14 89.6293ZM118.14 90.986C117.765 90.6113 117.765 90.0039 118.14 89.6293L123.797 95.2861C126.546 92.5366 126.546 88.0787 123.797 85.3291L118.14 90.986ZM119.497 90.986C119.122 91.3606 118.515 91.3606 118.14 90.986L123.797 85.3291C121.047 82.5796 116.589 82.5796 113.84 85.3291L119.497 90.986ZM104.839 66.7305C101.728 66.7305 99.2051 69.2529 99.2051 72.3645H107.205C107.205 73.6712 106.146 74.7305 104.839 74.7305V66.7305ZM110.908 66.7305H104.839V74.7305H110.908V66.7305ZM114.908 73.9986V70.7305H106.908V73.9986H114.908ZM104.839 77.9986H110.908V69.9986H104.839V77.9986ZM99.2051 72.3645C99.2051 75.4761 101.728 77.9986 104.839 77.9986V69.9986C106.146 69.9986 107.205 71.0578 107.205 72.3645H99.2051ZM116.635 72.3645C116.635 71.0578 117.694 69.9985 119.001 69.9985V77.9985C122.112 77.9985 124.635 75.4761 124.635 72.3645H116.635ZM119.001 74.7305C117.694 74.7305 116.635 73.6712 116.635 72.3645H124.635C124.635 69.2529 122.112 66.7305 119.001 66.7305V74.7305ZM112.931 74.7305H119.001V66.7305H112.931V74.7305ZM116.931 73.9985V70.7305H108.931V73.9985H116.931ZM119.001 69.9985H112.931V77.9985H119.001V69.9985ZM101.882 0.20166C98.7277 0.20166 96.1704 2.75895 96.1704 5.91351H104.17C104.17 7.17722 103.146 8.20166 101.882 8.20166V0.20166ZM107.594 5.91351C107.594 2.75896 105.037 0.20166 101.882 0.20166V8.20166C100.619 8.20166 99.5941 7.1772 99.5941 5.91351H107.594ZM101.882 11.6254C105.037 11.6254 107.594 9.06806 107.594 5.91351H99.5941C99.5941 4.64982 100.619 3.62537 101.882 3.62537V11.6254ZM96.1704 5.91351C96.1704 9.06807 98.7277 11.6254 101.882 11.6254V3.62537C103.146 3.62537 104.17 4.64981 104.17 5.91351H96.1704ZM37.1436 125.542H38.2329V117.542H37.1436V125.542ZM41.1436 123.876V121.542H33.1436V123.876H41.1436ZM38.2329 119.876H37.1436V127.876H38.2329V119.876ZM34.2329 121.542V123.876H42.2329V121.542H34.2329ZM25.9384 50.5459C22.7838 50.5459 20.2266 53.1032 20.2266 56.2578H28.2266C28.2266 57.5215 27.2021 58.5459 25.9384 58.5459V50.5459ZM31.6503 56.2578C31.6503 53.1032 29.093 50.5459 25.9384 50.5459V58.5459C24.6747 58.5459 23.6503 57.5215 23.6503 56.2578H31.6503ZM25.9384 61.9696C29.093 61.9696 31.6503 59.4123 31.6503 56.2578H23.6503C23.6503 54.994 24.6747 53.9696 25.9384 53.9696V61.9696ZM20.2266 56.2578C20.2266 59.4123 22.7838 61.9696 25.9384 61.9696V53.9696C27.2021 53.9696 28.2266 54.9941 28.2266 56.2578H20.2266ZM28.2266 5.91351C28.2266 7.17722 27.2021 8.20166 25.9384 8.20166V0.20166C22.7838 0.20166 20.2266 2.75895 20.2266 5.91351H28.2266ZM25.9384 3.62537C27.2021 3.62537 28.2266 4.64981 28.2266 5.91351H20.2266C20.2266 9.06807 22.7838 11.6254 25.9384 11.6254V3.62537ZM23.6503 5.91351C23.6503 4.64981 24.6747 3.62537 25.9384 3.62537V11.6254C29.093 11.6254 31.6503 9.06807 31.6503 5.91351H23.6503ZM25.9384 8.20166C24.6747 8.20166 23.6503 7.17722 23.6503 5.91351H31.6503C31.6503 2.75895 29.093 0.20166 25.9384 0.20166V8.20166ZM101.882 50.5459C98.7277 50.5459 96.1704 53.1032 96.1704 56.2578H104.17C104.17 57.5215 103.146 58.5459 101.882 58.5459V50.5459ZM107.594 56.2578C107.594 53.1032 105.037 50.5459 101.882 50.5459V58.5459C100.619 58.5459 99.5941 57.5214 99.5941 56.2578H107.594ZM101.882 61.9696C105.037 61.9696 107.594 59.4123 107.594 56.2578H99.5941C99.5941 54.9941 100.619 53.9696 101.882 53.9696V61.9696ZM96.1704 56.2578C96.1704 59.4123 98.7277 61.9696 101.882 61.9696V53.9696C103.146 53.9696 104.17 54.9941 104.17 56.2578H96.1704ZM86.3203 125.542H87.4097V117.542H86.3203V125.542ZM90.3203 123.876V121.542H82.3203V123.876H90.3203ZM87.4097 119.876H86.3203V127.876H87.4097V119.876ZM83.4097 121.542V123.876H91.4097V121.542H83.4097ZM90.3662 117.542H89.2769V125.542H90.3662V117.542ZM94.3662 123.876V121.542H86.3662V123.876H94.3662ZM89.2769 127.876H90.3662V119.876H89.2769V127.876ZM85.2769 121.542V123.876H93.2769V121.542H85.2769ZM38.7002 6C35.3865 6 32.7002 8.6863 32.7002 12H40.7002C40.7002 13.1046 39.8048 14 38.7002 14V6ZM89.4016 6H38.7002V14H89.4016V6ZM95.4016 12C95.4016 8.68629 92.7153 6 89.4016 6V14C88.297 14 87.4016 13.1046 87.4016 12H95.4016ZM95.4016 49.1623V12H87.4016V49.1623H95.4016ZM89.4016 55.1623C92.7153 55.1623 95.4016 52.476 95.4016 49.1623H87.4016C87.4016 48.0577 88.297 47.1623 89.4016 47.1623V55.1623ZM38.7002 55.1623H89.4016V47.1623H38.7002V55.1623ZM32.7002 49.1623C32.7002 52.476 35.3865 55.1623 38.7002 55.1623V47.1623C39.8048 47.1623 40.7002 48.0577 40.7002 49.1623H32.7002ZM32.7002 12V49.1623H40.7002V12H32.7002ZM41 69C41 70.1046 40.1046 71 39 71V63C35.6863 63 33 65.6863 33 69H41ZM41 105V69H33V105H41ZM39 103C40.1046 103 41 103.895 41 105H33C33 108.314 35.6863 111 39 111V103ZM89 103H39V111H89V103ZM87 105C87 103.895 87.8954 103 89 103V111C92.3137 111 95 108.314 95 105H87ZM87 69V105H95V69H87ZM89 71C87.8954 71 87 70.1046 87 69H95C95 65.6863 92.3137 63 89 63V71ZM39 71H89V63H39V71Z" fill="white" mask="url(#path-1-inside-1_1168_2)"/>
</g>
<defs>
<clipPath id="clip0_1168_2">
<rect width="128" height="128" fill="white"/>
</clipPath>
</defs>
</svg>
