<svg width="128" height="128" viewBox="0 0 128 128" fill="none" xmlns="http://www.w3.org/2000/svg">
<path fill-rule="evenodd" clip-rule="evenodd" d="M64.7351 98.0471C60.5591 98.0471 19.0648 97.2188 13.0166 95.8472C6.96848 94.4756 3.49637 91.9312 1.96624 83.4886C0.328738 67.7795 -0.149209 58.7059 1.13104 41.2367C1.56667 35.0292 2.80145 33.5368 5.30706 32.8251C6.13816 32.589 10.4975 32.1599 16.7685 31.7061C19.6976 31.4942 23.0437 31.2769 26.6421 31.0714V30.6477L37.6589 30.0974L37.6736 30.5226C46.8923 30.1325 56.6198 29.8989 64.7351 30.0428C79.6705 29.7779 99.4639 30.7919 111.699 31.7061C117.772 32.1599 121.983 32.589 122.814 32.8251C125.32 33.5368 126.554 35.0292 126.99 41.2367C128.27 58.7059 127.792 67.7795 126.155 83.4886C124.625 91.9312 121.153 94.4756 115.104 95.8471C109.056 97.2187 68.9111 98.0471 64.7351 98.0471ZM110.326 42.0347L107.306 49.4757C109.041 50.1874 112.267 50.2719 113.41 47.7286C114.373 45.1405 112.651 42.8974 110.326 42.0347ZM16.5685 81.5191C16.5499 81.876 16.2476 82.1501 15.8933 82.1314C15.5389 82.1127 15.2668 81.8082 15.2853 81.4514C15.3039 81.0945 15.6062 80.8204 15.9605 80.8391C16.3149 80.8578 16.5871 81.1622 16.5685 81.5191ZM17.9465 82.2393C18.3009 82.258 18.6032 81.9839 18.6217 81.6271C18.6403 81.2702 18.3681 80.9657 18.0138 80.947C17.6594 80.9283 17.3571 81.2025 17.3386 81.5593C17.32 81.9162 17.5922 82.2206 17.9465 82.2393ZM20.6745 81.736C20.6559 82.0929 20.3536 82.367 19.9993 82.3483C19.6449 82.3296 19.3727 82.0251 19.3913 81.6683C19.4099 81.3114 19.7122 81.0373 20.0665 81.056C20.4209 81.0747 20.693 81.3792 20.6745 81.736ZM22.0525 82.4568C22.4068 82.4755 22.7092 82.2013 22.7277 81.8445C22.7463 81.4876 22.4741 81.1832 22.1198 81.1645C21.7654 81.1457 21.4631 81.4199 21.4446 81.7767C21.426 82.1336 21.6982 82.4381 22.0525 82.4568ZM24.781 81.9524C24.7624 82.3093 24.4601 82.5834 24.1058 82.5647C23.7514 82.546 23.4792 82.2416 23.4978 81.8847C23.5164 81.5278 23.8187 81.2537 24.173 81.2724C24.5273 81.2911 24.7995 81.5956 24.781 81.9524ZM26.158 82.6727C26.5123 82.6914 26.8146 82.4173 26.8332 82.0604C26.8518 81.7035 26.5796 81.3991 26.2252 81.3804C25.8709 81.3617 25.5686 81.6358 25.55 81.9927C25.5315 82.3495 25.8037 82.654 26.158 82.6727ZM16.582 83.7223C16.5634 84.0791 16.2611 84.3533 15.9068 84.3346C15.5524 84.3159 15.2802 84.0114 15.2988 83.6546C15.3174 83.2977 15.6197 83.0236 15.974 83.0423C16.3284 83.061 16.6006 83.3654 16.582 83.7223ZM17.96 84.4435C18.3144 84.4622 18.6167 84.1881 18.6352 83.8312C18.6538 83.4744 18.3816 83.1699 18.0273 83.1512C17.6729 83.1325 17.3706 83.4066 17.3521 83.7635C17.3335 84.1204 17.6057 84.4248 17.96 84.4435ZM20.6885 83.9392C20.6699 84.2961 20.3676 84.5702 20.0133 84.5515C19.6589 84.5328 19.3867 84.2283 19.4053 83.8715C19.4239 83.5146 19.7262 83.2405 20.0805 83.2592C20.4349 83.2779 20.707 83.5823 20.6885 83.9392ZM22.066 84.66C22.4203 84.6787 22.7226 84.4045 22.7412 84.0477C22.7598 83.6908 22.4876 83.3863 22.1333 83.3676C21.7789 83.3489 21.4766 83.6231 21.458 83.9799C21.4395 84.3368 21.7117 84.6412 22.066 84.66ZM24.795 84.1561C24.7764 84.513 24.4741 84.7871 24.1197 84.7684C23.7654 84.7497 23.4932 84.4453 23.5118 84.0884C23.5304 83.7315 23.8327 83.4574 24.187 83.4761C24.5413 83.4948 24.8135 83.7993 24.795 84.1561ZM26.1725 84.8774C26.5268 84.8961 26.8291 84.6219 26.8477 84.2651C26.8663 83.9082 26.5941 83.6038 26.2397 83.5851C25.8854 83.5664 25.5831 83.8405 25.5645 84.1973C25.546 84.5542 25.8182 84.8587 26.1725 84.8774ZM16.5963 85.9263C16.5778 86.2831 16.2755 86.5573 15.9211 86.5386C15.5668 86.5199 15.2946 86.2154 15.3132 85.8586C15.3317 85.5017 15.634 85.2276 15.9884 85.2463C16.3427 85.265 16.6149 85.5694 16.5963 85.9263ZM17.9748 86.6465C18.3292 86.6652 18.6315 86.3911 18.65 86.0342C18.6686 85.6773 18.3964 85.3729 18.0421 85.3542C17.6877 85.3355 17.3854 85.6096 17.3669 85.9665C17.3483 86.3233 17.6205 86.6278 17.9748 86.6465ZM20.7028 86.1431C20.6842 86.4999 20.3819 86.7741 20.0276 86.7554C19.6732 86.7367 19.401 86.4322 19.4196 86.0754C19.4382 85.7185 19.7405 85.4444 20.0948 85.4631C20.4492 85.4818 20.7213 85.7862 20.7028 86.1431ZM22.0803 86.8638C22.4346 86.8825 22.7369 86.6083 22.7555 86.2515C22.7741 85.8946 22.5019 85.5902 22.1475 85.5715C21.7932 85.5528 21.4909 85.8269 21.4723 86.1838C21.4538 86.5406 21.726 86.8451 22.0803 86.8638ZM24.8087 86.3604C24.7902 86.7172 24.4879 86.9914 24.1335 86.9727C23.7792 86.954 23.507 86.6495 23.5256 86.2926C23.5441 85.9358 23.8464 85.6616 24.2008 85.6803C24.5551 85.6991 24.8273 86.0035 24.8087 86.3604ZM26.1867 87.0806C26.5411 87.0993 26.8434 86.8251 26.862 86.4683C26.8805 86.1114 26.6083 85.807 26.254 85.7883C25.8997 85.7696 25.5974 86.0437 25.5788 86.4006C25.5602 86.7574 25.8324 87.0619 26.1867 87.0806ZM16.6105 88.1297C16.5919 88.4865 16.2896 88.7606 15.9353 88.7419C15.5809 88.7232 15.3087 88.4188 15.3273 88.0619C15.3459 87.7051 15.6482 87.4309 16.0025 87.4496C16.3569 87.4683 16.629 87.7728 16.6105 88.1297ZM13.854 84.2266C14.2084 84.2453 14.5107 83.9712 14.5292 83.6143C14.5478 83.2575 14.2756 82.953 13.9213 82.9343C13.5669 82.9156 13.2646 83.1897 13.2461 83.5466C13.2275 83.9035 13.4997 84.2079 13.854 84.2266ZM14.5441 85.8174C14.5255 86.1743 14.2232 86.4484 13.8689 86.4297C13.5145 86.411 13.2423 86.1065 13.2609 85.7497C13.2795 85.3928 13.5818 85.1187 13.9361 85.1374C14.2905 85.1561 14.5627 85.4605 14.5441 85.8174ZM13.8815 88.634C14.2359 88.6527 14.5382 88.3786 14.5567 88.0217C14.5753 87.6648 14.3031 87.3604 13.9488 87.3417C13.5944 87.323 13.2921 87.5971 13.2736 87.954C13.255 88.3108 13.5272 88.6153 13.8815 88.634ZM28.9004 84.373C28.8819 84.7299 28.5796 85.004 28.2252 84.9853C27.8709 84.9666 27.5987 84.6622 27.6173 84.3053C27.6358 83.9484 27.9381 83.6743 28.2925 83.693C28.6468 83.7117 28.919 84.0162 28.9004 84.373ZM28.2402 87.1885C28.5946 87.2072 28.8969 86.9331 28.9154 86.5762C28.934 86.2194 28.6618 85.9149 28.3075 85.8962C27.9531 85.8775 27.6508 86.1516 27.6323 86.5085C27.6137 86.8654 27.8859 87.1698 28.2402 87.1885ZM28.9284 88.7809C28.9099 89.1378 28.6076 89.4119 28.2532 89.3932C27.8989 89.3745 27.6267 89.07 27.6453 88.7132C27.6638 88.3563 27.9661 88.0822 28.3205 88.1009C28.6748 88.1196 28.947 88.424 28.9284 88.7809ZM17.988 88.8504C18.3424 88.8691 18.6447 88.595 18.6632 88.2381C18.6818 87.8812 18.4096 87.5768 18.0553 87.5581C17.7009 87.5394 17.3986 87.8135 17.3801 88.1704C17.3615 88.5272 17.6337 88.8317 17.988 88.8504ZM20.7165 88.3471C20.6979 88.7039 20.3956 88.9781 20.0413 88.9594C19.6869 88.9407 19.4147 88.6362 19.4333 88.2793C19.4519 87.9225 19.7542 87.6483 20.1085 87.667C20.4628 87.6858 20.735 87.9902 20.7165 88.3471ZM22.095 89.0673C22.4493 89.086 22.7516 88.8119 22.7702 88.455C22.7888 88.0982 22.5166 87.7937 22.1622 87.775C21.8079 87.7563 21.5056 88.0304 21.487 88.3873C21.4685 88.7442 21.7407 89.0486 22.095 89.0673ZM24.8224 88.5635C24.8039 88.9204 24.5016 89.1945 24.1472 89.1758C23.7929 89.1571 23.5207 88.8526 23.5393 88.4958C23.5578 88.1389 23.8601 87.8648 24.2145 87.8835C24.5688 87.9022 24.841 88.2066 24.8224 88.5635ZM26.2005 89.2837C26.5548 89.3024 26.8571 89.0283 26.8757 88.6715C26.8943 88.3146 26.6221 88.0101 26.2677 87.9914C25.9134 87.9727 25.6111 88.2469 25.5925 88.6037C25.5739 88.9606 25.8461 89.265 26.2005 89.2837ZM16.6245 90.3333C16.6059 90.6902 16.3036 90.9643 15.9493 90.9456C15.5949 90.9269 15.3227 90.6225 15.3413 90.2656C15.3599 89.9087 15.6622 89.6346 16.0165 89.6533C16.3709 89.672 16.643 89.9765 16.6245 90.3333ZM18.0015 91.0546C18.3558 91.0733 18.6581 90.7992 18.6767 90.4423C18.6953 90.0854 18.4231 89.781 18.0688 89.7623C17.7144 89.7436 17.4121 90.0177 17.3935 90.3746C17.375 90.7314 17.6472 91.0359 18.0015 91.0546ZM20.7305 90.5503C20.7119 90.9071 20.4096 91.1813 20.0552 91.1625C19.7009 91.1438 19.4287 90.8394 19.4473 90.4825C19.4659 90.1257 19.7682 89.8515 20.1225 89.8702C20.4768 89.8889 20.749 90.1934 20.7305 90.5503ZM22.108 91.2705C22.4623 91.2892 22.7646 91.0151 22.7832 90.6582C22.8018 90.3014 22.5296 89.9969 22.1752 89.9782C21.8209 89.9595 21.5186 90.2336 21.5 90.5905C21.4815 90.9474 21.7537 91.2518 22.108 91.2705ZM24.8369 90.7667C24.8184 91.1235 24.5161 91.3977 24.1617 91.379C23.8074 91.3603 23.5352 91.0558 23.5538 90.699C23.5723 90.3421 23.8746 90.068 24.229 90.0867C24.5833 90.1054 24.8555 90.4098 24.8369 90.7667ZM26.2145 91.4879C26.5688 91.5066 26.8711 91.2325 26.8897 90.8756C26.9083 90.5188 26.6361 90.2143 26.2817 90.1956C25.9274 90.1769 25.6251 90.451 25.6065 90.8079C25.5879 91.1648 25.8601 91.4692 26.2145 91.4879ZM113.088 64.811C113.088 66.9551 111.362 68.6932 109.233 68.6932C107.104 68.6932 105.378 66.9551 105.378 64.811C105.378 62.6669 107.104 60.9287 109.233 60.9287C111.362 60.9287 113.088 62.6669 113.088 64.811ZM119.127 60.5399C121.256 60.5399 122.982 58.8018 122.982 56.6576C122.982 54.5135 121.256 52.7754 119.127 52.7754C116.998 52.7754 115.272 54.5135 115.272 56.6576C115.272 58.8018 116.998 60.5399 119.127 60.5399ZM102.933 37.9045C105.696 39.5221 106.724 42.7573 105.824 45.9926L95.1594 72.5213C92.3938 77.5851 89.1202 79.8976 85.2654 80.3506C81.4106 80.8035 64.321 80.9329 64.321 80.9329C64.321 80.9329 47.2314 80.8035 43.3767 80.3505C39.5219 79.8976 36.2483 77.585 33.4827 72.5213L22.8178 45.9925C21.9183 42.7572 22.9463 39.522 25.7089 37.9045C29.6584 35.8006 46.7541 34.8638 64.321 34.9199C81.888 34.8638 98.9837 35.8007 102.933 37.9045ZM41.3335 37.5058C40.2289 37.5058 39.3335 38.4013 39.3335 39.5058V73.93C39.3335 74.9869 40.1565 75.8617 41.2116 75.9242C59.1578 76.9867 70.0084 77.0042 87.9553 75.9258C89.0095 75.8625 89.8313 74.988 89.8313 73.9319V39.5058C89.8313 38.4013 88.9358 37.5058 87.8313 37.5058H41.3335ZM20.1878 59.6993C20.1878 63.8088 16.88 67.1403 12.7995 67.1403C8.71901 67.1403 5.41113 63.8088 5.41113 59.6993C5.41113 55.5897 8.71901 52.2583 12.7995 52.2583C16.88 52.2583 20.1878 55.5897 20.1878 59.6993ZM18.7998 59.8C18.7998 59.3032 18.7394 58.8204 18.6256 58.3587C18.6009 58.2623 18.4306 58.1846 18.3383 58.1846H15.1075C14.9668 58.1846 14.8436 58.1321 14.7494 58.0462L12.994 59.7484L14.7844 61.4882C14.8599 61.4414 14.9528 61.4154 15.0613 61.4154L18.3383 61.4154C18.4306 61.4154 18.6024 61.3322 18.6256 61.2413C18.7394 60.7796 18.7998 60.2968 18.7998 59.8ZM14.3259 65.6042C14.4627 65.5679 14.5537 65.4759 14.5537 65.3385V61.9692C14.5537 61.866 14.5725 61.7722 14.6087 61.6923L12.7994 59.9371L10.9894 61.6923C11.0271 61.7722 11.046 61.866 11.046 61.9692V65.2923C11.046 65.3843 11.1377 65.5681 11.2755 65.6047L11.2767 65.605C11.7631 65.7322 12.2735 65.8 12.7998 65.8C13.3261 65.8 13.8365 65.7322 14.3229 65.605L14.3259 65.6042ZM6.97145 61.2308C6.85928 60.7723 6.7998 60.2931 6.7998 59.8C6.7998 59.3069 6.85928 58.8277 6.97145 58.3692C6.99707 58.2684 7.16904 58.1846 7.26134 58.1846H10.4921C10.6328 58.1846 10.756 58.1321 10.8502 58.0462L12.6017 59.7453L10.8017 61.4882C10.7193 61.4414 10.6161 61.4154 10.4921 61.4154L7.26134 61.4154C7.12288 61.4154 6.98885 61.3001 6.97145 61.2308ZM12.7998 53.8C12.2661 53.8 11.7486 53.8697 11.2561 54.0005C11.1593 54.027 11.046 54.2154 11.046 54.3077V57.5846C11.046 57.6657 11.0314 57.7438 11.0046 57.8154L12.7966 59.5567L14.595 57.8154C14.5682 57.7438 14.5537 57.6657 14.5537 57.5846V54.3077C14.5537 54.2154 14.4702 54.0356 14.3436 54.0005C13.851 53.8697 13.3335 53.8 12.7998 53.8Z" fill="white"/>
<rect x="43.4453" y="41.2588" width="42.0172" height="31.4463" rx="2" fill="white"/>
<ellipse cx="33.6797" cy="52.5167" rx="0.899451" ry="0.905861" fill="white"/>
</svg>
