<svg width="128" height="128" viewBox="0 0 128 128" fill="none" xmlns="http://www.w3.org/2000/svg">
<path fill-rule="evenodd" clip-rule="evenodd" d="M13.0166 95.8472C19.0648 97.2188 60.5591 98.0471 64.7351 98.0471C68.9111 98.0471 109.056 97.2187 115.104 95.8471C121.153 94.4756 124.625 91.9312 126.155 83.4886C127.792 67.7795 128.27 58.7059 126.99 41.2367C126.554 35.0292 125.32 33.5368 122.814 32.8251C121.983 32.589 117.772 32.1599 111.699 31.7061C99.4639 30.7919 79.6705 29.7779 64.7351 30.0428C56.6198 29.8989 46.8923 30.1325 37.6736 30.5226L37.6589 30.0974L26.6421 30.6477V31.0714C23.0437 31.2769 19.6976 31.4942 16.7685 31.7061C10.4975 32.1599 6.13816 32.589 5.30706 32.8251C2.80145 33.5368 1.56667 35.0292 1.13104 41.2367C-0.149209 58.7059 0.328738 67.7795 1.96624 83.4886C3.49637 91.9312 6.96848 94.4756 13.0166 95.8472ZM107.306 49.4757L110.326 42.0347C112.651 42.8974 114.373 45.1405 113.41 47.7286C112.267 50.2719 109.041 50.1874 107.306 49.4757ZM15.8933 82.1314C16.2476 82.1501 16.5499 81.876 16.5685 81.5191C16.5871 81.1622 16.3149 80.8578 15.9605 80.8391C15.6062 80.8204 15.3039 81.0945 15.2853 81.4514C15.2668 81.8082 15.5389 82.1127 15.8933 82.1314ZM18.6217 81.6271C18.6032 81.9839 18.3009 82.258 17.9465 82.2393C17.5922 82.2206 17.32 81.9162 17.3386 81.5593C17.3571 81.2025 17.6594 80.9283 18.0138 80.947C18.3681 80.9657 18.6403 81.2702 18.6217 81.6271ZM19.9993 82.3483C20.3536 82.367 20.6559 82.0929 20.6745 81.736C20.693 81.3792 20.4209 81.0747 20.0665 81.056C19.7122 81.0373 19.4099 81.3114 19.3913 81.6683C19.3727 82.0251 19.6449 82.3296 19.9993 82.3483ZM22.7277 81.8445C22.7092 82.2013 22.4068 82.4755 22.0525 82.4568C21.6982 82.4381 21.426 82.1336 21.4446 81.7767C21.4631 81.4199 21.7654 81.1457 22.1198 81.1645C22.4741 81.1832 22.7463 81.4876 22.7277 81.8445ZM24.1058 82.5647C24.4601 82.5834 24.7624 82.3093 24.781 81.9524C24.7995 81.5956 24.5273 81.2911 24.173 81.2724C23.8187 81.2537 23.5164 81.5278 23.4978 81.8847C23.4792 82.2416 23.7514 82.546 24.1058 82.5647ZM26.8332 82.0604C26.8146 82.4173 26.5123 82.6914 26.158 82.6727C25.8037 82.654 25.5315 82.3495 25.55 81.9927C25.5686 81.6358 25.8709 81.3617 26.2252 81.3804C26.5796 81.3991 26.8518 81.7035 26.8332 82.0604ZM15.9068 84.3346C16.2611 84.3533 16.5634 84.0791 16.582 83.7223C16.6006 83.3654 16.3284 83.061 15.974 83.0423C15.6197 83.0236 15.3174 83.2977 15.2988 83.6546C15.2802 84.0114 15.5524 84.3159 15.9068 84.3346ZM18.6352 83.8312C18.6167 84.1881 18.3144 84.4622 17.96 84.4435C17.6057 84.4248 17.3335 84.1204 17.3521 83.7635C17.3706 83.4066 17.6729 83.1325 18.0273 83.1512C18.3816 83.1699 18.6538 83.4744 18.6352 83.8312ZM20.0133 84.5515C20.3676 84.5702 20.6699 84.2961 20.6885 83.9392C20.707 83.5823 20.4349 83.2779 20.0805 83.2592C19.7262 83.2405 19.4239 83.5146 19.4053 83.8715C19.3867 84.2283 19.6589 84.5328 20.0133 84.5515ZM22.7412 84.0477C22.7226 84.4045 22.4203 84.6787 22.066 84.66C21.7117 84.6412 21.4395 84.3368 21.458 83.9799C21.4766 83.6231 21.7789 83.3489 22.1333 83.3676C22.4876 83.3863 22.7598 83.6908 22.7412 84.0477ZM24.1197 84.7684C24.4741 84.7871 24.7764 84.513 24.795 84.1561C24.8135 83.7993 24.5413 83.4948 24.187 83.4761C23.8327 83.4574 23.5304 83.7315 23.5118 84.0884C23.4932 84.4453 23.7654 84.7497 24.1197 84.7684ZM26.8477 84.2651C26.8291 84.6219 26.5268 84.8961 26.1725 84.8774C25.8182 84.8587 25.546 84.5542 25.5645 84.1973C25.5831 83.8405 25.8854 83.5664 26.2397 83.5851C26.5941 83.6038 26.8663 83.9082 26.8477 84.2651ZM15.9211 86.5386C16.2755 86.5573 16.5778 86.2831 16.5963 85.9263C16.6149 85.5694 16.3427 85.265 15.9884 85.2463C15.634 85.2276 15.3317 85.5017 15.3132 85.8586C15.2946 86.2154 15.5668 86.5199 15.9211 86.5386ZM18.65 86.0342C18.6315 86.3911 18.3292 86.6652 17.9748 86.6465C17.6205 86.6278 17.3483 86.3233 17.3669 85.9665C17.3854 85.6096 17.6877 85.3355 18.0421 85.3542C18.3964 85.3729 18.6686 85.6773 18.65 86.0342ZM20.0276 86.7554C20.3819 86.7741 20.6842 86.4999 20.7028 86.1431C20.7213 85.7862 20.4492 85.4818 20.0948 85.4631C19.7405 85.4444 19.4382 85.7185 19.4196 86.0754C19.401 86.4322 19.6732 86.7367 20.0276 86.7554ZM22.7555 86.2515C22.7369 86.6083 22.4346 86.8825 22.0803 86.8638C21.726 86.8451 21.4538 86.5406 21.4723 86.1838C21.4909 85.8269 21.7932 85.5528 22.1475 85.5715C22.5019 85.5902 22.7741 85.8946 22.7555 86.2515ZM24.1335 86.9727C24.4879 86.9914 24.7902 86.7172 24.8087 86.3604C24.8273 86.0035 24.5551 85.6991 24.2008 85.6803C23.8464 85.6616 23.5441 85.9358 23.5256 86.2926C23.507 86.6495 23.7792 86.954 24.1335 86.9727ZM26.862 86.4683C26.8434 86.8251 26.5411 87.0993 26.1867 87.0806C25.8324 87.0619 25.5602 86.7574 25.5788 86.4006C25.5974 86.0437 25.8997 85.7696 26.254 85.7883C26.6083 85.807 26.8805 86.1114 26.862 86.4683ZM15.9353 88.7419C16.2896 88.7606 16.5919 88.4865 16.6105 88.1297C16.629 87.7728 16.3569 87.4683 16.0025 87.4496C15.6482 87.4309 15.3459 87.7051 15.3273 88.0619C15.3087 88.4188 15.5809 88.7232 15.9353 88.7419ZM14.5292 83.6143C14.5107 83.9712 14.2084 84.2453 13.854 84.2266C13.4997 84.2079 13.2275 83.9035 13.2461 83.5466C13.2646 83.1897 13.5669 82.9156 13.9213 82.9343C14.2756 82.953 14.5478 83.2575 14.5292 83.6143ZM13.8689 86.4297C14.2232 86.4484 14.5255 86.1743 14.5441 85.8174C14.5627 85.4605 14.2905 85.1561 13.9361 85.1374C13.5818 85.1187 13.2795 85.3928 13.2609 85.7497C13.2423 86.1065 13.5145 86.411 13.8689 86.4297ZM14.5567 88.0217C14.5382 88.3786 14.2359 88.6527 13.8815 88.634C13.5272 88.6153 13.255 88.3108 13.2736 87.954C13.2921 87.5971 13.5944 87.323 13.9488 87.3417C14.3031 87.3604 14.5753 87.6648 14.5567 88.0217ZM28.2252 84.9853C28.5796 85.004 28.8819 84.7299 28.9004 84.373C28.919 84.0162 28.6468 83.7117 28.2925 83.693C27.9381 83.6743 27.6358 83.9484 27.6173 84.3053C27.5987 84.6622 27.8709 84.9666 28.2252 84.9853ZM28.9154 86.5762C28.8969 86.9331 28.5946 87.2072 28.2402 87.1885C27.8859 87.1698 27.6137 86.8654 27.6323 86.5085C27.6508 86.1516 27.9531 85.8775 28.3075 85.8962C28.6618 85.9149 28.934 86.2194 28.9154 86.5762ZM28.2532 89.3932C28.6076 89.4119 28.9099 89.1378 28.9284 88.7809C28.947 88.424 28.6748 88.1196 28.3205 88.1009C27.9661 88.0822 27.6638 88.3563 27.6453 88.7132C27.6267 89.07 27.8989 89.3745 28.2532 89.3932ZM18.6632 88.2381C18.6447 88.595 18.3424 88.8691 17.988 88.8504C17.6337 88.8317 17.3615 88.5272 17.3801 88.1704C17.3986 87.8135 17.7009 87.5394 18.0553 87.5581C18.4096 87.5768 18.6818 87.8812 18.6632 88.2381ZM20.0413 88.9594C20.3956 88.9781 20.6979 88.7039 20.7165 88.3471C20.735 87.9902 20.4628 87.6858 20.1085 87.667C19.7542 87.6483 19.4519 87.9225 19.4333 88.2793C19.4147 88.6362 19.6869 88.9407 20.0413 88.9594ZM22.7702 88.455C22.7516 88.8119 22.4493 89.086 22.095 89.0673C21.7407 89.0486 21.4685 88.7442 21.487 88.3873C21.5056 88.0304 21.8079 87.7563 22.1622 87.775C22.5166 87.7937 22.7888 88.0982 22.7702 88.455ZM24.1472 89.1758C24.5016 89.1945 24.8039 88.9204 24.8224 88.5635C24.841 88.2066 24.5688 87.9022 24.2145 87.8835C23.8601 87.8648 23.5578 88.1389 23.5393 88.4958C23.5207 88.8526 23.7929 89.1571 24.1472 89.1758ZM26.8757 88.6715C26.8571 89.0283 26.5548 89.3024 26.2005 89.2837C25.8461 89.265 25.5739 88.9606 25.5925 88.6037C25.6111 88.2469 25.9134 87.9727 26.2677 87.9914C26.6221 88.0101 26.8943 88.3146 26.8757 88.6715ZM15.9493 90.9456C16.3036 90.9643 16.6059 90.6902 16.6245 90.3333C16.643 89.9765 16.3709 89.672 16.0165 89.6533C15.6622 89.6346 15.3599 89.9087 15.3413 90.2656C15.3227 90.6225 15.5949 90.9269 15.9493 90.9456ZM18.6767 90.4423C18.6581 90.7992 18.3558 91.0733 18.0015 91.0546C17.6472 91.0359 17.375 90.7314 17.3935 90.3746C17.4121 90.0177 17.7144 89.7436 18.0688 89.7623C18.4231 89.781 18.6953 90.0854 18.6767 90.4423ZM20.0552 91.1625C20.4096 91.1813 20.7119 90.9071 20.7305 90.5503C20.749 90.1934 20.4768 89.8889 20.1225 89.8702C19.7682 89.8515 19.4659 90.1257 19.4473 90.4825C19.4287 90.8394 19.7009 91.1438 20.0552 91.1625ZM22.7832 90.6582C22.7646 91.0151 22.4623 91.2892 22.108 91.2705C21.7537 91.2518 21.4815 90.9474 21.5 90.5905C21.5186 90.2336 21.8209 89.9595 22.1752 89.9782C22.5296 89.9969 22.8018 90.3014 22.7832 90.6582ZM24.1617 91.379C24.5161 91.3977 24.8184 91.1235 24.8369 90.7667C24.8555 90.4098 24.5833 90.1054 24.229 90.0867C23.8746 90.068 23.5723 90.3421 23.5538 90.699C23.5352 91.0558 23.8074 91.3603 24.1617 91.379ZM26.8897 90.8756C26.8711 91.2325 26.5688 91.5066 26.2145 91.4879C25.8601 91.4692 25.5879 91.1648 25.6065 90.8079C25.6251 90.451 25.9274 90.1769 26.2817 90.1956C26.6361 90.2143 26.9083 90.5188 26.8897 90.8756ZM109.233 68.6932C111.362 68.6932 113.088 66.9551 113.088 64.811C113.088 62.6669 111.362 60.9287 109.233 60.9287C107.104 60.9287 105.378 62.6669 105.378 64.811C105.378 66.9551 107.104 68.6932 109.233 68.6932ZM122.982 56.6576C122.982 58.8018 121.256 60.5399 119.127 60.5399C116.998 60.5399 115.272 58.8018 115.272 56.6576C115.272 54.5135 116.998 52.7754 119.127 52.7754C121.256 52.7754 122.982 54.5135 122.982 56.6576ZM105.824 45.9926C106.724 42.7573 105.696 39.5221 102.933 37.9045C98.9837 35.8007 81.888 34.8638 64.321 34.9199C46.7541 34.8638 29.6584 35.8006 25.7089 37.9045C22.9463 39.522 21.9183 42.7572 22.8178 45.9925L33.4827 72.5213C36.2483 77.585 39.5219 79.8976 43.3767 80.3505C47.2314 80.8035 64.321 80.9329 64.321 80.9329C64.321 80.9329 81.4106 80.8035 85.2654 80.3506C89.1202 79.8976 92.3938 77.5851 95.1594 72.5213L105.824 45.9926ZM39.3335 39.5058C39.3335 38.4013 40.2289 37.5058 41.3335 37.5058H87.8313C88.9358 37.5058 89.8313 38.4013 89.8313 39.5058V73.9319C89.8313 74.988 89.0095 75.8625 87.9553 75.9258C70.0084 77.0042 59.1578 76.9867 41.2116 75.9242C40.1565 75.8617 39.3335 74.9869 39.3335 73.93V39.5058Z" fill="white"/>
<path fill-rule="evenodd" clip-rule="evenodd" d="M12.7995 67.1403C16.88 67.1403 20.1878 63.8088 20.1878 59.6993C20.1878 55.5897 16.88 52.2583 12.7995 52.2583C8.71901 52.2583 5.41113 55.5897 5.41113 59.6993C5.41113 63.8088 8.71901 67.1403 12.7995 67.1403ZM18.8258 58.5587C18.9396 59.0204 19 59.5032 19 60C19 60.4968 18.9396 60.9796 18.8258 61.4413C18.8026 61.5322 18.6308 61.6154 18.5385 61.6154L15.2615 61.6154C15.153 61.6154 15.0601 61.6414 14.9846 61.6882L13.1942 59.9484L14.9496 58.2462C15.0438 58.3321 15.167 58.3846 15.3077 58.3846H18.5385C18.6308 58.3846 18.8011 58.4623 18.8258 58.5587ZM14.7538 65.5385C14.7538 65.6759 14.6629 65.7679 14.5261 65.8042L14.5231 65.805C14.0367 65.9322 13.5263 66 13 66C12.4737 66 11.9633 65.9322 11.4769 65.805L11.4757 65.8047C11.3379 65.7681 11.2462 65.5843 11.2462 65.4923V62.1692C11.2462 62.066 11.2273 61.9722 11.1896 61.8923L12.9996 60.1371L14.8089 61.8923C14.7727 61.9722 14.7538 62.066 14.7538 62.1692V65.5385ZM7 60C7 60.4931 7.05948 60.9723 7.17165 61.4308C7.18905 61.5001 7.32308 61.6154 7.46154 61.6154L10.6923 61.6154C10.8163 61.6154 10.9195 61.6414 11.0019 61.6882L12.8019 59.9453L11.0504 58.2462C10.9562 58.3321 10.833 58.3846 10.6923 58.3846H7.46154C7.36923 58.3846 7.19726 58.4684 7.17165 58.5692C7.05948 59.0277 7 59.5069 7 60ZM11.4562 54.2005C11.9488 54.0697 12.4663 54 13 54C13.5337 54 14.0512 54.0697 14.5438 54.2005C14.6704 54.2356 14.7538 54.4154 14.7538 54.5077V57.7846C14.7538 57.8657 14.7684 57.9438 14.7952 58.0154L12.9968 59.7567L11.2048 58.0154C11.2316 57.9438 11.2462 57.8657 11.2462 57.7846V54.5077C11.2462 54.4154 11.3595 54.227 11.4562 54.2005Z" fill="#222222"/>
<rect x="43.4453" y="41.2588" width="42.0172" height="31.4463" rx="2" fill="white"/>
<ellipse cx="33.6797" cy="52.5167" rx="0.899451" ry="0.905861" fill="white"/>
</svg>
