<svg width="128" height="128" viewBox="0 0 128 128" fill="none" xmlns="http://www.w3.org/2000/svg">
<path fill-rule="evenodd" clip-rule="evenodd" d="M33.1531 28H94.8459C96.0703 28 97.6325 28.7716 99.5072 29.7931C106.624 30.9236 110.435 31.4664 116.382 32.0203C117.685 32.1417 119.982 33.2573 121.86 34.9581C123.497 36.6175 123.913 37.7912 124.289 39.3094L123.56 39.3977V40.0604C123.263 40.0784 123.107 40.0797 122.929 40.0679C123.306 41.0493 123.572 42.0128 123.695 42.6476L124.952 42.7328C126.594 55.876 128 80.2383 128 81.3648C128 82.4913 127.342 84.2155 126.653 85.3848C126.115 86.2962 125.614 86.8185 125.034 87.4231C124.827 87.639 124.61 87.8654 124.378 88.1237C123.374 89.2389 121.528 90.5534 121.02 90.5534H118.657L118.659 90.5299C117.451 90.877 115.491 91.3677 113.34 91.9061C109.449 92.8804 104.934 94.0106 103.128 94.728C101.174 95.5044 100.162 95.8781 99.0213 96.2997L99.0197 96.3002L99.0188 96.3006L99.0184 96.3007L99.0178 96.3009L99.0166 96.3014C98.236 96.5898 97.3943 96.9008 96.1482 97.3785C92.364 98.8295 80.9394 100.071 75.2971 100.338H52.702C47.0597 100.071 35.6351 98.8295 31.8509 97.3785C30.6041 96.9005 29.762 96.5894 28.9811 96.3008L28.9807 96.3007L28.9805 96.3006L28.9799 96.3004C27.8382 95.8786 26.8267 95.5049 24.8711 94.728C23.0653 94.0106 18.5505 92.8804 14.6587 91.9061C12.51 91.3682 10.5512 90.8779 9.34322 90.5308L9.34324 90.531H6.97973C6.47168 90.531 4.62589 89.2165 3.62235 88.1013C3.39024 87.8434 3.17338 87.6174 2.96657 87.4018L2.96626 87.4014L2.96594 87.4011L2.9656 87.4008L2.96553 87.4007C2.38555 86.7961 1.88449 86.2739 1.3473 85.3624C0.658121 84.1931 3.57444e-06 82.4689 0 81.3424C-3.57442e-06 80.2159 1.40616 55.8536 3.04815 42.7104L4.30849 42.625C4.43447 41.985 4.70167 41.0227 5.07936 40.045C4.89789 40.0574 4.74179 40.0562 4.43965 40.038V39.3754L3.71074 39.287C4.08674 37.7688 4.50277 36.5951 6.14043 34.9357C8.01791 33.2349 10.3151 32.1194 11.6183 31.998C17.5713 31.4434 21.3837 30.9001 28.5156 29.7671L28.4811 29.799C30.3605 28.7746 31.9265 28 33.1531 28ZM109.335 59.6521C109.335 61.7991 107.555 63.5396 105.36 63.5396C103.164 63.5396 101.384 61.7991 101.384 59.6521C101.384 57.5051 103.164 55.7646 105.36 55.7646C107.555 55.7646 109.335 57.5051 109.335 59.6521ZM117.066 59.6524C119.262 59.6524 121.042 57.9119 121.042 55.7649C121.042 53.6179 119.262 51.8774 117.066 51.8774C114.87 51.8774 113.09 53.6179 113.09 55.7649C113.09 57.9119 114.87 59.6524 117.066 59.6524ZM101.479 74.3631C101.414 74.1027 101.572 73.839 101.833 73.774L114.643 70.5801C114.903 70.5152 115.167 70.6737 115.232 70.9341C115.297 71.1945 115.138 71.4582 114.878 71.5232L102.068 74.717C101.808 74.782 101.544 74.6235 101.479 74.3631ZM101.811 84.5655C101.551 84.6305 101.392 84.8942 101.457 85.1546C101.522 85.415 101.786 85.5735 102.046 85.5086L114.856 82.3147C115.117 82.2497 115.275 81.986 115.21 81.7256C115.146 81.4652 114.882 81.3067 114.621 81.3717L101.811 84.5655ZM35.7606 37.1443C41.3718 35.5941 57.8044 35.311 64.6728 35.311C71.5412 35.311 86.6274 35.5941 92.2387 37.1443C94.1389 37.8565 95.1543 38.558 95.6402 40.2146C96.1262 41.8712 97.7607 82.226 97.2747 84.2802C96.7888 86.3344 95.5634 87.649 93.0117 89.0291C86.4793 91.2115 82.9186 91.5806 77.9846 92.0921L77.9845 92.0921H77.9844L77.9834 92.0922C76.9995 92.1942 75.9609 92.3019 74.8333 92.4307L74.6047 92.4504C69.6659 92.8755 68.675 92.9608 64.6728 92.9608C60.6096 92.9608 58.3039 92.8729 53.1659 92.4307C52.0383 92.3019 50.9997 92.1942 50.0158 92.0922L50.0148 92.0921H50.0147C45.0806 91.5806 41.52 91.2115 34.9875 89.0291C32.4358 87.649 31.2104 86.3344 30.7245 84.2802C30.2386 82.226 31.8731 41.8712 32.359 40.2146C32.8449 38.558 33.8604 37.8565 35.7606 37.1443ZM101.811 81.7823C101.551 81.8473 101.392 82.111 101.457 82.3714C101.522 82.6318 101.786 82.7903 102.046 82.7253L114.856 79.5315C115.117 79.4665 115.275 79.2028 115.21 78.9424C115.146 78.682 114.882 78.5235 114.621 78.5884L101.811 81.7823ZM101.457 79.7654C101.392 79.505 101.551 79.2413 101.811 79.1764L114.621 75.9825C114.882 75.9176 115.146 76.076 115.21 76.3364C115.275 76.5968 115.117 76.8606 114.856 76.9255L102.046 80.1194C101.786 80.1843 101.522 80.0259 101.457 79.7654ZM101.811 76.3488C101.551 76.4137 101.392 76.6774 101.457 76.9378C101.522 77.1982 101.786 77.3567 102.046 77.2918L114.856 74.0979C115.117 74.0329 115.275 73.7692 115.21 73.5088C115.146 73.2484 114.882 73.0899 114.621 73.1549L101.811 76.3488ZM106.641 40.4136C106.641 41.0845 106.097 41.6284 105.426 41.6284C104.755 41.6284 104.211 41.0845 104.211 40.4136C104.211 39.7426 104.755 39.1987 105.426 39.1987C106.097 39.1987 106.641 39.7426 106.641 40.4136ZM8.92383 54.817H14.0342V49.5361H20.0131V54.817H25.3573V60.4655H20.0131V66.0138H14.0342V60.4655H8.92383V54.817ZM13.7687 73.0472C14.0291 71.8219 15.2335 71.0397 16.4588 71.3002L26.321 73.3965C27.5462 73.6569 28.3284 74.8613 28.068 76.0866C27.8075 77.3119 26.6031 78.0941 25.3778 77.8336L15.5157 75.7374C14.2904 75.4769 13.5082 74.2725 13.7687 73.0472ZM16.4588 78.5453C15.2335 78.2849 14.0291 79.067 13.7687 80.2923C13.5082 81.5176 14.2904 82.7221 15.5157 82.9825L25.3778 85.0788C26.6031 85.3392 27.8075 84.557 28.068 83.3317C28.3284 82.1064 27.5462 80.902 26.321 80.6416L16.4588 78.5453Z" fill="white"/>
<path d="M35.6938 79.2881V41.3408H92.1067V79.2881H35.6938Z" fill="white"/>
<circle cx="25.8653" cy="75.6216" r="1.87748" fill="white"/>
<circle cx="25.8653" cy="82.8667" r="1.87748" fill="white"/>
</svg>
