<svg width="128" height="128" viewBox="0 0 128 128" fill="none" xmlns="http://www.w3.org/2000/svg">
<path fill-rule="evenodd" clip-rule="evenodd" d="M29.2883 0H98.7369C100.389 0 101.73 1.32335 101.736 2.97529C101.809 21.1914 102.167 116.952 101.724 119.203C101.236 121.691 99.6362 123.202 97.3259 124.09C95.0155 124.979 76.9552 128 64.6927 128C52.5269 128 43.7215 126.876 31.1166 124.155C30.9179 124.112 30.7213 124.049 30.5361 123.965C28.3114 122.959 26.9675 122.041 26.3061 119.203C25.6831 116.53 26.1873 21.1306 26.2891 2.9694C26.2983 1.31951 27.6384 0 29.2883 0ZM37.2598 4.53174H90.526C93.8397 4.53174 96.526 7.21905 96.526 10.5328V55.2861C96.526 58.2747 94.3221 60.8198 91.3584 61.2039C70.8676 63.8599 57.3227 63.9293 36.4198 61.2076C33.4591 60.8221 31.2598 58.2839 31.2598 55.2982V10.5317C31.2598 7.21803 33.9461 4.53174 37.2598 4.53174ZM38.744 80.7044H33.2593V86.7627H38.744V92.7134H45.1607V86.7627H50.8963V80.7044H45.1607V75.0405H38.744V80.7044ZM77.3326 90.502C79.7863 90.502 81.7755 88.5129 81.7755 86.0591C81.7755 83.6054 79.7863 81.6162 77.3326 81.6162C74.8788 81.6162 72.8897 83.6054 72.8897 86.0591C72.8897 88.5129 74.8788 90.502 77.3326 90.502ZM95.3267 81.6602C95.3267 84.1139 93.3376 86.1031 90.8838 86.1031C88.4301 86.1031 86.4409 84.1139 86.4409 81.6602C86.4409 79.2064 88.4301 77.2173 90.8838 77.2173C93.3376 77.2173 95.3267 79.2064 95.3267 81.6602ZM58.2755 106.585C60.2631 106.585 61.8743 106.541 61.8743 105.674C61.8743 104.808 60.2631 104.675 58.2755 104.675C56.288 104.675 54.6768 104.697 54.6768 105.674C54.6768 106.592 56.0979 106.589 57.9172 106.586L58.0729 106.585L58.2755 106.585ZM69.78 106.585C71.7676 106.585 73.3788 106.541 73.3788 105.674C73.3788 104.808 71.7676 104.675 69.78 104.675C67.7925 104.675 66.1813 104.697 66.1813 105.674C66.1813 106.592 67.6024 106.589 69.4217 106.586C69.5396 106.585 69.6591 106.585 69.78 106.585ZM84.175 106.274C84.175 106.618 83.8965 106.896 83.553 106.896C83.2095 106.896 82.931 106.618 82.931 106.274C82.931 105.931 83.2095 105.652 83.553 105.652C83.8965 105.652 84.175 105.931 84.175 106.274ZM96.6595 117.737C97.003 117.737 97.2815 117.458 97.2815 117.115C97.2815 116.771 97.003 116.493 96.6595 116.493C96.316 116.493 96.0375 116.771 96.0375 117.115C96.0375 117.458 96.316 117.737 96.6595 117.737ZM97.2815 112.761C97.2815 113.104 97.003 113.383 96.6595 113.383C96.316 113.383 96.0375 113.104 96.0375 112.761C96.0375 112.417 96.316 112.139 96.6595 112.139C97.003 112.139 97.2815 112.417 97.2815 112.761ZM96.6595 109.029C97.003 109.029 97.2815 108.75 97.2815 108.407C97.2815 108.063 97.003 107.785 96.6595 107.785C96.316 107.785 96.0375 108.063 96.0375 108.407C96.0375 108.75 96.316 109.029 96.6595 109.029ZM95.0603 119.647C95.0603 119.991 94.7818 120.269 94.4383 120.269C94.0948 120.269 93.8163 119.991 93.8163 119.647C93.8163 119.303 94.0948 119.025 94.4383 119.025C94.7818 119.025 95.0603 119.303 95.0603 119.647ZM94.4383 115.915C94.7818 115.915 95.0603 115.637 95.0603 115.293C95.0603 114.95 94.7818 114.671 94.4383 114.671C94.0948 114.671 93.8163 114.95 93.8163 115.293C93.8163 115.637 94.0948 115.915 94.4383 115.915ZM95.0603 110.939C95.0603 111.282 94.7818 111.561 94.4383 111.561C94.0948 111.561 93.8163 111.282 93.8163 110.939C93.8163 110.595 94.0948 110.317 94.4383 110.317C94.7818 110.317 95.0603 110.595 95.0603 110.939ZM94.4383 107.207C94.7818 107.207 95.0603 106.929 95.0603 106.585C95.0603 106.242 94.7818 105.963 94.4383 105.963C94.0948 105.963 93.8163 106.242 93.8163 106.585C93.8163 106.929 94.0948 107.207 94.4383 107.207ZM92.9277 118.092C92.9277 118.436 92.6492 118.714 92.3057 118.714C91.9622 118.714 91.6837 118.436 91.6837 118.092C91.6837 117.749 91.9622 117.47 92.3057 117.47C92.6492 117.47 92.9277 117.749 92.9277 118.092ZM92.3057 114.36C92.6492 114.36 92.9277 114.082 92.9277 113.738C92.9277 113.395 92.6492 113.116 92.3057 113.116C91.9622 113.116 91.6837 113.395 91.6837 113.738C91.6837 114.082 91.9622 114.36 92.3057 114.36ZM92.9277 109.384C92.9277 109.727 92.6492 110.006 92.3057 110.006C91.9622 110.006 91.6837 109.727 91.6837 109.384C91.6837 109.04 91.9622 108.762 92.3057 108.762C92.6492 108.762 92.9277 109.04 92.9277 109.384ZM90.1731 121.202C90.5166 121.202 90.7951 120.924 90.7951 120.58C90.7951 120.237 90.5166 119.958 90.1731 119.958C89.8296 119.958 89.5511 120.237 89.5511 120.58C89.5511 120.924 89.8296 121.202 90.1731 121.202ZM90.7951 116.226C90.7951 116.57 90.5166 116.848 90.1731 116.848C89.8296 116.848 89.5511 116.57 89.5511 116.226C89.5511 115.883 89.8296 115.604 90.1731 115.604C90.5166 115.604 90.7951 115.883 90.7951 116.226ZM90.1731 112.494C90.5166 112.494 90.7951 112.216 90.7951 111.872C90.7951 111.528 90.5166 111.25 90.1731 111.25C89.8296 111.25 89.5511 111.528 89.5511 111.872C89.5511 112.216 89.8296 112.494 90.1731 112.494ZM90.7951 107.518C90.7951 107.862 90.5166 108.14 90.1731 108.14C89.8296 108.14 89.5511 107.862 89.5511 107.518C89.5511 107.175 89.8296 106.896 90.1731 106.896C90.5166 106.896 90.7951 107.175 90.7951 107.518ZM87.9514 119.336C88.2949 119.336 88.5734 119.058 88.5734 118.714C88.5734 118.371 88.2949 118.092 87.9514 118.092C87.6078 118.092 87.3293 118.371 87.3293 118.714C87.3293 119.058 87.6078 119.336 87.9514 119.336ZM88.5734 114.36C88.5734 114.704 88.2949 114.982 87.9514 114.982C87.6078 114.982 87.3293 114.704 87.3293 114.36C87.3293 114.017 87.6078 113.738 87.9514 113.738C88.2949 113.738 88.5734 114.017 88.5734 114.36ZM87.9514 110.628C88.2949 110.628 88.5734 110.35 88.5734 110.006C88.5734 109.663 88.2949 109.384 87.9514 109.384C87.6078 109.384 87.3293 109.663 87.3293 110.006C87.3293 110.35 87.6078 110.628 87.9514 110.628ZM86.3962 121.202C86.3962 121.545 86.1177 121.824 85.7742 121.824C85.4307 121.824 85.1522 121.545 85.1522 121.202C85.1522 120.858 85.4307 120.58 85.7742 120.58C86.1177 120.58 86.3962 120.858 86.3962 121.202ZM85.7742 117.47C86.1177 117.47 86.3962 117.192 86.3962 116.848C86.3962 116.505 86.1177 116.226 85.7742 116.226C85.4307 116.226 85.1522 116.505 85.1522 116.848C85.1522 117.192 85.4307 117.47 85.7742 117.47ZM86.3962 112.494C86.3962 112.838 86.1177 113.116 85.7742 113.116C85.4307 113.116 85.1522 112.838 85.1522 112.494C85.1522 112.151 85.4307 111.872 85.7742 111.872C86.1177 111.872 86.3962 112.151 86.3962 112.494ZM85.7742 108.762C86.1177 108.762 86.3962 108.483 86.3962 108.14C86.3962 107.796 86.1177 107.518 85.7742 107.518C85.4307 107.518 85.1522 107.796 85.1522 108.14C85.1522 108.483 85.4307 108.762 85.7742 108.762ZM84.175 119.336C84.175 119.68 83.8965 119.958 83.553 119.958C83.2095 119.958 82.931 119.68 82.931 119.336C82.931 118.993 83.2095 118.714 83.553 118.714C83.8965 118.714 84.175 118.993 84.175 119.336ZM83.553 115.604C83.8965 115.604 84.175 115.326 84.175 114.982C84.175 114.639 83.8965 114.36 83.553 114.36C83.2095 114.36 82.931 114.639 82.931 114.982C82.931 115.326 83.2095 115.604 83.553 115.604ZM84.175 110.628C84.175 110.972 83.8965 111.25 83.553 111.25C83.2095 111.25 82.931 110.972 82.931 110.628C82.931 110.284 83.2095 110.006 83.553 110.006C83.8965 110.006 84.175 110.284 84.175 110.628ZM81.4204 118.092C81.7639 118.092 82.0424 117.814 82.0424 117.47C82.0424 117.127 81.7639 116.848 81.4204 116.848C81.0769 116.848 80.7984 117.127 80.7984 117.47C80.7984 117.814 81.0769 118.092 81.4204 118.092ZM82.0424 113.116C82.0424 113.46 81.7639 113.738 81.4204 113.738C81.0769 113.738 80.7984 113.46 80.7984 113.116C80.7984 112.773 81.0769 112.494 81.4204 112.494C81.7639 112.494 82.0424 112.773 82.0424 113.116ZM81.4204 109.384C81.7639 109.384 82.0424 109.106 82.0424 108.762C82.0424 108.419 81.7639 108.14 81.4204 108.14C81.0769 108.14 80.7984 108.419 80.7984 108.762C80.7984 109.106 81.0769 109.384 81.4204 109.384ZM92.9277 104.852C92.9277 105.196 92.6492 105.474 92.3057 105.474C91.9622 105.474 91.6837 105.196 91.6837 104.852C91.6837 104.509 91.9622 104.23 92.3057 104.23C92.6492 104.23 92.9277 104.509 92.9277 104.852ZM87.9514 106.274C88.2949 106.274 88.5734 105.995 88.5734 105.652C88.5734 105.308 88.2949 105.03 87.9514 105.03C87.6078 105.03 87.3293 105.308 87.3293 105.652C87.3293 105.995 87.6078 106.274 87.9514 106.274ZM95.0581 117.483C95.0581 117.826 94.7797 118.105 94.4361 118.105C94.0926 118.105 93.8141 117.826 93.8141 117.483C93.8141 117.139 94.0926 116.861 94.4361 116.861C94.7797 116.861 95.0581 117.139 95.0581 117.483ZM94.4361 113.751C94.7797 113.751 95.0581 113.472 95.0581 113.129C95.0581 112.785 94.7797 112.507 94.4361 112.507C94.0926 112.507 93.8141 112.785 93.8141 113.129C93.8141 113.472 94.0926 113.751 94.4361 113.751ZM95.0581 108.775C95.0581 109.118 94.7797 109.397 94.4361 109.397C94.0926 109.397 93.8141 109.118 93.8141 108.775C93.8141 108.431 94.0926 108.153 94.4361 108.153C94.7797 108.153 95.0581 108.431 95.0581 108.775ZM92.2149 120.637C92.5585 120.637 92.8369 120.359 92.8369 120.015C92.8369 119.672 92.5585 119.393 92.2149 119.393C91.8714 119.393 91.5929 119.672 91.5929 120.015C91.5929 120.359 91.8714 120.637 92.2149 120.637ZM92.8369 115.661C92.8369 116.005 92.5585 116.283 92.2149 116.283C91.8714 116.283 91.5929 116.005 91.5929 115.661C91.5929 115.318 91.8714 115.039 92.2149 115.039C92.5585 115.039 92.8369 115.318 92.8369 115.661ZM92.2149 111.929C92.5585 111.929 92.8369 111.651 92.8369 111.307C92.8369 110.964 92.5585 110.685 92.2149 110.685C91.8714 110.685 91.5929 110.964 91.5929 111.307C91.5929 111.651 91.8714 111.929 92.2149 111.929ZM92.8369 106.953C92.8369 107.297 92.5585 107.575 92.2149 107.575C91.8714 107.575 91.5929 107.297 91.5929 106.953C91.5929 106.609 91.8714 106.331 92.2149 106.331C92.5585 106.331 92.8369 106.609 92.8369 106.953ZM90.0823 119.082C90.4259 119.082 90.7043 118.804 90.7043 118.46C90.7043 118.117 90.4259 117.838 90.0823 117.838C89.7388 117.838 89.4603 118.117 89.4603 118.46C89.4603 118.804 89.7388 119.082 90.0823 119.082ZM90.7043 114.106C90.7043 114.45 90.4259 114.728 90.0823 114.728C89.7388 114.728 89.4603 114.45 89.4603 114.106C89.4603 113.763 89.7388 113.484 90.0823 113.484C90.4259 113.484 90.7043 113.763 90.7043 114.106ZM90.0823 110.374C90.4259 110.374 90.7043 110.096 90.7043 109.752C90.7043 109.409 90.4259 109.13 90.0823 109.13C89.7388 109.13 89.4603 109.409 89.4603 109.752C89.4603 110.096 89.7388 110.374 90.0823 110.374ZM88.5717 120.948C88.5717 121.292 88.2933 121.57 87.9497 121.57C87.6062 121.57 87.3277 121.292 87.3277 120.948C87.3277 120.605 87.6062 120.326 87.9497 120.326C88.2933 120.326 88.5717 120.605 88.5717 120.948ZM87.9497 117.216C88.2933 117.216 88.5717 116.938 88.5717 116.594C88.5717 116.251 88.2933 115.972 87.9497 115.972C87.6062 115.972 87.3277 116.251 87.3277 116.594C87.3277 116.938 87.6062 117.216 87.9497 117.216ZM88.5717 112.24C88.5717 112.584 88.2933 112.862 87.9497 112.862C87.6062 112.862 87.3277 112.584 87.3277 112.24C87.3277 111.897 87.6062 111.618 87.9497 111.618C88.2933 111.618 88.5717 111.897 88.5717 112.24ZM87.9497 108.508C88.2933 108.508 88.5717 108.23 88.5717 107.886C88.5717 107.543 88.2933 107.264 87.9497 107.264C87.6062 107.264 87.3277 107.543 87.3277 107.886C87.3277 108.23 87.6062 108.508 87.9497 108.508ZM86.35 119.082C86.35 119.426 86.0715 119.704 85.728 119.704C85.3845 119.704 85.106 119.426 85.106 119.082C85.106 118.739 85.3845 118.46 85.728 118.46C86.0715 118.46 86.35 118.739 86.35 119.082ZM85.728 115.35C86.0715 115.35 86.35 115.072 86.35 114.728C86.35 114.384 86.0715 114.106 85.728 114.106C85.3845 114.106 85.106 114.384 85.106 114.728C85.106 115.072 85.3845 115.35 85.728 115.35ZM86.35 110.374C86.35 110.718 86.0715 110.996 85.728 110.996C85.3845 110.996 85.106 110.718 85.106 110.374C85.106 110.031 85.3845 109.752 85.728 109.752C86.0715 109.752 86.35 110.031 86.35 110.374ZM83.5514 122.192C83.8949 122.192 84.1734 121.914 84.1734 121.57C84.1734 121.227 83.8949 120.948 83.5514 120.948C83.2078 120.948 82.9294 121.227 82.9294 121.57C82.9294 121.914 83.2078 122.192 83.5514 122.192ZM84.1734 117.216C84.1734 117.56 83.8949 117.838 83.5514 117.838C83.2078 117.838 82.9294 117.56 82.9294 117.216C82.9294 116.873 83.2078 116.594 83.5514 116.594C83.8949 116.594 84.1734 116.873 84.1734 117.216ZM83.5514 113.484C83.8949 113.484 84.1734 113.206 84.1734 112.862C84.1734 112.519 83.8949 112.24 83.5514 112.24C83.2078 112.24 82.9294 112.519 82.9294 112.862C82.9294 113.206 83.2078 113.484 83.5514 113.484ZM84.1734 108.508C84.1734 108.852 83.8949 109.13 83.5514 109.13C83.2078 109.13 82.9294 108.852 82.9294 108.508C82.9294 108.165 83.2078 107.886 83.5514 107.886C83.8949 107.886 84.1734 108.165 84.1734 108.508ZM81.3296 120.326C81.6731 120.326 81.9516 120.048 81.9516 119.704C81.9516 119.361 81.6731 119.082 81.3296 119.082C80.9861 119.082 80.7076 119.361 80.7076 119.704C80.7076 120.048 80.9861 120.326 81.3296 120.326ZM81.9516 115.35C81.9516 115.694 81.6731 115.972 81.3296 115.972C80.9861 115.972 80.7076 115.694 80.7076 115.35C80.7076 115.007 80.9861 114.728 81.3296 114.728C81.6731 114.728 81.9516 115.007 81.9516 115.35ZM81.3296 111.618C81.6731 111.618 81.9516 111.34 81.9516 110.996C81.9516 110.653 81.6731 110.374 81.3296 110.374C80.9861 110.374 80.7076 110.653 80.7076 110.996C80.7076 111.34 80.9861 111.618 81.3296 111.618ZM90.7043 105.22C90.7043 105.564 90.4259 105.842 90.0823 105.842C89.7388 105.842 89.4603 105.564 89.4603 105.22C89.4603 104.877 89.7388 104.598 90.0823 104.598C90.4259 104.598 90.7043 104.877 90.7043 105.22ZM85.728 106.642C86.0715 106.642 86.35 106.363 86.35 106.02C86.35 105.676 86.0715 105.398 85.728 105.398C85.3845 105.398 85.106 105.676 85.106 106.02C85.106 106.363 85.3845 106.642 85.728 106.642ZM94.9755 104.431C94.9755 104.775 94.6971 105.053 94.3535 105.053C94.01 105.053 93.7315 104.775 93.7315 104.431C93.7315 104.088 94.01 103.809 94.3535 103.809C94.6971 103.809 94.9755 104.088 94.9755 104.431ZM96.722 106.79C97.0655 106.79 97.344 106.511 97.344 106.168C97.344 105.824 97.0655 105.546 96.722 105.546C96.3785 105.546 96.1 105.824 96.1 106.168C96.1 106.511 96.3785 106.79 96.722 106.79ZM97.344 110.589C97.344 110.932 97.0655 111.211 96.722 111.211C96.3785 111.211 96.1 110.932 96.1 110.589C96.1 110.245 96.3785 109.967 96.722 109.967C97.0655 109.967 97.344 110.245 97.344 110.589ZM96.722 115.632C97.0655 115.632 97.344 115.353 97.344 115.01C97.344 114.666 97.0655 114.387 96.722 114.387C96.3785 114.387 96.1 114.666 96.1 115.01C96.1 115.353 96.3785 115.632 96.722 115.632Z" fill="white"/>
<rect x="42.856" y="10.8408" width="41.941" height="37.898" fill="white"/>
</svg>
