<svg width="128" height="128" viewBox="0 0 128 128" fill="none" xmlns="http://www.w3.org/2000/svg">
<path fill-rule="evenodd" clip-rule="evenodd" d="M25 3V125C25 126.657 26.3382 128 27.9951 128H75.0648C93.1742 128 102.948 120.542 102.948 110.425V2.953C102.948 1.29615 101.605 0 99.9479 0H28C26.3431 0 25 1.34315 25 3ZM33.4775 8.34814H95.0429C96.1474 8.34814 97.0429 9.22447 97.0429 10.329V49.1483C97.0429 54.1751 94.3322 58.8202 88.9872 58.8202H33.4542C32.3496 58.8202 31.4775 57.9248 31.4775 56.8202V10.3481C31.4775 9.24358 32.373 8.34814 33.4775 8.34814ZM53.4446 86.7997C53.4446 93.6827 47.8648 99.2625 40.9818 99.2625C34.0988 99.2625 28.519 93.6827 28.519 86.7997C28.519 79.9167 34.0988 74.3369 40.9818 74.3369C47.8648 74.3369 53.4446 79.9167 53.4446 86.7997ZM77.7022 82.3933C74.427 83.9907 73.0669 87.9407 74.6643 91.2158C76.2617 94.491 80.2117 95.8511 83.4868 94.2537L96.665 87.8262C99.9402 86.2288 101.3 82.2789 99.7029 79.0037C98.1055 75.7286 94.1555 74.3685 90.8804 75.9659L77.7022 82.3933ZM74.5395 114.661C74.0846 114.914 73.9203 115.487 74.1724 115.942L79.5269 125.601C79.7791 126.056 80.3523 126.221 80.8072 125.969C81.2621 125.716 81.4264 125.143 81.1743 124.688L75.8197 115.029C75.5676 114.574 74.9944 114.409 74.5395 114.661ZM93.9744 104.641C93.7222 104.186 93.8866 103.613 94.3415 103.361C94.7964 103.108 95.3696 103.273 95.6217 103.728L100.976 113.387C101.228 113.842 101.064 114.415 100.609 114.668C100.154 114.92 99.5811 114.755 99.3289 114.301L93.9744 104.641ZM90.3963 105.778C89.9414 106.031 89.7771 106.604 90.0292 107.059L95.3838 116.719C95.6359 117.173 96.2091 117.338 96.664 117.086C97.1189 116.833 97.2832 116.26 97.0311 115.805L91.6766 106.146C91.4244 105.691 90.8512 105.526 90.3963 105.778ZM86.0587 109.299C85.8065 108.844 85.9709 108.27 86.4258 108.018C86.8806 107.766 87.4538 107.931 87.706 108.385L93.0605 118.045C93.3127 118.5 93.1483 119.073 92.6934 119.325C92.2385 119.578 91.6653 119.413 91.4132 118.958L86.0587 109.299ZM82.4552 110.233C82.0003 110.485 81.8359 111.058 82.0881 111.513L87.4426 121.173C87.6948 121.627 88.2679 121.792 88.7228 121.54C89.1777 121.287 89.3421 120.714 89.0899 120.259L83.7354 110.6C83.4832 110.145 82.9101 109.98 82.4552 110.233ZM78.143 113.753C77.8908 113.298 78.0552 112.725 78.5101 112.472C78.965 112.22 79.5382 112.385 79.7903 112.84L85.1448 122.499C85.397 122.954 85.2326 123.527 84.7777 123.78C84.3228 124.032 83.7497 123.867 83.4975 123.413L78.143 113.753ZM48.8088 108.598C48.4538 107.87 48.756 106.993 49.4838 106.638L56.0729 103.424C56.8007 103.069 57.6785 103.371 58.0335 104.099C58.3885 104.827 58.0862 105.704 57.3584 106.059L50.7693 109.273C50.0415 109.628 49.1637 109.326 48.8088 108.598ZM63.1196 106.638C62.3918 106.993 62.0895 107.87 62.4445 108.598C62.7995 109.326 63.6773 109.628 64.4051 109.273L70.9942 106.059C71.722 105.704 72.0242 104.827 71.6692 104.099C71.3143 103.371 70.4365 103.069 69.7087 103.424L63.1196 106.638Z" fill="white"/>
<rect x="42.8931" y="14.1514" width="42.7345" height="38.8658" fill="white"/>
<circle cx="80.6263" cy="88.2562" r="4.77232" fill="white"/>
<circle cx="93.7088" cy="82.0712" r="4.77232" fill="white"/>
<path d="M37.4718 83.4989H31.6938V89.8856H37.4718V96.159H44.2317V89.8856H50.2741V83.4989H44.2317V77.5278H37.4718V83.4989Z" fill="white"/>
</svg>
