<svg width="128" height="128" viewBox="0 0 128 128" fill="none" xmlns="http://www.w3.org/2000/svg">
<path fill-rule="evenodd" clip-rule="evenodd" d="M63.9682 79.3937C58.686 79.521 45.5127 80.5392 39.276 88.3669C38.6483 89.1306 36.985 91.4852 36.3486 93.2035C34.9485 98.0401 29.8372 101.019 25.5935 100.904C17.9567 102.368 -0.498816 84.103 0.0103248 61.5109C0.0929717 57.8437 1.05727 54.528 2.30263 51.7741L2.30255 51.7741L2.30446 51.77C2.80356 50.6668 3.34773 49.6537 3.89834 48.7444C4.79558 47.2318 5.7557 45.9195 6.79636 44.8252C7.1811 44.4096 7.51571 44.0924 7.77437 43.8827C22.2206 32.173 43.7944 26.5091 64.0318 26C84.2692 26.5091 105.779 32.2367 120.226 43.9464C120.423 44.1067 120.666 44.3299 120.941 44.6119C122.442 46.1263 124.234 48.6287 125.515 51.4422C126.847 54.2719 127.903 57.73 127.99 61.5746C128.499 84.1667 110.043 102.431 102.407 100.968C98.1628 101.083 93.0515 98.1038 91.6514 93.2671C91.015 91.5489 89.3517 89.1942 88.724 88.4305C82.4873 80.6028 69.2503 79.521 63.9682 79.3937ZM77.0783 62.211C74.4054 66.6021 75.2327 71.693 76.7601 74.4931C78.8602 78.1845 84.9059 80.4756 88.9153 79.0115C91.3682 77.7547 93.3535 76.6727 95.1399 75.699C97.9183 74.1846 100.216 72.9325 103.043 71.693C107.689 69.6565 116.217 66.22 116.217 66.22C123.681 62.1264 125.063 51.5829 116.217 46.7462C110.935 44.3918 103.489 46.2371 103.489 46.2371C90.6326 50.0631 83.1877 54.5742 77.0783 62.211ZM83.6206 46.9015C82.9426 45.5116 83.5199 43.8352 84.9098 43.1573L93.0321 39.1958C94.422 38.5178 96.0984 39.0951 96.7763 40.485C97.4543 41.875 96.877 43.5514 95.4871 44.2293L87.3648 48.1908C85.9749 48.8687 84.2985 48.2915 83.6206 46.9015ZM29.7301 80.9211C40.4851 80.9211 49.2038 72.2024 49.2038 61.4474C49.2038 50.6923 40.4851 41.9736 29.7301 41.9736C18.975 41.9736 10.2563 50.6923 10.2563 61.4474C10.2563 72.2024 18.975 80.9211 29.7301 80.9211Z" fill="white"/>
<path fill-rule="evenodd" clip-rule="evenodd" d="M82.1597 60.5573C78.2616 62.5349 76.6344 67.2475 78.4816 71.2089C80.3885 75.2983 85.2684 77.0426 89.3355 75.0885L101.834 69.0838L114.157 63.5122C118.269 61.6533 120.07 56.7938 118.163 52.7043C116.316 48.7432 111.66 46.9607 107.64 48.6754L94.706 54.1921L82.1597 60.5573ZM85.8601 74.3022C89.0234 74.3022 91.5877 71.7379 91.5877 68.5747C91.5877 65.4114 89.0234 62.8471 85.8601 62.8471C82.6969 62.8471 80.1326 65.4114 80.1326 68.5747C80.1326 71.7379 82.6969 74.3022 85.8601 74.3022ZM104.188 61.8291C104.188 64.9923 101.624 67.5566 98.4607 67.5566C95.2975 67.5566 92.7332 64.9923 92.7332 61.8291C92.7332 58.6658 95.2975 56.1015 98.4607 56.1015C101.624 56.1015 104.188 58.6658 104.188 61.8291ZM111.571 62.4653C114.734 62.4653 117.298 59.901 117.298 56.7378C117.298 53.5745 114.734 51.0102 111.571 51.0102C108.407 51.0102 105.843 53.5745 105.843 56.7378C105.843 59.901 108.407 62.4653 111.571 62.4653Z" fill="white"/>
<path fill-rule="evenodd" clip-rule="evenodd" d="M29.5392 77.2297C38.2908 77.2297 45.3854 70.135 45.3854 61.3834C45.3854 52.6317 38.2908 45.5371 29.5392 45.5371C20.7875 45.5371 13.6929 52.6317 13.6929 61.3834C13.6929 70.135 20.7875 77.2297 29.5392 77.2297ZM29.7299 73.7938C36.5484 73.7938 42.076 68.2662 42.076 61.4477C42.076 54.6291 36.5484 49.1016 29.7299 49.1016C22.9113 49.1016 17.3838 54.6291 17.3838 61.4477C17.3838 68.2662 22.9113 73.7938 29.7299 73.7938Z" fill="white"/>
<path d="M26.8907 51.0104V58.8047H19.2293C18.7683 61.0333 18.8058 62.2844 19.2293 64.5135H26.8907V71.8818C29.1563 72.4243 30.3763 72.3631 32.5478 71.8818V64.5135H40.1031C40.5461 62.3274 40.7123 61.0806 40.2303 58.8047H32.5478V51.0105C30.4712 50.5346 29.2343 50.5417 26.8907 51.0104Z" fill="white"/>
<rect x="84.2998" y="45.1333" width="11.7097" height="2.54559" rx="1.27279" transform="rotate(-26 84.2998 45.1333)" fill="white"/>
</svg>
