<svg width="128" height="128" viewBox="0 0 128 128" fill="none" xmlns="http://www.w3.org/2000/svg">
<path fill-rule="evenodd" clip-rule="evenodd" d="M0 40C0 38.8954 0.895431 38 2 38H126C127.105 38 128 38.8954 128 40V87.7447C128 88.8493 127.105 89.7447 126 89.7447H2C0.895431 89.7447 0 88.8493 0 87.7447V40ZM101.787 56.7231H120.851V60.1274H101.787V56.7231ZM99.2337 56.7231H80.1699V60.1274H99.2337V56.7231ZM2 41.8553C2 40.8306 2.68992 40 3.54098 40H8.16393H10V88H8.16393H3.54099C2.68992 88 2 87.1694 2 86.1447V41.8553ZM59.3426 40H124.228C125.306 40 126.181 40.8135 126.181 41.817V52.8351V54.9999L59.5089 55L59.4872 54.9999H59.3426H59.1348C58.0558 54.9999 57.1812 54.1864 57.1812 53.1829V52.9896V52.8351V40H59.3426ZM59.3154 81.915C58.2365 81.915 57.3618 82.6012 57.3618 83.4476V83.6107V87.915H59.5233H124.408C125.487 87.915 126.362 87.2289 126.362 86.3824V83.6107V81.915H59.5233H59.3154ZM18.2129 56.7231C18.2129 52.3049 21.7946 48.7231 26.2129 48.7231H40.681C45.0993 48.7231 48.681 52.3049 48.681 56.7231V70.5104C48.681 74.9287 45.0993 78.5104 40.681 78.5104H26.2129C21.7946 78.5104 18.2129 74.9287 18.2129 70.5104V56.7231ZM24.5272 55.8063L26.4702 56.6974L25.4183 57.7493L24.5272 55.8063ZM25.4186 70.6396L24.5275 72.5826L26.4705 71.6915L25.4186 70.6396ZM41.4942 72.5824L39.5512 71.6913L40.6031 70.6394L41.4942 72.5824ZM40.6034 57.7491L41.4945 55.806L39.5515 56.6972L40.6034 57.7491ZM32.5088 52.1452C32.5088 51.6182 32.936 51.1909 33.4631 51.1909C33.9901 51.1909 34.4174 51.6182 34.4174 52.1452V55.0081C34.4174 55.5352 33.9901 55.9624 33.4631 55.9624C32.936 55.9624 32.5088 55.5352 32.5088 55.0081V52.1452ZM33.4631 71.4219C32.936 71.4219 32.5088 71.8491 32.5088 72.3762V75.2391C32.5088 75.7661 32.936 76.1934 33.4631 76.1934C33.9901 76.1934 34.4174 75.7661 34.4174 75.2391V72.3762C34.4174 71.8491 33.9901 71.4219 33.4631 71.4219ZM21.6296 64.5513C21.1025 64.5513 20.6753 64.124 20.6753 63.597C20.6753 63.0699 21.1025 62.6427 21.6296 62.6427H24.4925C25.0195 62.6427 25.4468 63.0699 25.4468 63.597C25.4468 64.124 25.0195 64.5513 24.4925 64.5513H21.6296ZM41.2881 63.597C41.2881 64.124 41.7153 64.5513 42.2424 64.5513H45.1053C45.6323 64.5513 46.0596 64.124 46.0596 63.597C46.0596 63.0699 45.6323 62.6427 45.1053 62.6427H42.2424C41.7153 62.6427 41.2881 63.0699 41.2881 63.597ZM38.8072 63.5015C38.8072 66.5057 36.3719 68.941 33.3677 68.941C30.3636 68.941 27.9282 66.5057 27.9282 63.5015C27.9282 60.4974 30.3636 58.062 33.3677 58.062C36.3719 58.062 38.8072 60.4974 38.8072 63.5015ZM99.2338 61.149H80.17V80.2129H99.2338V61.149ZM89.0026 76.0028C92.3757 76.0028 95.1101 73.2683 95.1101 69.8952C95.1101 66.5221 92.3757 63.7877 89.0026 63.7877C85.6295 63.7877 82.8951 66.5221 82.8951 69.8952C82.8951 73.2683 85.6295 76.0028 89.0026 76.0028ZM101.787 61.149H120.851V80.2129H101.787V61.149ZM116.296 69.8952C116.296 73.2683 113.561 76.0028 110.188 76.0028C106.815 76.0028 104.081 73.2683 104.081 69.8952C104.081 66.5221 106.815 63.7877 110.188 63.7877C113.561 63.7877 116.296 66.5221 116.296 69.8952Z" fill="white"/>
</svg>
