<svg width="128" height="128" viewBox="0 0 128 128" fill="none" xmlns="http://www.w3.org/2000/svg">
<path fill-rule="evenodd" clip-rule="evenodd" d="M11.4054 20.5454L11.4483 20.5066L11.5999 17.9677C14.2418 16.1362 15.9238 15.0989 19.25 14.0595C22.5564 13.0262 28.8209 11.9929 37.9619 11.2456C38.0069 11.1745 38.052 11.101 38.0977 11.0243C38.5502 10.2637 39.0299 9.26781 39.5648 8.15739C39.6827 7.91245 39.8034 7.66193 39.9271 7.40714C47.7378 4.4028 52.7327 3 64 3C75.2673 3 80.2622 4.4028 88.073 7.40714C88.1966 7.66184 88.3172 7.91227 88.4351 8.15713C88.97 9.26766 89.4498 10.2636 89.9024 11.0243C89.9469 11.0993 89.9911 11.1712 90.035 11.2408C99.2082 11.9885 105.493 13.024 108.806 14.0595C112.132 15.0989 113.814 16.1362 116.456 17.9677L116.611 20.5622C120.298 24.3217 122.172 26.6647 124.162 31.8127C125.001 35.4651 125.231 38.6998 125.575 44.8263C129.234 56.842 128.777 83.4095 124.037 94.5521C122.805 97.4487 120.886 98.753 119.006 98.9592C115.967 99.2926 113.592 98.6694 111.356 94.5521C107.365 85.031 102.999 67.2777 102.999 67.2777C101.514 64.112 99.2903 64.3791 95.1415 64.8774C94.2501 64.9845 93.2699 65.1022 92.1891 65.1989C86.0773 65.7455 83.8737 68.6913 82.7096 70.9781C82.4276 71.5318 81.7979 75.1437 80.9118 80.2263C79.5857 87.8332 77.6852 98.7343 75.5168 107.607C72.5201 119.87 68.9476 125.693 64.0832 125.693C59.2187 125.693 55.4799 119.87 52.4832 107.607C50.3149 98.7345 48.4145 87.8338 47.0883 80.2269L47.0882 80.2267L47.0882 80.2264L47.0882 80.2263L47.0881 80.2261C46.202 75.1437 45.5724 71.5318 45.2904 70.9781C44.1263 68.6913 41.9227 65.7455 35.8109 65.1989C34.7301 65.1022 33.7499 64.9845 32.8586 64.8774C28.7097 64.3791 26.4864 64.112 25.001 67.2777C25.001 67.2777 20.6354 85.031 16.644 94.5521C14.4084 98.6694 12.0325 99.2926 8.99391 98.9592C7.11371 98.753 5.19523 97.4487 3.96309 94.5521C-0.776648 83.4095 -1.23399 56.842 2.42476 44.8263C2.76865 38.6998 2.99909 35.4651 3.83838 31.8127C5.83103 26.657 7.70747 24.3147 11.4054 20.5454ZM50.9706 71.6037C50.8568 78.2596 56.6946 84.8762 63.9841 84.8667C71.2736 84.8762 77.1113 78.2596 76.9976 71.6037C76.8702 64.1448 71.6313 58.2576 63.9841 58.2576C56.3368 58.2576 51.098 64.1448 50.9706 71.6037ZM63.9816 63.3712L70.1349 65.6579L72.0059 71.8529L70.1349 78.2141L63.9816 79.9604L58.0777 78.2141L56.082 71.8529L58.0777 65.6579L63.9816 63.3712ZM83.7356 45.1587C83.6881 42.1652 85.8976 40.0448 88.7249 40.0448C91.5521 40.0448 93.6309 42.5394 93.5893 45.1587C93.5478 47.7781 91.3857 49.9816 88.7249 49.9816C85.8976 49.9816 83.7772 47.7781 83.7356 45.1587ZM97.8713 49.2335C95.044 49.2335 92.8345 51.354 92.882 54.3475C92.9236 56.9668 95.0441 59.1704 97.8713 59.1704C100.532 59.1704 102.694 56.9668 102.736 54.3475C102.777 51.7281 100.699 49.2335 97.8713 49.2335ZM99.7935 41.1034C101.889 41.1034 103.587 39.4048 103.587 37.3096C103.587 35.2143 101.889 33.5158 99.7935 33.5158C97.6982 33.5158 95.9996 35.2143 95.9996 37.3096C95.9996 39.4048 97.6982 41.1034 99.7935 41.1034ZM111.506 29.8866C111.506 31.9818 109.807 33.6804 107.712 33.6804C105.616 33.6804 103.918 31.9818 103.918 29.8866C103.918 27.7913 105.616 26.0928 107.712 26.0928C109.807 26.0928 111.506 27.7913 111.506 29.8866ZM115.464 41.1034C117.56 41.1034 119.258 39.4048 119.258 37.3096C119.258 35.2143 117.56 33.5158 115.464 33.5158C113.369 33.5158 111.67 35.2143 111.67 37.3096C111.67 39.4048 113.369 41.1034 115.464 41.1034ZM111.506 45.061C111.506 47.1563 109.807 48.8549 107.712 48.8549C105.616 48.8549 103.918 47.1563 103.918 45.061C103.918 42.9658 105.616 41.2672 107.712 41.2672C109.807 41.2672 111.506 42.9658 111.506 45.061ZM64.0004 77.3917C67.1888 77.3917 69.7736 74.807 69.7736 71.6185C69.7736 68.4301 67.1888 65.8453 64.0004 65.8453C60.8119 65.8453 58.2272 68.4301 58.2272 71.6185C58.2272 74.807 60.8119 77.3917 64.0004 77.3917ZM68.4536 46.4639C68.4536 48.9691 66.4227 50.9999 63.9175 50.9999C61.4123 50.9999 59.3815 48.9691 59.3815 46.4639C59.3815 43.9586 61.4123 41.9278 63.9175 41.9278C66.4227 41.9278 68.4536 43.9586 68.4536 46.4639ZM15.2614 38.2148H19.6226C20.1749 38.2148 20.6226 37.7671 20.6226 37.2148V32.6457C20.6226 32.0934 21.0703 31.6457 21.6226 31.6457H27.0649C27.6172 31.6457 28.0649 32.0934 28.0649 32.6457V37.2148C28.0649 37.7671 28.5126 38.2148 29.0649 38.2148H33.7172C34.2694 38.2148 34.7172 38.6625 34.7172 39.2148V44.2413C34.7172 44.7936 34.2694 45.2413 33.7172 45.2413H29.0649C28.5126 45.2413 28.0649 45.689 28.0649 46.2413V51.143C28.0649 51.6953 27.6172 52.143 27.0649 52.143H21.6226C21.0703 52.143 20.6226 51.6953 20.6226 51.143V46.2413C20.6226 45.689 20.1749 45.2413 19.6226 45.2413H15.2614C14.7091 45.2413 14.2614 44.7936 14.2614 44.2413V39.2148C14.2614 38.6625 14.7091 38.2148 15.2614 38.2148Z" fill="white"/>
</svg>
