<svg width="128" height="128" viewBox="0 0 128 128" fill="none" xmlns="http://www.w3.org/2000/svg">
<path d="M64.5801 26C80.7501 26.0004 114.451 26.3693 121.094 26.791C127.736 27.2127 128 27.8983 128 30.9561C128 33.4228 127.988 75.745 127.895 92.2168C127.684 96.6451 122.622 97.8048 120.672 98.1211C118.719 98.4376 92.3614 101.495 64.5801 101.495C36.7987 101.495 9.28071 98.4376 7.32812 98.1211C5.37755 97.8048 0.316496 96.6451 0.105469 92.2168C0.0123364 75.745 1.17952e-06 33.4228 0 30.9561C0 27.8983 0.263762 27.2127 6.90625 26.791C13.549 26.3693 48.4101 26.0004 64.5801 26ZM33.6338 92.585C33.6338 92.585 53.1917 93.9126 65.7393 93.8506C76.8834 93.7955 94.2452 92.586 94.2598 92.585V33.75H33.6338V92.585ZM12.4414 84.4668C12.1504 84.467 11.915 84.7031 11.915 84.9941C11.9151 85.2851 12.1504 85.5213 12.4414 85.5215C12.7325 85.5215 12.9687 85.2852 12.9688 84.9941C12.9688 84.703 12.7326 84.4668 12.4414 84.4668ZM14.6553 84.4668C14.3643 84.467 14.1289 84.7031 14.1289 84.9941C14.129 85.2851 14.3643 85.5213 14.6553 85.5215C14.9464 85.5215 15.1825 85.2852 15.1826 84.9941C15.1826 84.703 14.9464 84.4668 14.6553 84.4668ZM16.8701 84.4668C16.579 84.4668 16.3428 84.703 16.3428 84.9941C16.3428 85.2852 16.579 85.5215 16.8701 85.5215C17.1612 85.5214 17.3974 85.2852 17.3975 84.9941C17.3975 84.703 17.1612 84.4669 16.8701 84.4668ZM19.084 84.4668C18.7928 84.4668 18.5566 84.703 18.5566 84.9941C18.5567 85.2852 18.7929 85.5215 19.084 85.5215C19.375 85.5214 19.6113 85.2852 19.6113 84.9941C19.6113 84.703 19.3751 84.4669 19.084 84.4668ZM21.2979 84.4668C21.0068 84.467 20.7715 84.7031 20.7715 84.9941C20.7716 85.2851 21.0069 85.5213 21.2979 85.5215C21.589 85.5215 21.8251 85.2852 21.8252 84.9941C21.8252 84.703 21.589 84.4668 21.2979 84.4668ZM12.4414 82.2529C12.1505 82.2531 11.9152 82.4884 11.915 82.7793C11.915 83.0704 12.1504 83.3065 12.4414 83.3066C12.7326 83.3066 12.9688 83.0705 12.9688 82.7793C12.9686 82.4883 12.7324 82.2529 12.4414 82.2529ZM14.6553 82.2529C14.3644 82.2531 14.1291 82.4884 14.1289 82.7793C14.1289 83.0704 14.3643 83.3065 14.6553 83.3066C14.9464 83.3066 15.1826 83.0705 15.1826 82.7793C15.1824 82.4883 14.9463 82.2529 14.6553 82.2529ZM16.8701 82.2529C16.5791 82.2529 16.343 82.4883 16.3428 82.7793C16.3428 83.0705 16.579 83.3066 16.8701 83.3066C17.1612 83.3066 17.3975 83.0704 17.3975 82.7793C17.3973 82.4883 17.1611 82.253 16.8701 82.2529ZM19.084 82.2529C18.7929 82.2529 18.5568 82.4883 18.5566 82.7793C18.5566 83.0705 18.7928 83.3066 19.084 83.3066C19.3751 83.3066 19.6113 83.0704 19.6113 82.7793C19.6111 82.4883 19.3749 82.253 19.084 82.2529ZM21.2979 82.2529C21.007 82.2531 20.7717 82.4884 20.7715 82.7793C20.7715 83.0704 21.0068 83.3065 21.2979 83.3066C21.589 83.3066 21.8252 83.0705 21.8252 82.7793C21.825 82.4883 21.5889 82.2529 21.2979 82.2529ZM12.4414 80.0391C12.1505 80.0392 11.9152 80.2745 11.915 80.5654C11.915 80.8565 12.1504 81.0926 12.4414 81.0928C12.7326 81.0928 12.9688 80.8566 12.9688 80.5654C12.9686 80.2744 12.7324 80.0391 12.4414 80.0391ZM14.6553 80.0391C14.3644 80.0392 14.1291 80.2745 14.1289 80.5654C14.1289 80.8565 14.3643 81.0926 14.6553 81.0928C14.9464 81.0928 15.1826 80.8566 15.1826 80.5654C15.1824 80.2744 14.9463 80.0391 14.6553 80.0391ZM16.8701 80.0391C16.5791 80.0391 16.343 80.2744 16.3428 80.5654C16.3428 80.8566 16.579 81.0928 16.8701 81.0928C17.1612 81.0927 17.3975 80.8565 17.3975 80.5654C17.3973 80.2745 17.1611 80.0391 16.8701 80.0391ZM19.084 80.0391C18.7929 80.0391 18.5568 80.2744 18.5566 80.5654C18.5566 80.8566 18.7928 81.0928 19.084 81.0928C19.3751 81.0927 19.6113 80.8565 19.6113 80.5654C19.6111 80.2745 19.3749 80.0391 19.084 80.0391ZM21.2979 80.0391C21.007 80.0392 20.7717 80.2745 20.7715 80.5654C20.7715 80.8565 21.0068 81.0926 21.2979 81.0928C21.589 81.0928 21.8252 80.8566 21.8252 80.5654C21.825 80.2744 21.5889 80.0391 21.2979 80.0391ZM12.4414 77.8242C12.1504 77.8244 11.915 78.0605 11.915 78.3516C11.9151 78.6426 12.1504 78.8787 12.4414 78.8789C12.7325 78.8789 12.9687 78.6427 12.9688 78.3516C12.9688 78.0604 12.7326 77.8242 12.4414 77.8242ZM14.6553 77.8242C14.3643 77.8244 14.1289 78.0605 14.1289 78.3516C14.129 78.6426 14.3643 78.8787 14.6553 78.8789C14.9464 78.8789 15.1825 78.6427 15.1826 78.3516C15.1826 78.0604 14.9464 77.8242 14.6553 77.8242ZM16.8701 77.8242C16.579 77.8242 16.3428 78.0604 16.3428 78.3516C16.3428 78.6427 16.579 78.8789 16.8701 78.8789C17.1612 78.8788 17.3974 78.6426 17.3975 78.3516C17.3975 78.0605 17.1612 77.8243 16.8701 77.8242ZM19.084 77.8242C18.7928 77.8242 18.5566 78.0604 18.5566 78.3516C18.5567 78.6427 18.7929 78.8789 19.084 78.8789C19.375 78.8788 19.6113 78.6426 19.6113 78.3516C19.6113 78.0605 19.3751 77.8243 19.084 77.8242ZM21.2979 77.8242C21.0068 77.8244 20.7715 78.0605 20.7715 78.3516C20.7716 78.6426 21.0069 78.8787 21.2979 78.8789C21.589 78.8789 21.8251 78.6427 21.8252 78.3516C21.8252 78.0604 21.589 77.8242 21.2979 77.8242ZM16.8701 45.0322C11.0471 45.0323 6.32715 49.7529 6.32715 55.5762C6.32736 61.3992 11.0472 66.12 16.8701 66.1201C22.6931 66.1201 27.4139 61.3993 27.4141 55.5762C27.4141 49.7529 22.6932 45.0322 16.8701 45.0322ZM104.963 54.7324C102.43 54.7324 100.376 56.7862 100.376 59.3193C100.376 61.8524 102.43 63.9053 104.963 63.9053C107.496 63.905 109.549 61.8522 109.549 59.3193C109.549 56.7863 107.496 54.7327 104.963 54.7324ZM117.088 46.2979C114.555 46.2979 112.501 48.3508 112.501 50.8838C112.501 53.4169 114.555 55.4707 117.088 55.4707C119.621 55.4705 121.674 53.4168 121.674 50.8838C121.674 48.3509 119.621 46.2981 117.088 46.2979ZM115.979 33.9609C114.99 33.9612 114.188 34.7641 114.188 35.7539C114.188 36.7435 114.99 37.5457 115.979 37.5459C116.969 37.5459 117.772 36.7436 117.772 35.7539C117.772 34.7639 116.969 33.9609 115.979 33.9609ZM7.5918 34.3828C6.77656 34.3828 6.11528 35.0432 6.11523 35.8584C6.11523 36.6737 6.77653 37.335 7.5918 37.335H13.2852C14.1003 37.3348 14.7607 36.6736 14.7607 35.8584C14.7607 35.0433 14.1003 34.383 13.2852 34.3828H7.5918Z" fill="white"/>
<rect x="38.8008" y="41.0254" width="50.2932" height="47.9754" fill="white"/>
<path d="M16.8701 48.8271C20.5969 48.8272 23.6182 51.8493 23.6182 55.5762C23.618 59.3029 20.5967 62.3242 16.8701 62.3242C13.1435 62.3242 10.1223 59.3029 10.1221 55.5762C10.1221 51.8493 13.1433 48.8271 16.8701 48.8271ZM16.9229 50.0938C13.924 50.0938 11.4932 52.5244 11.4932 55.5234C11.4932 58.5224 13.924 60.9541 16.9229 60.9541C19.9217 60.954 22.3525 58.5224 22.3525 55.5234C22.3525 52.5245 19.9217 50.0939 16.9229 50.0938Z" fill="white"/>
<rect x="16.2378" y="45.3481" width="1.37067" height="2.21425" fill="white"/>
<rect x="16.2378" y="63.5898" width="1.37067" height="2.21425" fill="white"/>
<rect x="24.8833" y="56.2085" width="1.37073" height="2.21417" transform="rotate(-90 24.8833 56.2085)" fill="white"/>
<rect x="6.64258" y="56.2085" width="1.37073" height="2.21417" transform="rotate(-90 6.64258 56.2085)" fill="white"/>
<rect width="1.3707" height="2.21421" transform="matrix(0.707094 -0.70712 0.707094 0.70712 9.17285 48.8481)" fill="white"/>
<rect width="1.3707" height="2.21421" transform="matrix(0.707094 -0.70712 0.707094 0.70712 22.0361 61.7119)" fill="white"/>
<rect width="1.3707" height="2.21421" transform="matrix(0.707094 0.70712 -0.707094 0.70712 23.6021 47.8789)" fill="white"/>
<rect width="1.3707" height="2.21421" transform="matrix(0.707094 0.70712 -0.707094 0.70712 10.7388 60.7427)" fill="white"/>
</svg>
