<svg width="128" height="128" viewBox="0 0 128 128" fill="none" xmlns="http://www.w3.org/2000/svg">
<path fill-rule="evenodd" clip-rule="evenodd" d="M0 88.5562V39C0 38.4477 0.447715 38 1 38H127C127.552 38 128 38.4477 128 39V88.5562C128 89.1085 127.552 89.5562 127 89.5562H1C0.447715 89.5562 0 89.1085 0 88.5562ZM18.4943 62.2528V56.5811C18.4943 56.0288 18.942 55.5811 19.4943 55.5811H24.5267C25.079 55.5811 25.5267 56.0288 25.5267 56.5811V62.2528C25.5267 62.8051 25.9745 63.2528 26.5267 63.2528H32.1529C32.7051 63.2528 33.1529 63.7006 33.1529 64.2528V70.0159C33.1529 70.5682 32.7051 71.0159 32.1529 71.0159H26.5267C25.9745 71.0159 25.5267 71.4637 25.5267 72.0159V77.2311C25.5267 77.7834 25.079 78.2311 24.5267 78.2311H19.4943C18.942 78.2311 18.4943 77.7834 18.4943 77.2311V72.0159C18.4943 71.4637 18.0466 71.0159 17.4943 71.0159H11.8682C11.3159 71.0159 10.8682 70.5682 10.8682 70.0159V64.2528C10.8682 63.7006 11.3159 63.2528 11.8682 63.2528H17.4943C18.0466 63.2528 18.4943 62.8051 18.4943 62.2528ZM53.4511 71.564H48.1082C47.0868 71.564 46.2588 72.392 46.2588 73.4134C46.2588 74.4348 47.0868 75.2629 48.1082 75.2629H53.4511C54.4725 75.2629 55.3005 74.4348 55.3005 73.4134C55.3005 72.392 54.4725 71.564 53.4511 71.564ZM70.393 71.564H65.0501C64.0287 71.564 63.2007 72.392 63.2007 73.4134C63.2007 74.4348 64.0287 75.2629 65.0501 75.2629H70.393C71.4144 75.2629 72.2424 74.4348 72.2424 73.4134C72.2424 72.392 71.4144 71.564 70.393 71.564ZM94.984 73.6192C94.984 76.5195 92.6328 78.8707 89.7325 78.8707C86.8321 78.8707 84.481 76.5195 84.481 73.6192C84.481 70.7189 86.8321 68.3677 89.7325 68.3677C92.6328 68.3677 94.984 70.7189 94.984 73.6192ZM106.537 78.8707C109.437 78.8707 111.789 76.5195 111.789 73.6192C111.789 70.7189 109.437 68.3677 106.537 68.3677C103.637 68.3677 101.286 70.7189 101.286 73.6192C101.286 76.5195 103.637 78.8707 106.537 78.8707Z" fill="white"/>
</svg>
