<svg width="128" height="128" viewBox="0 0 128 128" fill="none" xmlns="http://www.w3.org/2000/svg">
<path fill-rule="evenodd" clip-rule="evenodd" d="M92.1694 2.59125C85.0566 0.555351 49.9628 0.555732 38.8641 2.12151C27.7653 3.68729 21.1998 8.69815 19.324 18.4067C17.4481 28.1153 14.0091 85.4272 14.0091 85.4272C13.7221 102.307 20.2619 112.987 30.8917 114.553C41.5215 116.119 46.5238 116.745 57.3099 117.215C68.096 117.685 78.5695 118.937 91.2315 124.418C103.894 129.899 111.241 127.55 112.335 108.603C113.429 89.6551 113.104 80.7255 111.866 63.0348C110.637 45.4787 108.583 28.2718 105.613 18.4067C102.643 8.54166 99.2823 4.62714 92.1694 2.59125ZM32.3963 87.3327H26C25.4477 87.3327 25 87.7804 25 88.3327V95.2454C25 95.7977 25.4477 96.2454 26 96.2454H32.3963C32.9486 96.2454 33.3963 96.6932 33.3963 97.2454V104C33.3963 104.552 33.8441 105 34.3963 105H42.2195C42.7718 105 43.2195 104.552 43.2195 104V97.2454C43.2195 96.6932 43.6672 96.2454 44.2195 96.2454H51C51.5523 96.2454 52 95.7977 52 95.2454V88.3327C52 87.7804 51.5523 87.3327 51 87.3327H44.2195C43.6672 87.3327 43.2195 86.8849 43.2195 86.3327V80C43.2195 79.4477 42.7718 79 42.2195 79H34.3963C33.8441 79 33.3963 79.4477 33.3963 80V86.3327C33.3963 86.8849 32.9486 87.3327 32.3963 87.3327ZM81 102C84.3137 102 87 99.3137 87 96C87 92.6863 84.3137 90 81 90C77.6863 90 75 92.6863 75 96C75 99.3137 77.6863 102 81 102ZM103 84C103 87.3137 100.314 90 97 90C93.6863 90 91 87.3137 91 84C91 80.6863 93.6863 78 97 78C100.314 78 103 80.6863 103 84ZM63.5 73C83.6584 73 100 60.464 100 45C100 29.536 83.6584 17 63.5 17C43.3416 17 27 29.536 27 45C27 60.464 43.3416 73 63.5 73ZM67 86C67 87.6569 65.6569 89 64 89C62.3431 89 61 87.6569 61 86C61 84.3431 62.3431 83 64 83C65.6569 83 67 84.3431 67 86ZM64 108C65.1046 108 66 107.105 66 106C66 104.895 65.1046 104 64 104C62.8954 104 62 104.895 62 106C62 107.105 62.8954 108 64 108Z" fill="white"/>
<rect x="38" y="28" width="51" height="35" fill="white"/>
</svg>
