<svg width="128" height="128" viewBox="0 0 128 128" fill="none" xmlns="http://www.w3.org/2000/svg">
<path fill-rule="evenodd" clip-rule="evenodd" d="M26.3252 37C26.5706 37 26.8099 37.1974 27 37.6194L26.9953 37.6241H27.1029C27.1344 37.2742 27.4284 37 27.7865 37H99.4293C99.7301 37 99.9857 37.1934 100.078 37.4627C100.254 37.1483 100.462 37 100.675 37H113.62C116.005 37 118.064 39.2846 119.982 42.36C120.215 42.4493 120.419 42.6082 120.561 42.821C129.261 55.8618 129.268 72.6432 120.58 85.3348C120.352 85.6684 119.971 85.8644 119.566 85.8644H110.747C110.02 85.8644 109.329 86.1813 108.855 86.7322L106.105 89.9268C105.631 90.4777 104.94 90.7946 104.213 90.7946H22.8781C22.5489 90.7946 22.2271 90.7296 21.9294 90.6073H13.6826C10.858 90.6073 8.85725 88.6827 6.73471 85.5804C6.65016 85.51 6.57466 85.4278 6.51103 85.3348C-2.17664 72.6432 -2.17034 55.8618 6.52993 42.821C6.65594 42.6321 6.83077 42.4857 7.03169 42.3927L7 42.3891C8.9232 39.299 10.9877 37 13.3804 37H26.3252ZM22.7121 37.6241H22.2501C21.9191 37.6241 21.6016 37.7556 21.3675 37.9897L18.1784 41.1788C17.7354 41.6219 17.142 41.8821 16.516 41.9079L8.18168 42.251C8.40279 41.9403 8.61684 41.6131 8.83328 41.2823L8.83329 41.2823L8.83331 41.2823L8.83332 41.2823L8.83333 41.2822C9.99699 39.5036 11.6508 37.6194 14 37.6194L22.714 37.6194L22.7121 37.6241ZM118.167 41.2827L118.167 41.2825L118.167 41.2822C117.003 39.5036 115.349 37.6194 113 37.6194L104.286 37.6194L104.288 37.6241H104.841C105.172 37.6241 105.489 37.7556 105.724 37.9897L108.913 41.1788C109.356 41.6219 109.949 41.8821 110.575 41.9079L118.816 42.2472C118.596 41.9382 118.383 41.6131 118.168 41.2843L118.168 41.2843L118.168 41.2842L118.168 41.2841L118.168 41.284L118.168 41.2839L118.168 41.2838L118.168 41.2837L118.168 41.2836L118.167 41.2835L118.167 41.2834L118.167 41.2833L118.167 41.2831L118.167 41.2829L118.167 41.2827ZM16.5533 86.426H10.2503C9.5638 86.426 9.5638 87.1125 9.87583 87.3621C11.0616 88.4855 12.1849 89.3592 13.6202 89.3592H18.7376C19.1744 89.3592 19.6113 88.7975 19.112 88.2358L18.1759 87.1749C17.6767 86.6757 17.1774 86.426 16.5533 86.426ZM20.7346 48.6074C20.321 48.6074 19.9857 48.9427 19.9857 49.3563C19.9857 49.7699 20.321 50.1052 20.7346 50.1052H22.3572C22.7708 50.1052 23.106 49.7699 23.106 49.3563C23.106 48.9427 22.7708 48.6074 22.3572 48.6074H20.7346ZM103.985 49.3563C103.985 48.9427 104.32 48.6074 104.734 48.6074H106.356C106.77 48.6074 107.105 48.9427 107.105 49.3563C107.105 49.7699 106.77 50.1052 106.356 50.1052H104.734C104.32 50.1052 103.985 49.7699 103.985 49.3563ZM27.8505 41.1191C27.2982 41.1191 26.8505 41.5669 26.8505 42.1191V82.1812C26.8505 82.7335 27.2982 83.1812 27.8505 83.1812H99.1158C99.6681 83.1812 100.116 82.7335 100.116 82.1812V42.1191C100.116 41.5669 99.6681 41.1191 99.1158 41.1191H27.8505ZM4.89191 58.1082C4.54419 59.7809 4.54989 60.9893 4.89528 62.6884C4.98752 63.1421 5.39242 63.46 5.85542 63.46H9.24371C9.38769 63.46 9.46318 63.46 9.52883 63.4345C9.60119 63.4065 9.66159 63.3476 9.78855 63.2237C9.95136 63.0649 10.781 62.1513 11.3072 61.5696C11.5916 61.2553 11.748 60.847 11.748 60.4232C11.748 60.008 11.5978 59.6073 11.3236 59.2954C10.7984 58.6981 9.95306 57.7408 9.78855 57.5804C9.5464 57.3441 9.5464 57.3441 9.24371 57.3441H5.84908C5.38906 57.3441 4.98555 57.6579 4.89191 58.1082ZM23.7181 62.6884C24.0635 60.9893 24.0692 59.7809 23.7215 58.1082C23.6279 57.6579 23.2243 57.3441 22.7643 57.3441H19.3697C19.067 57.3441 19.067 57.3441 18.8249 57.5804C18.6603 57.7408 17.815 58.6981 17.2898 59.2954C17.0157 59.6073 16.8654 60.008 16.8654 60.4232C16.8654 60.847 17.0218 61.2553 17.3062 61.5696C17.8324 62.1513 18.662 63.0649 18.8249 63.2237C18.9518 63.3476 19.0122 63.4065 19.0846 63.4345C19.1502 63.46 19.2257 63.46 19.3697 63.46H22.758C23.221 63.46 23.6259 63.1421 23.7181 62.6884ZM16.6005 69.3179C14.9279 69.6657 13.7194 69.66 12.0203 69.3146C11.5666 69.2223 11.2488 68.8174 11.2488 68.3544V64.9661C11.2488 64.8221 11.2488 64.7467 11.2742 64.681C11.3022 64.6086 11.3612 64.5483 11.485 64.4213C11.6439 64.2585 12.5575 63.4288 13.1391 62.9026C13.4534 62.6183 13.8617 62.4618 14.2855 62.4618C14.7007 62.4618 15.1015 62.6121 15.4133 62.8863C16.0107 63.4114 16.9679 64.2568 17.1284 64.4213C17.3646 64.6634 17.3646 64.6634 17.3646 64.9661V68.3608C17.3646 68.8208 17.0509 69.2243 16.6005 69.3179ZM12.0203 51.3651C13.7194 51.0197 14.9279 51.014 16.6005 51.3618C17.0509 51.4554 17.3646 51.8589 17.3646 52.3189V55.7136C17.3646 56.0162 17.3646 56.0162 17.1284 56.2584C16.9679 56.4229 16.0107 57.2682 15.4133 57.7934C15.1015 58.0676 14.7007 58.2179 14.2855 58.2179C13.8617 58.2179 13.4534 58.0614 13.1391 57.7771C12.5575 57.2509 11.6439 56.4212 11.485 56.2584C11.3612 56.1314 11.3022 56.071 11.2742 55.9987C11.2488 55.933 11.2488 55.8575 11.2488 55.7136V52.3253C11.2488 51.8623 11.5666 51.4574 12.0203 51.3651ZM18.9872 77.6888C18.9872 80.1014 17.0313 82.0572 14.6187 82.0572C12.2061 82.0572 10.2502 80.1014 10.2502 77.6888C10.2502 75.2761 12.2061 73.3203 14.6187 73.3203C17.0313 73.3203 18.9872 75.2761 18.9872 77.6888ZM113.72 56.8454C115.582 56.8454 117.09 55.3366 117.09 53.4754C117.09 51.6143 115.582 50.1055 113.72 50.1055C111.859 50.1055 110.35 51.6143 110.35 53.4754C110.35 55.3366 111.859 56.8454 113.72 56.8454ZM117.09 68.203C117.09 70.0641 115.582 71.5729 113.72 71.5729C111.859 71.5729 110.35 70.0641 110.35 68.203C110.35 66.3418 111.859 64.833 113.72 64.833C115.582 64.833 117.09 66.3418 117.09 68.203ZM106.232 64.2096C108.093 64.2096 109.602 62.7009 109.602 60.8397C109.602 58.9785 108.093 57.4697 106.232 57.4697C104.37 57.4697 102.862 58.9785 102.862 60.8397C102.862 62.7009 104.37 64.2096 106.232 64.2096ZM124.454 60.8397C124.454 62.7009 122.946 64.2096 121.084 64.2096C119.223 64.2096 117.714 62.7009 117.714 60.8397C117.714 58.9785 119.223 57.4697 121.084 57.4697C122.946 57.4697 124.454 58.9785 124.454 60.8397ZM36.4611 86.0518C35.7028 86.0518 35.0881 86.6664 35.0881 87.4247C35.0881 88.183 35.7028 88.7976 36.4611 88.7976H37.834C38.5923 88.7976 39.207 88.183 39.207 87.4247C39.207 86.6664 38.5923 86.0518 37.834 86.0518H36.4611ZM43.5754 87.4247C43.5754 86.6664 44.1901 86.0518 44.9484 86.0518H46.3213C47.0796 86.0518 47.6943 86.6664 47.6943 87.4247C47.6943 88.183 47.0796 88.7976 46.3213 88.7976H44.9484C44.1901 88.7976 43.5754 88.183 43.5754 87.4247ZM76.6509 86.0518C75.8926 86.0518 75.278 86.6664 75.278 87.4247C75.278 88.183 75.8926 88.7976 76.6509 88.7976H78.0238C78.7821 88.7976 79.3968 88.183 79.3968 87.4247C79.3968 86.6664 78.7821 86.0518 78.0238 86.0518H76.6509ZM81.0194 87.4247C81.0194 86.6664 81.6341 86.0518 82.3924 86.0518H83.7653C84.5236 86.0518 85.1382 86.6664 85.1382 87.4247C85.1382 88.183 84.5236 88.7976 83.7653 88.7976H82.3924C81.6341 88.7976 81.0194 88.183 81.0194 87.4247ZM31.184 86.7221C31.3591 86.1983 30.896 85.7393 30.3437 85.7393H25.2294C24.6771 85.7393 24.214 86.1983 24.3891 86.7221C24.8392 88.0689 26.1901 89.0468 27.7865 89.0468C29.383 89.0468 30.7339 88.0689 31.184 86.7221ZM93.4992 85.7393C94.0515 85.7393 94.5146 86.1983 94.3395 86.7221C93.8894 88.0689 92.5386 89.0468 90.9421 89.0468C89.3456 89.0468 87.9947 88.0689 87.5446 86.7221C87.3695 86.1983 87.8326 85.7393 88.3849 85.7393H93.4992ZM102.577 86.7221C102.752 86.1983 102.289 85.7393 101.737 85.7393H96.6226C96.0703 85.7393 95.6072 86.1983 95.7823 86.7221C96.2324 88.0689 97.5833 89.0468 99.1797 89.0468C100.776 89.0468 102.127 88.0689 102.577 86.7221Z" fill="white"/>
</svg>
