<svg width="128" height="128" viewBox="0 0 128 128" fill="none" xmlns="http://www.w3.org/2000/svg">
<path d="M116 40C122.627 40 128 45.3726 128 52V79C128 85.6274 122.627 91 116 91H12C5.37258 91 2.41604e-08 85.6274 0 79V52C0 45.3726 5.37258 40 12 40H116ZM30.9893 49.4658C22.1662 49.466 15.0137 56.6447 15.0137 65.5C15.0137 74.3552 22.1662 81.534 30.9893 81.5342C39.8125 81.5342 46.9658 74.3553 46.9658 65.5C46.9658 56.6446 39.8125 49.4658 30.9893 49.4658ZM83.7285 67.0459C80.2206 67.0461 77.377 69.9002 77.377 73.4209C77.3772 76.9414 80.2208 79.7957 83.7285 79.7959C87.2364 79.7959 90.0808 76.9415 90.0811 73.4209C90.0811 69.9001 87.2366 67.0459 83.7285 67.0459ZM105.672 67.0459C102.164 67.0459 99.3203 69.9001 99.3203 73.4209C99.3206 76.9415 102.164 79.7959 105.672 79.7959C109.18 79.7958 112.023 76.9414 112.023 73.4209C112.023 69.9001 109.18 67.046 105.672 67.0459ZM75 57H114V46H75V57Z" fill="white"/>
<rect x="30.0269" y="51.0117" width="1.73233" height="5.60227" fill="white"/>
<rect x="30.0269" y="74.1924" width="1.73233" height="5.60227" fill="white"/>
<rect x="39.6514" y="66.2725" width="1.73864" height="5.58195" transform="rotate(-90 39.6514 66.2725)" fill="white"/>
<rect x="16.7456" y="66.2725" width="1.73864" height="5.58195" transform="rotate(-90 16.7456 66.2725)" fill="white"/>
<ellipse cx="30.9896" cy="65.5005" rx="6.35188" ry="6.375" fill="white"/>
</svg>
