<svg width="128" height="128" viewBox="0 0 128 128" fill="none" xmlns="http://www.w3.org/2000/svg">
<path fill-rule="evenodd" clip-rule="evenodd" d="M42.7653 37.2196H85.3698L84.7528 37.1571L85.0546 36.2518C85.0546 36.2518 99.1717 35.7477 103.115 36.2518C107.058 36.7558 109.158 37.4237 112.725 39.2231V39.9892L112.721 39.9887C116.335 41.7991 119.108 44.1922 121.059 46.2032C124.754 50.0103 128 56.719 128 64.4956C128 72.2721 125.221 78.9522 121.059 83.2986C114.484 89.8358 108.802 91.9109 101.003 91.9109C93.2028 91.9109 88.8321 90.0409 82.5477 85.6432H45.4523C39.1679 90.0409 34.7972 91.9109 26.9975 91.9109C19.1977 91.9109 13.5155 90.0215 6.94088 83.4843C2.7787 79.1379 0 72.2721 0 64.4956C0 56.719 3.24627 50.0103 6.94088 46.2032C8.88742 44.1974 11.6503 41.8115 15.2514 40.0027V39.2391C18.8551 37.5297 20.9579 36.8703 24.8619 36.2678C28.7658 35.6653 42.9221 36.2678 42.9221 36.2678L43.2239 37.1731L42.7653 37.2196ZM62.3852 69.1573C61.6224 69.7322 61.4699 70.8167 62.0448 71.5796C62.6197 72.3425 63.7042 72.4949 64.4671 71.92L69.9615 67.7796C70.7244 67.2048 70.8769 66.1203 70.302 65.3574C69.7271 64.5945 68.6426 64.4421 67.8797 65.0169L62.3852 69.1573ZM48.1879 71.5649C47.613 70.802 47.7654 69.7176 48.5283 69.1427L54.0228 65.0023C54.7857 64.4274 55.8702 64.5798 56.445 65.3427C57.0199 66.1056 56.8675 67.1901 56.1046 67.765L50.6101 71.9054C49.8472 72.4802 48.7628 72.3278 48.1879 71.5649ZM100.77 59.9227C103.334 59.9227 105.413 57.844 105.413 55.2799C105.413 52.7158 103.334 50.6372 100.77 50.6372C98.2061 50.6372 96.1274 52.7158 96.1274 55.2799C96.1274 57.844 98.2061 59.9227 100.77 59.9227ZM105.413 73.9435C105.413 76.5076 103.334 78.5862 100.77 78.5862C98.2061 78.5862 96.1274 76.5076 96.1274 73.9435C96.1274 71.3794 98.2061 69.3008 100.77 69.3008C103.334 69.3008 105.413 71.3794 105.413 73.9435ZM112.609 69.2083C115.173 69.2083 117.252 67.1297 117.252 64.5656C117.252 62.0015 115.173 59.9229 112.609 59.9229C110.045 59.9229 107.966 62.0015 107.966 64.5656C107.966 67.1297 110.045 69.2083 112.609 69.2083ZM93.2957 64.5656C93.2957 67.1297 91.2171 69.2083 88.653 69.2083C86.0889 69.2083 84.0103 67.1297 84.0103 64.5656C84.0103 62.0015 86.0889 59.9229 88.653 59.9229C91.2171 59.9229 93.2957 62.0015 93.2957 64.5656ZM17.5049 60.2546H22.4494C23.0017 60.2546 23.4494 59.8069 23.4494 59.2546V54.0977C23.4494 53.5454 23.8972 53.0977 24.4494 53.0977H30.5741C31.1264 53.0977 31.5741 53.5454 31.5741 54.0977V59.2546C31.5741 59.8069 32.0218 60.2546 32.5741 60.2546H37.8364C38.3887 60.2546 38.8364 60.7023 38.8364 61.2546V66.9098C38.8364 67.4621 38.3887 67.9098 37.8364 67.9098H32.5741C32.0218 67.9098 31.5741 68.3576 31.5741 68.9098V74.4292C31.5741 74.9815 31.1264 75.4292 30.5741 75.4292H24.4494C23.8972 75.4292 23.4494 74.9815 23.4494 74.4292V68.9098C23.4494 68.3576 23.0017 67.9098 22.4494 67.9098H17.5049C16.9526 67.9098 16.5049 67.4621 16.5049 66.9098V61.2546C16.5049 60.7023 16.9526 60.2546 17.5049 60.2546Z" fill="white"/>
</svg>
