<svg width="128" height="128" viewBox="0 0 128 128" fill="none" xmlns="http://www.w3.org/2000/svg">
<path d="M62.7471 32C67.434 32 73.793 32.2718 77.7822 32.4688C79.7433 32.5657 81.2999 34.0746 81.5176 35.9814L124.486 41.2412C126.492 41.4869 128 43.19 128 45.2109V91.833C128 94.0421 126.209 95.833 124 95.833H4C1.79089 95.833 4.94784e-05 94.0421 0 91.833V45.2109C0.00014559 43.19 1.50774 41.4869 3.51367 41.2412L43.9512 36.291C44.0262 34.2399 45.6456 32.5708 47.7119 32.4688C51.7012 32.2718 58.0601 32 62.7471 32ZM10.3496 49.0449C8.14047 49.0449 6.34961 50.8358 6.34961 53.0449V63.4375C6.34961 65.2526 8.81268 66.3652 10.4023 65.4893C12.324 64.4298 14.8327 63.499 17.7129 63.499C22.3915 64.0004 25.1247 65.1625 28.1562 68.1777C31.0805 71.0863 32 74.3604 32 77.9531C32 82.2878 30.803 85.3516 27.7529 88.4316C27.6249 88.5609 27.4892 88.6874 27.3477 88.8105C26.4333 89.6072 27.0082 92.8252 28.2207 92.8252H112.626C117.472 92.8252 119.928 90.4019 121.315 86.5586C122.985 81.9336 118.647 76.1222 118.642 76.1152V53.0439C118.641 50.835 116.851 49.0449 114.642 49.0449H91.6807C89.3938 49.0449 87.5362 50.956 87.3184 53.2324C86.557 61.1887 82.5779 77.7021 62.6631 77.7021C42.6826 77.7021 39.5589 61.5969 39.2471 53.5332C39.1546 51.1422 37.2511 49.0449 34.8584 49.0449H10.3496ZM17.3789 66.2559C10.9188 66.2559 5.68164 71.493 5.68164 77.9531C5.68172 84.4132 10.9188 89.6504 17.3789 89.6504C23.8389 89.6503 29.0761 84.4131 29.0762 77.9531C29.0762 71.493 23.839 66.2559 17.3789 66.2559Z" fill="white"/>
<ellipse cx="95.582" cy="83.8017" rx="5.84856" ry="5.84856" fill="white"/>
<ellipse cx="111.29" cy="83.8017" rx="5.84856" ry="5.84856" fill="white"/>
<mask id="mask0_1190_550" style="mask-type:alpha" maskUnits="userSpaceOnUse" x="7" y="67" width="21" height="22">
<ellipse cx="17.5" cy="78" rx="10.5" ry="11" fill="#616569"/>
</mask>
<g mask="url(#mask0_1190_550)">
<path d="M20.1357 73.1953C20.1357 74.2998 21.0313 75.1952 22.1357 75.1953H29.0762V80.71H22.1357C21.0313 80.7101 20.1358 81.6055 20.1357 82.71V89.6504H14.6221V82.71C14.622 81.6056 13.7264 80.7102 12.6221 80.71H5.68164V75.1953H12.6221C13.7264 75.1951 14.6221 74.2997 14.6221 73.1953V66.2559H20.1357V73.1953ZM17.3789 75.1123C15.81 75.1123 14.5381 76.3842 14.5381 77.9531C14.5381 79.522 15.81 80.7939 17.3789 80.7939C18.9477 80.7939 20.2197 79.5219 20.2197 77.9531C20.2197 76.3843 18.9478 75.1124 17.3789 75.1123Z" fill="white"/>
</g>
<rect x="49.1279" y="80.7935" width="11.1958" height="4.34464" rx="2.17232" fill="white"/>
<rect x="65.1699" y="80.7935" width="11.1958" height="4.34464" rx="2.17232" fill="white"/>
<path d="M95.3315 52.7207C96.6697 52.7207 97.7543 53.8054 97.7544 55.1436V61.4932C97.7544 62.8313 96.6697 63.917 95.3315 63.917C93.9934 63.9169 92.9087 62.8313 92.9087 61.4932V55.1436C92.9088 53.8055 93.9935 52.7208 95.3315 52.7207ZM95.4155 56.5645C94.4004 56.5645 93.5776 57.3872 93.5776 58.4023C93.5778 59.4174 94.4004 60.2402 95.4155 60.2402C96.4305 60.2401 97.2533 59.4173 97.2534 58.4023C97.2534 57.3873 96.4306 56.5646 95.4155 56.5645Z" fill="white"/>
<path d="M111.039 52.7207C112.377 52.7207 113.462 53.8054 113.462 55.1436V61.4932C113.462 62.8313 112.377 63.917 111.039 63.917C109.701 63.9169 108.616 62.8313 108.616 61.4932V55.1436C108.616 53.8055 109.701 52.7208 111.039 52.7207ZM111.123 56.5645C110.108 56.5645 109.285 57.3872 109.285 58.4023C109.285 59.4174 110.108 60.2402 111.123 60.2402C112.138 60.2401 112.961 59.4173 112.961 58.4023C112.961 57.3873 112.138 56.5646 111.123 56.5645Z" fill="white"/>
</svg>
