<svg width="128" height="128" viewBox="0 0 128 128" fill="none" xmlns="http://www.w3.org/2000/svg">
<g clip-path="url(#clip0_1236_2)">
<path d="M55.7727 89.2727V88.5909C55.8485 81.3561 56.6061 75.5985 58.0455 71.3182C59.4848 67.0379 61.5303 63.572 64.1818 60.9205C66.8333 58.2689 70.0152 55.8258 73.7273 53.5909C75.9621 52.2273 77.9697 50.6174 79.75 48.7614C81.5303 46.8674 82.9318 44.6894 83.9545 42.2273C85.0152 39.7652 85.5455 37.0379 85.5455 34.0455C85.5455 30.3333 84.6742 27.1136 82.9318 24.3864C81.1894 21.6591 78.8599 19.5568 75.9432 18.0795C73.0265 16.6023 69.7879 15.8636 66.2273 15.8636C63.1212 15.8636 60.1288 16.5076 57.25 17.7955C54.3712 19.0833 51.9659 21.1098 50.0341 23.875C48.1023 26.6401 46.9848 30.2576 46.6818 34.7273H32.3636C32.6667 28.2879 34.3333 22.7765 37.3636 18.1932C40.4318 13.6098 44.4659 10.1061 49.4659 7.68181C54.5038 5.25757 60.0909 4.04545 66.2273 4.04545C72.8939 4.04545 78.6894 5.37121 83.6136 8.02272C88.5758 10.6742 92.4015 14.3106 95.0909 18.9318C97.8182 23.553 99.1818 28.8182 99.1818 34.7273C99.1818 38.8939 98.5379 42.6629 97.25 46.0341C96 49.4053 94.1818 52.4167 91.7955 55.0682C89.447 57.7197 86.6061 60.0682 83.2727 62.1136C79.9394 64.197 77.2689 66.3939 75.2614 68.7045C73.2538 70.9773 71.7955 73.6856 70.8864 76.8295C69.9773 79.9735 69.4848 83.8939 69.4091 88.5909V89.2727H55.7727ZM63.0455 122.909C60.2424 122.909 57.8371 121.905 55.8295 119.898C53.822 117.89 52.8182 115.485 52.8182 112.682C52.8182 109.879 53.822 107.473 55.8295 105.466C57.8371 103.458 60.2424 102.455 63.0455 102.455C65.8485 102.455 68.2538 103.458 70.2614 105.466C72.2689 107.473 73.2727 109.879 73.2727 112.682C73.2727 114.538 72.7992 116.242 71.8523 117.795C70.9432 119.348 69.7121 120.598 68.1591 121.545C66.6439 122.455 64.9394 122.909 63.0455 122.909Z" fill="white"/>
</g>
<defs>
<clipPath id="clip0_1236_2">
<rect width="128" height="128" fill="white"/>
</clipPath>
</defs>
</svg>
