<svg width="128" height="128" viewBox="0 0 128 128" fill="none" xmlns="http://www.w3.org/2000/svg">
<path d="M96.7822 26.0077C104.973 25.8409 117.613 28.4483 117.645 28.4549C125.315 29.2467 127.968 34.429 127.968 37.7401V83.3045C127.968 90.8624 129.187 94.3174 116.569 98.2762C103.704 101.936 88.2013 101.947 88.1084 101.947C80.0074 102.379 68.7498 99.9947 57.4961 100.076C51.6652 100.118 51.0436 100.076 43.0859 101.372C37.422 102.092 15.7641 100.796 13.1191 100.796C10.61 100.58 6.30867 96.8368 4.37305 91.2225C1.44465 80.7704 0 73.0829 0 64.4452C1.54921e-05 57.2472 0.841196 48.496 3.01074 38.5321C4.31682 31.9461 6.30503 29.5111 13.1191 28.4549C24.9135 26.8275 31.6463 25.8698 37.7812 26.367C42.5846 26.3671 53.2665 29.2469 63.9482 29.2469C71.4757 29.2469 90.3297 26.0078 96.7822 26.0077ZM43.2998 91.6356C42.1953 91.6356 41.2999 92.5311 41.2998 93.6356C41.2998 94.7402 42.1952 95.6356 43.2998 95.6356H47.2998C48.4044 95.6356 49.2998 94.7402 49.2998 93.6356C49.2997 92.5311 48.4043 91.6356 47.2998 91.6356H43.2998ZM54.2998 91.6356C53.1953 91.6356 52.2999 92.5311 52.2998 93.6356C52.2998 94.7402 53.1952 95.6356 54.2998 95.6356H58.2998C59.4044 95.6356 60.2998 94.7402 60.2998 93.6356C60.2997 92.5311 59.4043 91.6356 58.2998 91.6356H54.2998ZM68.2002 90.6356C65.9912 90.6356 64.2005 91.755 64.2002 93.1356C64.2002 94.5163 65.9911 95.6356 68.2002 95.6356C70.4093 95.6356 72.2002 94.5163 72.2002 93.1356C72.1999 91.755 70.4092 90.6356 68.2002 90.6356ZM18.1162 84.5838C17.3718 83.8969 16.6162 84.0836 16.1162 84.5838L13.3594 87.3407C12.8726 87.8276 12.4314 88.4389 12.5176 89.1219C12.5368 89.2739 12.5707 89.4245 12.6162 89.5838C13.1162 90.5837 13.7911 90.8462 15.1162 91.0838C16.8318 91.3736 17.3213 91.3573 19.1162 91.0838C20.3178 90.9008 21.2809 90.4307 21.6162 89.5838C21.6802 89.3848 21.7227 89.2142 21.7422 89.0516C21.8191 88.4101 21.3778 87.8454 20.9209 87.3885L18.1162 84.5838ZM103.655 39.703C83.3925 32.9867 54.2374 32.4754 29.459 41.0331C28.4844 41.3697 27.9569 42.4023 28.1514 43.4149C28.8878 47.2507 28.4723 50.4218 25.8145 53.6092C22.7155 57.3255 17.2354 58.1323 13.7334 57.6092C13.1747 57.5259 12.6179 57.8656 12.5088 58.4198C11.7464 62.2988 11.8511 64.9369 12.7559 69.1288C12.8651 69.6343 13.3456 69.9639 13.8535 69.8661C16.5598 69.3448 20.715 68.3304 25.3848 72.8153C28.7931 76.0889 29.1849 79.8513 29.0459 82.0702C28.978 83.1539 29.5716 84.2677 30.6074 84.5936C41.3159 87.9629 51.8154 89.9986 62.4805 90.5643C62.9227 90.5877 63.3564 90.454 63.7334 90.2215C66.6447 88.4257 69.6087 88.4676 72.6289 90.285C72.9921 90.5035 73.4076 90.6272 73.8311 90.6083C83.111 90.1909 92.6105 88.6585 102.565 85.9256C104.684 85.3442 106.602 84.1244 107.753 82.2538C113.829 72.3801 115.26 56.0907 108.658 43.7821C107.603 41.8148 105.774 40.4054 103.655 39.703ZM114.5 82.6366C113.756 81.9494 113 82.1363 112.5 82.6366C112.004 83.1331 110.524 84.6119 110.5 84.6356L109.743 85.3934C109.256 85.8803 108.815 86.4916 108.901 87.1747C108.921 87.3264 108.955 87.4765 109 87.6356C109.5 88.6355 110.175 88.899 111.5 89.1366C113.216 89.4263 113.705 89.4091 115.5 89.1356C116.701 88.9526 117.665 88.4833 118 87.6366C118.064 87.4377 118.106 87.2668 118.126 87.1044C118.203 86.4628 117.762 85.8972 117.305 85.4403L116.5 84.6366L114.5 82.6366ZM9.47266 76.6542C9.32076 76.6733 9.16996 76.7074 9.01074 76.7528C8.01118 77.2528 7.74832 77.9277 7.51074 79.2528C7.22101 80.9682 7.23824 81.4577 7.51172 83.2528C7.6948 84.4542 8.16398 85.4175 9.01074 85.7528C9.20964 85.8168 9.38049 85.8583 9.54297 85.8778C10.1845 85.9548 10.7491 85.5134 11.2061 85.0565L12.0107 84.2528L14.0107 82.2528C14.6979 81.5083 14.5111 80.7528 14.0107 80.2528C13.5125 79.7548 12.0239 78.264 12.0117 78.2518L11.2539 77.495C10.767 77.0082 10.1557 76.568 9.47266 76.6542ZM24.916 76.6483C24.2745 76.5713 23.7098 77.0127 23.2529 77.4696L20.4482 80.2743C19.7612 81.0187 19.948 81.7743 20.4482 82.2743L23.2051 85.0311C23.692 85.5179 24.3032 85.9591 24.9863 85.8729C25.1383 85.8537 25.289 85.8197 25.4482 85.7743C26.4479 85.2743 26.7107 84.5992 26.9482 83.2743C27.238 81.5586 27.2217 81.0685 26.9482 79.2733C26.7652 78.072 26.2948 77.1096 25.4482 76.7743C25.2493 76.7103 25.0785 76.6678 24.916 76.6483ZM121.416 74.6483C120.775 74.5713 120.21 75.0127 119.753 75.4696L116.948 78.2743C116.261 79.0187 116.448 79.7743 116.948 80.2743L119.705 83.0311C120.192 83.5179 120.803 83.9591 121.486 83.8729C121.638 83.8537 121.789 83.8197 121.948 83.7743C122.948 83.2743 123.211 82.5993 123.448 81.2743C123.738 79.5588 123.722 79.0691 123.448 77.2743C123.265 76.0728 122.795 75.1097 121.948 74.7743C121.749 74.7103 121.579 74.6678 121.416 74.6483ZM99 81.9999H38V43.9999H99V81.9999ZM19.1377 71.3475C17.4222 71.0578 16.9328 71.074 15.1377 71.3475C13.9362 71.5306 12.973 72.0007 12.6377 72.8475C12.5737 73.0464 12.5322 73.2172 12.5127 73.3797C12.4358 74.0213 12.8771 74.5859 13.334 75.0428L14.1377 75.8475L16.1377 77.8475C16.8821 78.5346 17.6377 78.3476 18.1377 77.8475C18.6377 77.3472 20.1387 75.8475 20.1387 75.8475L20.8955 75.0907C21.3823 74.6038 21.8225 73.9925 21.7363 73.3094C21.7171 73.1574 21.6832 73.0069 21.6377 72.8475C21.1377 71.8476 20.463 71.5851 19.1377 71.3475ZM17.8164 49.3836C17.072 48.6968 16.3163 48.8834 15.8164 49.3836L13.0596 52.1405C12.5728 52.6273 12.1317 53.2387 12.2178 53.9217C12.237 54.0737 12.2709 54.2243 12.3164 54.3836C12.8164 55.3836 13.4912 55.646 14.8164 55.8836C16.532 56.1734 17.0215 56.1571 18.8164 55.8836C20.018 55.7006 20.9811 55.2305 21.3164 54.3836C21.3804 54.1847 21.4229 54.014 21.4424 53.8514C21.5193 53.2099 21.078 52.6452 20.6211 52.1883L17.8164 49.3836ZM9.17285 41.454C9.02096 41.4731 8.87016 41.5072 8.71094 41.5526C7.71134 42.0526 7.44852 42.7274 7.21094 44.0526C6.92119 45.7681 6.93843 46.2575 7.21191 48.0526C7.39498 49.2541 7.86417 50.2173 8.71094 50.5526C8.90983 50.6166 9.08069 50.6581 9.24316 50.6776C9.88452 50.7545 10.4494 50.314 10.9062 49.8573L13.7109 47.0526C14.3981 46.3081 14.2113 45.5526 13.7109 45.0526C13.2119 44.5539 11.7199 43.0596 11.7119 43.0516L10.9541 42.2948C10.4672 41.808 9.8559 41.3678 9.17285 41.454ZM24.6162 41.4491C23.9749 41.3721 23.41 41.8126 22.9531 42.2694L20.1484 45.0741C19.4613 45.8186 19.6481 46.5741 20.1484 47.0741C20.6488 47.5741 22.1484 49.0751 22.1484 49.0751L22.9053 49.8319C23.3922 50.3187 24.0035 50.7589 24.6865 50.6727C24.8384 50.6535 24.9892 50.6195 25.1484 50.5741C26.148 50.0741 26.4109 49.3992 26.6484 48.0741C26.9382 46.3586 26.9219 45.8692 26.6484 44.0741C26.4654 42.8726 25.9952 41.9094 25.1484 41.5741C24.9495 41.5101 24.7787 41.4686 24.6162 41.4491ZM18.8379 36.1473C17.1224 35.8576 16.633 35.8738 14.8379 36.1473C13.6364 36.3304 12.6732 36.8005 12.3379 37.6473C12.2739 37.8463 12.2324 38.017 12.2129 38.1795C12.1359 38.8211 12.5773 39.3857 13.0342 39.8426L13.8379 40.6473L15.8379 42.6473C16.5823 43.3344 17.3379 43.1475 17.8379 42.6473C18.3379 42.147 19.8389 40.6473 19.8389 40.6473L20.5957 39.8905C21.0825 39.4036 21.5227 38.7923 21.4365 38.1092C21.4173 37.9572 21.3834 37.8067 21.3379 37.6473C20.8379 36.6475 20.1632 36.3849 18.8379 36.1473Z" fill="white"/>
</svg>
