<svg xmlns="http://www.w3.org/2000/svg" width="55" height="55" fill="none" viewBox="0 0 55 55">
  <circle cx="27.5" cy="27.5" r="27.5" fill="#D31C23"/>
  <path fill="#A5070D" d="M9.835 35.176c-1.086 0-1.966-.36-2.64-1.078-.675-.719-1.012-1.657-1.012-2.816v-.506c0-.147.073-.22.22-.22H7.48c.146 0 .22.073.22.22v.44c0 .777.198 1.408.594 1.892.396.47.91.704 1.54.704.616 0 1.13-.227 1.54-.682.41-.455.616-1.056.616-1.804 0-.499-.103-.924-.308-1.276a2.997 2.997 0 0 0-.77-.946c-.308-.279-.829-.697-1.562-1.254a24.697 24.697 0 0 1-1.738-1.386 5.066 5.066 0 0 1-1.056-1.408c-.264-.543-.396-1.18-.396-1.914 0-1.144.33-2.046.99-2.706.66-.675 1.518-1.012 2.574-1.012 1.114 0 2.002.367 2.662 1.1.675.719 1.012 1.68 1.012 2.882v.55c0 .147-.073.22-.22.22h-1.1c-.147 0-.22-.073-.22-.22v-.572c0-.777-.198-1.4-.594-1.87-.382-.484-.895-.726-1.54-.726-.587 0-1.07.213-1.452.638-.382.41-.572.997-.572 1.76 0 .455.08.858.242 1.21.176.337.432.66.77.968.337.308.836.711 1.496 1.21.88.645 1.533 1.173 1.958 1.584.44.396.777.836 1.012 1.32.235.47.352 1.041.352 1.716 0 1.203-.345 2.17-1.034 2.904-.69.719-1.577 1.078-2.662 1.078ZM22.448 19.6c.147 0 .22.073.22.22v.924c0 .147-.073.22-.22.22h-2.904c-.058 0-.088.03-.088.088V34.78c0 .147-.073.22-.22.22h-1.122c-.146 0-.22-.073-.22-.22V21.052c0-.059-.029-.088-.088-.088h-2.728c-.146 0-.22-.073-.22-.22v-.924c0-.147.074-.22.22-.22h7.37ZM30.053 35c-.132 0-.213-.066-.242-.198l-.55-2.728c0-.03-.014-.051-.044-.066-.014-.015-.037-.022-.066-.022H25.17a.195.195 0 0 0-.088.022.094.094 0 0 0-.022.066l-.55 2.728c-.015.132-.095.198-.242.198h-1.122a.238.238 0 0 1-.176-.066c-.03-.044-.037-.103-.022-.176l3.3-14.96c.03-.132.11-.198.242-.198h1.32c.147 0 .227.066.242.198l3.344 14.96v.044c0 .132-.066.198-.198.198h-1.144Zm-4.708-4.378c0 .059.022.088.066.088h3.476c.044 0 .066-.03.066-.088l-1.76-8.646c-.015-.044-.03-.066-.044-.066-.015 0-.03.022-.044.066l-1.76 8.646ZM39.43 35c-.132 0-.22-.059-.264-.176l-2.244-6.798c-.015-.044-.044-.066-.088-.066H34.92c-.06 0-.088.03-.088.088v6.732c0 .147-.074.22-.22.22H33.49c-.147 0-.22-.073-.22-.22V19.82c0-.147.073-.22.22-.22h3.63c1.07 0 1.936.396 2.596 1.188.66.777.99 1.797.99 3.058 0 .953-.206 1.775-.616 2.464-.411.69-.968 1.173-1.672 1.452-.06.015-.081.051-.066.11l2.398 6.886.022.088c0 .103-.066.154-.198.154H39.43Zm-4.51-14.036c-.06 0-.088.03-.088.088v5.566c0 .059.029.088.088.088h1.98c.674 0 1.217-.257 1.628-.77.41-.528.616-1.225.616-2.09 0-.865-.206-1.562-.616-2.09-.411-.528-.954-.792-1.628-.792h-1.98ZM49.777 19.6c.146 0 .22.073.22.22v.924c0 .147-.074.22-.22.22h-2.904c-.06 0-.088.03-.088.088V34.78c0 .147-.074.22-.22.22h-1.122c-.147 0-.22-.073-.22-.22V21.052c0-.059-.03-.088-.088-.088h-2.728c-.147 0-.22-.073-.22-.22v-.924c0-.147.073-.22.22-.22h7.37Z"/>
</svg>
