<svg xmlns="http://www.w3.org/2000/svg" width="1024" height="1024" fill="none" viewBox="0 0 1024 1024">
  <path fill="#C3C6D0" d="M179.5 810.5c-4.284-.246-7.473-1.625-6.5-6l-16-31L279.5 584l65 12s-25.508.119-33.5 2c-7.992 1.881-11.95 3.418-19 7-6.663 3.385-9.807 5.522-16 10.5 0 0-5 4-16.5 20.5s-33 87-52 131c-8.205 19-21 38.5-21 38.5-2.055 3-3.5 5-7 5Zm666.5 0c4.284-.246 7.473-1.625 6.5-6l16-31L746 584l-65 12s25.508.119 33.5 2c7.992 1.881 11.95 3.418 19 7 6.663 3.385 9.807 5.522 16 10.5 0 0 5 4 16.5 20.5s33 87 52 131c8.205 19 21 38.5 21 38.5 2.055 3 3.5 5 7 5Z"/>
  <path fill="#1A1D24" stroke="#000" d="m168.5 232-2 20 122-22.5-2-19.5c-33-10.5-82.5-3.001-118 22Zm686.5 0 2 20-122-22.5 2-19.5c33-10.5 82.5-3.001 118 22Z"/>
  <path fill="#24262C" d="M179 810c-24.949-3.292-36.233-5.611-55-10l10.5-73.5 147.5-380h462l147.5 380L902 800c-18.767 4.389-30.051 6.708-55 10-26.977-66.883-41.471-104.556-75.5-169.5-13.833-20.768-22.008-31.659-42.5-40.5-8.961-3.864-15.147-5.091-29-5-13.479 2.882-59.797 4.101-72 5-12.174.896-114.759-.565-115-.004a.003.003 0 0 1 0 .004v-.004c-.026-.059-1.2-.096-3.293-.115-6.421-.059-21.489.046-38.594.166l-5.683.04c-28.696.198-60.934.391-67.43-.087-12.203-.899-58.521-2.118-72-5-13.853-.091-20.039 1.136-29 5-20.492 8.841-28.667 19.732-42.5 40.5-34.029 64.944-48.523 102.617-75.5 169.5Z"/>
  <path fill="#CACDDB" d="M348 222.5c-21.009.42-32.963 1.675-55 8l3.5 29.5 48.5-3.5 3-34Zm327 .5c21.009.42 32.963 1.675 55 8l-3.5 29.5L678 257l-3-34Z"/>
  <path fill="#2C3160" d="M393.5 422.5c-9-1.5-14.679-4.711-23.5-10.5l-5.5-23.5L513 408v14.5s-109 .75-119.5 0Zm239 0c9-1.5 14.679-4.711 23.5-10.5l5.5-23.5L513 408v14.5s109 .75 119.5 0Z"/>
  <path fill="#3660F7" d="M319.5 257.5c3.512-14.481 8.5-21.5 19-21l25 149L370 412l-8.5-7.5c-7.037-8.322-10.194-13.201-13.5-22.5l-28.5-124.5Z"/>
  <path fill="#D7DBE5" d="M284.5 226.5c-18.272.274-133.675 24.785-132.5 26.5-63.345 124.093-78.227 199.307-95.5 336-4.626 60.09-3 94.5 12 155.5 7.546 25.657 20.5 39.5 42 54.5 10 7 27.5 3.5 33.5-13.5 31.5-96.5 67.5-193 126-292.5 24-35.5 71-79.5 73.5-103 4-38.5-21-130.5-24-142-5-10-16.728-21.775-35-21.5Z"/>
  <path fill="#3660F7" d="M706.5 257.5c-3.512-14.481-8.5-21.5-19-21l-25 149L656 412l8.5-7.5c7.037-8.322 10.194-13.201 13.5-22.5l28.5-124.5Z"/>
  <path fill="#D7DBE5" d="M739.432 226.005c18.272.274 133.675 24.785 132.5 26.5 63.345 124.093 78.227 199.306 95.5 336 4.626 60.089 3 94.5-12 155.5-7.546 25.657-20.5 39.5-42 54.5-10 7-27.5 3.5-33.5-13.5-31.5-96.5-67.5-193-126-292.5-24-35.5-71-79.5-73.5-103-4-38.5 21-130.5 24-142 5-10 16.728-21.775 35-21.5Z"/>
  <path fill="#E6EAF3" d="M330.5 242c0-12 10.5-21.5 21-22.5s95.323-5.53 161-6.5c65.678.97 150.5 5.5 161 6.5s21 10.5 21 22.5c1.749 9.526-26.651 139.308-28.5 140.5-4 12.5-24 27.5-37.5 27.5h-232c-13.5 0-33.5-15-37.5-27.5-1.848-1.192-30.249-130.974-28.5-140.5Z"/>
  <path fill="#E8ECF8" stroke="#7C7F8E" stroke-width="3" d="m202.067 315.103.844 26.598a8.001 8.001 0 0 0 1.904 4.931l15.789 18.553a8 8 0 0 0 6.093 2.815h3.881a3.08 3.08 0 0 0 2.344-1.083l17.263-20.285a8.001 8.001 0 0 0 1.904-4.931l.844-26.598c.044-1.378-.248-2.76-.963-3.939-1.963-3.24-3.967-4.964-7.555-6.568-.926-.414-1.936-.596-2.95-.596h-27.93c-1.014 0-2.024.182-2.95.596-3.588 1.604-5.592 3.328-7.555 6.568-.715 1.179-1.007 2.561-.963 3.939Zm0 128.794.844-26.598a8.001 8.001 0 0 1 1.904-4.931l15.789-18.553a8 8 0 0 1 6.093-2.815h3.881a3.08 3.08 0 0 1 2.344 1.083l17.263 20.285a8.001 8.001 0 0 1 1.904 4.931l.844 26.598c.044 1.378-.248 2.76-.963 3.939-1.963 3.24-3.967 4.964-7.555 6.568-.926.414-1.936.596-2.95.596h-27.93c-1.014 0-2.024-.182-2.95-.596-3.588-1.604-5.592-3.328-7.555-6.568-.715-1.179-1.007-2.561-.963-3.939Zm89.83-38.026-26.598-.845a7.994 7.994 0 0 1-4.931-1.903l-18.553-15.79a8 8 0 0 1-2.815-6.092v-3.881c0-.903.396-1.759 1.083-2.344l20.285-17.264a7.994 7.994 0 0 1 4.931-1.903l26.598-.845c1.378-.043 2.76.248 3.939.963 3.24 1.964 4.964 3.968 6.568 7.555.414.926.596 1.936.596 2.95v27.931c0 1.014-.182 2.024-.596 2.95-1.604 3.587-3.328 5.591-6.568 7.555-1.179.715-2.561 1.006-3.939.963Zm-128.794 0 26.598-.845a7.994 7.994 0 0 0 4.931-1.903l18.553-15.79a8 8 0 0 0 2.815-6.092v-3.881c0-.903-.396-1.759-1.083-2.344l-20.285-17.264a7.994 7.994 0 0 0-4.931-1.903l-26.598-.845c-1.378-.043-2.76.248-3.939.963-3.24 1.964-4.964 3.968-6.568 7.555-.414.926-.596 1.936-.596 2.95v27.931c0 1.014.182 2.024.596 2.95 1.604 3.587 3.328 5.591 6.568 7.555 1.179.715 2.561 1.006 3.939.963Z"/>
  <path fill="#272932" d="M454 514c0 25.035-7.574 50.127-24.5 66-15.559 14.591-39.486 21-62.5 21-48.049 0-87-38.951-87-87s38.951-87 87-87 87 38.951 87 87Z"/>
  <circle cx="365" cy="504" r="69" fill="#1F232C"/>
  <circle cx="365" cy="504" r="60" fill="#1B1E21"/>
  <circle cx="364.5" cy="503.5" r="56.5" fill="#343840"/>
  <circle cx="364.5" cy="503.5" r="33.5" fill="#2E3239"/>
  <path fill="#272932" d="M570 514c0 25.035 7.574 50.127 24.5 66 15.559 14.591 39.486 21 62.5 21 48.049 0 87-38.951 87-87s-38.951-87-87-87-87 38.951-87 87Z"/>
  <circle cx="69" cy="69" r="69" fill="#1F232C" transform="matrix(-1 0 0 1 728 435)"/>
  <circle cx="60" cy="60" r="60" fill="#1B1E21" transform="matrix(-1 0 0 1 719 444)"/>
  <circle cx="56.5" cy="56.5" r="56.5" fill="#343840" transform="matrix(-1 0 0 1 716 447)"/>
  <circle cx="33.5" cy="33.5" r="33.5" fill="#2E3239" transform="matrix(-1 0 0 1 693 470)"/>
  <rect width="19" height="42" x="285.186" y="261.136" fill="#E8ECF8" stroke="#7C7F8E" stroke-width="2" rx="9.5" transform="rotate(-12 285.186 261.136)"/>
  <rect width="19" height="42" x="-1.186" y=".77" fill="#E8ECF8" stroke="#7C7F8E" stroke-width="2" rx="9.5" transform="scale(-1 1) rotate(-12 867.761 3648.013)"/>
  <circle cx="478.5" cy="437.5" r="5.5" fill="#000"/>
  <circle cx="512.5" cy="437.5" r="5.5" fill="#000"/>
  <circle cx="503.5" cy="451.5" r="5.5" fill="#000"/>
  <circle cx="486.5" cy="451.5" r="5.5" fill="#000"/>
  <circle cx="520.5" cy="451.5" r="5.5" fill="#000"/>
  <circle cx="537.5" cy="451.5" r="5.5" fill="#000"/>
  <circle cx="495.5" cy="437.5" r="5.5" fill="#000"/>
  <circle cx="529.5" cy="437.5" r="5.5" fill="#000"/>
  <circle cx="546.5" cy="437.5" r="5.5" fill="#000"/>
  <circle cx="478.5" cy="437.5" r="5.5" fill="#000"/>
  <rect width="45" height="11" x="489" y="548" fill="#E96D2B" stroke="#000" stroke-width="2" rx="5.5"/>
  <path fill="#000" d="M505 594a2 2 0 0 1 2-2h11a2 2 0 0 1 2 2v1h-15v-1Z"/>
  <circle cx="796.5" cy="312.5" r="29.5" fill="#E8ECF8" stroke="#7C7F8E" stroke-width="2"/>
  <circle cx="796.5" cy="446.5" r="29.5" fill="#E8ECF8" stroke="#7C7F8E" stroke-width="2"/>
  <circle cx="729.5" cy="379.5" r="29.5" fill="#E8ECF8" stroke="#7C7F8E" stroke-width="2"/>
  <circle cx="863.5" cy="379.5" r="29.5" fill="#E8ECF8" stroke="#7C7F8E" stroke-width="2"/>
</svg>
