<svg width="624" height="86" viewBox="0 0 624 86" fill="none" xmlns="http://www.w3.org/2000/svg">
<path d="M4.94359 85.24C3.18359 85.24 1.90359 85 1.10359 84.52C0.383594 84.04 0.023594 83.4 0.023594 82.6V4.6C0.023594 2.2 1.26359 0.999994 3.74359 0.999994H21.3836C36.3436 0.999994 43.8236 9.04 43.8236 25.12C43.8236 41.2 36.3436 49.24 21.3836 49.24H10.8236V82.6C10.8236 83.4 10.4636 84.04 9.74359 84.52C9.02359 85 7.7436 85.24 5.9036 85.24H4.94359ZM10.8236 40.12H21.3836C25.4636 40.12 28.3836 38.96 30.1436 36.64C31.9836 34.24 32.9036 30.4 32.9036 25.12C32.9036 19.84 31.9836 16.04 30.1436 13.72C28.3836 11.32 25.4636 10.12 21.3836 10.12H10.8236V40.12ZM62.5717 85C60.0917 85 58.8517 83.8 58.8517 81.4V3.4C58.8517 2.52 59.2117 1.87999 59.9317 1.48C60.7317 0.999997 62.0117 0.759997 63.7717 0.759997H64.7317C66.5717 0.759997 67.8517 0.999997 68.5717 1.48C69.2917 1.87999 69.6517 2.52 69.6517 3.4V75.88H92.0917C93.6917 75.88 94.4917 77.08 94.4917 79.48V81.4C94.4917 83.8 93.6917 85 92.0917 85H62.5717ZM100.338 85.24C97.378 85.24 95.898 84.56 95.898 83.2C95.898 82.96 95.898 82.72 95.898 82.48C95.978 82.24 96.058 81.96 96.138 81.64L118.098 3.04C118.578 1.52 120.178 0.759997 122.898 0.759997H126.738C129.458 0.759997 131.058 1.52 131.538 3.04L153.378 81.64C153.458 81.96 153.538 82.24 153.618 82.48C153.698 82.72 153.738 82.96 153.738 83.2C153.738 84.56 152.258 85.24 149.298 85.24H147.258C146.138 85.24 145.178 85.12 144.378 84.88C143.578 84.56 143.098 84.04 142.938 83.32L137.658 63.4H111.978L106.578 83.32C106.418 84.04 105.938 84.56 105.138 84.88C104.338 85.12 103.378 85.24 102.258 85.24H100.338ZM123.138 21.64L114.258 54.52H135.258L126.498 21.64C126.178 20.52 125.898 19.32 125.658 18.04C125.498 16.68 125.338 15.44 125.178 14.32H124.578C124.338 15.44 124.098 16.68 123.858 18.04C123.698 19.32 123.458 20.52 123.138 21.64ZM190.486 85.72C179.846 85.72 171.966 82.24 166.846 75.28C161.806 68.32 159.286 57.48 159.286 42.76C159.286 28.28 161.886 17.6 167.086 10.72C172.286 3.76 180.126 0.279996 190.606 0.279996C192.926 0.279996 195.126 0.519996 197.206 0.999994C199.366 1.39999 201.206 1.91999 202.726 2.56C204.086 3.03999 204.766 3.91999 204.766 5.2C204.766 6.4 204.526 7.68 204.046 9.04C203.646 10.32 203.006 10.96 202.126 10.96C201.086 10.96 199.686 10.72 197.926 10.24C196.246 9.67999 193.806 9.39999 190.606 9.39999C183.406 9.39999 178.206 12.04 175.006 17.32C171.806 22.52 170.206 31 170.206 42.76C170.206 54.68 171.806 63.32 175.006 68.68C178.206 73.96 183.366 76.6 190.486 76.6C194.246 76.6 197.166 76.2 199.246 75.4C201.326 74.52 202.726 74.08 203.446 74.08C204.326 74.08 205.006 74.76 205.486 76.12C205.966 77.48 206.206 78.84 206.206 80.2C206.206 80.6 206.086 81.04 205.846 81.52C205.606 81.92 205.086 82.32 204.286 82.72C202.606 83.52 200.566 84.24 198.166 84.88C195.846 85.44 193.286 85.72 190.486 85.72ZM221.83 85C219.35 85 218.11 83.8 218.11 81.4V4.6C218.11 2.2 219.35 0.999994 221.83 0.999994H255.79C257.39 0.999994 258.19 2.2 258.19 4.6V6.51999C258.19 8.92 257.39 10.12 255.79 10.12H228.91V37.48H253.03C254.63 37.48 255.43 38.68 255.43 41.08V43C255.43 45.4 254.63 46.6 253.03 46.6H228.91V75.88H255.79C257.39 75.88 258.19 77.08 258.19 79.48V81.4C258.19 83.8 257.39 85 255.79 85H221.83ZM274.123 85.24C272.363 85.24 271.083 85 270.283 84.52C269.563 84.04 269.203 83.4 269.203 82.6V3.4C269.203 2.52 269.563 1.87999 270.283 1.48C271.083 0.999997 272.363 0.759997 274.123 0.759997H275.083C276.923 0.759997 278.203 0.999997 278.923 1.48C279.643 1.87999 280.003 2.52 280.003 3.4V37.36H308.443V3.4C308.443 2.52 308.803 1.87999 309.523 1.48C310.323 0.999997 311.603 0.759997 313.363 0.759997H314.323C316.163 0.759997 317.443 0.999997 318.163 1.48C318.883 1.87999 319.243 2.52 319.243 3.4V82.6C319.243 83.4 318.883 84.04 318.163 84.52C317.443 85 316.163 85.24 314.323 85.24H313.363C311.603 85.24 310.323 85 309.523 84.52C308.803 84.04 308.443 83.4 308.443 82.6V46.48H280.003V82.6C280.003 83.4 279.643 84.04 278.923 84.52C278.203 85 276.923 85.24 275.083 85.24H274.123ZM364.25 85.72C354.57 85.72 347.13 82.2 341.93 75.16C336.73 68.12 334.13 57.32 334.13 42.76C334.13 28.2 336.73 17.48 341.93 10.6C347.13 3.72 354.57 0.279996 364.25 0.279996C373.93 0.279996 381.33 3.72 386.45 10.6C391.65 17.48 394.25 28.2 394.25 42.76C394.25 57.32 391.65 68.12 386.45 75.16C381.33 82.2 373.93 85.72 364.25 85.72ZM364.25 76.6C370.81 76.6 375.61 73.88 378.65 68.44C381.77 62.92 383.33 54.36 383.33 42.76C383.33 31.32 381.77 22.92 378.65 17.56C375.61 12.12 370.81 9.39999 364.25 9.39999C357.69 9.39999 352.85 12.12 349.73 17.56C346.61 22.92 345.05 31.32 345.05 42.76C345.05 54.36 346.61 62.92 349.73 68.44C352.85 73.88 357.69 76.6 364.25 76.6ZM412.728 85C410.248 85 409.008 83.8 409.008 81.4V3.4C409.008 2.52 409.368 1.87999 410.088 1.48C410.888 0.999997 412.168 0.759997 413.928 0.759997H414.888C416.728 0.759997 418.008 0.999997 418.728 1.48C419.448 1.87999 419.808 2.52 419.808 3.4V75.88H442.248C443.848 75.88 444.648 77.08 444.648 79.48V81.4C444.648 83.8 443.848 85 442.248 85H412.728ZM459.134 85C456.654 85 455.414 83.8 455.414 81.4V4.6C455.414 2.2 456.654 0.999994 459.134 0.999994H477.734C487.414 0.999994 494.814 4.4 499.934 11.2C505.134 17.92 507.734 28.44 507.734 42.76C507.734 57.08 505.134 67.72 499.934 74.68C494.814 81.56 487.414 85 477.734 85H459.134ZM466.214 75.88H477.734C484.294 75.88 489.094 73.2 492.134 67.84C495.254 62.48 496.814 54.12 496.814 42.76C496.814 31.56 495.254 23.32 492.134 18.04C489.094 12.76 484.294 10.12 477.734 10.12H466.214V75.88ZM526.283 85C523.803 85 522.563 83.8 522.563 81.4V4.6C522.563 2.2 523.803 0.999994 526.283 0.999994H560.243C561.843 0.999994 562.643 2.2 562.643 4.6V6.51999C562.643 8.92 561.843 10.12 560.243 10.12H533.363V37.48H557.483C559.083 37.48 559.883 38.68 559.883 41.08V43C559.883 45.4 559.083 46.6 557.483 46.6H533.363V75.88H560.243C561.843 75.88 562.643 77.08 562.643 79.48V81.4C562.643 83.8 561.843 85 560.243 85H526.283ZM578.576 85.24C576.816 85.24 575.536 85 574.736 84.52C574.016 84.04 573.656 83.4 573.656 82.6V4.6C573.656 2.2 574.896 0.999994 577.376 0.999994H594.656C609.856 0.999994 617.456 9.04 617.456 25.12C617.456 29.76 616.616 33.84 614.936 37.36C613.256 40.8 610.296 43.08 606.056 44.2V44.68C608.136 45.72 609.856 47.16 611.216 49C612.576 50.84 613.776 53.36 614.816 56.56L622.376 80.2C622.536 80.84 622.696 81.48 622.856 82.12C623.016 82.68 623.096 83.12 623.096 83.44C623.096 84.24 622.736 84.76 622.016 85C621.296 85.16 620.136 85.24 618.536 85.24H616.736C614.096 85.24 612.536 84.44 612.056 82.84L604.736 59.8C603.296 55.16 601.656 52.04 599.816 50.44C598.056 48.84 595.456 48.04 592.016 48.04H584.456V82.6C584.456 83.4 584.096 84.04 583.376 84.52C582.656 85 581.376 85.24 579.536 85.24H578.576ZM584.456 38.92H595.016C599.096 38.92 602.016 37.84 603.776 35.68C605.616 33.52 606.536 30 606.536 25.12C606.536 19.84 605.616 16.04 603.776 13.72C602.016 11.32 599.096 10.12 595.016 10.12H584.456V38.92Z" fill="black"/>
</svg>
